<?xml version="1.0" encoding="UTF-8" standalone="no"?>
<!-- Created with Inkscape (http://www.inkscape.org/) -->

<svg
   width="2000"
   height="2000"
   viewBox="0 0 529.16667 529.16667"
   version="1.1"
   id="svg1"
   inkscape:version="1.3.2 (091e20ef0f, 2023-11-25, custom)"
   sodipodi:docname="foss_forever.svg"
   inkscape:export-filename="rust.png"
   inkscape:export-xdpi="1500"
   inkscape:export-ydpi="1500"
   xml:space="preserve"
   xmlns:inkscape="http://www.inkscape.org/namespaces/inkscape"
   xmlns:sodipodi="http://sodipodi.sourceforge.net/DTD/sodipodi-0.dtd"
   xmlns="http://www.w3.org/2000/svg"
   xmlns:svg="http://www.w3.org/2000/svg"><sodipodi:namedview
     id="namedview1"
     pagecolor="#505050"
     bordercolor="#ffffff"
     borderopacity="1"
     inkscape:showpageshadow="0"
     inkscape:pageopacity="0"
     inkscape:pagecheckerboard="1"
     inkscape:deskcolor="#524b4b"
     inkscape:document-units="mm"
     inkscape:zoom="0.24484446"
     inkscape:cx="565.66525"
     inkscape:cy="972.04569"
     inkscape:window-width="1920"
     inkscape:window-height="1048"
     inkscape:window-x="0"
     inkscape:window-y="32"
     inkscape:window-maximized="1"
     inkscape:current-layer="layer1"
     showguides="true" /><defs
     id="defs1"><inkscape:path-effect
       effect="simplify"
       id="path-effect10"
       is_visible="true"
       lpeversion="1.3"
       threshold="10.8696"
       steps="1"
       smooth_angles="360"
       helper_size="0"
       simplify_individual_paths="false"
       simplify_just_coalesce="false" /><inkscape:path-effect
       effect="skeletal"
       id="path-effect9"
       is_visible="true"
       lpeversion="1"
       pattern="M 0,4.9921384 C 0,2.236478 2.236478,0 4.9921384,0 c 2.7556604,0 4.9921384,2.236478 4.9921384,4.9921384 0,2.7556604 -2.236478,4.9921384 -4.9921384,4.9921384 C 2.236478,9.9842768 0,7.7477988 0,4.9921384 Z"
       copytype="single_stretched"
       prop_scale="5.5"
       scale_y_rel="false"
       spacing="0"
       normal_offset="0"
       tang_offset="0"
       prop_units="false"
       vertical_pattern="false"
       hide_knot="false"
       fuse_tolerance="0" /><inkscape:path-effect
       effect="simplify"
       id="path-effect8"
       is_visible="true"
       lpeversion="1.3"
       threshold="10.8696"
       steps="1"
       smooth_angles="360"
       helper_size="0"
       simplify_individual_paths="false"
       simplify_just_coalesce="false" /><inkscape:path-effect
       effect="skeletal"
       id="path-effect7"
       is_visible="true"
       lpeversion="1"
       pattern="M 0,4.9921384 C 0,2.236478 2.236478,0 4.9921384,0 c 2.7556604,0 4.9921384,2.236478 4.9921384,4.9921384 0,2.7556604 -2.236478,4.9921384 -4.9921384,4.9921384 C 2.236478,9.9842768 0,7.7477988 0,4.9921384 Z"
       copytype="single_stretched"
       prop_scale="5.5"
       scale_y_rel="false"
       spacing="0"
       normal_offset="0"
       tang_offset="0"
       prop_units="false"
       vertical_pattern="false"
       hide_knot="false"
       fuse_tolerance="0" /><inkscape:path-effect
       effect="simplify"
       id="path-effect6"
       is_visible="true"
       lpeversion="1.3"
       threshold="0.00108696"
       steps="1"
       smooth_angles="360"
       helper_size="0"
       simplify_individual_paths="false"
       simplify_just_coalesce="false" /><inkscape:path-effect
       effect="bspline"
       id="path-effect4"
       is_visible="true"
       lpeversion="1.3"
       weight="33.333333"
       steps="2"
       helper_size="0"
       apply_no_weight="true"
       apply_with_weight="true"
       only_selected="false"
       uniform="false" /><inkscape:path-effect
       effect="bspline"
       id="path-effect3"
       is_visible="true"
       lpeversion="1.3"
       weight="33.333333"
       steps="2"
       helper_size="0"
       apply_no_weight="true"
       apply_with_weight="true"
       only_selected="false"
       uniform="false" /><inkscape:path-effect
       effect="bspline"
       id="path-effect2"
       is_visible="true"
       lpeversion="1.3"
       weight="33.333333"
       steps="2"
       helper_size="0"
       apply_no_weight="true"
       apply_with_weight="true"
       only_selected="false"
       uniform="false" /><linearGradient
       id="deviconNodejs0"
       x1="34.513"
       x2="27.157"
       y1="15.535"
       y2="30.448"
       gradientTransform="matrix(1.6365088,0,0,1.6365088,290.58155,21.983)"
       gradientUnits="userSpaceOnUse"><stop
         stop-color="#3F873F"
         id="stop3" /><stop
         offset=".33"
         stop-color="#3F8B3D"
         id="stop4" /><stop
         offset=".637"
         stop-color="#3E9638"
         id="stop5" /><stop
         offset=".934"
         stop-color="#3DA92E"
         id="stop6" /><stop
         offset="1"
         stop-color="#3DAE2B"
         id="stop7" /></linearGradient><linearGradient
       id="deviconNodejs1"
       x1="30.009001"
       x2="50.533001"
       y1="23.358999"
       y2="8.2880001"
       gradientTransform="matrix(1.6365088,0,0,1.6365088,290.58155,21.983)"
       gradientUnits="userSpaceOnUse"><stop
         offset=".138"
         stop-color="#3F873F"
         id="stop8" /><stop
         offset=".402"
         stop-color="#52A044"
         id="stop9" /><stop
         offset=".713"
         stop-color="#64B749"
         id="stop10" /><stop
         offset=".908"
         stop-color="#6ABF4B"
         id="stop11" /></linearGradient><linearGradient
       id="deviconNodejs2"
       x1="21.917"
       x2="40.555"
       y1="22.261"
       y2="22.261"
       gradientTransform="matrix(1.6365088,0,0,1.6365088,290.58155,21.983)"
       gradientUnits="userSpaceOnUse"><stop
         offset=".092"
         stop-color="#6ABF4B"
         id="stop12" /><stop
         offset=".287"
         stop-color="#64B749"
         id="stop13" /><stop
         offset=".598"
         stop-color="#52A044"
         id="stop14" /><stop
         offset=".862"
         stop-color="#3F873F"
         id="stop15" /></linearGradient><clipPath
       clipPathUnits="userSpaceOnUse"
       id="clipPath40"><path
         style="stroke-width:0.172619"
         d="m 348.67952,70.223354 c 0.46606,0 0.88035,-0.241647 1.10476,-0.638688 l 6.09343,-10.58154 c 0.10353,-0.172603 0.15539,-0.379772 0.17261,-0.586901 v -0.103563 c 0,-0.207127 -0.069,-0.397034 -0.17261,-0.586904 l -6.09343,-10.564284 c -0.22443,-0.397034 -0.65596,-0.638683 -1.10476,-0.638683 l -16.39881,0.01744 c -0.22439,0 -0.43155,0.120825 -0.55238,0.310732 -0.12082,0.189905 -0.12082,0.431549 0,0.638691 l 3.60774,6.283333 c 0.24165,0.397034 0.65595,0.638688 1.10476,0.638688 h 7.66428 c 0.44881,0 0.88035,0.241647 1.10475,0.638694 l 1.53632,2.675557 c 0.12083,0.207126 0.17261,0.414292 0.17261,0.638693 0,0.224385 -0.0518,0.448805 -0.17261,0.638688 l -1.53632,2.675594 c -0.22438,0.397034 -0.65594,0.638688 -1.10475,0.638688 h -7.66428 c -0.44881,0 -0.88036,0.241647 -1.10476,0.638691 l -3.60774,6.28332 c -0.12082,0.189865 -0.12082,0.448807 0,0.638688 0.10352,0.189868 0.32799,0.310732 0.55238,0.310732 z"
         id="path41" /></clipPath></defs><g
     inkscape:label="Layer 1"
     inkscape:groupmode="layer"
     id="layer1"><path
       style="fill:#ffffff;fill-opacity:1;stroke-width:1.24156"
       d="m 391.8458,495.2466 c 0.12137,-1.30989 0.65382,-6.36716 1.18304,-11.23837 0.52926,-4.87122 0.96229,-8.98429 0.96229,-9.14016 0,-0.52234 3.76107,-4.26404 5.23811,-5.21111 2.22432,-1.42628 2.44943,-1.3125 2.20958,1.11663 -1.62964,16.505 -2.17434,20.67171 -2.84407,21.75532 -1.08528,1.75602 -5.35916,5.09481 -6.52582,5.09804 -0.35243,9.7e-4 -0.39848,-0.48951 -0.22328,-2.38035 z m -190.86589,-0.53413 c -1.89283,-0.49094 -4.17138,-1.84206 -5.26903,-3.12441 -3.12224,-3.6476 -2.14447,-7.64067 3.15339,-12.87801 4.57017,-4.51801 9.06554,-7.28797 13.79684,-8.50143 4.02551,-1.03242 12.36002,-1.01849 15.84993,0.0272 0.54194,0.16221 0.57489,-0.73636 0.57489,-15.68449 V 438.6947 l -1.23185,1.16651 c -1.65353,1.56576 -3.36088,2.78058 -4.31737,3.07194 -0.76628,0.23339 -0.78164,0.20072 -0.61243,-1.30063 0.23806,-2.11222 1.97557,-4.53478 5.29008,-7.37585 4.13252,-3.54227 7.48286,-5.98069 8.06405,-5.86913 0.45275,0.0867 0.53996,0.83438 0.61776,5.29541 0.0544,3.10947 0.21627,5.15136 0.40388,5.08753 1.26671,-0.43135 6.61608,-4.71675 8.24626,-6.60611 2.79377,-3.23804 5.62091,-5.49073 6.89089,-5.49073 0.42532,0 0.27152,5.08754 -0.41011,13.56796 -0.3816,4.74623 -0.18438,6.14186 0.8678,6.14186 0.86441,0 0.55435,0.63852 -1.22486,2.52237 -3.26678,3.4589 -5.79534,4.70017 -6.95791,3.41557 -0.59905,-0.66199 -0.60348,-0.93358 -0.13537,-8.32071 0.26607,-4.20001 0.43073,-7.74379 0.36565,-7.87508 -0.065,-0.13109 -1.22563,0.64153 -2.57944,1.71736 -1.3538,1.07579 -3.1211,2.40987 -3.92733,2.96458 l -1.46583,1.00849 v 16.09687 c 0,13.38019 -0.0797,16.25152 -0.47383,17.01313 -0.57578,1.11345 -4.12365,4.44803 -5.4773,5.14806 -1.15227,0.59585 -1.43339,0.52607 -5.382,-1.3358 -4.4075,-2.07822 -6.53827,-2.56663 -11.33313,-2.59764 -4.62887,-0.0311 -8.34704,0.52351 -10.51986,1.56585 -3.75139,1.79966 -2.60072,7.0603 2.06982,9.4627 0.93482,0.48083 2.20348,0.76239 3.88924,0.86309 l 2.50184,0.14938 0.21666,-1.15577 c 0.16299,-0.86971 0.80619,-1.71292 2.59792,-3.40674 2.60729,-2.46481 3.85653,-3.26344 4.63653,-2.96411 0.37927,0.14548 0.45789,0.47095 0.30809,1.2755 -0.37927,2.03656 -1.88832,4.24988 -4.72908,6.93652 -2.94237,2.78284 -5.55063,4.5503 -7.91892,5.36624 -1.6869,0.58119 -5.01837,0.83186 -6.37599,0.47971 z m 124.59475,-5.07559 c -2.68388,-0.83481 -4.83823,-3.53164 -4.83823,-6.05647 0,-2.13003 1.49466,-4.56068 4.91108,-7.98644 6.13684,-6.15368 10.91415,-8.32421 18.24791,-8.2908 4.78404,0.0233 8.25839,0.81008 12.02172,2.72757 l 2.57364,1.31136 0.0934,-7.96287 c 0.0514,-4.37957 0.0529,-13.38229 0.004,-20.00611 l -0.0899,-12.04327 -3.19502,1.66597 c -3.84587,2.00537 -3.54149,1.76696 -3.03498,2.37728 0.34698,0.41825 0.26996,0.71734 -0.45605,1.76481 -0.99356,1.43375 -3.78547,3.81663 -5.36341,4.57773 -0.97555,0.47056 -1.1108,0.46589 -1.69005,-0.0584 -0.77701,-0.70318 -1.06058,-2.04248 -0.65716,-3.10353 0.46275,-1.21711 4.74561,-5.47415 7.16735,-7.12417 1.18428,-0.80692 3.57981,-2.04827 5.32338,-2.7586 1.74357,-0.71034 3.74123,-1.65205 4.43928,-2.0927 2.18566,-1.37975 4.72052,-2.56508 5.04999,-2.36148 0.18594,0.11475 0.31625,2.9624 0.31625,6.91022 0,3.69312 0.11203,6.7148 0.24935,6.7148 0.13692,0 3.50002,-3.2599 7.47329,-7.24417 6.29021,-6.30764 10.36924,-9.83766 11.36774,-9.83766 0.5803,0 0.25635,0.98162 -1.64123,4.97099 -1.06276,2.23444 -2.16885,4.95018 -2.45803,6.03496 -0.74776,2.80505 -1.1504,7.50632 -0.86531,10.10217 0.40144,3.65445 2.58271,6.15317 5.37383,6.15586 1.06494,10e-4 1.55775,-0.26374 3.07832,-1.65337 3.35049,-3.06217 5.22582,-3.38029 3.36488,-0.57081 -2.10689,3.18082 -8.06529,8.03231 -10.79694,8.79108 -3.42191,0.95054 -6.48903,-0.54004 -8.03865,-3.9066 -0.59659,-1.29615 -0.69046,-2.08938 -0.66471,-5.61554 0.0311,-4.27797 0.68171,-7.6993 2.08698,-10.97763 0.35476,-0.82789 0.53755,-1.50524 0.40595,-1.50524 -0.13148,0 -2.2004,1.96522 -4.5974,4.36712 l -4.3581,4.36712 0.0156,19.42425 0.0156,19.42425 -2.12938,2.10853 c -1.17113,1.15966 -2.81543,2.46422 -3.65398,2.89895 -1.48816,0.77153 -1.5336,0.7753 -1.89956,0.15754 -0.73531,-1.24092 -3.98606,-4.6468 -5.77892,-6.05471 -2.23546,-1.75544 -5.34353,-3.34828 -8.39287,-4.30115 -4.16465,-1.30137 -11.90027,-1.2694 -14.82074,0.0611 -1.02507,0.46706 -1.54449,2.3085 -1.10255,3.909 0.67746,2.45349 3.87115,4.55466 6.92294,4.55466 1.08147,0 2.74005,-0.92965 3.58016,-2.00673 0.55174,-0.70738 3.45637,-2.2237 3.73189,-1.94818 1.17538,1.17538 -7.68548,9.2013 -11.25241,10.1921 -1.5516,0.431 -4.4807,0.38082 -6.03706,-0.10308 z m -155.07058,-6.35303 c -0.12059,-0.12059 -0.219,-0.83664 -0.219,-1.59156 0,-2.08795 -2.36526,-5.51635 -7.33567,-10.63283 -5.79234,-5.96264 -13.5464,-10.68448 -21.40779,-13.03628 -2.36312,-0.70695 -3.61571,-0.88344 -6.24143,-0.87943 -4.30053,0.008 -5.7021,0.479 -6.56994,2.2146 -0.95244,1.90496 -0.91654,6.05958 0.0685,7.91503 1.94266,3.65927 6.71258,5.772 11.47706,5.08341 2.33596,-0.33765 2.87931,-0.58839 5.48671,-2.53229 1.05677,-0.78787 2.20624,-1.4325 2.55431,-1.4325 0.59138,0 0.60083,0.0618 0.14431,0.94486 -0.6614,1.27904 -4.41706,4.675 -7.31014,6.61004 -3.72338,2.49032 -5.57992,3.09808 -9.46415,3.09808 -4.16465,0 -6.40294,-0.79514 -8.57335,-3.04557 -2.21231,-2.29388 -2.83178,-3.92651 -2.70232,-7.12246 0.15754,-3.89018 1.42985,-6.28578 5.50492,-10.36551 5.42688,-5.43311 9.69446,-7.76068 14.84143,-8.09459 4.88911,-0.31703 10.08529,1.11956 17.04476,4.71294 3.60587,1.86178 5.50597,3.17241 9.86457,6.80434 l 2.6183,2.18181 v -11.29376 -11.29377 l -1.06759,-0.18632 c -3.00553,-0.52436 -8.10816,-0.93265 -9.65751,-0.77273 -1.33101,0.13731 -2.0895,0.44846 -3.15145,1.2925 -1.72466,1.3708 -3.07333,2.22137 -3.52219,2.22137 -0.88499,0 -0.1097,-1.21393 2.37004,-3.71105 4.82928,-4.86305 7.8566,-6.45172 12.31864,-6.46456 l 2.71006,-0.008 0.008,-13.55049 c 0.008,-12.47704 0.0552,-13.65455 0.61429,-14.86443 1.01363,-2.19402 6.001,-6.73421 7.39744,-6.73421 0.2898,0 0.59274,0.38934 0.70275,0.90336 0.57364,2.68108 2.03384,5.59672 3.71867,7.42521 1.28297,1.39239 4.04811,3.07108 6.36798,3.86594 2.43053,0.83275 8.89586,1.20875 11.74001,0.68268 0.9927,-0.1836 1.91698,-0.26451 2.05399,-0.17971 0.40175,0.24817 -0.37616,1.41989 -1.97331,2.9722 -2.27852,2.21448 -4.04127,3.29316 -7.20415,4.40835 -5.08796,1.79403 -6.99794,2.92455 -9.99418,5.9157 -1.52959,1.52702 -3.37543,3.02774 -4.15069,3.37465 l -1.39609,0.62475 v 3.04281 3.0428 l 2.54583,0.25868 c 1.40021,0.14237 3.56595,0.24 4.81275,0.21705 2.22969,-0.0408 2.28967,-0.0654 3.65079,-1.48582 2.96606,-3.09536 5.6415,-4.73305 18.06255,-11.05656 l 4.59896,-2.3413 0.74963,0.90853 c 2.98118,3.61314 5.25884,5.08419 8.53037,5.50932 1.6403,0.21316 2.24887,0.78517 1.39613,1.31222 -0.21045,0.13031 -0.32831,5.20458 -0.32831,14.14471 v 13.94174 h 1.25924 c 0.69256,0 1.35388,0.0945 1.46957,0.21044 0.4014,0.4014 -0.93226,2.16521 -2.85982,3.7822 -2.42443,2.03388 -3.24127,2.45663 -5.29351,2.73986 -2.70076,0.37265 -4.10404,0.81602 -7.55108,2.38564 -4.00657,1.82437 -5.5469,2.84064 -8.60923,5.68024 -2.26583,2.10105 -4.53345,3.53997 -4.93917,3.13425 -0.33142,-0.33142 0.50873,-1.78138 1.91656,-3.30872 0.74714,-0.81054 1.28141,-1.67433 1.18736,-1.91955 -0.23768,-0.61892 -3.16285,-2.50716 -6.39517,-4.12789 l -2.7143,-1.361 -1.55355,0.82699 c -2.95621,1.57374 -3.15067,0.92926 -0.54416,-1.80344 1.73673,-1.82075 1.85144,-2.04562 2.12448,-4.16395 0.29796,-2.31274 0.43255,-21.55285 0.15248,-21.8328 -0.0867,-0.0868 -1.09937,0.76141 -2.25051,1.88454 -2.63895,2.57489 -4.16348,3.35396 -7.09686,3.62656 l -2.32095,0.21589 v 17.37945 c 0,14.38713 -0.0805,17.5322 -0.46698,18.26653 -0.57629,1.0947 -3.19249,3.62524 -4.94734,4.78541 -1.33549,0.88293 -1.86234,1.03409 -2.25063,0.64584 z m 40.43244,-22.37047 3.36706,-1.72525 v -12.75454 -12.7545 l -1.88886,-0.52701 c -2.40727,-0.67167 -4.77393,-2.24245 -6.10299,-4.05064 -0.57298,-0.77957 -1.26352,-1.42106 -1.53453,-1.42557 -0.27113,-0.004 -1.97098,0.78677 -3.77772,1.75847 l -3.28495,1.76668 -0.18827,11.28645 c -0.11164,6.69893 -0.33142,11.68699 -0.54066,12.27192 -0.19372,0.54202 -0.45193,1.22937 -0.57345,1.52745 -0.16999,0.41692 0.0685,0.63612 1.03339,0.94988 1.72595,0.56127 5.13227,2.43235 7.49581,4.11746 1.08404,0.77289 2.1188,1.37808 2.29948,1.34486 0.1805,-0.035 1.8437,-0.8368 3.69561,-1.78566 z m -25.57618,-40.65117 c 0.90623,-0.69108 1.57187,-1.3792 1.47925,-1.52908 -0.0926,-0.14976 -0.64016,-0.2758 -1.21672,-0.27969 -0.88815,-0.008 -4.93832,-1.24694 -6.87903,-2.10778 -0.53521,-0.23729 -0.57481,0.13809 -0.57396,5.44669 l 9e-4,5.70171 2.77097,-2.98769 c 1.52399,-1.64325 3.51236,-3.55319 4.41859,-4.24427 z m 120.70277,60.29753 c -4.04106,-0.96251 -7.2048,-4.86814 -10.14884,-12.52861 -1.35159,-3.51686 -8.25396,-23.8654 -9.6644,-28.4912 -0.51401,-1.68581 -1.0127,-3.1432 -1.10816,-3.23866 -0.0957,-0.0953 -0.6258,0.1486 -1.17852,0.54198 -0.78393,0.55824 -0.9626,0.88426 -0.81249,1.48249 0.23846,0.95011 -1.42627,2.90486 -4.25159,4.9923 -2.21709,1.63804 -3.02284,1.76886 -3.56506,0.57886 -0.55626,-1.22085 0.28747,-2.58725 3.49357,-5.65873 3.20174,-3.06719 11.93314,-9.04489 12.97513,-8.88303 0.62394,0.0969 1.34751,2.01334 6.07444,16.08862 2.95139,8.78827 5.46742,16.14249 5.59116,16.34271 0.1237,0.20033 0.35087,0.36409 0.50476,0.36409 0.6551,0 5.11378,-7.81583 7.40214,-12.9756 1.90395,-4.29302 5.09072,-12.74077 5.09072,-13.49491 0,-0.0587 -0.67089,-0.40373 -1.49088,-0.76642 -1.33031,-0.58847 -4.66221,-2.74861 -7.60905,-4.93315 l -1.05175,-0.77969 -1.93317,1.78979 c -1.91201,1.77018 -3.91737,3.00623 -4.39665,2.71002 -0.48157,-0.29758 -0.94707,-2.63234 -1.1483,-5.7592 l -0.20383,-3.16623 1.59797,-1.70837 c 1.8581,-1.98642 5.07501,-4.59717 6.67077,-5.41367 l 1.11127,-0.56858 2.50218,2.44025 c 4.49436,4.38315 8.76945,7.52164 12.19284,8.95122 1.90679,0.79623 2.15816,1.02476 1.7149,1.55888 -0.19761,0.23846 -0.86955,1.83367 -1.49275,3.54527 -5.05661,13.88677 -9.42894,21.7899 -16.85225,30.46104 l -1.19673,1.39788 1.58471,2.62141 c 2.24926,3.72074 5.19595,5.91593 7.94105,5.91593 1.19008,0 1.70655,-0.24779 3.45409,-1.6564 1.92943,-1.55538 3.34045,-2.25907 3.73625,-1.86331 0.31353,0.31353 -1.55954,2.99504 -3.4428,4.92886 -4.1438,4.2551 -8.36505,6.06157 -12.09076,5.17416 z m -45.93428,-11.19729 c -2.52941,-0.70325 -5.89239,-1.60828 -7.47329,-2.01116 -2.26252,-0.5766 -2.87433,-0.85694 -2.87433,-1.3172 0,-0.64829 3.16716,-3.91122 4.64214,-4.78256 l 0.94229,-0.55661 v -18.3683 c 0,-17.92376 0.0156,-18.39463 0.67109,-19.4542 0.7942,-1.28499 5.47492,-5.43152 6.98055,-6.18387 l 1.05351,-0.52642 2.38789,2.46317 c 1.31331,1.35478 2.46515,2.46321 2.55956,2.46321 0.0945,0 0.49814,0.3108 0.89709,0.69049 0.39899,0.37966 1.24279,1.08109 1.87513,1.5585 0.63235,0.4774 1.22365,0.94699 1.31397,1.04358 0.55369,0.59193 5.21793,2.37879 6.95932,2.66606 3.41701,0.56377 3.55258,0.60543 3.55258,1.09159 0,1.04102 -3.83608,4.54524 -8.16064,7.45462 -4.66618,3.13919 -10.70211,7.89134 -11.80657,9.2954 -0.58317,0.74142 -0.64386,1.43215 -0.70011,7.96917 -0.035,3.93659 -0.14392,7.49002 -0.24467,7.89656 -0.10075,0.40649 -0.0903,0.73908 0.0233,0.73908 0.11319,0 1.34879,0.31197 2.74569,0.6933 1.3969,0.38121 3.32183,0.88063 4.27765,1.10967 l 1.73786,0.41641 3.48866,-2.91641 c 1.91878,-1.60401 3.61279,-2.91642 3.76446,-2.91642 0.51016,0 0.26724,-0.4855 -0.88157,-1.76089 -0.62814,-0.69746 -1.14212,-1.47404 -1.14212,-1.72568 0,-0.67357 4.1151,-4.55208 5.74999,-5.41942 l 1.40966,-0.74783 1.92251,1.75139 c 2.86188,2.60717 2.86251,2.68167 0.0451,5.42218 -1.42534,1.38644 -3.69043,3.09664 -5.60119,4.22899 -2.1526,1.2757 -4.36813,2.9941 -6.73417,5.22322 -3.77095,3.55273 -6.97604,5.85512 -8.09385,5.81424 -0.37849,-0.0117 -2.75771,-0.60056 -5.28712,-1.30386 z m 4.58332,-28.19156 c 0.55062,-0.51774 2.62717,-2.23837 4.61456,-3.82358 1.98743,-1.58522 3.61349,-3.04028 3.61349,-3.23349 0,-0.32753 -0.96563,-0.6551 -3.24733,-1.10158 -0.52129,-0.10192 -2.12899,-0.99438 -3.57261,-1.98308 -2.03901,-1.39643 -2.68777,-1.69821 -2.90697,-1.35228 -0.31819,0.50195 -0.39128,10.55406 -0.0852,11.69629 0.25401,0.94777 0.37771,0.93198 1.58404,-0.20228 z m 130.39966,24.01827 c 0.10814,-0.85819 1.08042,-10.6515 2.16037,-21.7629 1.08,-11.11136 2.10903,-21.45902 2.2868,-22.99472 0.17777,-1.53574 0.56031,-5.2313 0.8501,-8.21241 0.2898,-2.98111 0.59718,-5.76893 0.68315,-6.19511 0.30614,-1.51803 5.55269,-6.28776 6.91629,-6.28776 0.57867,0 0.56812,2.11276 -0.0389,7.65324 -0.26101,2.38529 -0.70885,6.77594 -0.99527,9.75705 -0.53571,5.57607 -1.37854,13.98508 -2.46943,24.63724 -0.34231,3.34244 -0.8627,8.5902 -1.15643,11.66163 -0.63989,6.69114 -0.83559,7.52802 -2.12572,9.08982 -1.32062,1.59879 -4.82928,4.21428 -5.65335,4.21428 -0.59037,0 -0.63577,-0.15443 -0.45847,-1.56036 z m -61.23555,-5.15175 c -0.81303,-0.24429 -2.14341,-0.69443 -2.95644,-1.00009 -1.49707,-0.56287 -2.5908,-0.72512 -7.47228,-1.10863 l -2.70909,-0.21278 0.64296,-1.05416 c 0.3536,-0.57979 1.6065,-1.83631 2.78413,-2.79222 l 2.14116,-1.73805 0.008,-17.94414 c 0.004,-9.86924 0.0992,-18.40498 0.212,-18.96831 0.24779,-1.23859 3.07933,-4.14552 5.82762,-5.98268 1.05946,-0.7082 2.05065,-1.28764 2.20266,-1.28764 0.1521,0 1.11617,0.81988 2.14256,1.82196 4.09892,4.00185 7.79958,6.30608 12.94554,8.06062 4.0068,1.36614 4.08537,1.42877 3.3636,2.68011 -0.81069,1.40558 -10.76956,9.83275 -15.93434,13.48359 l -2.88009,2.0359 0.0879,7.71427 0.0879,7.7143 1.64252,0.37538 c 0.90335,0.20655 2.5617,0.6903 3.68518,1.07513 1.12352,0.38471 2.38622,0.69968 2.80598,0.69968 0.94494,0 3.69666,-2.70002 3.43818,-3.3736 -0.0984,-0.25635 -1.07922,-0.65693 -2.17971,-0.89048 -1.10054,-0.23339 -2.00097,-0.53233 -2.00097,-0.66397 0,-0.72998 3.05007,-3.77772 5.34162,-5.33746 1.66395,-1.13262 3.13118,-1.15806 5.41666,-0.0941 1.91317,0.89071 2.09296,1.37481 1.1094,2.98768 -0.61099,1.00192 -1.07447,1.46171 -8.29445,8.22832 -5.80697,5.44241 -8.12921,6.57161 -11.45714,5.57128 z m 4.27046,-29.5955 c 3.47497,-2.32702 6.20545,-4.4855 6.22591,-4.92163 0.008,-0.18244 -0.98228,-0.6847 -2.2018,-1.11652 -1.21956,-0.43178 -3.39997,-1.38998 -4.84535,-2.1293 -1.44537,-0.73935 -2.73884,-1.39488 -2.87433,-1.45673 -0.13537,-0.0618 -0.24623,2.63977 -0.24623,6.00364 0,5.72509 0.035,6.09611 0.57489,5.80328 0.31625,-0.17193 1.83137,-1.15433 3.36707,-2.18274 z M 125.4453,410.24765 c -5.4291,-0.81657 -10.06762,-3.3195 -14.18533,-7.65437 -3.27063,-3.44315 -4.77252,-6.53302 -4.96585,-10.2163 -0.28902,-5.50795 1.7645,-9.64463 7.91055,-15.93473 8.4208,-8.61809 15.8208,-12.18362 25.28635,-12.18362 h 1.90854 l 2.80933,-2.64622 c 1.54515,-1.45545 4.60752,-4.13334 6.80524,-5.95094 2.19772,-1.8176 4.18394,-3.48096 4.41384,-3.69642 0.33258,-0.31197 -0.8876,-2.19613 -5.98544,-9.242 -3.52185,-4.86767 -6.98966,-9.66334 -7.70622,-10.65706 -0.71652,-0.99371 -1.82954,-2.31617 -2.47336,-2.93878 -0.64378,-0.62262 -1.17055,-1.33759 -1.17055,-1.5888 0,-0.69069 3.85758,-4.5778 5.97704,-6.02278 1.02896,-0.70155 2.23522,-1.2755 2.68061,-1.2755 0.44823,0 1.54955,0.58477 2.46682,1.30981 5.83319,4.6109 14.99264,9.68707 19.58997,10.85681 3.14538,0.80027 9.00144,1.41771 10.86544,1.14558 3.36158,-0.49079 3.23714,0.76775 -0.43571,4.40683 -1.98774,1.9695 -3.93822,3.48999 -6.32355,4.92949 -1.89707,1.14488 -3.92861,2.43699 -4.51455,2.87137 -1.05809,0.7844 -1.06143,0.79584 -0.49277,1.6757 0.455,0.70391 4.79735,6.73895 7.49546,10.41725 0.2653,0.36137 2.1419,2.96796 4.17072,5.7925 2.02882,2.82457 5.75831,7.97512 8.28776,11.44566 2.52941,3.47057 4.82069,6.64244 5.0917,7.04859 1.68577,2.5263 5.41685,7.41315 5.65989,7.41315 0.15949,0 0.61425,-0.70217 1.0106,-1.56036 0.71072,-1.53888 0.72196,-1.81332 0.81591,-19.92663 0.0591,-11.37218 -0.0233,-18.48581 -0.21862,-18.68019 -0.19955,-0.19955 -0.58998,-0.12059 -1.07171,0.21667 -0.85013,0.59546 -2.25404,0.71267 -2.25404,0.18827 0,-0.54731 2.88876,-3.49862 5.85695,-5.98381 1.50497,-1.26002 5.34835,-4.02349 8.54092,-6.14103 10.93188,-7.25091 18.45174,-11.30326 18.45174,-9.94342 0,0.35437 -0.93016,1.71015 -1.88723,2.75047 l -0.80097,0.87068 1.91897,1.30043 c 2.16702,1.46848 7.47196,4.08048 8.08544,3.98097 0.22211,-0.035 0.8196,0.1062 1.32821,0.31586 0.50864,0.20967 1.21077,0.38122 1.56036,0.38122 1.04852,0 0.7525,1.20182 -0.67836,2.75417 l -1.31397,1.42549 0.001,13.76012 c 10e-4,8.37213 0.13343,14.23418 0.33803,14.97086 0.18516,0.66591 0.79168,1.59392 1.34825,2.06227 1.13927,0.95863 0.69921,1.09699 4.4024,-1.38415 3.04587,-2.04072 3.34886,-0.98228 0.56147,1.96137 -2.6064,2.75246 -26.79788,23.02608 -28.73195,24.07872 -1.93779,1.05463 -2.49183,0.82486 -1.57767,-0.65432 l 0.67261,-1.08828 -3.53624,-1.48882 c -1.94491,-0.81883 -4.85484,-2.07834 -6.46646,-2.79891 l -2.93027,-1.31008 -1.75696,0.99154 c -0.96633,0.54536 -2.67808,1.95429 -3.8039,3.13091 -2.00202,2.09242 -5.5353,4.68944 -6.37995,4.68944 -0.23378,0 -0.60928,-0.29564 -0.83497,-0.65701 -0.22561,-0.36137 -0.70734,-0.65836 -1.07039,-0.66008 -0.41859,-0.002 -2.22265,-1.64687 -4.93057,-4.49556 -8.99008,-9.45746 -17.5392,-14.68487 -28.90221,-17.67236 -3.60897,-0.94882 -9.00999,-1.94783 -9.2474,-1.71043 -0.48775,0.48776 1.62315,2.60433 4.03154,4.04235 0.56867,0.33959 0.52732,0.4678 -0.62981,1.95301 -2.19146,2.81283 -6.46032,6.0602 -7.96649,6.0602 -0.61243,0 -3.32677,-1.79776 -4.19686,-2.77969 -1.06615,-1.20318 -2.19247,-3.92098 -2.19574,-5.29836 -0.001,-0.73916 0.21706,-2.06955 0.48597,-2.95649 0.26918,-0.88689 0.49079,-1.64951 0.49273,-1.69467 0.002,-0.0451 -1.14208,-0.0809 -2.54229,-0.0794 -5.98439,0.008 -11.5757,1.17826 -13.55084,2.84022 -1.23644,1.04043 -2.89576,4.40894 -3.23788,6.57309 -0.40471,2.56026 0.10697,5.74687 1.32638,8.26185 1.51979,3.13414 6.16239,7.69828 9.51631,9.3555 6.31464,3.12013 12.62851,3.55063 19.38699,1.32191 2.03243,-0.67024 3.02393,-1.25816 5.13751,-3.04631 3.20183,-2.70877 4.84788,-3.75349 5.51235,-3.4985 0.80389,0.30847 -0.27229,1.82853 -3.47765,4.91101 -9.10192,8.75345 -18.4109,12.46092 -27.75795,11.05511 z m 102.32662,-25.96094 c 1.71642,-1.4472 3.17681,-2.79645 3.24535,-2.9983 0.0685,-0.20188 -0.11747,-0.50242 -0.41295,-0.66786 -0.29564,-0.16532 -0.86909,-0.92116 -1.27434,-1.67931 -0.7348,-1.37477 -0.73682,-1.42238 -0.73682,-17.57545 v -16.197 l -2.13521,-0.90782 c -2.70442,-1.14982 -6.43352,-3.269 -8.41566,-4.78249 -0.84353,-0.64409 -1.67671,-1.17105 -1.85148,-1.17105 -0.43866,0 -5.76064,3.23675 -6.0248,3.66425 -0.11787,0.19061 -0.1875,8.13065 -0.15482,17.64485 0.0552,16.07925 -0.0541,18.84166 -0.82342,20.84683 -0.13653,0.35554 -0.0443,0.5486 0.26179,0.5486 0.25985,0 3.49073,1.31965 7.17995,2.93252 3.68923,1.61291 7.00332,2.94174 7.36469,2.95302 0.36332,0.0117 2.05235,-1.15608 3.77768,-2.61079 z m -60.64774,-16.82524 c -0.39257,-0.66285 -3.49547,-5.14666 -4.4597,-6.44445 -0.95556,-1.28616 -2.12728,-2.91082 -3.88108,-5.38142 -0.60924,-0.85819 -1.29335,-1.56036 -1.52029,-1.56036 -0.9018,0 -11.61526,9.10363 -11.61526,9.86994 0,0.12954 1.29343,0.33298 2.87433,0.45143 4.95659,0.37187 10.04074,1.18689 14.41864,2.31126 2.32293,0.5966 4.26921,1.1026 4.32503,1.12446 0.056,0.0233 -0.008,-0.14509 -0.14159,-0.37071 z m 0.13965,-24.29516 1.532,-1.05401 -1.30857,-0.27346 c -0.71971,-0.15054 -1.84323,-0.23028 -2.49669,-0.17777 l -1.18814,0.0957 0.7823,1.23186 c 0.43026,0.6775 0.86438,1.23185 0.9647,1.23185 0.10036,0 0.8718,-0.47433 1.7144,-1.05404 z m 131.44849,61.15319 c -1.29834,-1.3899 -1.43091,-2.73549 -1.20424,-12.2208 0.10697,-4.47164 0.12409,-8.1303 0.0389,-8.1303 -0.086,0 -1.07202,0.97937 -2.19173,2.17633 -1.11971,1.19692 -3.14662,3.0817 -4.50428,4.1883 -1.35766,1.10664 -3.87338,3.25827 -5.5905,4.78144 -4.01084,3.55782 -5.68961,4.62179 -7.29252,4.62179 -0.7746,0 -1.25403,-0.15599 -1.26119,-0.41062 -0.008,-0.226 -10e-4,-3.69969 0.0117,-7.71968 0.0117,-4.01998 -0.0934,-7.30746 -0.23495,-7.30555 -0.14159,0.002 -0.97711,0.66716 -1.85665,1.47824 -0.87951,0.81112 -1.71355,1.47474 -1.85339,1.47474 -0.13965,0 -2.41715,2.27568 -5.06069,5.05704 -5.15234,5.42097 -7.79331,7.54319 -9.3327,7.49939 -0.62815,-0.0195 -3.74921,-1.83013 -9.38234,-5.44786 l -8.4411,-5.42109 -1.17149,0.48951 c -2.54372,1.06284 -1.76399,-0.51191 2.00797,-4.05539 3.43569,-3.22753 4.7805,-5.05847 7.0885,-9.65074 3.53118,-7.02595 5.10002,-13.48678 4.81828,-19.84226 -0.16416,-3.70487 -1.42632,-11.91358 -1.91555,-12.45891 -0.39506,-0.44041 -1.27394,1.86128 -1.27251,3.33256 0.001,1.10882 0.36916,1.92306 1.69993,3.76127 0.32714,0.45201 0.22756,0.79257 -0.57014,1.94706 -1.16394,1.68464 -4.70002,4.69418 -6.64676,5.65701 -1.69355,0.83765 -2.1193,0.65028 -3.22676,-1.42024 -1.87019,-3.49652 -0.56843,-6.49362 5.43533,-12.51407 2.27062,-2.27696 5.01533,-5.06625 6.09941,-6.19845 3.04876,-3.1842 6.94279,-5.59948 7.52052,-4.66466 0.11047,0.17894 0.66634,2.96259 1.23504,6.18593 2.14898,12.18038 1.11294,19.60104 -4.18916,30.00511 -2.11354,4.14734 -3.91476,6.9422 -5.88959,9.13871 -0.80797,0.89865 -1.46715,1.83394 -1.46482,2.07842 0.002,0.24428 2.88429,2.29224 6.40438,4.55068 8.37038,5.37026 8.59277,5.49399 9.14984,5.0917 0.70765,-0.51102 7.71688,-6.72627 9.44676,-8.37668 l 1.54943,-1.47821 0.21822,-21.68079 0.21822,-21.68074 1.04048,-1.34245 c 2.24607,-2.89798 6.87996,-6.33627 7.97384,-5.91651 0.393,0.15093 0.43843,2.20433 0.29641,13.40917 -0.38043,30.06191 -0.46776,47.55894 -0.23689,47.55894 0.60254,0 3.68308,-3.06474 3.68308,-3.66421 0,-0.6798 -1.20187,-2.02972 -2.62231,-2.94532 l -0.81555,-0.52572 0.94808,-1.36808 c 1.05852,-1.52742 4.86192,-4.87538 6.6051,-5.81413 0.96801,-0.52133 1.28959,-0.55268 2.18835,-0.21356 0.59255,0.22367 1.13286,0.26957 1.23477,0.10503 0.0996,-0.16104 0.14121,-6.59382 0.0922,-14.29506 l -0.0891,-14.00223 -2.29418,1.97456 c -2.39409,2.06052 -4.46212,3.30016 -5.50547,3.30016 -0.33725,0 -0.93424,-0.34193 -1.32708,-0.76029 -1.41464,-1.50582 -0.60231,-4.55169 2.08048,-7.80058 2.0706,-2.50751 8.13411,-8.54644 9.8524,-9.81237 2.30609,-1.699 6.02009,-3.71004 6.40846,-3.47003 0.20189,0.12486 0.32559,3.50088 0.32559,8.88704 0,4.77719 0.0992,8.68577 0.22017,8.68577 0.12097,0 3.5691,-3.31261 7.66241,-7.36134 6.87261,-6.79777 10.78244,-10.04895 12.08474,-10.04895 0.41151,0 0.44928,0.55392 0.25168,3.69557 -0.12759,2.03259 -0.35865,4.73036 -0.51289,5.99508 -0.15443,1.26469 -0.38432,5.9269 -0.51078,10.36042 l -0.23028,8.06098 0.78517,0.91284 c 0.69941,0.81307 0.88663,0.87422 1.71394,0.55968 0.51078,-0.1941 1.06455,-0.26918 1.23053,-0.16649 0.83987,0.51907 -2.76277,4.43858 -6.18149,6.72515 -3.71595,2.48542 -5.53495,2.50187 -6.55551,0.0591 -0.41738,-0.99896 -0.46262,-2.29177 -0.27774,-7.93957 0.12137,-3.7105 0.43019,-9.02731 0.68618,-11.81516 0.25596,-2.78782 0.38822,-5.14596 0.29369,-5.24033 -0.0941,-0.0945 -2.53139,2.18488 -5.41568,5.06493 l -5.24418,5.23652 v 20.56796 c 0,13.70052 0.1167,20.90304 0.3497,21.57148 0.212,0.60842 0.7208,1.15717 1.29215,1.39379 0.84271,0.34893 1.09221,0.28786 2.36028,-0.57734 2.01023,-1.37189 2.86208,-1.78173 3.23026,-1.55421 1.3603,0.84073 -7.12888,8.5874 -11.099,10.12827 -2.13509,0.82867 -3.27098,0.70967 -4.36062,-0.45679 z m -1.2487,-61.45054 -0.31975,-1.11231 -0.0311,1.46178 c -0.0195,1.03305 0.0727,1.35933 0.31975,1.11236 0.23806,-0.23806 0.2474,-0.70458 0.0311,-1.46183 z m 93.40663,57.66998 c -4.43083,-2.53023 -11.33702,-4.53155 -17.00469,-4.92777 -1.7643,-0.12331 -3.27705,-0.33609 -3.36166,-0.47317 -0.43454,-0.7031 3.32253,-4.48238 6.7856,-6.82574 l 1.59062,-1.07633 v -22.98601 c 0,-15.87705 -0.10697,-22.98605 -0.34581,-22.98605 -0.19022,0 -0.88978,0.36954 -1.55449,0.82128 -1.19634,0.81291 -2.37,1.08135 -2.37,0.54202 0,-0.58664 1.99482,-2.95057 4.80135,-5.68981 4.60985,-4.49934 6.36696,-5.83669 12.77317,-9.72197 1.80675,-1.09578 4.29434,-2.66999 5.52803,-3.49831 2.78478,-1.86972 3.64593,-2.01026 2.81606,-0.45963 -0.39954,0.74655 0.30458,2.70213 2.75767,7.6588 2.61981,5.29366 7.47644,11.48612 11.08693,14.13647 0.89503,0.65701 1.62731,1.30553 1.62731,1.44117 0,0.13576 -0.52214,0.91681 -1.16032,1.73591 -2.1447,2.75285 -3.68627,3.82977 -21.10512,14.74357 -2.94136,1.84292 -5.41001,3.45124 -5.48594,3.57412 -0.0759,0.12292 -0.16143,5.0167 -0.18983,10.87525 -0.0494,10.14605 -0.0233,10.65687 0.55848,10.75699 1.85198,0.31898 6.53924,1.93426 8.84678,3.04876 1.45859,0.70446 2.79295,1.28083 2.96531,1.28083 0.17232,0 1.34408,-1.04682 2.60394,-2.32628 1.25991,-1.27947 3.67449,-3.52371 5.36586,-4.98725 2.84597,-2.46263 3.02958,-2.69396 2.46371,-3.10399 -1.49372,-1.08245 -2.74666,-2.50063 -2.74666,-3.10893 0,-0.3641 0.31352,-1.10178 0.69637,-1.63968 0.9449,-1.327 5.30307,-5.01094 6.72783,-5.68704 l 1.15456,-0.54786 1.42966,1.31782 c 0.78634,0.72481 2.18212,1.69912 3.10181,2.16517 0.91965,0.46601 1.67211,0.97045 1.67211,1.12099 0,0.55579 -1.91379,2.88588 -3.73831,4.55146 -1.03355,0.94354 -3.38695,2.69233 -5.22975,3.88625 -2.7618,1.78925 -4.47623,3.31615 -9.75624,8.68905 -6.3491,6.46078 -9.26482,8.88805 -10.62703,8.84681 -0.38821,-0.0117 -1.59303,-0.52786 -2.67707,-1.1469 z m 2.62799,-41.03191 c 1.8067,-1.17634 3.69502,-2.36798 4.19623,-2.64809 2.07854,-1.16161 6.47989,-4.15897 6.47989,-4.41283 0,-0.15054 -0.4804,-0.69956 -1.06763,-1.21995 -1.88831,-1.6736 -4.71425,-5.12001 -6.68344,-8.15091 -1.88843,-2.9067 -5.06225,-9.5076 -5.15343,-10.71814 -0.0584,-0.77708 -7e-4,-0.78483 -1.73723,0.23301 l -1.45459,0.85243 v 14.36788 c 0,7.90235 0.0926,14.46054 0.20577,14.57377 0.26102,0.26102 1.13858,-0.22328 5.21431,-2.87701 z m -46.15376,33.54952 c -1.71642,-0.77724 -3.93374,-1.82487 -4.92746,-2.32811 -4.60343,-2.3313 -10.11963,-3.96844 -14.66623,-4.35277 -1.79768,-0.15209 -2.4156,-0.32597 -2.4156,-0.68065 0,-0.7457 4.22538,-4.97018 6.37451,-6.37319 1.06689,-0.69649 2.28641,-1.26636 2.7101,-1.26636 h 0.77032 v -24.63 -24.62996 l -1.54254,0.97824 c -2.99733,1.90084 -3.26955,0.8562 -0.52631,-2.01976 1.0302,-1.08007 3.92503,-3.54514 6.43294,-5.47792 2.50786,-1.93282 5.841,-4.50883 7.40689,-5.72451 2.6908,-2.08896 6.14947,-4.19534 6.88867,-4.19534 0.18477,0 0.90067,1.14562 1.59058,2.54583 2.90211,5.89006 10.63229,11.49888 17.68224,12.82985 2.4282,0.45842 2.80108,0.61806 2.80108,1.19933 0,1.08385 -5.0477,5.73248 -7.78207,7.16681 -1.31794,0.69135 -2.45122,1.52052 -2.56403,1.87602 -0.30575,0.96373 -4.03664,4.66563 -6.07436,6.02733 -1.74081,1.16336 -2.75347,1.47724 -3.07696,0.95381 -0.37537,-0.60714 1.68075,-3.90321 3.91842,-6.28193 1.34155,-1.426 2.43913,-2.66318 2.43913,-2.74927 0,-0.086 -0.92389,-0.48826 -2.05309,-0.89374 -5.94386,-2.13428 -11.42303,-6.64128 -14.18654,-11.66941 -1.12803,-2.05248 -1.42876,-2.3767 -1.65056,-1.77956 -0.0953,0.25596 -0.21083,13.43885 -0.25712,29.29509 -0.0832,28.5809 -0.0786,28.83129 0.57279,29.0289 0.36137,0.10969 3.21675,1.36434 6.34537,2.78825 3.12857,1.4239 5.88216,2.58888 6.11906,2.58888 0.23689,0 1.44941,-0.85321 2.6945,-1.89605 1.24508,-1.04281 2.96317,-2.39829 3.81794,-3.01215 0.85481,-0.61387 1.55406,-1.20191 1.5539,-1.30678 -1.5e-4,-0.10503 -1.62621,-1.0514 -3.61345,-2.10339 -1.98728,-1.05195 -3.61322,-2.02757 -3.61322,-2.16804 0,-0.57065 1.99354,-2.94991 3.65274,-4.35946 2.57154,-2.18465 4.21612,-3.22142 5.10994,-3.22142 0.43287,0 2.3763,0.80622 4.31873,1.79161 1.94242,0.98543 4.15454,1.89123 4.91579,2.01299 1.71518,0.27424 1.75101,0.69921 0.2334,2.76673 -1.86809,2.54486 -5.04766,5.28538 -8.54839,7.36796 -4.86779,2.89588 -7.46512,4.89218 -8.98603,6.9066 -2.13015,2.82139 -6.81504,6.43278 -8.32055,6.41399 -0.23301,-0.002 -1.82803,-0.64117 -3.54441,-1.41845 z M 237.59981,326.72791 c -0.035,-2.97438 -0.15754,-3.81234 -0.96306,-6.52723 -0.75916,-2.558 -2.77117,-5.71318 -4.70002,-7.37032 -3.89473,-3.34618 -12.91593,-5.73096 -21.67406,-5.72964 -4.35187,6.2e-4 -10.5243,1.16363 -11.147,2.10024 -0.43337,0.65183 -0.24973,2.63448 0.36799,3.9765 1.42584,3.09675 5.18808,5.42019 8.77676,5.42019 1.78177,0 1.78317,-8.5e-4 4.72993,-2.75759 3.37107,-3.15374 6.37653,-5.27055 7.0929,-4.99565 0.78521,0.30147 0.0657,1.31292 -3.60929,5.07388 -7.57358,7.75087 -13.18317,11.20565 -17.55169,10.80954 -3.28215,-0.29758 -6.56251,-2.34966 -8.19475,-5.12623 -0.7599,-1.29262 -0.89192,-1.87708 -0.86411,-3.82522 0.0436,-3.05759 0.95968,-4.64879 5.03494,-8.74615 6.38914,-6.42375 12.51177,-9.2833 21.37621,-9.98368 5.07003,-0.40054 14.79464,0.98812 19.26333,2.75079 0.92883,0.36643 1.77679,0.57812 1.88439,0.47052 0.32052,-0.32053 0.21822,-58.56742 -0.1027,-58.56742 -0.16026,0 -0.61106,0.66105 -1.00219,1.46899 -1.28328,2.65093 -8.36614,8.48778 -9.0186,7.43206 -0.47146,-0.76285 2.46682,-5.73906 5.74069,-9.72228 2.42773,-2.95377 7.91261,-8.28535 9.93206,-9.65444 1.13313,-0.76822 1.86074,-1.03398 2.62798,-0.95988 l 1.06101,0.10231 0.0883,7.47329 c 0.0486,4.11031 0.21706,7.47329 0.3746,7.47329 0.15754,0 1.66994,-0.90596 3.36092,-2.01322 2.18473,-1.43059 4.41376,-3.36656 7.70163,-6.68909 4.50513,-4.55263 7.60842,-7.06551 8.72553,-7.06551 0.49374,0 0.52782,0.36137 0.33297,3.53134 -0.28279,4.59717 -0.27385,9.62281 0.0444,25.21212 0.26451,12.96607 0.60262,19.47467 1.04883,20.19663 0.1346,0.21784 0.60064,0.32831 1.0355,0.24507 3.07583,-0.588 -1.5646,4.60689 -7.02665,7.86621 -2.86002,1.70665 -3.52932,1.95495 -7.4433,2.76144 -2.36538,0.48737 -5.15071,1.20879 -6.18955,1.60315 l -1.88886,0.71703 v 13.89163 13.89168 l -0.83998,1.23777 c -0.98372,1.44957 -1.22023,1.69654 -3.50874,3.66414 -1.68079,1.44506 -3.81557,2.74518 -4.50762,2.74518 -0.20267,0 -0.35243,-0.96936 -0.36838,-2.38159 z m 11.1519,-37.81783 c 2.18628,-1.59183 4.81496,-2.98387 7.27094,-3.85035 1.17436,-0.41432 2.20911,-0.85784 2.29944,-0.98559 0.0902,-0.12759 0.0498,-3.46198 -0.0903,-7.40945 -0.14004,-3.94752 -0.28785,-13.18823 -0.32831,-20.53494 -0.0653,-11.81567 -0.13109,-13.31391 -0.5668,-12.97852 -0.27112,0.2085 -1.30576,1.06354 -2.29944,1.90002 -0.99371,0.83649 -3.24803,2.58201 -5.00958,3.8789 l -3.20283,2.35806 -0.0117,3.67943 c -0.0692,25.40494 -0.0117,35.05083 0.21239,35.05083 0.11125,0 0.88737,-0.49877 1.72463,-1.10839 z m 52.40063,28.40744 c -3.34458,-0.85434 -5.37799,-2.71573 -5.3804,-4.92532 -0.002,-2.55135 3.06536,-6.51143 8.04265,-10.38049 4.53836,-3.52791 8.01527,-5.18427 14.78659,-7.04423 l 3.28499,-0.90234 0.0712,-27.23542 0.0712,-27.23546 -2.21277,2.30006 c -1.21704,1.26504 -2.90242,3.49567 -3.74529,4.95695 -1.59108,2.75849 -3.92417,5.17785 -6.97351,7.23141 -1.85743,1.25084 -2.48592,1.38613 -2.48592,0.53506 0,-1.00149 2.49055,-4.89568 5.04124,-7.88251 4.48094,-5.24705 13.3868,-14.0349 15.81827,-15.6086 3.95269,-2.55832 3.59991,-3.45401 3.7,9.39424 0.0735,9.45672 0.15676,11.09429 0.55844,11.00463 0.84127,-0.18788 20.43823,-14.75613 21.07765,-15.66905 0.5887,-0.8405 4.68174,-4.123 5.9369,-4.76125 1.08392,-0.5512 3.0549,-0.73134 3.0549,-0.2793 0,0.4608 -1.07475,1.85133 -2.72239,3.52228 -0.89075,0.90339 -1.98004,2.35354 -2.42062,3.22263 -2.21491,4.36906 -4.07541,11.11288 -4.68442,16.97991 -0.54454,5.24624 -0.49767,19.14562 0.0805,23.83156 1.03814,8.41554 3.76112,13.21339 9.06057,15.96445 1.85343,0.96213 2.40459,1.09197 4.59896,1.08342 3.73241,-0.0156 4.36277,-0.56435 5.45711,-4.75938 1.2864,-4.93112 -0.7793,-9.41136 -4.61743,-10.01461 -1.02075,-0.16026 -1.44689,-0.0692 -1.96725,0.42054 -2.14376,2.01816 -5.41292,3.6702 -5.41292,2.73534 0,-1.24932 5.60614,-6.95538 8.99845,-9.15882 3.99108,-2.59239 6.61828,-2.88274 9.50705,-1.05074 2.53894,1.61015 3.72723,5.5584 2.87394,9.54925 -0.54315,2.54031 -2.67105,6.68399 -4.70955,9.17093 -2.00334,2.44402 -6.39874,6.33521 -9.27871,8.21431 -5.88516,3.83985 -11.92117,4.05939 -16.3063,0.59314 -2.59418,-2.05057 -3.50671,-3.17016 -4.89876,-6.01007 -1.93597,-3.94969 -2.62051,-7.77199 -2.91202,-16.26059 -0.38996,-11.35549 -0.0712,-17.71172 1.15059,-22.94287 0.91822,-3.93121 2.50608,-8.71121 3.66095,-11.02065 0.5787,-1.15725 0.66911,-1.55507 0.32325,-1.4223 -0.65218,0.25012 -15.77622,11.41018 -16.07959,11.86499 -0.13265,0.19916 -0.24351,9.58287 -0.24623,20.85298 l -0.004,20.49114 -2.74169,2.74168 c -2.61366,2.61367 -5.3802,4.38914 -6.85226,4.39754 -0.30808,0.002 -1.09357,-0.35865 -1.74536,-0.80101 -1.97005,-1.33688 -3.50683,-1.37037 -8.26256,-0.1801 -7.17131,1.795 -7.76308,2.2642 -5.59294,4.4343 1.2485,1.24854 3.82245,2.13435 6.2016,2.13435 1.97786,0 2.04706,0.4652 0.35087,2.35931 -3.33046,3.71933 -6.18853,5.59438 -8.73382,5.72983 -0.93276,0.0498 -2.15676,-0.0272 -2.71998,-0.17115 z m -10.57845,-12.74197 c -0.78055,-0.27618 -2.00007,-1.05448 -2.71014,-1.72992 -1.44272,-1.37244 -1.68347,-2.70469 -0.79618,-4.40594 0.70154,-1.34517 0.64658,-1.45771 -0.90542,-1.85401 -2.07826,-0.53074 -3.02008,-0.91829 -6.90909,-2.84313 -3.75341,-1.85775 -4.5123,-2.04462 -5.15553,-1.26951 -0.50834,0.61246 -3.82752,2.14435 -4.64626,2.14435 -0.98267,0 -0.74935,-0.46127 1.44078,-2.84847 3.76251,-4.10097 3.56094,-3.34294 3.63029,-13.65042 0.035,-4.92777 0.004,-12.35952 -0.0618,-16.51499 -0.18711,-11.56851 0.24584,-23.77103 0.88242,-24.87028 0.4722,-0.81556 0.46881,-0.94147 -0.0404,-1.50411 -0.30575,-0.33764 -0.55572,-0.86111 -0.55572,-1.16304 0,-0.82785 4.86962,-5.51196 6.82415,-6.56422 l 1.71545,-0.92351 2.8548,2.35278 c 5.37958,4.43356 14.60773,10.08629 18.46115,11.30835 0.43096,0.13653 1.39181,0.56637 2.13521,0.95489 2.36775,1.23738 1.92472,2.68369 -2.00428,6.54352 -2.09008,2.05329 -11.34841,9.27584 -13.89016,10.83589 -0.63234,0.38821 -1.33466,0.88557 -1.56067,1.10547 -0.226,0.21978 -1.51947,1.09069 -2.87437,1.93515 l -2.46336,1.53535 -0.004,1.85486 c -0.0195,7.16883 -0.3427,15.32394 -0.65591,16.48656 -0.205,0.76117 -0.2509,1.49823 -0.10231,1.63792 0.71166,0.66867 9.66922,4.89673 11.14758,5.26176 l 1.67943,0.41463 3.33015,-2.59446 c 1.8316,-1.42697 3.33019,-2.825 3.33019,-3.10679 0,-1.32867 -3.15705,-3.25153 -6.15932,-3.75142 -0.90487,-0.15054 -1.39609,-0.40261 -1.39609,-0.71602 0,-0.47854 2.70656,-3.58128 4.2472,-4.86896 2.71298,-2.26746 5.9479,-3.16588 7.13284,-1.98093 0.27113,0.27112 0.85909,0.49273 1.30686,0.49273 1.10419,0 2.55014,0.78895 3.3804,1.84448 0.83719,1.06432 0.8848,2.72305 0.12487,4.34732 -0.8764,1.87303 -5.79297,6.55835 -9.98889,9.51899 -4.72682,3.33529 -5.54623,4.08701 -5.54623,5.08827 0,1.42048 2.10634,3.07953 4.84534,3.81639 0.95918,0.2579 1.39609,0.5533 1.39609,0.94346 0,0.95159 -2.83652,3.87804 -5.45898,5.63204 -2.71329,1.81476 -3.54009,1.96756 -5.97925,1.10497 z m -1.95755,-47.98248 c 4.35541,-2.6526 9.78233,-6.50166 9.78233,-6.93819 0,-0.2509 -2.92155,-1.68398 -3.43261,-1.68398 -0.54466,0 -6.84121,-3.32186 -8.73766,-4.60973 -1.08136,-0.73434 -2.12183,-1.2389 -2.31216,-1.12127 -0.48562,0.3003 -0.32053,16.90021 0.16804,16.899 0.19411,-4.6e-4 2.23359,-1.14612 4.53194,-2.54583 z m -88.99797,42.1843 c -0.35982,-0.21006 -1.67434,-1.16495 -2.9214,-2.12159 -2.67264,-2.05018 -7.33042,-4.36125 -12.69717,-6.30006 -2.12291,-0.76693 -3.85886,-1.56308 -3.8577,-1.76921 0.008,-1.33272 5.37029,-6.30491 7.71392,-7.15241 0.98353,-0.35554 1.15453,-0.58387 1.30604,-1.74326 0.33648,-2.57578 0.56979,-8.6573 0.72485,-18.90857 0.12797,-8.46269 0.24662,-10.48746 0.65121,-11.11525 0.27229,-0.42221 0.44508,-0.81727 0.38432,-0.87792 -0.0607,-0.0607 -1.04008,0.10464 -2.17656,0.36721 -1.13644,0.26257 -2.20674,0.39051 -2.37845,0.28435 -0.52968,-0.32714 0.49313,-1.85751 2.55781,-3.82669 2.36055,-2.25133 4.70621,-3.78364 6.48467,-4.23623 3.18809,-0.81128 5.13406,-1.46677 8.0532,-2.7127 2.65416,-1.13278 3.55787,-1.73778 6.04449,-4.0464 2.45017,-2.27482 6.61802,-5.04342 7.59232,-5.04342 0.13031,0 0.16532,0.37304 0.0782,0.82909 -0.28124,1.47214 2.51871,3.27519 7.63733,4.91782 2.12746,0.68275 3.51569,0.90693 5.8312,0.94167 1.67145,0.0233 3.0388,0.15637 3.0386,0.29213 -2.3e-4,0.13537 -4.3e-4,0.37343 -4.3e-4,0.52856 0,0.41657 -3.8859,4.22129 -5.51172,5.39658 -0.77304,0.55883 -1.46627,1.32055 -1.54052,1.69274 -0.0743,0.37226 -0.2863,6.6 -0.47099,13.83963 -0.18477,7.23962 -0.43128,13.41123 -0.5477,13.71472 -0.30964,0.80692 0.39183,0.68945 2.61491,-0.43789 2.19367,-1.11243 3.81728,-1.259 4.50175,-0.40645 1.30557,1.62613 1.57296,2.88958 0.9554,4.51392 -0.76285,2.00638 -6.93477,7.39406 -8.47035,7.39406 -0.58695,0 -0.6453,-0.15521 -0.49083,-1.30705 0.37265,-2.77693 -1.63244,-3.81744 -3.96942,-2.06006 -1.21563,0.91417 -10.30627,10.64952 -13.01586,13.93894 -1.8682,2.26805 -5.18431,4.94368 -6.93936,5.59913 -0.29019,0.10853 -0.82209,0.0272 -1.18179,-0.18516 z m 8.77224,-10.31926 c 0.38744,-0.49686 2.39389,-2.62336 4.45854,-4.72554 l 3.75391,-3.82215 0.072,-4.71876 c 0.0393,-2.59531 0.098,-5.53176 0.13031,-6.52548 0.0311,-0.99372 0.15015,-5.50231 0.26218,-10.01916 0.11203,-4.5168 0.28591,-9.5428 0.38665,-11.16885 0.10075,-1.62606 0.13537,-3.09711 0.077,-3.26904 -0.0587,-0.17194 -1.21528,-0.70186 -2.57033,-1.17767 -1.35505,-0.47582 -3.35069,-1.40652 -4.43473,-2.06819 -1.08404,-0.66171 -2.12618,-1.20346 -2.31585,-1.20393 -0.18983,-4.6e-4 -1.22447,0.6376 -2.29948,1.41795 -1.07502,0.78036 -3.02631,2.04337 -4.33616,2.80673 l -2.38164,1.38788 -0.0587,6.80181 c -0.0311,3.741 -0.0405,7.09749 -0.0194,7.45882 0.0233,0.36137 -0.0953,2.65261 -0.26179,5.0917 -0.1661,2.43908 -0.37732,5.83034 -0.4692,7.53615 -0.21512,3.99649 -0.79246,5.6623 -2.79938,8.07556 -0.89779,1.07957 -1.63605,2.05539 -1.64064,2.16855 -0.004,0.11319 1.46544,0.81731 3.26674,1.56487 3.22843,1.33984 5.97031,2.8187 8.22229,4.4348 1.4891,1.06864 2.09429,1.05919 2.95645,-0.0459 z m 20.17664,-61.32062 c -1.85159,-0.80529 -2.26599,-3.46805 -0.96602,-6.20755 2.05453,-4.32959 9.12141,-10.0511 14.32217,-11.59554 1.45082,-0.43085 1.61062,-0.57913 1.82659,-1.69523 0.32247,-1.6662 0.3392,-16.07076 0.0272,-24.71056 l -0.25363,-7.06267 -2.29208,-0.0965 c -1.90649,-0.0801 -2.2912,-0.1906 -2.28657,-0.657 0.008,-0.74449 2.41781,-3.28223 4.44539,-4.68022 1.62042,-1.11726 1.64395,-1.12216 6.55367,-1.357 5.18747,-0.24817 12.49851,-1.30588 13.08589,-1.89329 0.2435,-0.24351 0.035,-0.7909 -0.70299,-1.836 -0.57738,-0.81914 -1.04977,-1.55627 -1.04977,-1.63816 0,-0.28396 -2.69283,-4.54675 -3.92982,-6.2212 -0.68369,-0.92545 -1.34653,-2.15388 -1.47306,-2.72982 -0.20773,-0.94552 -0.0743,-1.20268 1.37247,-2.64961 2.17582,-2.17582 4.30049,-3.67064 5.2173,-3.67064 0.70022,0 2.80081,0.72644 5.21882,1.80473 1.32089,0.58904 4.67158,1.43724 7.88391,1.99571 4.58262,0.79669 12.60131,0.46656 13.86044,-0.57065 0.2155,-0.17777 1.13954,-0.52019 2.05309,-0.76117 1.49291,-0.39382 1.66103,-0.38433 1.66103,0.0945 0,0.79914 -4.20344,4.72056 -6.06024,5.65367 -0.89406,0.44932 -3.11142,1.93243 -4.92747,3.29584 -1.81604,1.36341 -4.23494,3.11204 -5.3753,3.88586 -1.14037,0.77382 -2.15101,1.60922 -2.24588,1.85646 -0.13654,0.35554 3.48707,6.40504 4.71682,7.87508 0.21317,0.25479 8.18052,10.84004 9.38363,12.46684 0.28124,0.38005 2.79458,-2.15979 4.84176,-4.89268 2.18205,-2.91292 4.19784,-7.41242 5.72268,-12.7738 1.86284,-6.54963 1.95876,-7.44746 0.7958,-7.44746 -0.76305,0 -4.78786,2.37533 -5.45571,3.21979 -0.26957,0.34076 -0.41136,1.7118 -0.41272,3.98778 l -0.002,3.46855 -1.38267,1.61326 c -1.44421,1.68515 -5.05692,4.25214 -5.55288,3.94561 -0.15793,-0.0976 -0.28708,-2.40726 -0.28708,-5.13257 v -4.95512 l 2.25238,-2.1703 c 1.65033,-1.59019 4.05445,-3.249 8.99451,-6.20607 7.08426,-4.24055 8.46331,-4.86807 9.49037,-4.31842 0.89063,0.47667 0.78587,1.78636 -0.5465,6.83231 -2.61121,9.88923 -5.02377,14.13868 -13.13699,23.13931 -1.9229,2.13322 -3.41896,4.05491 -3.32463,4.27045 0.1801,0.4109 2.31982,3.38842 4.79268,6.66871 2.20021,2.91863 7.17361,7.70695 9.30411,8.95787 3.16973,1.86116 5.83416,2.66832 8.8078,2.66832 3.50508,0 4.59476,-0.48589 5.52425,-2.46328 2.1214,-4.51311 0.43097,-9.15393 -4.14045,-11.36694 -0.79494,-0.38471 -1.40932,-0.91303 -1.40932,-1.21166 0,-0.61749 3.40682,-4.02283 4.9906,-4.98846 0.59765,-0.36448 1.50376,-0.66303 2.01361,-0.6637 2.06531,-0.003 5.68969,3.07233 6.49416,5.5099 0.61675,1.86868 0.22212,5.86781 -0.77121,7.81242 -2.36732,4.63513 -8.14379,10.08061 -13.31803,12.55483 -4.07087,1.94658 -8.39244,1.97311 -12.46836,0.0766 -4.99281,-2.32325 -8.71806,-5.7156 -14.01413,-12.76174 -1.78745,-2.37805 -3.36991,-4.32375 -3.51663,-4.32375 -0.14665,0 -0.97563,0.62826 -1.84207,1.39609 -0.86644,0.76787 -2.51047,2.06134 -3.6534,2.87437 -1.14293,0.81303 -2.56497,1.88474 -3.16004,2.3816 -0.59512,0.49685 -1.17184,0.90335 -1.28169,0.90335 -0.1097,0 -1.19895,0.63604 -2.42034,1.4134 -6.75517,4.2994 -14.8638,7.86158 -21.16067,9.29602 -2.15349,0.4906 -2.21479,0.53494 -4.04503,2.92447 -4.13463,5.3981 -10.85705,10.50793 -14.62785,11.11884 -0.65704,0.10658 -1.58311,-0.002 -2.16115,-0.25363 z m 10.34011,-7.05532 c 0.84493,-0.84493 2.23771,-3.27841 2.51032,-4.38603 0.26879,-1.09267 0.13031,-1.10831 -3.38757,-0.3816 -3.47275,0.7173 -3.68825,0.86559 -3.68825,2.53751 0,2.05507 0.69473,2.85379 2.48234,2.85379 0.99555,0 1.65788,-0.19839 2.08316,-0.62355 z m 15.47277,-12.98027 c 4.21732,-0.75488 9.03159,-2.51311 14.45385,-5.27872 4.07222,-2.07702 4.15819,-2.12728 7.4657,-4.36646 3.36364,-2.27719 5.34567,-3.9136 5.34567,-4.41361 0,-0.39914 -1.95021,-2.94703 -2.537,-3.31451 -0.23067,-0.14432 -0.41949,-0.40358 -0.41949,-0.57578 0,-0.47002 -4.91248,-6.88121 -5.27261,-6.88121 -0.17155,0 -0.31197,-0.14937 -0.31197,-0.33181 0,-0.46753 -3.65651,-5.9097 -3.97066,-5.9097 -0.14237,0 -0.71785,-0.92389 -1.27912,-2.0531 -1.62104,-3.26133 -1.79103,-3.42339 -3.05004,-2.90794 -2.84442,1.16453 -6.97729,2.46683 -10.05273,3.16767 -1.87326,0.42688 -3.4743,0.84446 -3.55782,0.92802 -0.0836,0.0836 -0.008,3.37974 0.17154,7.32489 0.38822,8.6042 0.008,20.14661 -0.7469,22.61242 -0.27618,0.90335 -0.50366,1.82724 -0.50561,2.05309 -0.004,0.52071 1.1399,0.50643 4.26688,-0.0533 z m 21.64664,-45.53814 c 1.64484,-1.091 2.9906,-2.0597 2.9906,-2.15271 0,-0.093 -1.44129,-0.14237 -3.20284,-0.10931 -1.76154,0.0311 -3.75718,-0.0498 -4.43469,-0.18321 -0.90599,-0.17894 -1.23185,-0.13265 -1.23185,0.17543 0,0.6989 2.33779,4.19597 2.84018,4.24864 0.0272,0.003 1.39375,-0.8876 3.0386,-1.97856 z m -113.75669,37.61218 c -3.79752,-0.95338 -6.69395,-2.6507 -9.74142,-5.7084 -2.37319,-2.38117 -2.98503,-3.22761 -3.93736,-5.44723 -1.09773,-2.55851 -1.12768,-2.74523 -1.13216,-7.06267 -0.004,-3.98202 0.084,-4.67696 0.86298,-6.80804 2.80614,-7.6765 14.2944,-19.07288 24.25746,-24.06351 11.08943,-5.55483 23.15386,-5.15238 36.46808,1.21649 2.07771,0.99391 4.48681,2.32546 5.35348,2.95901 0.86671,0.63359 1.64006,1.0877 1.7186,1.00912 0.19372,-0.19372 0.21978,-48.59797 0.0272,-48.79146 -0.15949,-0.15948 -16.02284,9.48527 -17.03523,10.35692 -0.50319,0.43326 -0.5708,1.11329 -0.54213,5.45365 0.0412,6.25287 0.12214,6.57072 1.70483,6.70309 0.67038,0.056 1.2189,0.17427 1.2189,0.26257 0,1.06669 -4.6992,5.97003 -7.63394,7.96556 -1.93523,1.31587 -4.11611,2.107 -5.11694,1.85622 -1.41426,-0.35437 -1.70312,-1.84537 -1.70114,-8.77975 0.001,-3.48377 0.15871,-6.89864 0.35009,-7.58859 0.24701,-0.88966 1.10715,-2.00112 2.95777,-3.82215 2.86091,-2.81512 4.79513,-4.1678 14.5933,-10.20571 3.61345,-2.2267 7.65098,-4.72511 8.97227,-5.55199 l 2.40237,-1.50345 -0.0272,-28.954914 c -0.0195,-19.698141 0.0856,-29.248291 0.32286,-29.872622 0.41754,-1.098276 5.98828,-6.863625 8.53076,-8.828767 2.16637,-1.674488 3.80301,-2.554074 4.49409,-2.415399 0.28318,0.05679 0.82583,0.980685 1.22656,2.088725 3.17144,8.769251 13.81929,19.969656 22.42979,23.593766 3.33719,1.404607 10.95344,3.544017 15.62172,4.388127 0.49685,0.08986 0.90335,0.301857 0.90335,0.470873 0,1.705491 -6.99495,8.323002 -10.00893,9.46893 -0.47344,0.180102 -2.29543,0.625575 -4.04896,0.990176 -6.93952,1.443 -13.62919,4.434261 -17.83593,7.975282 -2.45434,2.065969 -5.70949,4.178266 -6.43881,4.178266 -2.57228,0 5.66495,-8.116408 13.5892,-13.389917 1.51461,-1.007952 2.63856,-1.946976 2.49763,-2.086702 -0.14081,-0.139647 -1.58661,-0.721383 -3.21267,-1.292538 -4.99741,-1.755282 -8.17243,-3.785113 -13.36047,-8.541459 -1.5667,-1.436387 -2.93408,-2.611567 -3.03857,-2.611567 -0.10463,0 -0.19021,8.425929 -0.19021,18.724303 0,12.357341 0.11281,18.724264 0.33103,18.724264 0.18205,0 2.06678,-1.079488 4.18834,-2.398867 2.12156,-1.319379 4.5489,-2.797583 5.3941,-3.284949 2.82605,-1.62956 3.35586,-0.954467 1.29596,1.65146 -1.7617,2.228761 -4.2407,4.346155 -8.00652,6.838729 l -3.20283,2.119922 v 38.950348 38.95034 l -0.97707,1.42013 c -1.82005,2.64529 -8.0942,7.73189 -9.53712,7.73189 -0.84777,0 -0.98321,-0.63258 -0.98321,-4.59196 v -3.55273 l -2.2001,-3.23672 c -5.75247,-8.46276 -14.25386,-14.1244 -25.79646,-17.17954 -8.30383,-2.19787 -14.88664,-1.95312 -21.67674,0.80595 -3.22898,1.31203 -4.36557,2.22304 -5.61979,4.5044 -1.6862,3.06711 -2.29232,5.26281 -2.29232,8.30406 0,9.53711 6.09373,16.29921 16.455,18.2598 2.52665,0.47811 7.50679,0.22951 8.14279,-0.40649 0.24545,-0.24545 0.58986,-1.45969 0.76526,-2.69816 0.38588,-2.72453 1.25722,-4.097 4.38789,-6.91116 2.36985,-2.13027 6.06184,-4.55535 6.6319,-4.35615 0.58485,0.20422 0.30614,3.88014 -0.44247,5.83735 -1.11781,2.92222 -2.50923,4.79272 -6.57912,8.84425 -4.2486,4.22946 -8.31892,7.12269 -12.1809,8.65823 -2.25766,0.89764 -2.84834,0.98746 -7.06267,1.07366 -3.24776,0.0665 -5.16828,-0.049 -6.53671,-0.39242 z m 72.72664,-42.17698 c -1.50675,-0.45831 -2.77774,-1.26842 -3.98575,-2.54034 -4.19721,-4.41929 -2.94474,-9.41187 4.10817,-16.37593 3.88975,-3.84074 6.91645,-6.10019 10.46288,-7.81066 l 2.86351,-1.38108 0.0117,-17.86346 0.0117,-17.863468 -1.39608,1.204199 c -6.61238,5.703459 -9.43003,7.750289 -10.66909,7.750289 -0.41042,0 -0.7462,-0.12564 -0.7462,-0.27929 0,-0.66868 2.10821,-3.082406 4.93579,-5.651106 3.63232,-3.299731 6.52244,-6.277688 7.81615,-8.053626 2.28434,-3.135848 9.18726,-8.682351 10.80565,-8.682351 0.72364,0 0.73535,0.0708 0.82474,5.003666 l 0.0906,5.003627 6.82857,-6.820097 c 6.59834,-6.590087 9.61181,-9.188078 11.93789,-10.291878 1.06996,-0.50775 1.12749,-0.499464 1.74965,0.251288 0.53377,0.64413 0.61907,1.139743 0.50098,2.911479 -0.0782,1.174402 -0.22212,7.092818 -0.31936,13.152088 -0.20189,12.56444 -0.17466,12.73785 1.82405,11.51946 1.26877,-0.773474 2.2798,-0.897951 2.27949,-0.280856 -6.6e-4,1.310786 -4.87192,6.157836 -9.44524,9.398406 -2.73426,1.93741 -4.40964,2.2388 -5.53235,0.99523 -0.59655,-0.66074 -0.62063,-1.27814 -0.51572,-13.221988 l 0.11008,-12.528847 -4.79112,4.758952 -4.79116,4.758951 v 16.958092 16.95809 l -0.85469,1.27772 c -1.97393,2.95084 -6.02297,6.31374 -9.84586,8.1774 -2.50121,1.21937 -2.67408,1.25492 -5.76636,1.18591 -3.00709,-0.0669 -3.20065,-0.0311 -3.41269,0.63709 -0.41116,1.29554 0.51494,3.56118 2.21686,5.42335 1.69487,1.85444 2.95224,2.43777 5.26203,2.44119 0.81424,0.001 1.23186,0.1521 1.23186,0.44528 0,1.23209 -4.04998,5.39713 -7.52421,7.738 -2.77028,1.86657 -4.32772,2.2873 -6.27477,1.69502 z m 98.87954,-0.0459 c -3.3543,-0.83342 -11.80692,-1.92555 -15.00932,-1.93924 -0.93786,-0.004 -1.80192,-0.16376 -1.92014,-0.35515 -0.31469,-0.50903 1.29188,-2.66715 3.15437,-4.23762 l 1.62073,-1.36664 v -12.1348 c 0,-6.67415 -0.11826,-12.13484 -0.26335,-12.13484 -0.1447,0 -1.73393,0.96785 -3.53133,2.15077 -3.84047,2.52746 -6.32663,4.86328 -7.87504,7.39864 -1.68892,2.76545 -6.67337,7.18614 -9.37581,8.31526 -1.28359,0.53634 -1.07494,0.60251 -10.16168,-3.22279 -3.97323,-1.67266 -11.5046,-4.12999 -12.65772,-4.12999 -1.46245,0 -0.53183,-1.93577 2.24739,-4.67477 2.41443,-2.37946 5.53495,-4.70917 7.03365,-5.25107 l 1.0772,-0.38953 10e-4,-21.86117 c 0.001,-20.657117 0.035,-21.915385 0.60621,-22.84659 1.91076,-3.112782 10.74711,-10.819038 13.07899,-11.406298 0.57602,-0.145093 0.93996,0.153652 1.91948,1.575958 3.15071,4.574686 10.54935,9.171351 16.25759,10.10065 1.17476,0.191383 2.18376,0.379655 2.24226,0.418787 0.0584,0.03929 -0.11125,0.491334 -0.37693,1.004958 -0.85177,1.645781 -4.53248,5.063298 -9.09149,8.441488 -2.43909,1.807329 -6.39337,4.973713 -8.7873,7.036414 l -4.35257,3.750373 v 13.71819 13.71819 l 3.46326,1.5255 c 1.90477,0.83902 3.62212,1.52547 3.81631,1.52547 0.42606,0 5.5318,-4.55598 5.5318,-4.93614 0,-0.14704 -0.48045,-0.36643 -1.06763,-0.48717 -0.58718,-0.12059 -2.28715,-0.80191 -3.77772,-1.51372 -1.92881,-0.92105 -2.71006,-1.46665 -2.71006,-1.89248 0,-1.3829 3.81837,-5.38604 7.56311,-7.92903 2.45679,-1.66838 3.24539,-1.85101 4.32507,-1.00173 0.96248,0.75705 3.69036,1.99245 4.3996,1.99245 0.38919,0 0.46551,-1.33754 0.46551,-8.15768 0,-4.4867 -0.0879,-8.245515 -0.19528,-8.352954 -0.10736,-0.107361 -0.66175,0.08908 -1.23185,0.436759 -1.2226,0.745505 -2.18632,0.821005 -2.18632,0.171155 0,-0.773274 2.32153,-3.451553 6.27025,-7.233788 6.30313,-6.037408 10.83554,-9.046407 13.63662,-9.053059 1.79134,-0.0037 3.25461,1.084506 6.49233,4.830759 3.52399,4.07744 6.85242,6.803293 11.13152,9.116076 0.85819,0.463872 1.56036,1.008186 1.56036,1.209683 0,1.430279 -4.21806,5.616479 -8.76762,8.701409 -1.59171,1.0793 -4.81571,3.29495 -7.16447,4.92369 -2.34873,1.62875 -5.12044,3.44222 -6.15928,4.02991 l -1.88886,1.06859 v 13.2931 c 0,12.58043 -0.035,13.36113 -0.64759,14.56245 -0.72804,1.42705 -0.53697,1.66092 1.35707,1.66092 0.54132,0 2.70963,0.30574 4.81846,0.67983 2.1088,0.37382 4.06142,0.69867 4.33912,0.72166 0.47865,0.0397 8.20023,-6.56679 8.20023,-7.01595 0,-0.11709 -0.88693,-0.59726 -1.97097,-1.06739 -1.08404,-0.47014 -1.97098,-0.98555 -1.97098,-1.14543 0,-0.68528 2.45434,-3.41285 4.68746,-5.20932 2.92007,-2.34904 4.24385,-2.97057 5.26604,-2.47239 0.39743,0.19372 1.68347,0.75877 2.85787,1.25578 2.25129,0.95272 2.95645,1.3717 2.95645,1.75668 0,0.12876 -0.53109,0.91604 -1.1802,1.74922 -1.62622,2.08728 -5.60077,5.45972 -9.35075,7.9342 -2.3145,1.52726 -4.0846,3.08454 -6.73421,5.9246 -4.48145,4.80357 -7.55506,7.08633 -9.47667,7.03829 -0.73955,-0.0195 -1.86198,-0.16221 -2.49437,-0.31937 z m 8.4588,-48.33412 c 0.76787,-0.52114 1.39609,-1.07362 1.39609,-1.22774 0,-0.15404 -0.4804,-0.56843 -1.06759,-0.92066 -2.02084,-1.21213 -4.68632,-3.37535 -7.06267,-5.73186 l -2.38159,-2.361715 v 7.586525 7.58649 l 3.85984,-1.99179 c 2.12287,-1.09548 4.48805,-2.41816 5.25592,-2.93925 z M 303.9558,93.707286 c 2.03656,-1.735482 3.57801,-3.263204 3.42545,-3.394916 -0.15249,-0.131868 -1.01655,-0.50386 -1.9199,-0.826956 -0.90336,-0.322862 -2.44481,-1.012698 -3.42542,-1.532506 -0.98064,-0.519848 -1.90454,-0.94517 -2.05313,-0.94517 -0.14859,0 -0.26996,2.217364 -0.26996,4.927462 0,2.710099 0.12137,4.927463 0.26996,4.927463 0.14859,0 1.93643,-1.419933 3.97303,-3.155377 z"
       id="path1" /></g></svg>
