<?xml version="1.0" encoding="UTF-8" standalone="no"?>
<!-- Created with Inkscape (http://www.inkscape.org/) -->

<svg
   width="2000"
   height="2000"
   viewBox="0 0 529.16667 529.16667"
   version="1.1"
   id="svg1"
   inkscape:version="1.3.2 (091e20ef0f, 2023-11-25, custom)"
   sodipodi:docname="svelte.svg"
   inkscape:export-filename="rust.png"
   inkscape:export-xdpi="1500"
   inkscape:export-ydpi="1500"
   xml:space="preserve"
   xmlns:inkscape="http://www.inkscape.org/namespaces/inkscape"
   xmlns:sodipodi="http://sodipodi.sourceforge.net/DTD/sodipodi-0.dtd"
   xmlns:xlink="http://www.w3.org/1999/xlink"
   xmlns="http://www.w3.org/2000/svg"
   xmlns:svg="http://www.w3.org/2000/svg"><sodipodi:namedview
     id="namedview1"
     pagecolor="#505050"
     bordercolor="#ffffff"
     borderopacity="1"
     inkscape:showpageshadow="0"
     inkscape:pageopacity="0"
     inkscape:pagecheckerboard="1"
     inkscape:deskcolor="#524b4b"
     inkscape:document-units="mm"
     inkscape:zoom="0.1804354"
     inkscape:cx="1219.2729"
     inkscape:cy="1296.863"
     inkscape:window-width="1920"
     inkscape:window-height="1080"
     inkscape:window-x="0"
     inkscape:window-y="0"
     inkscape:window-maximized="1"
     inkscape:current-layer="layer1"
     showguides="true"><inkscape:page
       x="0"
       y="0"
       width="529.16669"
       height="529.16669"
       id="page51"
       margin="10"
       bleed="0" /><sodipodi:guide
       position="1438.5164,-120.32779"
       orientation="0,-1"
       id="guide12"
       inkscape:locked="false" /><sodipodi:guide
       position="1484.5665,-357.7932"
       orientation="0,-1"
       id="guide13"
       inkscape:locked="false" /></sodipodi:namedview><defs
     id="defs1"><inkscape:path-effect
       effect="fillet_chamfer"
       id="path-effect25"
       is_visible="true"
       lpeversion="1"
       nodesatellites_param="F,0,0,1,0,0,0,1 @ F,0,0,1,0,0,0,1 @ F,0,0,1,0,0,0,1 @ F,0,0,1,0,0,0,1 @ F,0,0,1,0,0,0,1 @ F,0,0,1,0,0,0,1 @ F,0,0,1,0,0,0,1 @ F,0,0,1,0,0,0,1 @ F,0,0,1,0,0,0,1 @ F,0,0,1,0,0,0,1 | F,0,0,1,0,0,0,1 @ F,0,0,1,0,0,0,1 @ F,0,0,1,0,0,0,1 @ F,0,0,1,0,0,0,1 @ F,0,0,1,0,0,0,1 @ F,0,0,1,0,0,0,1"
       radius="0"
       unit="px"
       method="auto"
       mode="F"
       chamfer_steps="1"
       flexible="false"
       use_knot_distance="true"
       apply_no_radius="true"
       apply_with_radius="true"
       only_selected="false"
       hide_knots="false" /><inkscape:path-effect
       effect="fillet_chamfer"
       id="path-effect20"
       is_visible="true"
       lpeversion="1"
       nodesatellites_param="F,0,0,1,0,0,0,1 @ F,0,0,1,0,0,0,1 @ F,0,0,1,0,0,0,1 @ F,0,0,1,0,0,0,1 @ F,0,0,1,0,0,0,1 @ F,0,0,1,0,0,0,1 @ F,0,0,1,0,0,0,1 @ F,0,0,1,0,0,0,1 @ F,0,0,1,0,0,0,1 @ F,0,0,1,0,0,0,1 | F,0,0,1,0,0,0,1 @ F,0,0,1,0,0,0,1 @ F,0,0,1,0,0,0,1 @ F,0,0,1,0,0,0,1 @ F,0,0,1,0,0,0,1 @ F,0,0,1,0,0,0,1"
       radius="0"
       unit="px"
       method="auto"
       mode="F"
       chamfer_steps="1"
       flexible="false"
       use_knot_distance="true"
       apply_no_radius="true"
       apply_with_radius="true"
       only_selected="false"
       hide_knots="false" /><inkscape:path-effect
       effect="bspline"
       id="path-effect19"
       is_visible="true"
       lpeversion="1.3"
       weight="33.333333"
       steps="2"
       helper_size="0"
       apply_no_weight="true"
       apply_with_weight="true"
       only_selected="false"
       uniform="false" /><inkscape:path-effect
       effect="fillet_chamfer"
       id="path-effect16"
       is_visible="true"
       lpeversion="1"
       nodesatellites_param="F,0,1,1,0,17.429388,0,1 @ F,0,1,1,0,17.429388,0,1 @ F,0,1,1,0,17.429388,0,1 @ F,0,1,1,0,17.429388,0,1 @ F,0,1,1,0,17.429388,0,1 @ F,0,1,1,0,17.429388,0,1 @ F,0,1,1,0,17.429388,0,1 @ F,0,1,1,0,17.429388,0,1 @ F,0,1,1,0,17.429388,0,1 @ F,0,1,1,0,17.429388,0,1 @ F,0,1,1,0,17.429388,0,1 @ F,0,1,1,0,17.429388,0,1 @ F,0,1,1,0,17.429388,0,1 @ F,0,1,1,0,17.429388,0,1 @ F,0,0,1,0,17.429388,0,1 @ F,0,1,1,0,17.429388,0,1 @ F,0,1,1,0,17.429388,0,1 @ F,0,1,1,0,17.429388,0,1 @ F,0,1,1,0,17.429388,0,1 @ F,0,1,1,0,17.429388,0,1 @ F,0,1,1,0,17.429388,0,1 @ F,0,1,1,0,17.429388,0,1 @ F,0,1,1,0,17.429388,0,1 @ F,0,1,1,0,17.429388,0,1"
       radius="0"
       unit="px"
       method="auto"
       mode="F"
       chamfer_steps="1"
       flexible="false"
       use_knot_distance="true"
       apply_no_radius="true"
       apply_with_radius="true"
       only_selected="false"
       hide_knots="false" /><inkscape:path-effect
       effect="bspline"
       id="path-effect12"
       is_visible="true"
       lpeversion="1.3"
       weight="33.333333"
       steps="2"
       helper_size="0"
       apply_no_weight="true"
       apply_with_weight="true"
       only_selected="false"
       uniform="false" /><inkscape:path-effect
       effect="bspline"
       id="path-effect11"
       is_visible="true"
       lpeversion="1.3"
       weight="33.333333"
       steps="2"
       helper_size="0"
       apply_no_weight="true"
       apply_with_weight="true"
       only_selected="false"
       uniform="false" /><inkscape:path-effect
       effect="simplify"
       id="path-effect5"
       is_visible="true"
       lpeversion="1.3"
       threshold="10.8696"
       steps="1"
       smooth_angles="360"
       helper_size="0"
       simplify_individual_paths="false"
       simplify_just_coalesce="false" /><inkscape:path-effect
       effect="bspline"
       id="path-effect49"
       is_visible="true"
       lpeversion="1.3"
       weight="33.333333"
       steps="2"
       helper_size="0"
       apply_no_weight="true"
       apply_with_weight="true"
       only_selected="false"
       uniform="false" /><inkscape:path-effect
       effect="fillet_chamfer"
       id="path-effect47"
       is_visible="true"
       lpeversion="1"
       nodesatellites_param="F,0,0,1,0,0,0,1 @ F,0,0,1,0,0,0,1 @ F,0,0,1,0,0,0,1 @ F,0,0,1,0,0,0,1 @ F,0,0,1,0,0,0,1 @ F,0,0,1,0,0,0,1 @ F,0,0,1,0,0,0,1 @ F,0,0,1,0,0,0,1 @ F,0,0,1,0,4.5479841,0,1 @ F,0,0,1,0,0,0,1 @ F,0,0,1,0,0,0,1 @ F,0,0,1,0,0,0,1 @ F,0,0,1,0,0,0,1 @ F,0,0,1,0,0,0,1 @ F,0,0,1,0,0,0,1 @ F,0,0,1,0,0,0,1 @ F,0,0,1,0,0,0,1 @ F,0,0,1,0,0,0,1 @ F,0,0,1,0,0,0,1 @ F,0,0,1,0,0,0,1 @ F,0,0,1,0,0,0,1 @ F,0,0,1,0,0,0,1 @ F,0,0,1,0,0,0,1 @ F,0,0,1,0,5.0359575,0,1 @ F,0,0,1,0,4.8081598,0,1 @ F,0,0,1,0,0,0,1 @ F,0,0,1,0,0,0,1"
       radius="0"
       unit="px"
       method="auto"
       mode="F"
       chamfer_steps="1"
       flexible="false"
       use_knot_distance="true"
       apply_no_radius="true"
       apply_with_radius="true"
       only_selected="false"
       hide_knots="false" /><inkscape:path-effect
       effect="fillet_chamfer"
       id="path-effect45"
       is_visible="true"
       lpeversion="1"
       nodesatellites_param="F,0,0,1,0,0,0,1 @ F,0,0,1,0,0,0,1 @ F,0,0,1,0,0,0,1 @ F,0,0,1,0,0,0,1 @ F,0,0,1,0,0,0,1 @ F,0,0,1,0,0,0,1 @ F,0,0,1,0,0,0,1 @ F,0,0,1,0,5.5407252,0,1 @ F,0,0,1,0,0,0,1 @ F,0,0,1,0,0,0,1 @ F,0,0,1,0,5.8754091,0,1 @ F,0,0,1,0,0,0,1 @ F,0,0,1,0,0,0,1 @ F,0,0,1,0,0,0,1 @ F,0,0,1,0,0,0,1 @ F,0,0,1,0,0,0,1 @ F,0,0,1,0,0,0,1 @ F,0,0,1,0,0,0,1 @ F,0,0,1,0,0,0,1"
       radius="0"
       unit="px"
       method="auto"
       mode="F"
       chamfer_steps="1"
       flexible="false"
       use_knot_distance="true"
       apply_no_radius="true"
       apply_with_radius="true"
       only_selected="false"
       hide_knots="false" /><inkscape:path-effect
       effect="fillet_chamfer"
       id="path-effect43"
       is_visible="true"
       lpeversion="1"
       nodesatellites_param="F,0,0,1,0,0,0,1 @ F,0,0,1,0,0,0,1 @ F,0,0,1,0,0,0,1 @ F,0,0,1,0,8.0447013,0,1 @ F,0,0,1,0,8.9124635,0,1 @ F,0,0,1,0,8.9124635,0,1 @ F,0,0,1,0,8.0447013,0,1 @ F,0,1,1,0,3.4974762,0,1 @ F,0,0,1,0,0,0,1 @ F,0,0,1,0,3.4974762,0,1 @ F,0,1,1,0,3.4974762,0,1 @ F,0,0,1,0,0,0,1 @ F,0,0,1,0,0,0,1 @ F,0,0,1,0,0,0,1 @ F,0,0,1,0,0,0,1"
       radius="0"
       unit="px"
       method="auto"
       mode="F"
       chamfer_steps="1"
       flexible="false"
       use_knot_distance="true"
       apply_no_radius="true"
       apply_with_radius="true"
       only_selected="false"
       hide_knots="false" /><inkscape:path-effect
       effect="fillet_chamfer"
       id="path-effect41"
       is_visible="true"
       lpeversion="1"
       nodesatellites_param="F,0,0,1,0,0,0,1 @ F,0,0,1,0,0,0,1 @ F,0,0,1,0,0,0,1 @ F,0,0,1,0,0,0,1 @ F,0,0,1,0,0,0,1 @ F,0,0,1,0,0,0,1 @ F,0,0,1,0,0,0,1 @ F,0,0,1,0,4.4744365,0,1 @ F,0,0,1,0,0,0,1 @ F,0,0,1,0,0,0,1 @ F,0,1,1,0,4.4744365,0,1 @ F,0,1,1,0,4.4744365,0,1 @ F,0,0,1,0,0,0,1 @ F,0,0,1,0,0,0,1 @ F,0,0,1,0,0,0,1 @ F,0,0,1,0,0,0,1 @ F,0,0,1,0,0,0,1 @ F,0,0,1,0,0,0,1 @ F,0,0,1,0,0,0,1"
       radius="0"
       unit="px"
       method="auto"
       mode="F"
       chamfer_steps="1"
       flexible="false"
       use_knot_distance="true"
       apply_no_radius="true"
       apply_with_radius="true"
       only_selected="false"
       hide_knots="false" /><inkscape:path-effect
       effect="simplify"
       id="path-effect39"
       is_visible="true"
       lpeversion="1.3"
       threshold="10.8696"
       steps="1"
       smooth_angles="360"
       helper_size="0"
       simplify_individual_paths="false"
       simplify_just_coalesce="false" /><inkscape:path-effect
       effect="fillet_chamfer"
       id="path-effect32"
       is_visible="true"
       lpeversion="1"
       nodesatellites_param="F,0,0,1,0,0,0,1 @ F,0,0,1,0,0,0,1 @ F,0,0,1,0,0,0,1 @ F,0,0,1,0,0,0,1 @ F,0,0,1,0,0,0,1 @ F,0,0,1,0,0,0,1 @ F,0,0,1,0,0,0,1 @ F,0,0,1,0,5.5407252,0,1 @ F,0,0,1,0,0,0,1 @ F,0,0,1,0,0,0,1 @ F,0,0,1,0,5.8754091,0,1 @ F,0,0,1,0,0,0,1 @ F,0,0,1,0,0,0,1 @ F,0,0,1,0,0,0,1 @ F,0,0,1,0,0,0,1 @ F,0,0,1,0,0,0,1 @ F,0,0,1,0,0,0,1 @ F,0,0,1,0,0,0,1 @ F,0,0,1,0,0,0,1"
       radius="0"
       unit="px"
       method="auto"
       mode="F"
       chamfer_steps="1"
       flexible="false"
       use_knot_distance="true"
       apply_no_radius="true"
       apply_with_radius="true"
       only_selected="false"
       hide_knots="false" /><inkscape:path-effect
       effect="fillet_chamfer"
       id="path-effect31"
       is_visible="true"
       lpeversion="1"
       nodesatellites_param="F,0,0,1,0,0,0,1 @ F,0,0,1,0,0,0,1 @ F,0,0,1,0,0,0,1 @ F,0,0,1,0,0,0,1 @ F,0,0,1,0,0,0,1 @ F,0,0,1,0,0,0,1 @ F,0,0,1,0,0,0,1 @ F,0,0,1,0,0,0,1 @ F,0,0,1,0,4.5479841,0,1 @ F,0,0,1,0,0,0,1 @ F,0,0,1,0,0,0,1 @ F,0,0,1,0,0,0,1 @ F,0,0,1,0,0,0,1 @ F,0,0,1,0,0,0,1 @ F,0,0,1,0,0,0,1 @ F,0,0,1,0,0,0,1 @ F,0,0,1,0,0,0,1 @ F,0,0,1,0,0,0,1 @ F,0,0,1,0,0,0,1 @ F,0,0,1,0,0,0,1 @ F,0,0,1,0,0,0,1 @ F,0,0,1,0,0,0,1 @ F,0,0,1,0,0,0,1 @ F,0,0,1,0,5.0359575,0,1 @ F,0,0,1,0,4.8081598,0,1 @ F,0,0,1,0,0,0,1 @ F,0,0,1,0,0,0,1"
       radius="0"
       unit="px"
       method="auto"
       mode="F"
       chamfer_steps="1"
       flexible="false"
       use_knot_distance="true"
       apply_no_radius="true"
       apply_with_radius="true"
       only_selected="false"
       hide_knots="false" /><inkscape:path-effect
       effect="fillet_chamfer"
       id="path-effect30"
       is_visible="true"
       lpeversion="1"
       nodesatellites_param="F,0,0,1,0,0,0,1 @ F,0,0,1,0,0,0,1 @ F,0,0,1,0,0,0,1 @ F,0,0,1,0,0,0,1 @ F,0,0,1,0,0,0,1 @ F,0,0,1,0,0,0,1 @ F,0,0,1,0,0,0,1 @ F,0,0,1,0,4.4744365,0,1 @ F,0,0,1,0,0,0,1 @ F,0,0,1,0,0,0,1 @ F,0,1,1,0,4.4744365,0,1 @ F,0,1,1,0,4.4744365,0,1 @ F,0,0,1,0,0,0,1 @ F,0,0,1,0,0,0,1 @ F,0,0,1,0,0,0,1 @ F,0,0,1,0,0,0,1 @ F,0,0,1,0,0,0,1 @ F,0,0,1,0,0,0,1 @ F,0,0,1,0,0,0,1"
       radius="0"
       unit="px"
       method="auto"
       mode="F"
       chamfer_steps="1"
       flexible="false"
       use_knot_distance="true"
       apply_no_radius="true"
       apply_with_radius="true"
       only_selected="false"
       hide_knots="false" /><inkscape:path-effect
       effect="fillet_chamfer"
       id="path-effect29"
       is_visible="true"
       lpeversion="1"
       nodesatellites_param="F,0,0,1,0,0,0,1 @ F,0,0,1,0,0,0,1 @ F,0,0,1,0,0,0,1 @ F,0,0,1,0,8.0447013,0,1 @ F,0,0,1,0,8.9124635,0,1 @ F,0,0,1,0,8.9124635,0,1 @ F,0,0,1,0,8.0447013,0,1 @ F,0,1,1,0,3.4974762,0,1 @ F,0,0,1,0,0,0,1 @ F,0,0,1,0,3.4974762,0,1 @ F,0,1,1,0,3.4974762,0,1 @ F,0,0,1,0,0,0,1 @ F,0,0,1,0,0,0,1 @ F,0,0,1,0,0,0,1 @ F,0,0,1,0,0,0,1"
       radius="0"
       unit="px"
       method="auto"
       mode="F"
       chamfer_steps="1"
       flexible="false"
       use_knot_distance="true"
       apply_no_radius="true"
       apply_with_radius="true"
       only_selected="false"
       hide_knots="false" /><inkscape:path-effect
       effect="bspline"
       id="path-effect28"
       is_visible="true"
       lpeversion="1.3"
       weight="33.333333"
       steps="2"
       helper_size="0"
       apply_no_weight="true"
       apply_with_weight="true"
       only_selected="false"
       uniform="false" /><inkscape:path-effect
       effect="bspline"
       id="path-effect27"
       is_visible="true"
       lpeversion="1.3"
       weight="33.333333"
       steps="2"
       helper_size="0"
       apply_no_weight="true"
       apply_with_weight="true"
       only_selected="false"
       uniform="false" /><inkscape:path-effect
       effect="bspline"
       id="path-effect24"
       is_visible="true"
       lpeversion="1.3"
       weight="33.333333"
       steps="2"
       helper_size="0"
       apply_no_weight="true"
       apply_with_weight="true"
       only_selected="false"
       uniform="false" /><inkscape:path-effect
       effect="simplify"
       id="path-effect23"
       is_visible="true"
       lpeversion="1.3"
       threshold="10.8696"
       steps="1"
       smooth_angles="360"
       helper_size="0"
       simplify_individual_paths="false"
       simplify_just_coalesce="false" /><inkscape:path-effect
       effect="simplify"
       id="path-effect10"
       is_visible="true"
       lpeversion="1.3"
       threshold="10.8696"
       steps="1"
       smooth_angles="360"
       helper_size="0"
       simplify_individual_paths="false"
       simplify_just_coalesce="false" /><inkscape:path-effect
       effect="skeletal"
       id="path-effect9"
       is_visible="true"
       lpeversion="1"
       pattern="M 0,4.9921384 C 0,2.236478 2.236478,0 4.9921384,0 c 2.7556604,0 4.9921384,2.236478 4.9921384,4.9921384 0,2.7556604 -2.236478,4.9921384 -4.9921384,4.9921384 C 2.236478,9.9842768 0,7.7477988 0,4.9921384 Z"
       copytype="single_stretched"
       prop_scale="5.5"
       scale_y_rel="false"
       spacing="0"
       normal_offset="0"
       tang_offset="0"
       prop_units="false"
       vertical_pattern="false"
       hide_knot="false"
       fuse_tolerance="0" /><inkscape:path-effect
       effect="simplify"
       id="path-effect8"
       is_visible="true"
       lpeversion="1.3"
       threshold="10.8696"
       steps="1"
       smooth_angles="360"
       helper_size="0"
       simplify_individual_paths="false"
       simplify_just_coalesce="false" /><inkscape:path-effect
       effect="skeletal"
       id="path-effect7"
       is_visible="true"
       lpeversion="1"
       pattern="M 0,4.9921384 C 0,2.236478 2.236478,0 4.9921384,0 c 2.7556604,0 4.9921384,2.236478 4.9921384,4.9921384 0,2.7556604 -2.236478,4.9921384 -4.9921384,4.9921384 C 2.236478,9.9842768 0,7.7477988 0,4.9921384 Z"
       copytype="single_stretched"
       prop_scale="5.5"
       scale_y_rel="false"
       spacing="0"
       normal_offset="0"
       tang_offset="0"
       prop_units="false"
       vertical_pattern="false"
       hide_knot="false"
       fuse_tolerance="0" /><inkscape:path-effect
       effect="simplify"
       id="path-effect6"
       is_visible="true"
       lpeversion="1.3"
       threshold="0.00108696"
       steps="1"
       smooth_angles="360"
       helper_size="0"
       simplify_individual_paths="false"
       simplify_just_coalesce="false" /><inkscape:path-effect
       effect="bspline"
       id="path-effect4"
       is_visible="true"
       lpeversion="1.3"
       weight="33.333333"
       steps="2"
       helper_size="0"
       apply_no_weight="true"
       apply_with_weight="true"
       only_selected="false"
       uniform="false" /><inkscape:path-effect
       effect="bspline"
       id="path-effect3"
       is_visible="true"
       lpeversion="1.3"
       weight="33.333333"
       steps="2"
       helper_size="0"
       apply_no_weight="true"
       apply_with_weight="true"
       only_selected="false"
       uniform="false" /><inkscape:path-effect
       effect="bspline"
       id="path-effect2"
       is_visible="true"
       lpeversion="1.3"
       weight="33.333333"
       steps="2"
       helper_size="0"
       apply_no_weight="true"
       apply_with_weight="true"
       only_selected="false"
       uniform="false" /><linearGradient
       id="deviconNodejs0"
       x1="34.513"
       x2="27.157"
       y1="15.535"
       y2="30.448"
       gradientTransform="matrix(1.6365088,0,0,1.6365088,290.58155,21.983)"
       gradientUnits="userSpaceOnUse"><stop
         stop-color="#3F873F"
         id="stop3" /><stop
         offset=".33"
         stop-color="#3F8B3D"
         id="stop4" /><stop
         offset=".637"
         stop-color="#3E9638"
         id="stop5" /><stop
         offset=".934"
         stop-color="#3DA92E"
         id="stop6" /><stop
         offset="1"
         stop-color="#3DAE2B"
         id="stop7" /></linearGradient><linearGradient
       id="deviconNodejs1"
       x1="30.009001"
       x2="50.533001"
       y1="23.358999"
       y2="8.2880001"
       gradientTransform="matrix(1.6365088,0,0,1.6365088,290.58155,21.983)"
       gradientUnits="userSpaceOnUse"><stop
         offset=".138"
         stop-color="#3F873F"
         id="stop8" /><stop
         offset=".402"
         stop-color="#52A044"
         id="stop9" /><stop
         offset=".713"
         stop-color="#64B749"
         id="stop10" /><stop
         offset=".908"
         stop-color="#6ABF4B"
         id="stop11" /></linearGradient><linearGradient
       id="deviconNodejs2"
       x1="21.917"
       x2="40.555"
       y1="22.261"
       y2="22.261"
       gradientTransform="matrix(1.6365088,0,0,1.6365088,290.58155,21.983)"
       gradientUnits="userSpaceOnUse"><stop
         offset=".092"
         stop-color="#6ABF4B"
         id="stop12" /><stop
         offset=".287"
         stop-color="#64B749"
         id="stop13" /><stop
         offset=".598"
         stop-color="#52A044"
         id="stop14" /><stop
         offset=".862"
         stop-color="#3F873F"
         id="stop15" /></linearGradient><clipPath
       clipPathUnits="userSpaceOnUse"
       id="clipPath40"><path
         style="stroke-width:0.172619"
         d="m 348.67952,70.223354 c 0.46606,0 0.88035,-0.241647 1.10476,-0.638688 l 6.09343,-10.58154 c 0.10353,-0.172603 0.15539,-0.379772 0.17261,-0.586901 v -0.103563 c 0,-0.207127 -0.069,-0.397034 -0.17261,-0.586904 l -6.09343,-10.564284 c -0.22443,-0.397034 -0.65596,-0.638683 -1.10476,-0.638683 l -16.39881,0.01744 c -0.22439,0 -0.43155,0.120825 -0.55238,0.310732 -0.12082,0.189905 -0.12082,0.431549 0,0.638691 l 3.60774,6.283333 c 0.24165,0.397034 0.65595,0.638688 1.10476,0.638688 h 7.66428 c 0.44881,0 0.88035,0.241647 1.10475,0.638694 l 1.53632,2.675557 c 0.12083,0.207126 0.17261,0.414292 0.17261,0.638693 0,0.224385 -0.0518,0.448805 -0.17261,0.638688 l -1.53632,2.675594 c -0.22438,0.397034 -0.65594,0.638688 -1.10475,0.638688 h -7.66428 c -0.44881,0 -0.88036,0.241647 -1.10476,0.638691 l -3.60774,6.28332 c -0.12082,0.189865 -0.12082,0.448807 0,0.638688 0.10352,0.189868 0.32799,0.310732 0.55238,0.310732 z"
         id="path41" /></clipPath></defs><g
     inkscape:label="Layer 1"
     inkscape:groupmode="layer"
     id="layer1"><rect
       style="fill:#f3fafa;stroke-width:0.733999;stroke-linecap:square;stroke-miterlimit:6.7;fill-opacity:1"
       id="rect1"
       width="529.16669"
       height="529.16669"
       x="0"
       y="0" /><g
       id="g26"
       transform="matrix(0.35359401,0,0,0.35359401,419.49198,397.1734)"><path
         fill="#ff3e00"
         d="m 1235.4775,-203.45639 a 178.59755,178.59755 0 0 0 -234.7242,-48.84432 l -133.69395,82.6808 a 148.50288,148.50288 0 0 0 -69.2843,99.698721 152.98126,152.98126 0 0 0 15.9256,100.67366 146.45279,146.45279 0 0 0 -22.9142,55.73138 155.03136,155.03136 0 0 0 27.8642,119.980739 178.67718,178.67718 0 0 0 234.74675,48.92331 l 133.7165,-82.66049 a 148.64221,148.64221 0 0 0 69.2843,-99.698709 152.72251,152.72251 0 0 0 -15.9256,-100.75341 146.25374,146.25374 0 0 0 22.9293,-55.73138 154.95174,154.95174 0 0 0 -27.9244,-120.000301"
         id="path1"
         style="stroke-width:19.9039" /><path
         fill="#ffffff"
         d="m 987.71645,213.33134 a 107.73973,107.73973 0 0 1 -113.8866,-40.98232 93.110371,93.110371 0 0 1 -16.881,-72.15199 85.726031,85.726031 0 0 1 3.1595,-12.140929 l 2.5577,-7.46255 6.8457,4.73932 a 174.35803,174.35803 0 0 0 52.3056,25.357609 l 4.8897,1.45189 -0.7522,4.71675 a 28.681498,28.681498 0 0 0 5.4163,19.26721 32.443332,32.443332 0 0 0 34.6948,12.65849 30.094674,30.094674 0 0 0 8.1772,-3.48302 L 1107.5986,62.621001 a 27.188706,27.188706 0 0 0 12.6006,-18.09216 28.004766,28.004766 0 0 0 -4.8145,-21.71586 32.522948,32.522948 0 0 0 -34.3563,-12.38015 30.034962,30.034962 0 0 0 -8.2224,3.50559 l -51.1921,31.52775 a 98.20577,98.20577 0 0 1 -27.14965,11.58425 107.77953,107.77953 0 0 1 -113.9919,-41.00188 93.110371,93.110371 0 0 1 -16.5349,-72.21142 89.70681,89.70681 0 0 1 41.5781,-59.911001 l 133.51345,-82.6808 a 98.16596,98.16596 0 0 1 27.1495,-11.56394 107.73973,107.73973 0 0 1 114.0069,40.98232 93.130276,93.130276 0 0 1 16.8811,72.151231 85.029396,85.029396 0 0 1 -3.1596,12.14169 l -2.5577,7.46254 -6.8457,-4.71675 A 173.42255,173.42255 0 0 0 1132.198,-107.6552 l -4.8898,-1.47445 0.7523,-4.71675 a 28.621786,28.621786 0 0 0 -5.4164,-19.26721 32.423428,32.423428 0 0 0 -34.3337,-12.38016 29.537365,29.537365 0 0 0 -8.1772,3.50559 l -133.79935,82.402461 a 26.929956,26.929956 0 0 0 -12.5554,18.0726 27.746016,27.746016 0 0 0 4.8145,21.73542 32.522948,32.522948 0 0 0 34.3563,12.3598498 30.612175,30.612175 0 0 0 8.2224,-3.4830298 l 50.99665,-31.54731 a 97.529033,97.529033 0 0 1 27.142,-11.56469 107.81934,107.81934 0 0 1 114.0144,40.98232 93.170086,93.170086 0 0 1 16.7757,72.15124 89.567482,89.567482 0 0 1 -41.5781,59.970429 l -133.4983,82.6808 a 97.529033,97.529033 0 0 1 -27.14205,11.56469"
         id="path2"
         style="stroke-width:19.9039" /></g><path
       id="path15"
       style="fill:none;fill-opacity:1;stroke:#ffffff;stroke-width:70;stroke-linecap:round;stroke-miterlimit:6.7;stroke-dasharray:none;stroke-opacity:1"
       d="m 2051.1847,1386.9574 c 0,0 0.1187,-24.9207 6.0366,-34.9593 9.9377,-16.8574 25.7598,-28.4252 45.3284,-28.4252 h 137.4125 c 20.9037,0 42.3841,25.3162 42.3841,46.2199 v 151.9351 c 0,19.718 24.4846,39.3104 44.2025,39.3104 h 253.897 c 183.5502,0 159.3031,-237.4654 0,-237.4654 h -179.7142 m -455.5908,237.4654 h -232.8753 c -155.4042,0 -171.8009,-237.4654 0,-237.4654 h 266.7992 c 42.2563,0 72.12,77.5395 72.12,77.5395 v 159.9259"
       sodipodi:nodetypes="cssssssssccssscc"
       transform="translate(760.25167,-1258.5134)"
       inkscape:original-d="m 2051.1847,1386.9574 c 0,0 0.1187,-24.9207 6.0366,-34.9593 9.9377,-16.8574 25.7598,-28.4252 45.3284,-28.4252 h 137.4125 c 20.9037,0 42.3841,25.3162 42.3841,46.2199 v 151.9351 c 0,19.718 24.4846,39.3104 44.2025,39.3104 h 253.897 c 183.5502,0 159.3031,-237.4654 0,-237.4654 h -179.7142 m -455.5908,237.4654 h -232.8753 c -155.4042,0 -171.8009,-237.4654 0,-237.4654 h 266.7992 c 42.2563,0 72.12,77.5395 72.12,77.5395 v 159.9259"
       inkscape:path-effect="#path-effect20" /><g
       id="g25"
       transform="matrix(0.30449922,-0.05019474,0.05019474,0.30449922,-510.62625,45.486784)"><path
         style="color:#000000;fill:#ff3e00;fill-opacity:1;stroke-width:0.84157;stroke-linecap:round;stroke-miterlimit:6.7;-inkscape-stroke:none"
         sodipodi:type="inkscape:offset"
         inkscape:radius="78.519829"
         inkscape:original="M 1949.3281 987.16211 C 1898.3493 987.16211 1854.4344 1006.3171 1826.3789 1037.2461 C 1798.3233 1068.1751 1786.3912 1108.1902 1787.7207 1146.6992 C 1790.3797 1223.717 1852.7687 1303.0078 1949.3281 1303.0078 L 2134.1973 1303.0078 C 2160.0423 1303.0078 2180.9941 1282.0559 2180.9941 1256.2109 C 2180.9941 1230.366 2160.0423 1209.4141 2134.1973 1209.4141 L 1949.3281 1209.4141 C 1900.4403 1209.4141 1882.4333 1177.578 1881.2559 1143.4707 C 1880.667 1126.4171 1885.9564 1110.87 1895.7012 1100.127 C 1905.4461 1089.3841 1919.9102 1080.7559 1949.3281 1080.7559 L 2199.0332 1080.7559 C 2211.2652 1080.7559 2219.7363 1100.4305 2219.7363 1112.4277 L 2219.7363 1256.2109 C 2219.7363 1282.0559 2240.6883 1303.0078 2266.5332 1303.0078 C 2292.3782 1303.0078 2313.3301 1282.0559 2313.3301 1256.2109 C 2313.3301 1152.9432 2313.2951 1093.7013 2313.3301 1093.5059 C 2313.3301 1093.5059 2313.3714 1089.732 2313.834 1085.2324 C 2314.0009 1083.608 2314.558 1081.9887 2315.0156 1080.7559 L 2435.8281 1080.7559 C 2436.1387 1080.7559 2436.0879 1081.0821 2436.0879 1081.1465 L 2436.0879 1219.418 C 2436.0879 1248.0149 2450.8727 1267.1263 2466.1855 1280.2578 C 2481.4982 1293.3893 2499.5291 1303.0078 2524.2559 1303.0078 L 2761.8848 1303.0078 C 2814.9226 1303.0078 2860.0365 1284.6122 2889.3281 1253.6328 C 2918.6198 1222.6533 2930.9441 1181.6974 2928.9531 1142.6992 C 2924.971 1064.7027 2859.6852 987.16211 2761.8848 987.16211 L 2593.6855 987.16211 C 2567.8406 987.16211 2546.8906 1008.114 2546.8906 1033.959 C 2546.8906 1059.8039 2567.8406 1080.7559 2593.6855 1080.7559 L 2761.8848 1080.7559 C 2813.1805 1080.7559 2833.7892 1114.3419 2835.4805 1147.4707 C 2836.3261 1164.035 2831.4323 1178.6395 2821.3223 1189.332 C 2811.2124 1200.0246 2794.7419 1209.4141 2761.8848 1209.4141 L 2538.1758 1209.4141 C 2534.1387 1209.4141 2529.6816 1204.8184 2529.6816 1200.7812 L 2529.6816 1077.2188 C 2529.6816 1051.4073 2519.161 1032.6178 2505.2949 1017.0859 C 2491.4286 1001.554 2471.8906 987.16211 2443.2168 987.16211 L 2314.6074 987.16211 C 2292.2932 987.16211 2272.3873 995.78212 2256.6523 1008.416 C 2242.4952 996.37466 2224.0582 987.16211 2199.0352 987.16211 L 1949.3281 987.16211 z "
         xlink:href="#path22"
         id="path25"
         inkscape:href="#path22"
         d="m 1949.3281,908.64258 c -70.6476,0 -136.4961,26.66909 -181.1074,75.84961 -43.2552,47.68531 -60.9258,108.34181 -58.9727,164.91601 4.0563,117.4886 100.5359,232.1191 240.0801,232.1191 h 184.8692 c 24.1643,0 46.8499,-7.2508 66.1679,-19.5078 19.318,12.257 42.0036,19.5078 66.168,19.5078 52.1717,0 97.6832,-33.3416 116.2988,-79.5117 10.1564,15.9267 21.8136,28.9078 32.2383,37.8477 24.0514,20.6254 64.0965,41.664 109.1856,41.664 h 237.6289 c 71.1935,0 138.2156,-25 184.498,-73.9492 45.4732,-48.0934 63.9633,-110.6107 60.9883,-168.8828 -6.0753,-118.9949 -106.1834,-230.05272 -245.4863,-230.05272 h -168.1993 c -26.2568,0 -50.8058,8.49314 -71.1328,22.75781 -21.8127,-12.91785 -48.6927,-22.75781 -79.3359,-22.75781 h -128.6094 c -20.8293,0 -40.3598,4.01778 -58.1074,10.65625 -17.4847,-6.47088 -36.9103,-10.65625 -57.4648,-10.65625 z m 442.6153,184.61522 c -0,0.012 -0,0.018 -0,0.029 0,-0.012 7e-4,-0.013 0,-0.025 a 78.527681,78.527681 0 0 0 0,-0 z" /><path
         style="color:#000000;fill:#ffffff;fill-opacity:1;stroke-width:0.935929;stroke-linecap:round;stroke-miterlimit:6.7;-inkscape-stroke:none"
         d="m 1949.3283,987.16244 c -50.9788,0 -94.893,19.15406 -122.9485,50.08306 -28.0556,30.929 -39.9895,70.9454 -38.66,109.4544 2.659,77.0178 65.0491,156.3074 161.6085,156.3074 h 184.8696 c 25.845,0 46.7963,-20.9515 46.7963,-46.7965 0,-25.8449 -20.9513,-46.7964 -46.7963,-46.7964 h -184.8696 c -48.8878,0 -66.8949,-31.8373 -68.0723,-65.9446 -0.5889,-17.0536 4.6998,-32.6004 14.4446,-43.3434 9.7449,-10.7429 24.2098,-19.3711 53.6277,-19.3711 h 249.7046 c 12.232,0 20.7037,19.6745 20.7037,31.6717 v 143.7838 c 0,25.845 20.9515,46.7965 46.7964,46.7965 25.845,0 46.7964,-20.9515 46.7964,-46.7965 0,-103.2677 -0.035,-162.5099 0,-162.7053 0,0 0.042,-3.7739 0.5046,-8.2735 0.1669,-1.6244 0.7233,-3.2439 1.1809,-4.4767 h 120.8139 c 0.3106,0 0.2597,0.326 0.2597,0.3904 v 138.2732 c 0,28.5969 14.785,47.7075 30.0978,60.839 15.3127,13.1315 33.3428,22.7494 58.0696,22.7494 h 237.6289 c 53.0378,0 98.1518,-18.3945 127.4434,-49.3739 29.2917,-30.9795 41.6163,-71.9368 39.6253,-110.935 -3.9821,-77.9965 -69.2683,-155.53596 -167.0687,-155.53596 h -168.1985 c -25.8449,0 -46.7964,20.95146 -46.7964,46.79646 0,25.8449 20.9515,46.7964 46.7964,46.7964 h 168.1985 c 51.2957,0 71.9052,33.5872 73.5965,66.716 0.8456,16.5643 -4.0496,31.1682 -14.1596,41.8607 -10.1099,10.6926 -26.5798,20.0824 -59.4369,20.0824 h -223.7086 c -4.0371,0 -8.4952,-4.5953 -8.4952,-8.6324 v -123.5638 c 0,-25.8114 -10.5191,-44.5998 -24.3852,-60.1317 -13.8663,-15.5319 -33.4047,-29.92406 -62.0785,-29.92406 h -128.6097 c -22.3142,0 -42.2193,8.62006 -57.9543,21.25396 -14.1571,-12.04136 -32.5952,-21.25396 -57.6182,-21.25396 z"
         id="path22"
         sodipodi:nodetypes="sssssssssssssssscscsssssssssssssssssssssscss" /></g></g></svg>
