<?xml version="1.0" encoding="UTF-8" standalone="no"?>
<!-- Created with Inkscape (http://www.inkscape.org/) -->

<svg
   width="2000"
   height="2000"
   viewBox="0 0 529.16667 529.16667"
   version="1.1"
   id="svg1"
   inkscape:version="1.3.2 (091e20ef0f, 2023-11-25, custom)"
   sodipodi:docname="smc2.svg"
   inkscape:export-filename="rust.png"
   inkscape:export-xdpi="1500"
   inkscape:export-ydpi="1500"
   xml:space="preserve"
   xmlns:inkscape="http://www.inkscape.org/namespaces/inkscape"
   xmlns:sodipodi="http://sodipodi.sourceforge.net/DTD/sodipodi-0.dtd"
   xmlns="http://www.w3.org/2000/svg"
   xmlns:svg="http://www.w3.org/2000/svg"><sodipodi:namedview
     id="namedview1"
     pagecolor="#505050"
     bordercolor="#ffffff"
     borderopacity="1"
     inkscape:showpageshadow="0"
     inkscape:pageopacity="0"
     inkscape:pagecheckerboard="1"
     inkscape:deskcolor="#524b4b"
     inkscape:document-units="mm"
     inkscape:zoom="0.4000041"
     inkscape:cx="709.99272"
     inkscape:cy="1011.2396"
     inkscape:window-width="1920"
     inkscape:window-height="1048"
     inkscape:window-x="0"
     inkscape:window-y="32"
     inkscape:window-maximized="1"
     inkscape:current-layer="layer1"
     showguides="true"><sodipodi:guide
       position="1149.9076,751.23014"
       orientation="0,-1"
       id="guide14"
       inkscape:locked="false" /><sodipodi:guide
       position="1214.0744,566.08758"
       orientation="0,-1"
       id="guide15"
       inkscape:locked="false" /><inkscape:page
       x="0"
       y="0"
       width="529.16669"
       height="529.16669"
       id="page51"
       margin="10"
       bleed="0" /></sodipodi:namedview><defs
     id="defs1"><inkscape:path-effect
       effect="bspline"
       id="path-effect54"
       is_visible="true"
       lpeversion="1.3"
       weight="33.333333"
       steps="2"
       helper_size="0"
       apply_no_weight="true"
       apply_with_weight="true"
       only_selected="false"
       uniform="false" /><inkscape:path-effect
       effect="bspline"
       id="path-effect52"
       is_visible="true"
       lpeversion="1.3"
       weight="33.333333"
       steps="2"
       helper_size="0"
       apply_no_weight="true"
       apply_with_weight="true"
       only_selected="false"
       uniform="false" /><inkscape:path-effect
       effect="bspline"
       id="path-effect50"
       is_visible="true"
       lpeversion="1.3"
       weight="33.333333"
       steps="2"
       helper_size="0"
       apply_no_weight="true"
       apply_with_weight="true"
       only_selected="false"
       uniform="false" /><inkscape:path-effect
       effect="bspline"
       id="path-effect46"
       is_visible="true"
       lpeversion="1.3"
       weight="33.333333"
       steps="2"
       helper_size="0"
       apply_no_weight="true"
       apply_with_weight="true"
       only_selected="false"
       uniform="false" /><inkscape:path-effect
       effect="bspline"
       id="path-effect42"
       is_visible="true"
       lpeversion="1.3"
       weight="33.333333"
       steps="2"
       helper_size="0"
       apply_no_weight="true"
       apply_with_weight="true"
       only_selected="false"
       uniform="false" /><inkscape:path-effect
       effect="bspline"
       id="path-effect34"
       is_visible="true"
       lpeversion="1.3"
       weight="33.333333"
       steps="2"
       helper_size="0"
       apply_no_weight="true"
       apply_with_weight="true"
       only_selected="false"
       uniform="false" /><inkscape:path-effect
       effect="bspline"
       id="path-effect33"
       is_visible="true"
       lpeversion="1.3"
       weight="33.333333"
       steps="2"
       helper_size="0"
       apply_no_weight="true"
       apply_with_weight="true"
       only_selected="false"
       uniform="false" /><inkscape:path-effect
       effect="bspline"
       id="path-effect26"
       is_visible="true"
       lpeversion="1.3"
       weight="33.333333"
       steps="2"
       helper_size="0"
       apply_no_weight="true"
       apply_with_weight="true"
       only_selected="false"
       uniform="false" /><inkscape:path-effect
       effect="bspline"
       id="path-effect25"
       is_visible="true"
       lpeversion="1.3"
       weight="33.333333"
       steps="2"
       helper_size="0"
       apply_no_weight="true"
       apply_with_weight="true"
       only_selected="false"
       uniform="false" /><inkscape:path-effect
       effect="bspline"
       id="path-effect22"
       is_visible="true"
       lpeversion="1.3"
       weight="33.333333"
       steps="2"
       helper_size="0"
       apply_no_weight="true"
       apply_with_weight="true"
       only_selected="false"
       uniform="false" /><inkscape:path-effect
       effect="simplify"
       id="path-effect21"
       is_visible="true"
       lpeversion="1.3"
       threshold="10.8696"
       steps="1"
       smooth_angles="360"
       helper_size="0"
       simplify_individual_paths="false"
       simplify_just_coalesce="false" /><inkscape:path-effect
       effect="simplify"
       id="path-effect20"
       is_visible="true"
       lpeversion="1.3"
       threshold="10.8696"
       steps="1"
       smooth_angles="360"
       helper_size="0"
       simplify_individual_paths="false"
       simplify_just_coalesce="false" /><inkscape:path-effect
       effect="simplify"
       id="path-effect18"
       is_visible="true"
       lpeversion="1.3"
       threshold="10.8696"
       steps="1"
       smooth_angles="360"
       helper_size="0"
       simplify_individual_paths="false"
       simplify_just_coalesce="false" /><inkscape:path-effect
       effect="bspline"
       id="path-effect17"
       is_visible="true"
       lpeversion="1.3"
       weight="33.333333"
       steps="2"
       helper_size="0"
       apply_no_weight="true"
       apply_with_weight="true"
       only_selected="false"
       uniform="false" /><inkscape:path-effect
       effect="bspline"
       id="path-effect16"
       is_visible="true"
       lpeversion="1.3"
       weight="33.333333"
       steps="2"
       helper_size="0"
       apply_no_weight="true"
       apply_with_weight="true"
       only_selected="false"
       uniform="false" /><inkscape:path-effect
       effect="bspline"
       id="path-effect15"
       is_visible="true"
       lpeversion="1.3"
       weight="33.333333"
       steps="2"
       helper_size="0"
       apply_no_weight="true"
       apply_with_weight="true"
       only_selected="false"
       uniform="false" /><inkscape:path-effect
       effect="bspline"
       id="path-effect14"
       is_visible="true"
       lpeversion="1.3"
       weight="33.333333"
       steps="2"
       helper_size="0"
       apply_no_weight="true"
       apply_with_weight="true"
       only_selected="false"
       uniform="false" /><inkscape:path-effect
       effect="bspline"
       id="path-effect13"
       is_visible="true"
       lpeversion="1.3"
       weight="33.333333"
       steps="2"
       helper_size="0"
       apply_no_weight="true"
       apply_with_weight="true"
       only_selected="false"
       uniform="false" /><inkscape:path-effect
       effect="simplify"
       id="path-effect12"
       is_visible="true"
       lpeversion="1.3"
       threshold="10.8696"
       steps="1"
       smooth_angles="360"
       helper_size="0"
       simplify_individual_paths="false"
       simplify_just_coalesce="false" /><inkscape:path-effect
       effect="simplify"
       id="path-effect11"
       is_visible="true"
       lpeversion="1.3"
       threshold="10.8696"
       steps="1"
       smooth_angles="360"
       helper_size="0"
       simplify_individual_paths="false"
       simplify_just_coalesce="false" /><inkscape:path-effect
       effect="simplify"
       id="path-effect5"
       is_visible="true"
       lpeversion="1.3"
       threshold="10.8696"
       steps="1"
       smooth_angles="360"
       helper_size="0"
       simplify_individual_paths="false"
       simplify_just_coalesce="false" /><inkscape:path-effect
       effect="simplify"
       id="path-effect1"
       is_visible="true"
       lpeversion="1.3"
       threshold="10.8696"
       steps="1"
       smooth_angles="360"
       helper_size="0"
       simplify_individual_paths="false"
       simplify_just_coalesce="false" /><inkscape:path-effect
       effect="bspline"
       id="path-effect49"
       is_visible="true"
       lpeversion="1.3"
       weight="33.333333"
       steps="2"
       helper_size="0"
       apply_no_weight="true"
       apply_with_weight="true"
       only_selected="false"
       uniform="false" /><inkscape:path-effect
       effect="fillet_chamfer"
       id="path-effect47"
       is_visible="true"
       lpeversion="1"
       nodesatellites_param="F,0,0,1,0,0,0,1 @ F,0,0,1,0,0,0,1 @ F,0,0,1,0,0,0,1 @ F,0,0,1,0,0,0,1 @ F,0,0,1,0,0,0,1 @ F,0,0,1,0,0,0,1 @ F,0,0,1,0,0,0,1 @ F,0,0,1,0,0,0,1 @ F,0,0,1,0,4.5479841,0,1 @ F,0,0,1,0,0,0,1 @ F,0,0,1,0,0,0,1 @ F,0,0,1,0,0,0,1 @ F,0,0,1,0,0,0,1 @ F,0,0,1,0,0,0,1 @ F,0,0,1,0,0,0,1 @ F,0,0,1,0,0,0,1 @ F,0,0,1,0,0,0,1 @ F,0,0,1,0,0,0,1 @ F,0,0,1,0,0,0,1 @ F,0,0,1,0,0,0,1 @ F,0,0,1,0,0,0,1 @ F,0,0,1,0,0,0,1 @ F,0,0,1,0,0,0,1 @ F,0,0,1,0,5.0359575,0,1 @ F,0,0,1,0,4.8081598,0,1 @ F,0,0,1,0,0,0,1 @ F,0,0,1,0,0,0,1"
       radius="0"
       unit="px"
       method="auto"
       mode="F"
       chamfer_steps="1"
       flexible="false"
       use_knot_distance="true"
       apply_no_radius="true"
       apply_with_radius="true"
       only_selected="false"
       hide_knots="false" /><inkscape:path-effect
       effect="fillet_chamfer"
       id="path-effect45"
       is_visible="true"
       lpeversion="1"
       nodesatellites_param="F,0,0,1,0,0,0,1 @ F,0,0,1,0,0,0,1 @ F,0,0,1,0,0,0,1 @ F,0,0,1,0,0,0,1 @ F,0,0,1,0,0,0,1 @ F,0,0,1,0,0,0,1 @ F,0,0,1,0,0,0,1 @ F,0,0,1,0,5.5407252,0,1 @ F,0,0,1,0,0,0,1 @ F,0,0,1,0,0,0,1 @ F,0,0,1,0,5.8754091,0,1 @ F,0,0,1,0,0,0,1 @ F,0,0,1,0,0,0,1 @ F,0,0,1,0,0,0,1 @ F,0,0,1,0,0,0,1 @ F,0,0,1,0,0,0,1 @ F,0,0,1,0,0,0,1 @ F,0,0,1,0,0,0,1 @ F,0,0,1,0,0,0,1"
       radius="0"
       unit="px"
       method="auto"
       mode="F"
       chamfer_steps="1"
       flexible="false"
       use_knot_distance="true"
       apply_no_radius="true"
       apply_with_radius="true"
       only_selected="false"
       hide_knots="false" /><inkscape:path-effect
       effect="fillet_chamfer"
       id="path-effect43"
       is_visible="true"
       lpeversion="1"
       nodesatellites_param="F,0,0,1,0,0,0,1 @ F,0,0,1,0,0,0,1 @ F,0,0,1,0,0,0,1 @ F,0,0,1,0,8.0447013,0,1 @ F,0,0,1,0,8.9124635,0,1 @ F,0,0,1,0,8.9124635,0,1 @ F,0,0,1,0,8.0447013,0,1 @ F,0,1,1,0,3.4974762,0,1 @ F,0,0,1,0,0,0,1 @ F,0,0,1,0,3.4974762,0,1 @ F,0,1,1,0,3.4974762,0,1 @ F,0,0,1,0,0,0,1 @ F,0,0,1,0,0,0,1 @ F,0,0,1,0,0,0,1 @ F,0,0,1,0,0,0,1"
       radius="0"
       unit="px"
       method="auto"
       mode="F"
       chamfer_steps="1"
       flexible="false"
       use_knot_distance="true"
       apply_no_radius="true"
       apply_with_radius="true"
       only_selected="false"
       hide_knots="false" /><inkscape:path-effect
       effect="fillet_chamfer"
       id="path-effect41"
       is_visible="true"
       lpeversion="1"
       nodesatellites_param="F,0,0,1,0,0,0,1 @ F,0,0,1,0,0,0,1 @ F,0,0,1,0,0,0,1 @ F,0,0,1,0,0,0,1 @ F,0,0,1,0,0,0,1 @ F,0,0,1,0,0,0,1 @ F,0,0,1,0,0,0,1 @ F,0,0,1,0,4.4744365,0,1 @ F,0,0,1,0,0,0,1 @ F,0,0,1,0,0,0,1 @ F,0,1,1,0,4.4744365,0,1 @ F,0,1,1,0,4.4744365,0,1 @ F,0,0,1,0,0,0,1 @ F,0,0,1,0,0,0,1 @ F,0,0,1,0,0,0,1 @ F,0,0,1,0,0,0,1 @ F,0,0,1,0,0,0,1 @ F,0,0,1,0,0,0,1 @ F,0,0,1,0,0,0,1"
       radius="0"
       unit="px"
       method="auto"
       mode="F"
       chamfer_steps="1"
       flexible="false"
       use_knot_distance="true"
       apply_no_radius="true"
       apply_with_radius="true"
       only_selected="false"
       hide_knots="false" /><inkscape:path-effect
       effect="simplify"
       id="path-effect39"
       is_visible="true"
       lpeversion="1.3"
       threshold="10.8696"
       steps="1"
       smooth_angles="360"
       helper_size="0"
       simplify_individual_paths="false"
       simplify_just_coalesce="false" /><inkscape:path-effect
       effect="fillet_chamfer"
       id="path-effect32"
       is_visible="true"
       lpeversion="1"
       nodesatellites_param="F,0,0,1,0,0,0,1 @ F,0,0,1,0,0,0,1 @ F,0,0,1,0,0,0,1 @ F,0,0,1,0,0,0,1 @ F,0,0,1,0,0,0,1 @ F,0,0,1,0,0,0,1 @ F,0,0,1,0,0,0,1 @ F,0,0,1,0,5.5407252,0,1 @ F,0,0,1,0,0,0,1 @ F,0,0,1,0,0,0,1 @ F,0,0,1,0,5.8754091,0,1 @ F,0,0,1,0,0,0,1 @ F,0,0,1,0,0,0,1 @ F,0,0,1,0,0,0,1 @ F,0,0,1,0,0,0,1 @ F,0,0,1,0,0,0,1 @ F,0,0,1,0,0,0,1 @ F,0,0,1,0,0,0,1 @ F,0,0,1,0,0,0,1"
       radius="0"
       unit="px"
       method="auto"
       mode="F"
       chamfer_steps="1"
       flexible="false"
       use_knot_distance="true"
       apply_no_radius="true"
       apply_with_radius="true"
       only_selected="false"
       hide_knots="false" /><inkscape:path-effect
       effect="fillet_chamfer"
       id="path-effect31"
       is_visible="true"
       lpeversion="1"
       nodesatellites_param="F,0,0,1,0,0,0,1 @ F,0,0,1,0,0,0,1 @ F,0,0,1,0,0,0,1 @ F,0,0,1,0,0,0,1 @ F,0,0,1,0,0,0,1 @ F,0,0,1,0,0,0,1 @ F,0,0,1,0,0,0,1 @ F,0,0,1,0,0,0,1 @ F,0,0,1,0,4.5479841,0,1 @ F,0,0,1,0,0,0,1 @ F,0,0,1,0,0,0,1 @ F,0,0,1,0,0,0,1 @ F,0,0,1,0,0,0,1 @ F,0,0,1,0,0,0,1 @ F,0,0,1,0,0,0,1 @ F,0,0,1,0,0,0,1 @ F,0,0,1,0,0,0,1 @ F,0,0,1,0,0,0,1 @ F,0,0,1,0,0,0,1 @ F,0,0,1,0,0,0,1 @ F,0,0,1,0,0,0,1 @ F,0,0,1,0,0,0,1 @ F,0,0,1,0,0,0,1 @ F,0,0,1,0,5.0359575,0,1 @ F,0,0,1,0,4.8081598,0,1 @ F,0,0,1,0,0,0,1 @ F,0,0,1,0,0,0,1"
       radius="0"
       unit="px"
       method="auto"
       mode="F"
       chamfer_steps="1"
       flexible="false"
       use_knot_distance="true"
       apply_no_radius="true"
       apply_with_radius="true"
       only_selected="false"
       hide_knots="false" /><inkscape:path-effect
       effect="fillet_chamfer"
       id="path-effect30"
       is_visible="true"
       lpeversion="1"
       nodesatellites_param="F,0,0,1,0,0,0,1 @ F,0,0,1,0,0,0,1 @ F,0,0,1,0,0,0,1 @ F,0,0,1,0,0,0,1 @ F,0,0,1,0,0,0,1 @ F,0,0,1,0,0,0,1 @ F,0,0,1,0,0,0,1 @ F,0,0,1,0,4.4744365,0,1 @ F,0,0,1,0,0,0,1 @ F,0,0,1,0,0,0,1 @ F,0,1,1,0,4.4744365,0,1 @ F,0,1,1,0,4.4744365,0,1 @ F,0,0,1,0,0,0,1 @ F,0,0,1,0,0,0,1 @ F,0,0,1,0,0,0,1 @ F,0,0,1,0,0,0,1 @ F,0,0,1,0,0,0,1 @ F,0,0,1,0,0,0,1 @ F,0,0,1,0,0,0,1"
       radius="0"
       unit="px"
       method="auto"
       mode="F"
       chamfer_steps="1"
       flexible="false"
       use_knot_distance="true"
       apply_no_radius="true"
       apply_with_radius="true"
       only_selected="false"
       hide_knots="false" /><inkscape:path-effect
       effect="fillet_chamfer"
       id="path-effect29"
       is_visible="true"
       lpeversion="1"
       nodesatellites_param="F,0,0,1,0,0,0,1 @ F,0,0,1,0,0,0,1 @ F,0,0,1,0,0,0,1 @ F,0,0,1,0,8.0447013,0,1 @ F,0,0,1,0,8.9124635,0,1 @ F,0,0,1,0,8.9124635,0,1 @ F,0,0,1,0,8.0447013,0,1 @ F,0,1,1,0,3.4974762,0,1 @ F,0,0,1,0,0,0,1 @ F,0,0,1,0,3.4974762,0,1 @ F,0,1,1,0,3.4974762,0,1 @ F,0,0,1,0,0,0,1 @ F,0,0,1,0,0,0,1 @ F,0,0,1,0,0,0,1 @ F,0,0,1,0,0,0,1"
       radius="0"
       unit="px"
       method="auto"
       mode="F"
       chamfer_steps="1"
       flexible="false"
       use_knot_distance="true"
       apply_no_radius="true"
       apply_with_radius="true"
       only_selected="false"
       hide_knots="false" /><inkscape:path-effect
       effect="bspline"
       id="path-effect28"
       is_visible="true"
       lpeversion="1.3"
       weight="33.333333"
       steps="2"
       helper_size="0"
       apply_no_weight="true"
       apply_with_weight="true"
       only_selected="false"
       uniform="false" /><inkscape:path-effect
       effect="bspline"
       id="path-effect27"
       is_visible="true"
       lpeversion="1.3"
       weight="33.333333"
       steps="2"
       helper_size="0"
       apply_no_weight="true"
       apply_with_weight="true"
       only_selected="false"
       uniform="false" /><inkscape:path-effect
       effect="bspline"
       id="path-effect24"
       is_visible="true"
       lpeversion="1.3"
       weight="33.333333"
       steps="2"
       helper_size="0"
       apply_no_weight="true"
       apply_with_weight="true"
       only_selected="false"
       uniform="false" /><inkscape:path-effect
       effect="simplify"
       id="path-effect23"
       is_visible="true"
       lpeversion="1.3"
       threshold="10.8696"
       steps="1"
       smooth_angles="360"
       helper_size="0"
       simplify_individual_paths="false"
       simplify_just_coalesce="false" /><inkscape:path-effect
       effect="simplify"
       id="path-effect10"
       is_visible="true"
       lpeversion="1.3"
       threshold="10.8696"
       steps="1"
       smooth_angles="360"
       helper_size="0"
       simplify_individual_paths="false"
       simplify_just_coalesce="false" /><inkscape:path-effect
       effect="skeletal"
       id="path-effect9"
       is_visible="true"
       lpeversion="1"
       pattern="M 0,4.9921384 C 0,2.236478 2.236478,0 4.9921384,0 c 2.7556604,0 4.9921384,2.236478 4.9921384,4.9921384 0,2.7556604 -2.236478,4.9921384 -4.9921384,4.9921384 C 2.236478,9.9842768 0,7.7477988 0,4.9921384 Z"
       copytype="single_stretched"
       prop_scale="5.5"
       scale_y_rel="false"
       spacing="0"
       normal_offset="0"
       tang_offset="0"
       prop_units="false"
       vertical_pattern="false"
       hide_knot="false"
       fuse_tolerance="0" /><inkscape:path-effect
       effect="simplify"
       id="path-effect8"
       is_visible="true"
       lpeversion="1.3"
       threshold="10.8696"
       steps="1"
       smooth_angles="360"
       helper_size="0"
       simplify_individual_paths="false"
       simplify_just_coalesce="false" /><inkscape:path-effect
       effect="skeletal"
       id="path-effect7"
       is_visible="true"
       lpeversion="1"
       pattern="M 0,4.9921384 C 0,2.236478 2.236478,0 4.9921384,0 c 2.7556604,0 4.9921384,2.236478 4.9921384,4.9921384 0,2.7556604 -2.236478,4.9921384 -4.9921384,4.9921384 C 2.236478,9.9842768 0,7.7477988 0,4.9921384 Z"
       copytype="single_stretched"
       prop_scale="5.5"
       scale_y_rel="false"
       spacing="0"
       normal_offset="0"
       tang_offset="0"
       prop_units="false"
       vertical_pattern="false"
       hide_knot="false"
       fuse_tolerance="0" /><inkscape:path-effect
       effect="simplify"
       id="path-effect6"
       is_visible="true"
       lpeversion="1.3"
       threshold="0.00108696"
       steps="1"
       smooth_angles="360"
       helper_size="0"
       simplify_individual_paths="false"
       simplify_just_coalesce="false" /><inkscape:path-effect
       effect="bspline"
       id="path-effect4"
       is_visible="true"
       lpeversion="1.3"
       weight="33.333333"
       steps="2"
       helper_size="0"
       apply_no_weight="true"
       apply_with_weight="true"
       only_selected="false"
       uniform="false" /><inkscape:path-effect
       effect="bspline"
       id="path-effect3"
       is_visible="true"
       lpeversion="1.3"
       weight="33.333333"
       steps="2"
       helper_size="0"
       apply_no_weight="true"
       apply_with_weight="true"
       only_selected="false"
       uniform="false" /><inkscape:path-effect
       effect="bspline"
       id="path-effect2"
       is_visible="true"
       lpeversion="1.3"
       weight="33.333333"
       steps="2"
       helper_size="0"
       apply_no_weight="true"
       apply_with_weight="true"
       only_selected="false"
       uniform="false" /><linearGradient
       id="deviconNodejs0"
       x1="34.513"
       x2="27.157"
       y1="15.535"
       y2="30.448"
       gradientTransform="matrix(1.6365088,0,0,1.6365088,290.58155,21.983)"
       gradientUnits="userSpaceOnUse"><stop
         stop-color="#3F873F"
         id="stop3" /><stop
         offset=".33"
         stop-color="#3F8B3D"
         id="stop4" /><stop
         offset=".637"
         stop-color="#3E9638"
         id="stop5" /><stop
         offset=".934"
         stop-color="#3DA92E"
         id="stop6" /><stop
         offset="1"
         stop-color="#3DAE2B"
         id="stop7" /></linearGradient><linearGradient
       id="deviconNodejs1"
       x1="30.009001"
       x2="50.533001"
       y1="23.358999"
       y2="8.2880001"
       gradientTransform="matrix(1.6365088,0,0,1.6365088,290.58155,21.983)"
       gradientUnits="userSpaceOnUse"><stop
         offset=".138"
         stop-color="#3F873F"
         id="stop8" /><stop
         offset=".402"
         stop-color="#52A044"
         id="stop9" /><stop
         offset=".713"
         stop-color="#64B749"
         id="stop10" /><stop
         offset=".908"
         stop-color="#6ABF4B"
         id="stop11" /></linearGradient><linearGradient
       id="deviconNodejs2"
       x1="21.917"
       x2="40.555"
       y1="22.261"
       y2="22.261"
       gradientTransform="matrix(1.6365088,0,0,1.6365088,290.58155,21.983)"
       gradientUnits="userSpaceOnUse"><stop
         offset=".092"
         stop-color="#6ABF4B"
         id="stop12" /><stop
         offset=".287"
         stop-color="#64B749"
         id="stop13" /><stop
         offset=".598"
         stop-color="#52A044"
         id="stop14" /><stop
         offset=".862"
         stop-color="#3F873F"
         id="stop15" /></linearGradient><clipPath
       clipPathUnits="userSpaceOnUse"
       id="clipPath40"><path
         style="stroke-width:0.172619"
         d="m 348.67952,70.223354 c 0.46606,0 0.88035,-0.241647 1.10476,-0.638688 l 6.09343,-10.58154 c 0.10353,-0.172603 0.15539,-0.379772 0.17261,-0.586901 v -0.103563 c 0,-0.207127 -0.069,-0.397034 -0.17261,-0.586904 l -6.09343,-10.564284 c -0.22443,-0.397034 -0.65596,-0.638683 -1.10476,-0.638683 l -16.39881,0.01744 c -0.22439,0 -0.43155,0.120825 -0.55238,0.310732 -0.12082,0.189905 -0.12082,0.431549 0,0.638691 l 3.60774,6.283333 c 0.24165,0.397034 0.65595,0.638688 1.10476,0.638688 h 7.66428 c 0.44881,0 0.88035,0.241647 1.10475,0.638694 l 1.53632,2.675557 c 0.12083,0.207126 0.17261,0.414292 0.17261,0.638693 0,0.224385 -0.0518,0.448805 -0.17261,0.638688 l -1.53632,2.675594 c -0.22438,0.397034 -0.65594,0.638688 -1.10475,0.638688 h -7.66428 c -0.44881,0 -0.88036,0.241647 -1.10476,0.638691 l -3.60774,6.28332 c -0.12082,0.189865 -0.12082,0.448807 0,0.638688 0.10352,0.189868 0.32799,0.310732 0.55238,0.310732 z"
         id="path41" /></clipPath><filter
       style="color-interpolation-filters:sRGB;"
       inkscape:label="Drop Shadow"
       id="filter29"
       x="-0.030125522"
       y="-0.035051157"
       width="1.0602512"
       height="1.0729592"><feFlood
         result="flood"
         in="SourceGraphic"
         flood-opacity="0.596078"
         flood-color="rgb(37,37,37)"
         id="feFlood28" /><feGaussianBlur
         result="blur"
         in="SourceGraphic"
         stdDeviation="4.075386"
         id="feGaussianBlur28" /><feOffset
         result="offset"
         in="blur"
         dx="0.000000"
         dy="1.000000"
         id="feOffset28" /><feComposite
         result="comp1"
         operator="in"
         in="flood"
         in2="offset"
         id="feComposite28" /><feComposite
         result="comp2"
         operator="over"
         in="SourceGraphic"
         in2="comp1"
         id="feComposite29" /></filter><filter
       style="color-interpolation-filters:sRGB;"
       inkscape:label="Drop Shadow"
       id="filter2"
       x="-0.047832513"
       y="-0.072327374"
       width="1.0955248"
       height="1.147876"><feFlood
         result="flood"
         in="SourceGraphic"
         flood-opacity="0.596078"
         flood-color="rgb(37,37,37)"
         id="feFlood1" /><feGaussianBlur
         result="blur"
         in="SourceGraphic"
         stdDeviation="4.075386"
         id="feGaussianBlur1" /><feOffset
         result="offset"
         in="blur"
         dx="0.000000"
         dy="1.000000"
         id="feOffset1" /><feComposite
         result="comp1"
         operator="in"
         in="flood"
         in2="offset"
         id="feComposite1" /><feComposite
         result="comp2"
         operator="over"
         in="SourceGraphic"
         in2="comp1"
         id="feComposite2" /></filter></defs><g
     inkscape:label="Layer 1"
     inkscape:groupmode="layer"
     id="layer1"><rect
       style="fill:#ffffff;stroke:none;stroke-width:0;stroke-linecap:round;stroke-miterlimit:6.7;paint-order:stroke fill markers;fill-opacity:1"
       id="rect1"
       width="529.16669"
       height="529.16669"
       x="0"
       y="0" /><path
       style="color:#000000;fill:#ffffff;fill-opacity:1;stroke:#00aad4;stroke-width:25;stroke-linecap:round;stroke-miterlimit:6.7;stroke-dasharray:none;stroke-opacity:1;paint-order:stroke fill markers;filter:url(#filter2)"
       d="m 171.87361,110.5668 c -11.54491,0.16884 -22.34087,2.81854 -29.73739,8.29786 -9.86202,7.30573 -10.80089,19.42164 -7.37679,28.3969 3.42409,8.97522 10.38567,15.23979 16.61627,21.07769 2.12121,1.9867 5.45121,1.87809 7.43845,-0.24261 1.98671,-2.1212 1.87811,-5.4512 -0.24259,-7.43845 -6.2306,-5.8379 -11.72822,-11.25373 -13.97643,-17.1467 -2.24817,-5.89295 -2.06747,-11.83637 3.80764,-16.18862 5.87509,-4.35225 20.32306,-7.33082 33.8781,-5.66212 13.55501,1.66873 26.64604,7.40001 40.36259,17.96908 13.71654,10.56906 27.71031,25.93366 34.51954,41.61261 6.80922,15.67894 6.98474,32.63895 3.88988,46.0288 -3.09483,13.38985 -8.62195,22.01903 -20.3211,26.57123 -11.69911,4.55219 -30.79132,4.42741 -46.08226,-2.03951 -15.29092,-6.4669 -27.93404,-19.41204 -38.68081,-35.3625 -10.74678,-15.95045 -19.24827,-35.20769 -31.97428,-45.81086 -12.72605,-10.60324 -28.687301,-10.10922 -39.37573,-2.97293 -10.688453,7.13632 -15.902157,21.67482 -9.157248,37.91188 3.929629,9.45982 28.992938,35.97133 22.249072,31.58182 -11.434416,-7.44253 -18.792989,-9.19717 -26.583023,-10.63981 -15.633675,-2.89519 -28.847789,2.35193 -35.288475,12.55369 -6.440719,10.20178 -5.885557,23.84621 0.193267,35.30492 6.078826,11.45874 17.692893,20.36052 35.358365,27.37303 17.665533,7.01253 41.445352,12.3836 59.322632,12.72228 17.87726,0.33868 29.28495,-4.81062 39.40452,-9.46152 2.64065,-1.21312 3.79846,-4.33679 2.58641,-6.97793 -1.21315,-2.64298 -4.33983,-3.80122 -6.98205,-2.5864 -10.11957,4.65091 -18.94751,8.804 -34.8115,8.50344 -15.86394,-0.30053 -39.328315,-5.50765 -55.638353,-11.98211 -16.310087,-6.47448 -25.404357,-13.96557 -29.942979,-22.52099 -4.538631,-8.55542 -4.511048,-18.54634 -0.592116,-24.75374 3.918964,-6.20746 11.948308,-10.14463 24.474111,-7.82499 12.525852,2.31967 30.005859,11.8346 47.542017,21.64104 3.38293,1.60232 8.28524,-0.95624 7.64834,-5.85134 -0.20225,-0.7996 -0.58959,-1.54047 -1.13078,-2.16287 -0.024,-0.0484 -0.0487,-0.0964 -0.0741,-0.144 -16.48504,-17.91997 -32.699725,-36.01787 -38.014683,-48.81258 -5.314982,-12.79477 -1.676329,-20.4754 5.279694,-25.11971 6.95607,-4.64434 17.434049,-5.49124 26.793269,2.30678 9.35926,7.79806 18.58385,26.68241 29.9841,43.60279 11.40026,16.92037 25.32334,31.571 43.31084,39.17836 17.98747,7.60734 38.88586,8.03476 53.99771,2.15463 15.11182,-5.88009 23.21252,-18.66401 26.76035,-34.01379 3.54785,-15.34973 3.38471,-34.45855 -4.49021,-52.59141 -7.8749,-18.13285 -22.9083,-34.3234 -37.74741,-45.75744 -14.8391,-11.43402 -29.83607,-18.14984 -45.50249,-20.07849 -3.91659,-0.48216 -7.84599,-0.70183 -11.69427,-0.64557 z m 179.06992,77.16837 c -6.3737,-0.33668 -12.76525,0.85825 -18.5283,3.78708 -11.52617,5.85765 -19.35425,18.23094 -22.64846,34.58123 -0.7173,3.56021 -1.13419,7.39156 -1.43506,11.29954 -13.70842,2.97251 -22.25012,7.56224 -30.46519,14.65488 -10.25577,8.8545 -21.75417,21.91263 -27.85825,37.99413 -6.10409,16.08149 -6.64218,34.30644 -0.90462,48.25746 5.73758,13.95105 17.72521,22.28416 30.35007,26.00789 12.62487,3.72373 26.59244,3.19317 38.71371,-3.22787 10.54647,-5.5868 18.74971,-15.05121 26.6329,-24.54403 8.54085,7.5577 17.11947,10.12468 25.38697,9.94673 9.67095,-0.20822 20.09517,-2.84515 28.33111,-7.97711 8.23598,-5.13199 14.09546,-13.70874 15.92547,-27.94461 1.83001,-14.23587 0.57497,-34.47613 -2.94825,-50.60537 -1.1635,-5.32651 -2.66333,-10.02469 -4.29285,-14.4904 16.04207,2.13524 28.00892,5.87299 38.86585,11.93279 13.81477,7.71071 25.39643,18.31023 33.85343,43.06822 8.55565,25.04686 11.61306,51.63232 -0.32075,76.1034 -11.91783,24.43834 -31.28111,32.39651 -53.61527,31.44794 -22.48002,-0.95475 -32.30547,-9.39975 -39.28938,-19.35069 -6.75969,-9.63142 -5.7957,-15.84624 -4.8973,-24.40835 0.30196,-2.88942 -1.79429,-5.47707 -4.68347,-5.78135 -2.89095,-0.30439 -5.48124,1.79252 -5.78547,4.68348 -0.89841,8.56209 -1.73065,19.47057 6.74766,31.55073 8.25405,11.76068 22.27893,22.75071 47.46386,23.82036 25.33079,1.07583 49.94248,-9.50505 63.52092,-37.34857 13.56248,-27.81079 9.86703,-57.63119 0.81827,-84.12162 -9.14743,-26.77928 -23.31387,-40.27432 -38.68493,-48.8537 -13.50683,-7.53884 -28.80253,-11.73916 -48.91126,-13.82015 -2.20862,-4.45884 -4.43598,-8.87349 -6.94915,-12.92376 -6.70896,-10.81227 -14.60872,-21.93845 -25.9791,-28.33524 -5.6852,-3.19838 -12.03946,-5.06636 -18.41316,-5.40304 z m -0.49343,10.57173 c 4.70162,0.25272 9.48202,1.60609 13.74614,4.00502 8.52829,4.79786 15.77858,14.36999 22.19613,24.71263 1.29445,2.08617 2.28289,4.3224 3.47045,6.42691 -23.66682,-1.33519 -50.75296,-0.60068 -70.49882,1.96139 -0.0696,0.008 -0.11559,0.0238 -0.18505,0.0328 0.26362,-2.46973 0.45627,-5.02013 0.90873,-7.26575 2.86473,-14.21865 9.21329,-23.26766 17.09734,-27.27436 3.94206,-2.00339 8.56342,-2.85146 13.26505,-2.59874 z m 5.09466,45.05841 c 12.68528,-0.33617 25.84797,-0.14842 37.70218,0.66201 0.81823,0.056 1.45472,0.17264 2.25333,0.23439 2.26307,5.32221 4.215,11.09778 5.71145,17.94851 3.22808,14.77809 4.37084,34.73371 2.79199,47.01568 -1.57883,12.28197 -4.93662,16.54285 -11.05283,20.35399 -6.11625,3.81115 -15.17663,6.22174 -22.98973,6.38991 -7.81314,0.16822 -13.19262,-1.03789 -21.68625,-10.46071 -8.49364,-9.42281 -19.07239,-27.39932 -24.64274,-45.66696 -3.46941,-11.37772 -4.91207,-22.97922 -4.95898,-33.64371 0.75773,-0.10715 1.24481,-0.24587 2.04363,-0.34952 9.9366,-1.28929 22.14268,-2.14743 34.82795,-2.48359 z m -47.40218,4.63823 c 0.20757,11.22341 1.82636,23.12262 5.4195,34.90608 5.48669,17.99333 14.86809,34.66831 23.97659,45.93013 -7.99849,9.58146 -15.89905,18.49565 -24.29733,22.94449 -9.3672,4.96214 -20.46235,5.48651 -30.81059,2.43425 -10.34827,-3.05222 -19.24089,-9.32885 -23.59418,-19.914 -4.35333,-10.58519 -4.18769,-26.8213 1.01153,-40.51886 5.1992,-13.69755 15.60412,-25.73508 24.89766,-33.75883 6.98897,-6.03405 12.61365,-9.55369 23.39682,-12.02326 z m -98.10216,53.83736 c -8.65357,-0.30704 -18.70815,2.35084 -29.30564,7.40144 -14.12998,6.73417 -29.66604,17.80163 -34.90607,33.2243 -5.24006,15.42272 1.20005,31.77023 8.8653,42.44733 7.6653,10.67714 17.05806,15.53929 25.31708,19.8071 2.58206,1.33544 5.75781,0.32472 7.09306,-2.25743 1.33482,-2.58316 0.32213,-5.7593 -2.26157,-7.09306 -8.25899,-4.26782 -15.38196,-7.94033 -21.59578,-16.59569 -6.21387,-8.6554 -11.01306,-22.43541 -7.45079,-32.92003 3.5623,-10.48469 16.86943,-21.10653 29.46599,-27.10988 12.59659,-6.00335 24.03577,-7.31243 29.83609,-5.52642 2.90016,0.89303 4.65191,2.28333 6.37348,4.78628 1.72155,2.50295 3.21243,6.23005 4.53544,11.06928 2.64599,9.67847 4.31195,21.85836 -1.35282,34.19882 -5.6648,12.3405 -19.93791,26.43474 -34.63058,40.5723 l -9.94673,9.57254 90.21548,-3.40465 -8.44176,-8.5158 c -5.63254,-5.67987 -10.99818,-11.19009 -14.19846,-16.37775 -3.20031,-5.18773 -4.8045,-10.83637 -6.5256,-17.0768 -0.79182,-2.48748 -3.28727,-4.01871 -5.86361,-3.59795 5.41987,-14.30513 3.6378,-28.11887 0.89639,-38.14626 -1.47417,-5.39223 -3.20936,-10.18597 -6.01163,-14.26012 -2.80225,-4.07415 -6.87211,-7.31304 -11.95333,-8.87763 -2.54061,-0.78231 -5.2694,-1.21759 -8.15394,-1.31992 z m 21.40254,70.54406 c 1.61454,5.82786 3.42533,12.06229 7.24931,18.26103 2.12755,3.44878 4.71896,6.65981 7.49192,9.74113 l -39.34694,1.4844 c 9.7275,-9.56504 18.77489,-19.26092 24.60571,-29.48656 z"
       id="path33"
       sodipodi:nodetypes="csscccsssssssssssssssssscccsssssccccssssssssssccssscssssscsssscssssscscssssscssscssccccsccsscsssssscsscscssssscsssscccsssssssccccsccsssscsccc"
       transform="matrix(0.85665998,0,0,0.85665998,37.92464,37.996969)" /><path
       style="opacity:1;fill:none;stroke:#e6e6e6;stroke-width:4.99999;stroke-linecap:round;stroke-miterlimit:6.7;stroke-dasharray:none;paint-order:stroke fill markers"
       d="m 128.36695,299.64718 c -8.32952,-4.65797 -16.65887,-9.31584 -23.34663,-10.55435 -6.687754,-1.2385 -11.733474,0.94251 -14.193848,4.83963 -2.460374,3.89711 -2.335208,9.51017 0.18639,14.26345 2.521599,4.75328 7.439524,8.64652 15.508578,11.84962 8.06906,3.20311 19.28905,5.71592 27.30245,5.86774 8.01341,0.15181 12.82004,-2.0573 17.62676,-4.26644"
       id="path35"
       inkscape:path-effect="#path-effect42"
       inkscape:original-d="m 128.36695,299.64718 c -8.32952,-4.65797 -16.65887,-9.31584 -24.98856,-13.97391 -5.045823,2.18106 -10.091541,4.36208 -15.13746,6.54317 0.125169,5.61313 0.250333,11.22619 0.375504,16.83943 4.918025,3.89332 9.835949,7.78656 14.754076,11.67995 11.21999,2.51282 22.43998,5.02563 33.65997,7.53845 4.80682,-2.20919 9.61345,-4.4183 14.42017,-6.62744"
       sodipodi:nodetypes="cccccc"
       transform="translate(-402.22959)" /><path
       style="opacity:1;fill:none;stroke:#e6e6e6;stroke-width:4.99999;stroke-linecap:round;stroke-miterlimit:6.7;stroke-dasharray:none;paint-order:stroke fill markers"
       d="m 128.36696,299.64717 c -7.83026,-8.51184 -15.66051,-17.02367 -18.52468,-23.91861 -2.86417,-6.89494 -0.76235,-12.17277 3.42814,-14.97063 4.19049,-2.79785 10.46937,-3.11561 15.71453,1.25461 5.24515,4.37022 9.45629,13.42807 14.71612,21.23476 5.25982,7.80669 11.568,14.36177 19.47148,17.70435 7.90349,3.34258 17.40178,3.47252 23.76927,0.99489 6.3675,-2.47763 9.60387,-7.56263 11.18148,-14.38817 1.57762,-6.82553 1.4964,-15.39116 -1.99102,-23.42132 -3.48742,-8.03016 -10.38077,-15.5244 -17.16262,-20.75004 -6.78185,-5.22565 -13.45178,-8.18243 -20.39175,-9.03678 -6.93997,-0.85436 -14.14956,0.39372 -17.88706,3.16245 -3.7375,2.76872 -4.00275,7.0579 -2.6556,10.58903 1.34714,3.53114 4.30656,6.30404 7.26604,9.07699"
       id="path36"
       inkscape:path-effect="#path-effect46"
       inkscape:original-d="m 128.36696,299.64717 c -7.83026,-8.51184 -15.66051,-17.02367 -23.49076,-25.53551 2.10191,-5.27804 4.20373,-10.55587 6.30559,-15.83381 6.27912,-0.31777 12.558,-0.63553 18.83701,-0.95329 4.21131,9.0582 8.42245,18.11605 12.63367,27.17409 6.30842,6.55534 12.6166,13.11042 18.92489,19.66563 9.49868,0.12994 18.99697,0.2599 28.49545,0.38984 3.23651,-5.08521 6.47288,-10.17021 9.70932,-15.25532 -0.0812,-8.56596 -0.16242,-17.13159 -0.24364,-25.69737 -6.89363,-7.49454 -13.78698,-14.98878 -20.68048,-22.48317 -6.6702,-2.9569 -13.34013,-5.91368 -20.0102,-8.87052 -7.20987,1.24813 -14.41946,2.49621 -21.6292,3.74432 -0.26526,4.28934 -0.53051,8.57852 -0.79576,12.86778 2.95954,2.77301 5.91896,5.54591 8.87844,8.31886"
       sodipodi:nodetypes="cccccccccccccc"
       transform="translate(-402.22959)" /><path
       style="opacity:1;fill:none;stroke:#e6e6e6;stroke-width:4.99999;stroke-linecap:round;stroke-miterlimit:6.7;stroke-dasharray:none;paint-order:stroke fill markers"
       d="m 158.34142,369.06226 c -3.92296,-2.02718 -7.84592,-4.05436 -11.14215,-8.64574 -3.29624,-4.59139 -5.96565,-11.74673 -3.87514,-17.89962 2.09052,-6.15288 8.94074,-11.30301 15.28819,-14.32812 6.34745,-3.0251 12.19177,-3.92505 15.98286,-2.7577 3.7911,1.16735 5.5288,4.40189 6.85744,9.26176 1.32864,4.85986 2.24815,11.34472 -0.7816,17.9449 -3.02976,6.60017 -10.00851,13.31527 -16.98741,20.0305 0,0 30.60809,-1.15578 30.60809,-1.15578 -2.67541,-2.69789 -5.35082,-5.39578 -7.09729,-8.22684 -1.74647,-2.83105 -2.56396,-5.79512 -3.38148,-8.75928"
       id="path37"
       inkscape:path-effect="#path-effect50"
       inkscape:original-d="m 158.34142,369.06226 c -3.92296,-2.02718 -7.84591,-4.05437 -11.76887,-6.08153 -2.66952,-7.1556 -5.33893,-14.31094 -8.00839,-21.46638 6.85049,-5.15033 13.7007,-10.30047 20.55106,-15.45069 5.84455,-0.89998 11.68887,-1.79991 17.5333,-2.69989 1.73777,3.23466 3.47546,6.4692 5.21319,9.70381 0.91955,6.48512 1.83906,12.96998 2.75859,19.45497 -6.97904,6.71536 -20.93669,20.14569 -20.93669,20.14569 0,0 30.60809,-1.15578 30.60809,-1.15578 0,0 -5.35082,-5.39578 -8.02623,-8.09368 -0.81753,-2.96421 -1.63503,-5.92828 -2.45254,-8.89244"
       transform="translate(-402.22959)" /><path
       style="opacity:1;fill:none;stroke:#e6e6e6;stroke-width:4.99999;stroke-linecap:round;stroke-miterlimit:6.7;stroke-dasharray:none;paint-order:stroke fill markers"
       d="m 241.74791,339.97661 c -4.38337,-4.8629 -9.47348,-13.5678 -12.2388,-22.63652 -2.76533,-9.06873 -3.20588,-18.50094 -1.74315,-25.76093 1.46272,-7.25998 4.82859,-12.34735 9.43843,-14.6901 4.60985,-2.34275 10.46338,-1.94079 15.18923,0.71789 4.72585,2.65868 8.32375,7.57385 11.44124,12.59805 3.11749,5.02421 5.75439,10.15711 7.35779,17.49748 1.6034,7.34036 2.17324,16.88769 1.36365,23.18557 -0.80959,6.29787 -2.99853,9.346 -6.40712,11.46996 -3.40858,2.12396 -8.03656,3.32363 -12.18895,3.41301 -4.1524,0.0894 -7.82895,-0.9315 -12.21232,-5.79441 z"
       id="path38"
       inkscape:path-effect="#path-effect52"
       inkscape:original-d="m 242.45464,343.8186 c -5.0901,-8.70489 -10.1802,-17.40979 -15.2703,-26.11466 -0.44056,-9.43258 -0.88111,-18.86479 -1.32166,-28.29719 3.366,-5.08757 6.73186,-10.17495 10.0978,-15.26241 5.85376,0.40198 11.70729,0.80394 17.56093,1.20589 3.59806,4.9154 7.19596,9.83057 10.79394,14.74587 2.63701,5.1331 5.2739,10.26601 7.91084,15.39901 0.56986,9.54773 1.13969,19.09506 1.70955,28.64257 -2.18903,3.04824 -4.37798,6.09637 -6.56696,9.14456 -4.62818,1.19973 -9.25616,2.3994 -13.88424,3.5991 -3.67671,-1.02092 -7.35326,-2.04182 -11.0299,-3.06274 z"
       transform="translate(-408.71771,-4.6447396)" /><path
       style="opacity:1;fill:none;stroke:#e6e6e6;stroke-width:4.99999;stroke-linecap:round;stroke-miterlimit:6.7;stroke-dasharray:none;paint-order:stroke fill markers"
       d="m 241.74791,339.97661 c -4.25471,5.15647 -8.50942,10.31295 -13.61284,13.0164 -5.10342,2.70345 -11.05533,2.95388 -16.51135,1.34462 -5.45603,-1.60927 -10.41586,-5.07809 -12.81241,-10.90533 -2.39654,-5.82725 -2.2297,-14.01251 0.45478,-21.08491 2.68448,-7.07241 7.8864,-13.03154 12.52928,-17.04005 4.64288,-4.00851 8.72647,-6.06621 18.39852,-7.32118 9.67206,-1.25497 23.48737,-1.66434 34.94425,-0.88114 11.45688,0.78319 19.20496,2.79887 26.13647,6.6677 6.93152,3.86882 13.04607,9.59052 17.22704,21.83041 4.18098,12.23989 5.78591,25.63629 -0.26935,38.05302 -6.05526,12.41672 -16.49998,16.82005 -27.82021,16.33926 -11.32023,-0.48078 -16.98447,-5.09649 -20.60342,-10.2529 -3.61896,-5.15642 -3.19224,-9.22328 -2.76551,-13.29021"
       id="path39"
       inkscape:path-effect="#path-effect54"
       inkscape:original-d="m 241.74791,339.97661 c -4.25471,5.15647 -8.50941,10.31296 -12.76412,15.46942 -5.95214,0.25046 -11.90405,0.50086 -17.85607,0.75129 -4.96003,-3.46895 -9.91987,-6.93777 -14.8798,-10.40667 0.16685,-8.1856 0.33368,-16.37086 0.50053,-24.5563 5.20212,-5.95937 10.40404,-11.9185 15.60606,-17.87774 4.08375,-2.05777 8.16733,-4.11548 12.251,-6.17323 15.1994,-2.5122 29.036,-2.20317 44.24113,-1.31093 7.74838,2.01576 15.49646,4.03143 23.24468,6.04716 6.11481,5.72193 12.22936,11.44363 18.34404,17.16545 10.92273,17.71861 3.8522,32.15436 6.10203,50.93372 -14.36035,6.05409 -23.39405,13.80437 -38.94841,16.42002 -10.65363,-4.27777 -17.508,-7.43299 -21.82601,-17.78569 0.42674,-4.06702 0.85346,-8.13388 1.28019,-12.20081"
       transform="translate(-408.71771,-4.6447396)"
       sodipodi:nodetypes="cccccccccccccc" /></g></svg>
