<?xml version="1.0" encoding="UTF-8" standalone="no"?>
<!-- Created with Inkscape (http://www.inkscape.org/) -->

<svg
   width="2000"
   height="2000"
   viewBox="0 0 529.16667 529.16667"
   version="1.1"
   id="svg1"
   inkscape:version="1.3.2 (091e20ef0f, 2023-11-25, custom)"
   sodipodi:docname="go.svg"
   inkscape:export-filename="rust.png"
   inkscape:export-xdpi="1500"
   inkscape:export-ydpi="1500"
   xml:space="preserve"
   xmlns:inkscape="http://www.inkscape.org/namespaces/inkscape"
   xmlns:sodipodi="http://sodipodi.sourceforge.net/DTD/sodipodi-0.dtd"
   xmlns="http://www.w3.org/2000/svg"
   xmlns:svg="http://www.w3.org/2000/svg"><sodipodi:namedview
     id="namedview1"
     pagecolor="#505050"
     bordercolor="#ffffff"
     borderopacity="1"
     inkscape:showpageshadow="0"
     inkscape:pageopacity="0"
     inkscape:pagecheckerboard="1"
     inkscape:deskcolor="#524b4b"
     inkscape:document-units="mm"
     inkscape:zoom="0.85416225"
     inkscape:cx="975.22456"
     inkscape:cy="1279.031"
     inkscape:window-width="1920"
     inkscape:window-height="1080"
     inkscape:window-x="0"
     inkscape:window-y="0"
     inkscape:window-maximized="1"
     inkscape:current-layer="layer1"
     showguides="true"><sodipodi:guide
       position="1149.9076,751.23014"
       orientation="0,-1"
       id="guide14"
       inkscape:locked="false" /><sodipodi:guide
       position="1214.0744,566.08758"
       orientation="0,-1"
       id="guide15"
       inkscape:locked="false" /><inkscape:page
       x="0"
       y="0"
       width="529.16669"
       height="529.16669"
       id="page51"
       margin="10"
       bleed="0" /></sodipodi:namedview><defs
     id="defs1"><inkscape:path-effect
       effect="bspline"
       id="path-effect49"
       is_visible="true"
       lpeversion="1.3"
       weight="33.333333"
       steps="2"
       helper_size="0"
       apply_no_weight="true"
       apply_with_weight="true"
       only_selected="false"
       uniform="false" /><inkscape:path-effect
       effect="fillet_chamfer"
       id="path-effect47"
       is_visible="true"
       lpeversion="1"
       nodesatellites_param="F,0,0,1,0,0,0,1 @ F,0,0,1,0,0,0,1 @ F,0,0,1,0,0,0,1 @ F,0,0,1,0,0,0,1 @ F,0,0,1,0,0,0,1 @ F,0,0,1,0,0,0,1 @ F,0,0,1,0,0,0,1 @ F,0,0,1,0,0,0,1 @ F,0,0,1,0,4.5479841,0,1 @ F,0,0,1,0,0,0,1 @ F,0,0,1,0,0,0,1 @ F,0,0,1,0,0,0,1 @ F,0,0,1,0,0,0,1 @ F,0,0,1,0,0,0,1 @ F,0,0,1,0,0,0,1 @ F,0,0,1,0,0,0,1 @ F,0,0,1,0,0,0,1 @ F,0,0,1,0,0,0,1 @ F,0,0,1,0,0,0,1 @ F,0,0,1,0,0,0,1 @ F,0,0,1,0,0,0,1 @ F,0,0,1,0,0,0,1 @ F,0,0,1,0,0,0,1 @ F,0,0,1,0,5.0359575,0,1 @ F,0,0,1,0,4.8081598,0,1 @ F,0,0,1,0,0,0,1 @ F,0,0,1,0,0,0,1"
       radius="0"
       unit="px"
       method="auto"
       mode="F"
       chamfer_steps="1"
       flexible="false"
       use_knot_distance="true"
       apply_no_radius="true"
       apply_with_radius="true"
       only_selected="false"
       hide_knots="false" /><inkscape:path-effect
       effect="fillet_chamfer"
       id="path-effect45"
       is_visible="true"
       lpeversion="1"
       nodesatellites_param="F,0,0,1,0,0,0,1 @ F,0,0,1,0,0,0,1 @ F,0,0,1,0,0,0,1 @ F,0,0,1,0,0,0,1 @ F,0,0,1,0,0,0,1 @ F,0,0,1,0,0,0,1 @ F,0,0,1,0,0,0,1 @ F,0,0,1,0,5.5407252,0,1 @ F,0,0,1,0,0,0,1 @ F,0,0,1,0,0,0,1 @ F,0,0,1,0,5.8754091,0,1 @ F,0,0,1,0,0,0,1 @ F,0,0,1,0,0,0,1 @ F,0,0,1,0,0,0,1 @ F,0,0,1,0,0,0,1 @ F,0,0,1,0,0,0,1 @ F,0,0,1,0,0,0,1 @ F,0,0,1,0,0,0,1 @ F,0,0,1,0,0,0,1"
       radius="0"
       unit="px"
       method="auto"
       mode="F"
       chamfer_steps="1"
       flexible="false"
       use_knot_distance="true"
       apply_no_radius="true"
       apply_with_radius="true"
       only_selected="false"
       hide_knots="false" /><inkscape:path-effect
       effect="fillet_chamfer"
       id="path-effect43"
       is_visible="true"
       lpeversion="1"
       nodesatellites_param="F,0,0,1,0,0,0,1 @ F,0,0,1,0,0,0,1 @ F,0,0,1,0,0,0,1 @ F,0,0,1,0,8.0447013,0,1 @ F,0,0,1,0,8.9124635,0,1 @ F,0,0,1,0,8.9124635,0,1 @ F,0,0,1,0,8.0447013,0,1 @ F,0,1,1,0,3.4974762,0,1 @ F,0,0,1,0,0,0,1 @ F,0,0,1,0,3.4974762,0,1 @ F,0,1,1,0,3.4974762,0,1 @ F,0,0,1,0,0,0,1 @ F,0,0,1,0,0,0,1 @ F,0,0,1,0,0,0,1 @ F,0,0,1,0,0,0,1"
       radius="0"
       unit="px"
       method="auto"
       mode="F"
       chamfer_steps="1"
       flexible="false"
       use_knot_distance="true"
       apply_no_radius="true"
       apply_with_radius="true"
       only_selected="false"
       hide_knots="false" /><inkscape:path-effect
       effect="fillet_chamfer"
       id="path-effect41"
       is_visible="true"
       lpeversion="1"
       nodesatellites_param="F,0,0,1,0,0,0,1 @ F,0,0,1,0,0,0,1 @ F,0,0,1,0,0,0,1 @ F,0,0,1,0,0,0,1 @ F,0,0,1,0,0,0,1 @ F,0,0,1,0,0,0,1 @ F,0,0,1,0,0,0,1 @ F,0,0,1,0,4.4744365,0,1 @ F,0,0,1,0,0,0,1 @ F,0,0,1,0,0,0,1 @ F,0,1,1,0,4.4744365,0,1 @ F,0,1,1,0,4.4744365,0,1 @ F,0,0,1,0,0,0,1 @ F,0,0,1,0,0,0,1 @ F,0,0,1,0,0,0,1 @ F,0,0,1,0,0,0,1 @ F,0,0,1,0,0,0,1 @ F,0,0,1,0,0,0,1 @ F,0,0,1,0,0,0,1"
       radius="0"
       unit="px"
       method="auto"
       mode="F"
       chamfer_steps="1"
       flexible="false"
       use_knot_distance="true"
       apply_no_radius="true"
       apply_with_radius="true"
       only_selected="false"
       hide_knots="false" /><inkscape:path-effect
       effect="simplify"
       id="path-effect39"
       is_visible="true"
       lpeversion="1.3"
       threshold="10.8696"
       steps="1"
       smooth_angles="360"
       helper_size="0"
       simplify_individual_paths="false"
       simplify_just_coalesce="false" /><inkscape:path-effect
       effect="fillet_chamfer"
       id="path-effect32"
       is_visible="true"
       lpeversion="1"
       nodesatellites_param="F,0,0,1,0,0,0,1 @ F,0,0,1,0,0,0,1 @ F,0,0,1,0,0,0,1 @ F,0,0,1,0,0,0,1 @ F,0,0,1,0,0,0,1 @ F,0,0,1,0,0,0,1 @ F,0,0,1,0,0,0,1 @ F,0,0,1,0,5.5407252,0,1 @ F,0,0,1,0,0,0,1 @ F,0,0,1,0,0,0,1 @ F,0,0,1,0,5.8754091,0,1 @ F,0,0,1,0,0,0,1 @ F,0,0,1,0,0,0,1 @ F,0,0,1,0,0,0,1 @ F,0,0,1,0,0,0,1 @ F,0,0,1,0,0,0,1 @ F,0,0,1,0,0,0,1 @ F,0,0,1,0,0,0,1 @ F,0,0,1,0,0,0,1"
       radius="0"
       unit="px"
       method="auto"
       mode="F"
       chamfer_steps="1"
       flexible="false"
       use_knot_distance="true"
       apply_no_radius="true"
       apply_with_radius="true"
       only_selected="false"
       hide_knots="false" /><inkscape:path-effect
       effect="fillet_chamfer"
       id="path-effect31"
       is_visible="true"
       lpeversion="1"
       nodesatellites_param="F,0,0,1,0,0,0,1 @ F,0,0,1,0,0,0,1 @ F,0,0,1,0,0,0,1 @ F,0,0,1,0,0,0,1 @ F,0,0,1,0,0,0,1 @ F,0,0,1,0,0,0,1 @ F,0,0,1,0,0,0,1 @ F,0,0,1,0,0,0,1 @ F,0,0,1,0,4.5479841,0,1 @ F,0,0,1,0,0,0,1 @ F,0,0,1,0,0,0,1 @ F,0,0,1,0,0,0,1 @ F,0,0,1,0,0,0,1 @ F,0,0,1,0,0,0,1 @ F,0,0,1,0,0,0,1 @ F,0,0,1,0,0,0,1 @ F,0,0,1,0,0,0,1 @ F,0,0,1,0,0,0,1 @ F,0,0,1,0,0,0,1 @ F,0,0,1,0,0,0,1 @ F,0,0,1,0,0,0,1 @ F,0,0,1,0,0,0,1 @ F,0,0,1,0,0,0,1 @ F,0,0,1,0,5.0359575,0,1 @ F,0,0,1,0,4.8081598,0,1 @ F,0,0,1,0,0,0,1 @ F,0,0,1,0,0,0,1"
       radius="0"
       unit="px"
       method="auto"
       mode="F"
       chamfer_steps="1"
       flexible="false"
       use_knot_distance="true"
       apply_no_radius="true"
       apply_with_radius="true"
       only_selected="false"
       hide_knots="false" /><inkscape:path-effect
       effect="fillet_chamfer"
       id="path-effect30"
       is_visible="true"
       lpeversion="1"
       nodesatellites_param="F,0,0,1,0,0,0,1 @ F,0,0,1,0,0,0,1 @ F,0,0,1,0,0,0,1 @ F,0,0,1,0,0,0,1 @ F,0,0,1,0,0,0,1 @ F,0,0,1,0,0,0,1 @ F,0,0,1,0,0,0,1 @ F,0,0,1,0,4.4744365,0,1 @ F,0,0,1,0,0,0,1 @ F,0,0,1,0,0,0,1 @ F,0,1,1,0,4.4744365,0,1 @ F,0,1,1,0,4.4744365,0,1 @ F,0,0,1,0,0,0,1 @ F,0,0,1,0,0,0,1 @ F,0,0,1,0,0,0,1 @ F,0,0,1,0,0,0,1 @ F,0,0,1,0,0,0,1 @ F,0,0,1,0,0,0,1 @ F,0,0,1,0,0,0,1"
       radius="0"
       unit="px"
       method="auto"
       mode="F"
       chamfer_steps="1"
       flexible="false"
       use_knot_distance="true"
       apply_no_radius="true"
       apply_with_radius="true"
       only_selected="false"
       hide_knots="false" /><inkscape:path-effect
       effect="fillet_chamfer"
       id="path-effect29"
       is_visible="true"
       lpeversion="1"
       nodesatellites_param="F,0,0,1,0,0,0,1 @ F,0,0,1,0,0,0,1 @ F,0,0,1,0,0,0,1 @ F,0,0,1,0,8.0447013,0,1 @ F,0,0,1,0,8.9124635,0,1 @ F,0,0,1,0,8.9124635,0,1 @ F,0,0,1,0,8.0447013,0,1 @ F,0,1,1,0,3.4974762,0,1 @ F,0,0,1,0,0,0,1 @ F,0,0,1,0,3.4974762,0,1 @ F,0,1,1,0,3.4974762,0,1 @ F,0,0,1,0,0,0,1 @ F,0,0,1,0,0,0,1 @ F,0,0,1,0,0,0,1 @ F,0,0,1,0,0,0,1"
       radius="0"
       unit="px"
       method="auto"
       mode="F"
       chamfer_steps="1"
       flexible="false"
       use_knot_distance="true"
       apply_no_radius="true"
       apply_with_radius="true"
       only_selected="false"
       hide_knots="false" /><inkscape:path-effect
       effect="bspline"
       id="path-effect28"
       is_visible="true"
       lpeversion="1.3"
       weight="33.333333"
       steps="2"
       helper_size="0"
       apply_no_weight="true"
       apply_with_weight="true"
       only_selected="false"
       uniform="false" /><inkscape:path-effect
       effect="bspline"
       id="path-effect27"
       is_visible="true"
       lpeversion="1.3"
       weight="33.333333"
       steps="2"
       helper_size="0"
       apply_no_weight="true"
       apply_with_weight="true"
       only_selected="false"
       uniform="false" /><inkscape:path-effect
       effect="bspline"
       id="path-effect24"
       is_visible="true"
       lpeversion="1.3"
       weight="33.333333"
       steps="2"
       helper_size="0"
       apply_no_weight="true"
       apply_with_weight="true"
       only_selected="false"
       uniform="false" /><inkscape:path-effect
       effect="simplify"
       id="path-effect23"
       is_visible="true"
       lpeversion="1.3"
       threshold="10.8696"
       steps="1"
       smooth_angles="360"
       helper_size="0"
       simplify_individual_paths="false"
       simplify_just_coalesce="false" /><inkscape:path-effect
       effect="simplify"
       id="path-effect10"
       is_visible="true"
       lpeversion="1.3"
       threshold="10.8696"
       steps="1"
       smooth_angles="360"
       helper_size="0"
       simplify_individual_paths="false"
       simplify_just_coalesce="false" /><inkscape:path-effect
       effect="skeletal"
       id="path-effect9"
       is_visible="true"
       lpeversion="1"
       pattern="M 0,4.9921384 C 0,2.236478 2.236478,0 4.9921384,0 c 2.7556604,0 4.9921384,2.236478 4.9921384,4.9921384 0,2.7556604 -2.236478,4.9921384 -4.9921384,4.9921384 C 2.236478,9.9842768 0,7.7477988 0,4.9921384 Z"
       copytype="single_stretched"
       prop_scale="5.5"
       scale_y_rel="false"
       spacing="0"
       normal_offset="0"
       tang_offset="0"
       prop_units="false"
       vertical_pattern="false"
       hide_knot="false"
       fuse_tolerance="0" /><inkscape:path-effect
       effect="simplify"
       id="path-effect8"
       is_visible="true"
       lpeversion="1.3"
       threshold="10.8696"
       steps="1"
       smooth_angles="360"
       helper_size="0"
       simplify_individual_paths="false"
       simplify_just_coalesce="false" /><inkscape:path-effect
       effect="skeletal"
       id="path-effect7"
       is_visible="true"
       lpeversion="1"
       pattern="M 0,4.9921384 C 0,2.236478 2.236478,0 4.9921384,0 c 2.7556604,0 4.9921384,2.236478 4.9921384,4.9921384 0,2.7556604 -2.236478,4.9921384 -4.9921384,4.9921384 C 2.236478,9.9842768 0,7.7477988 0,4.9921384 Z"
       copytype="single_stretched"
       prop_scale="5.5"
       scale_y_rel="false"
       spacing="0"
       normal_offset="0"
       tang_offset="0"
       prop_units="false"
       vertical_pattern="false"
       hide_knot="false"
       fuse_tolerance="0" /><inkscape:path-effect
       effect="simplify"
       id="path-effect6"
       is_visible="true"
       lpeversion="1.3"
       threshold="0.00108696"
       steps="1"
       smooth_angles="360"
       helper_size="0"
       simplify_individual_paths="false"
       simplify_just_coalesce="false" /><inkscape:path-effect
       effect="bspline"
       id="path-effect4"
       is_visible="true"
       lpeversion="1.3"
       weight="33.333333"
       steps="2"
       helper_size="0"
       apply_no_weight="true"
       apply_with_weight="true"
       only_selected="false"
       uniform="false" /><inkscape:path-effect
       effect="bspline"
       id="path-effect3"
       is_visible="true"
       lpeversion="1.3"
       weight="33.333333"
       steps="2"
       helper_size="0"
       apply_no_weight="true"
       apply_with_weight="true"
       only_selected="false"
       uniform="false" /><inkscape:path-effect
       effect="bspline"
       id="path-effect2"
       is_visible="true"
       lpeversion="1.3"
       weight="33.333333"
       steps="2"
       helper_size="0"
       apply_no_weight="true"
       apply_with_weight="true"
       only_selected="false"
       uniform="false" /><linearGradient
       id="deviconNodejs0"
       x1="34.513"
       x2="27.157"
       y1="15.535"
       y2="30.448"
       gradientTransform="matrix(1.6365088,0,0,1.6365088,290.58155,21.983)"
       gradientUnits="userSpaceOnUse"><stop
         stop-color="#3F873F"
         id="stop3" /><stop
         offset=".33"
         stop-color="#3F8B3D"
         id="stop4" /><stop
         offset=".637"
         stop-color="#3E9638"
         id="stop5" /><stop
         offset=".934"
         stop-color="#3DA92E"
         id="stop6" /><stop
         offset="1"
         stop-color="#3DAE2B"
         id="stop7" /></linearGradient><linearGradient
       id="deviconNodejs1"
       x1="30.009001"
       x2="50.533001"
       y1="23.358999"
       y2="8.2880001"
       gradientTransform="matrix(1.6365088,0,0,1.6365088,290.58155,21.983)"
       gradientUnits="userSpaceOnUse"><stop
         offset=".138"
         stop-color="#3F873F"
         id="stop8" /><stop
         offset=".402"
         stop-color="#52A044"
         id="stop9" /><stop
         offset=".713"
         stop-color="#64B749"
         id="stop10" /><stop
         offset=".908"
         stop-color="#6ABF4B"
         id="stop11" /></linearGradient><linearGradient
       id="deviconNodejs2"
       x1="21.917"
       x2="40.555"
       y1="22.261"
       y2="22.261"
       gradientTransform="matrix(1.6365088,0,0,1.6365088,290.58155,21.983)"
       gradientUnits="userSpaceOnUse"><stop
         offset=".092"
         stop-color="#6ABF4B"
         id="stop12" /><stop
         offset=".287"
         stop-color="#64B749"
         id="stop13" /><stop
         offset=".598"
         stop-color="#52A044"
         id="stop14" /><stop
         offset=".862"
         stop-color="#3F873F"
         id="stop15" /></linearGradient><clipPath
       clipPathUnits="userSpaceOnUse"
       id="clipPath40"><path
         style="stroke-width:0.172619"
         d="m 348.67952,70.223354 c 0.46606,0 0.88035,-0.241647 1.10476,-0.638688 l 6.09343,-10.58154 c 0.10353,-0.172603 0.15539,-0.379772 0.17261,-0.586901 v -0.103563 c 0,-0.207127 -0.069,-0.397034 -0.17261,-0.586904 l -6.09343,-10.564284 c -0.22443,-0.397034 -0.65596,-0.638683 -1.10476,-0.638683 l -16.39881,0.01744 c -0.22439,0 -0.43155,0.120825 -0.55238,0.310732 -0.12082,0.189905 -0.12082,0.431549 0,0.638691 l 3.60774,6.283333 c 0.24165,0.397034 0.65595,0.638688 1.10476,0.638688 h 7.66428 c 0.44881,0 0.88035,0.241647 1.10475,0.638694 l 1.53632,2.675557 c 0.12083,0.207126 0.17261,0.414292 0.17261,0.638693 0,0.224385 -0.0518,0.448805 -0.17261,0.638688 l -1.53632,2.675594 c -0.22438,0.397034 -0.65594,0.638688 -1.10475,0.638688 h -7.66428 c -0.44881,0 -0.88036,0.241647 -1.10476,0.638691 l -3.60774,6.28332 c -0.12082,0.189865 -0.12082,0.448807 0,0.638688 0.10352,0.189868 0.32799,0.310732 0.55238,0.310732 z"
         id="path41" /></clipPath></defs><g
     inkscape:label="Layer 1"
     inkscape:groupmode="layer"
     id="layer1"><rect
       style="fill:#f3fafa;stroke-width:0.733999;stroke-linecap:square;stroke-miterlimit:6.7;fill-opacity:1"
       id="rect1"
       width="529.16669"
       height="529.16669"
       x="0"
       y="0" /><g
       id="g51"
       transform="matrix(0.37422083,0,0,0.37422083,-316.04987,471.84942)"><path
         style="display:inline;fill:#00acd7;fill-rule:evenodd;stroke-width:3.98106"
         d="m 1181.0765,-170.34627 c -15.2036,3.86163 -25.5783,6.75587 -40.5352,10.61352 -3.6227,0.9674 -3.8616,1.20626 -6.9987,-2.41253 -3.6187,-4.10049 -6.2741,-6.75586 -11.338,-9.16839 -15.2037,-7.47643 -29.9217,-5.30675 -43.6723,3.62277 -16.406,10.61352 -24.8498,26.29493 -24.6109,45.83797 0.2388,19.30418 13.5117,35.228441 32.573,37.883811 16.406,2.16968 30.1606,-3.62277 41.0169,-15.92426 2.1697,-2.655371 4.1005,-5.549601 6.513,-8.929531 h -46.5665 c -5.0639,0 -6.2701,-3.13707 -4.5822,-7.23757 3.1371,-7.48042 8.9256,-20.02475 12.3015,-26.29891 0.7286,-1.44911 2.4165,-3.86163 6.0353,-3.86163 h 87.8223 c -0.4777,6.517 -0.4777,13.03002 -1.4451,19.54702 -2.6554,17.36938 -9.1684,33.293641 -19.7859,47.287081 -17.3734,22.92297 -40.0495,37.15527 -68.7649,41.0169 -23.6436,3.13708 -45.5991,-1.44911 -64.8993,-15.92425 -17.8551,-13.51174 -27.9869,-31.36681 -30.6423,-53.561241 -3.1371,-26.29891 4.5822,-49.94643 20.5065,-70.69573 17.1305,-22.43728 39.8106,-36.67356 67.5586,-41.74146 22.6801,-4.10049 44.3929,-1.44512 63.9359,11.82376 12.7872,8.44384 21.9556,20.02476 27.9869,34.01819 1.4491,2.17367 0.4857,3.37993 -2.4125,4.1005 z"
         id="path5" /><path
         id="path1"
         style="display:inline;fill:#00acd7;fill-rule:evenodd;stroke-width:3.98106"
         d="m 908.67623,-166.00293 c -0.9674,0 -1.20626,-0.48569 -0.72455,-1.20626 l 5.06789,-6.517 c 0.47773,-0.72456 1.68797,-1.20626 2.65139,-1.20626 h 86.13824 c 0.9674,0 1.2063,0.72455 0.7246,1.4491 l -4.1005,6.27416 c -0.48171,0.72057 -1.68798,1.44513 -2.41253,1.44513 z m -36.4347,22.19443 c -0.96342,0 -1.20626,-0.47772 -0.72455,-1.20626 l 5.06789,-6.51302 c 0.48171,-0.72455 1.68797,-1.20626 2.65537,-1.20626 h 110.02068 c 0.96342,0 1.44911,0.72455 1.20627,1.44911 l -1.93082,5.78846 c -0.23886,0.9674 -1.20626,1.44911 -2.16968,1.44911 z m 58.38629,22.19842 c -0.96342,0 -1.20229,-0.72456 -0.72058,-1.44911 l 3.37594,-6.03131 c 0.48569,-0.72456 1.44911,-1.44513 2.41651,-1.44513 h 48.2505 c 0.96739,0 1.4491,0.72057 1.4491,1.68797 l -0.47773,5.78847 c 0,0.9674 -0.96739,1.69195 -1.69195,1.69195 z" /><path
         fill-rule="nonzero"
         d="m 1260.9367,-36.920909 c -21.9556,-0.48569 -41.9843,-6.75587 -58.872,-21.235 -14.2363,-12.30148 -23.1618,-27.98688 -26.0561,-46.566501 -4.3433,-27.26233 3.1331,-51.39155 19.5431,-72.86143 17.6122,-23.16581 38.8432,-35.22844 67.5586,-40.29633 24.607,-4.33936 47.7728,-1.92684 68.761,12.30547 19.0613,13.03002 30.8811,30.64225 34.0182,53.80408 4.1005,32.57306 -5.3068,59.114811 -27.748,81.794931 -15.9243,16.16312 -35.4673,26.29891 -57.9046,30.88112 -6.513,1.20626 -13.03,1.4491 -19.3002,2.17366 m 57.4228,-97.476351 c -0.2388,-3.13708 -0.2388,-5.5496 -0.7245,-7.96213 -4.3394,-23.88638 -26.2989,-37.39811 -49.2179,-32.08737 -22.4413,5.06391 -36.9164,19.30019 -42.2232,41.98031 -4.3433,18.81849 4.8251,37.879831 22.1945,45.599111 13.2728,5.79245 26.5417,5.0679 39.3289,-1.44513 19.0613,-9.89294 29.436,-25.335491 30.6422,-46.084791"
         id="path2"
         style="display:inline;fill:#00acd7;stroke-width:3.98106" /></g><g
       id="g21"
       style="fill:#00acd7;fill-opacity:1"
       transform="matrix(1.6181236,0,0,1.6181236,26.592614,136.83175)"><path
         style="font-weight:900;font-size:192.623px;line-height:161.784px;font-family:'Noto Sans Malayalam';-inkscape-font-specification:'Noto Sans Malayalam Heavy';letter-spacing:0px;word-spacing:4.81557px;fill:#00acd7;fill-opacity:1;stroke-width:10.6874;stroke-linecap:square;stroke-miterlimit:6.7"
         d="m 1470.2574,83.7908 q -3.567,11.36476 -9.3358,21.7664 -5.7689,10.40164 -14.472,18.49181 -8.7032,8.09017 -20.9411,12.71312 -12.0452,4.62295 -28.4182,4.62295 -14.6394,0 -23.2427,-3.27459 -8.3503,-3.46722 -12.3757,-9.05328 -4.0254,-5.58607 -4.9913,-12.32788 -0.7734,-6.7418 -0.3909,-13.48361 l 38.9182,-6.16393 q -0.6017,8.66803 1.1122,14.2541 1.7744,5.39344 9.4793,5.39344 9.2459,0 16.0116,-8.66803 6.7657,-8.66804 11.4815,-23.69263 4.6552,-14.83197 3.3912,-23.69263 -1.0714,-8.86066 -10.1247,-8.86066 -7.3196,0 -12.7327,5.58607 -5.4132,5.58607 -9.9996,14.06148 l -35.1811,-6.35656 q 4.488,-6.93443 10.2638,-13.67623 5.9685,-6.74181 13.6327,-12.13525 7.9172,-5.58607 18.3835,-8.86066 10.4663,-3.27459 24.1426,-3.27459 15.6024,0 24.3,4.81557 8.9507,4.62296 12.3827,12.71312 3.4321,8.09017 2.7319,18.29919 -0.6397,10.01639 -4.0254,20.80328 z"
         id="path16" /><path
         style="font-weight:900;font-size:192.623px;line-height:161.784px;font-family:'Noto Sans Malayalam';-inkscape-font-specification:'Noto Sans Malayalam Heavy';letter-spacing:0px;word-spacing:4.81557px;fill:#00acd7;fill-opacity:1;stroke-width:10.6874;stroke-linecap:square;stroke-miterlimit:6.7"
         d="m 1331.5462,27.15964 q 20.2255,0 34.2448,4.43033 14.0797,4.2377 22.2711,9.43853 l -20.8932,21.76639 q -9.6002,-5.00819 -18.9024,-7.89754 -9.3021,-2.88934 -22.4005,-2.88934 -11.1721,0 -16.702,2.88934 -5.3371,2.88935 -6.7277,7.31968 -1.2696,4.04508 1.2795,6.35655 1.6956,1.34837 5.752,1.92623 4.2489,0.57787 11.1833,0.57787 h 3.6599 q 16.5656,0 25.2181,2.5041 8.7131,2.31148 13.6299,7.5123 3.8707,4.23771 4.6328,10.40164 1.0151,5.97131 -1.645,14.44673 -4.8971,15.60246 -21.5246,25.61886 -16.3743,9.82377 -45.653,9.82377 -18.4918,0 -32.3677,-3.65984 -13.8759,-3.65983 -24.4013,-10.01639 l 20.8103,-22.72952 q 7.2775,4.43033 13.6186,6.93443 6.3411,2.5041 12.7202,3.65984 6.4395,0.96311 14.1444,0.96311 12.5205,0 18.3034,-3.08197 5.9755,-3.08196 7.5474,-8.09016 1.0883,-3.46722 -0.4977,-5.77869 -1.6464,-2.11886 -5.3175,-2.69672 -3.6107,-0.7705 -11.1229,-0.7705 h -4.4304 q -14.8319,0 -24.8216,-1.92623 -9.7366,-2.11885 -15.1821,-8.09016 -3.6064,-3.85246 -4.4894,-9.63115 -0.6904,-5.77869 1.9093,-14.06148 4.7762,-15.21722 21.4037,-25.23361 16.6274,-10.0164 44.7503,-10.0164 z"
         id="path17" /><path
         style="font-weight:900;font-size:192.623px;line-height:161.784px;font-family:'Noto Sans Malayalam';-inkscape-font-specification:'Noto Sans Malayalam Heavy';letter-spacing:0px;word-spacing:4.81557px;fill:#00acd7;fill-opacity:1;stroke-width:10.6874;stroke-linecap:square;stroke-miterlimit:6.7"
         d="m 1270.343,83.7908 q -3.567,11.36476 -9.3358,21.7664 -5.7689,10.40164 -14.4721,18.49181 -8.7031,8.09017 -20.941,12.71312 -12.0453,4.62295 -28.4182,4.62295 -14.6394,0 -23.2427,-3.27459 -8.3503,-3.46722 -12.3757,-9.05328 -4.0254,-5.58607 -4.9914,-12.32788 -0.7733,-6.7418 -0.3908,-13.48361 l 38.9182,-6.16393 q -0.6017,8.66803 1.1122,14.2541 1.7744,5.39344 9.4793,5.39344 9.2459,0 16.0116,-8.66803 6.7657,-8.66804 11.4814,-23.69263 4.6553,-14.83197 3.3913,-23.69263 -1.0714,-8.86066 -10.1247,-8.86066 -7.3197,0 -12.7328,5.58607 -5.4131,5.58607 -9.9995,14.06148 l -35.1811,-6.35656 q 4.488,-6.93443 10.2638,-13.67623 5.9685,-6.74181 13.6327,-12.13525 7.9172,-5.58607 18.3835,-8.86066 10.4663,-3.27459 24.1425,-3.27459 15.6025,0 24.3001,4.81557 8.9506,4.62296 12.3827,12.71312 3.4321,8.09017 2.7319,18.29919 -0.6397,10.01639 -4.0254,20.80328 z"
         id="path18" /><path
         style="font-weight:900;font-size:192.623px;line-height:161.784px;font-family:'Noto Sans Malayalam';-inkscape-font-specification:'Noto Sans Malayalam Heavy';letter-spacing:0px;word-spacing:4.81557px;fill:#00acd7;fill-opacity:1;stroke-width:10.6874;stroke-linecap:square;stroke-miterlimit:6.7"
         d="m 1043.7965,67.41785 c 11.5574,0 20.2629,1.92623 26.1166,5.77869 5.9821,3.85246 9.7155,8.73224 11.2003,14.63934 1.5251,5.778693 1.3203,11.750007 -0.6144,17.91394 -0.8464,2.69673 -2.0101,8.09017 -3.4911,11.17214 h 46.0369 l 26.662,-89.762322 h 36.0205 L 1151.3266,141.5777 h -109.4098 l -7.9032,-13.48361 c 2.0977,-2.18306 4.2522,-4.75137 6.4634,-7.70492 2.2112,-2.95356 3.9214,-8.86066 5.1305,-12.71312 1.2898,-4.10929 1.347,-7.769123 0.1715,-10.97951 -1.1754,-3.21038 -4.2672,-4.81557 -9.2754,-4.81557 -4.8798,0 -9.0233,1.540983 -12.4305,4.62295 -3.2385,2.953553 -5.6236,6.87022 -7.1552,11.75 -1.2495,3.98088 -1.7322,7.76913 -1.4482,11.36476 0.3243,3.46721 1.0578,7.06284 2.2005,10.78689 l -31.24432,11.17213 c -3.09135,-4.87978 -5.20693,-10.20902 -6.34674,-15.98771 -1.01139,-5.77869 -0.40869,-12.19945 1.8081,-19.2623 2.53924,-8.090167 6.83458,-15.024593 12.88603,-20.80328 6.09173,-5.907107 13.34533,-10.401643 21.76073,-13.48361 8.4155,-3.081967 17.503,-4.62295 27.2625,-4.62295 z"
         id="path19"
         sodipodi:nodetypes="sccscccccccsssscsccccscss" /><path
         style="font-weight:900;font-size:192.623px;line-height:161.784px;font-family:'Noto Sans Malayalam';-inkscape-font-specification:'Noto Sans Malayalam Heavy';letter-spacing:0px;word-spacing:4.81557px;fill:#00acd7;fill-opacity:1;stroke-width:10.6874;stroke-linecap:square;stroke-miterlimit:6.7"
         d="m 937.17627,141.38508 q -21.38116,0 -35.94037,-5.77869 -14.55922,-5.77869 -19.81489,-18.49181 -5.19522,-12.90574 1.2738,-33.5164 6.10626,-19.45492 19.41411,-31.7828 13.3683,-12.52049 31.80808,-18.4918 18.69286,-6.16394 39.88139,-6.16394 17.72131,0 26.60021,4.23771 8.9394,4.04508 11.1216,10.59426 2.3747,6.54918 0.017,14.06148 -4.4739,14.2541 -15.90757,20.61066 -11.24102,6.35656 -28.76972,6.35656 -13.67623,0 -20.10028,-3.46721 -6.42405,-3.46722 -7.49966,-9.24591 -1.01514,-5.97131 1.16136,-12.90574 0.48366,-1.54098 1.15995,-3.08197 -8.19281,4.62295 -14.27096,12.32787 -5.88554,7.70492 -8.84799,17.14345 -3.20428,10.20902 -2.73325,17.91394 0.7241,7.5123 6.01491,12.13525 0.17013,-1.15574 0.59333,-2.5041 2.41833,-7.70492 7.31404,-13.48361 5.08833,-5.77869 13.62841,-9.05328 8.60054,-3.46721 21.89153,-3.46721 16.95082,0 24.33378,6.54918 7.44341,6.35656 2.78814,21.18853 -2.2974,7.31967 -8.97594,13.86885 -6.42544,6.35656 -17.90408,10.40165 -11.28601,4.04508 -28.23683,4.04508 z m 30.09547,-86.68035 q -2.53924,8.09016 4.97306,8.09016 7.31967,0 9.31478,-6.35655 1.20917,-3.85246 -1.14731,-6.16394 -2.35646,-2.31148 -8.13515,-2.31148 h -1.15574 q -2.76139,3.27459 -3.84964,6.74181 z m -19.65591,58.94264 q -1.1487,3.65983 -0.6355,6.93442 h 1.15573 q 6.35656,0 10.02062,-3.08196 3.85667,-3.08197 4.64262,-5.58607 0.84641,-2.69672 -0.34307,-4.43033 -0.9364,-1.92623 -4.59624,-1.92623 -7.70492,0 -10.24416,8.09017 z"
         id="path20" /><path
         style="font-weight:900;font-size:192.623px;line-height:161.784px;font-family:'Noto Sans Malayalam';-inkscape-font-specification:'Noto Sans Malayalam Heavy';letter-spacing:0px;word-spacing:4.81557px;fill:#00acd7;fill-opacity:1;stroke-width:10.6874;stroke-linecap:square;stroke-miterlimit:6.7"
         d="m 1043.7965,67.41785 c 11.5574,0 20.2629,1.92623 26.1166,5.77869 5.9821,3.85246 9.7155,8.73224 11.2003,14.63934 1.5251,5.778693 1.3203,11.750007 -0.6144,17.91394 -0.8464,2.69673 -2.0101,8.09017 -3.4911,11.17214 h 46.0369 l 26.662,-89.762322 h 36.0205 L 1151.3266,141.5777 h -109.4098 l -7.9032,-13.48361 c 2.0977,-2.18306 4.2522,-4.75137 6.4634,-7.70492 2.2112,-2.95356 3.9214,-8.86066 5.1305,-12.71312 1.2898,-4.10929 1.347,-7.769123 0.1715,-10.97951 -1.1754,-3.21038 -4.2672,-4.81557 -9.2754,-4.81557 -4.8798,0 -9.0233,1.540983 -12.4305,4.62295 -3.2385,2.953553 -5.6236,6.87022 -7.1552,11.75 -1.2495,3.98088 -1.7322,7.76913 -1.4482,11.36476 0.3243,3.46721 1.0578,7.06284 2.2005,10.78689 l -31.24432,11.17213 c -3.09135,-4.87978 -5.20693,-10.20902 -6.34674,-15.98771 -1.01139,-5.77869 -0.40869,-12.19945 1.8081,-19.2623 2.53924,-8.090167 6.83458,-15.024593 12.88603,-20.80328 6.09173,-5.907107 13.34533,-10.401643 21.76073,-13.48361 8.4155,-3.081967 17.503,-4.62295 27.2625,-4.62295 z"
         id="path21"
         sodipodi:nodetypes="sccscccccccsssscsccccscss" /></g><path
       style="fill:none;fill-opacity:1;stroke-width:0.733999;stroke-linecap:square;stroke-miterlimit:6.7"
       d="m 1728.1737,-255.34784 c 2.089,-0.23472 4.1259,0.45743 6.2132,0.45003 3.3506,-0.0119 6.7341,0.0774 10.0384,-0.49013 1.1623,-0.19961 2.2188,-0.75251 3.2896,-1.21761 1.8183,-0.78984 3.5876,-1.76409 5.0246,-3.15173 0.9948,-0.96067 1.9128,-2.03851 2.4361,-3.34285 0.5015,-1.25007 0.7691,-2.59675 1.4747,-3.76267 0.4488,-0.74148 0.6777,-1.59092 0.8486,-2.43344 0.1769,-0.87185 -0.047,-1.78519 -0.5394,-2.51861 -0.2745,-0.40867 -0.4946,-0.9109 -0.9209,-1.15856 -0.6251,-0.36308 -1.3818,-0.37918 -2.084,-0.38922 -1.3539,-0.0193 -2.6997,0.15425 -4.0472,0.26092 -2.4772,0.19611 -4.9721,0.42161 -7.3693,1.1133 -1.1034,0.31837 -2.2275,0.6115 -3.2611,1.11304 -1.7501,0.8492 -3.4293,1.83648 -5.1506,2.74264 -0.6206,0.32672 -1.0773,0.87295 -1.5346,1.38801 -1.9963,2.24849 -3.7024,4.73853 -5.2843,7.2892 -1.2283,1.98044 -2.484,3.95967 -3.4373,6.08794 -0.7691,1.71709 -0.9307,3.60987 -1.4596,5.40354 -0.3994,1.35455 -0.9483,2.66038 -1.3469,4.01424 -0.4621,1.56946 -0.6216,3.20834 -0.7337,4.83241 -0.1032,1.49515 -0.4995,3.01874 -0.1705,4.4996 0.2783,1.25295 0.6684,2.4802 1.0864,3.69283 0.7851,2.27789 1.5948,4.57554 2.8194,6.65092 0.7537,1.27718 1.9814,2.15658 2.8946,3.30993 1.0833,1.36827 2.1854,2.72365 3.205,4.13988 0.6683,0.92824 1.2684,1.95339 2.2752,2.5808 1.9807,1.23428 4.1155,2.3579 6.4625,2.66168 2.0142,0.2607 4.0779,0.0241 6.0062,-0.55852 1.4033,-0.42398 2.5899,-1.30891 3.8642,-2.00276 1.4738,-0.80244 3.0257,-1.49627 4.3583,-2.52522 1.2505,-0.9656 2.3265,-2.12972 3.4365,-3.24773 1.476,-1.48668 3.0521,-2.87161 4.51,-4.37567 0.8612,-0.88847 1.8224,-1.73661 2.3909,-2.84407 0.649,-1.26426 1.2976,-2.57881 1.4902,-3.98579 0.1008,-0.73584 -0.051,-1.48997 -0.2946,-2.1856 -0.255,-0.72813 -0.9176,-1.21191 -1.6262,-1.45817 -1.0138,-0.35236 -2.0528,-0.62497 -3.0902,-0.89834 -2.1372,-0.56316 -4.3456,-0.90638 -6.5575,-0.89312 -1.27,0.008 -2.5339,0.16803 -3.7833,0.37847 -0.6193,0.10431 -1.3407,0.004 -1.8515,0.37968 -0.3264,0.24005 -0.6649,0.4642 -1.0456,0.61697 -1.0419,0.41816 -2.1242,0.7541 -3.2406,0.88781 -0.4247,0.0509 -0.8274,0.17904 -1.2248,0.33722 -1.5099,0.60103 -3.0342,1.16819 -4.6098,1.58361 -1.3126,0.34608 -2.6918,0.52125 -3.924,1.09857 -0.7227,0.33863 -1.4072,0.75048 -2.1243,1.10252 -1.0751,0.52782 -2.1166,1.13049 -3.2202,1.5946 -0.7047,0.29635 -1.4898,0.39753 -2.1152,0.88272 -0.392,0.30409 -0.7415,0.6818 -0.8806,1.17391 -0.3243,1.14706 -0.2638,2.36063 -0.156,3.53396 0.028,0.30854 0.066,0.61614 0.1067,0.92323"
       id="path23"
       inkscape:path-effect="#path-effect23"
       inkscape:original-d="m 1728.1737,-255.34784 c 1.985,-0.22643 3.9251,0.45188 5.8963,0.4505 3.3802,-0.002 6.7692,-0.10036 10.1302,-0.46047 0.9652,-0.10341 1.8705,-0.53853 2.7628,-0.92092 2.3427,-1.004 4.201,-1.89872 5.986,-3.68371 0.695,-0.69494 1.3759,-1.43699 1.8419,-2.30232 0.6217,-1.15465 0.877,-2.47319 1.3813,-3.68371 0.2641,-0.6336 0.7039,-1.19066 0.921,-1.84185 0.7171,-2.15138 0.7385,-3.12915 -0.921,-5.0651 -0.5849,-0.68239 -3.3064,-0.49326 -3.6836,-0.46046 -5.77,0.50173 -7.9957,0.46583 -12.893,2.3023 -0.7803,0.2926 -5.5818,2.84427 -5.9861,3.22326 -3.3595,3.14955 -8.0296,10.88493 -9.6697,14.27437 -0.7622,1.5753 -0.8785,3.38887 -1.3814,5.0651 -1.624,5.41337 -1.7087,3.60066 -2.3023,10.13019 -0.125,1.37572 -0.3559,2.80943 0,4.14418 0.8888,3.33274 2.1412,6.58466 3.6837,9.66973 0.6329,1.2657 1.8705,2.12497 2.7628,3.22324 1.1036,1.35823 2.13,2.77763 3.2232,4.14418 0.7489,0.93609 1.2888,2.12265 2.3023,2.76279 4.5512,2.87439 7.3126,3.52135 12.4326,2.3023 1.3355,-0.31797 2.4704,-1.19952 3.6837,-1.84185 6.2887,-3.32931 4.2015,-2.22539 11.0511,-8.7488 0.8195,-0.78049 3.4462,-3.20871 4.1442,-4.60464 0.5865,-1.17296 1.0363,-2.41852 1.3813,-3.68371 0.1212,-0.44424 0.076,-0.92719 0,-1.38139 -0.4072,-2.44335 -1.6714,-2.3433 -4.6046,-3.22324 -2.1675,-0.65026 -5.825,-1.21074 -8.2883,-0.92093 -6.8698,0.80821 -2.3832,0.48472 -6.907,1.84185 -0.7496,0.22489 -1.5348,0.30698 -2.3023,0.46047 -1.2279,0.46046 -2.4332,0.98648 -3.6837,1.38138 -1.6688,0.52699 -3.4048,0.82799 -5.0651,1.3814 -0.6512,0.21707 -1.2279,0.61395 -1.8419,0.92092 0,2e-4 -3.6833,1.84169 -3.6837,1.84186 -1.3107,0.56174 -1.6566,0.2753 -2.7627,1.38139 -1.0993,1.09925 -0.4605,5.15264 -0.4605,5.20606"
       transform="translate(547.22786)" /><path
       style="fill:none;fill-opacity:1;stroke:#00acd7;stroke-width:57.6503;stroke-linecap:square;stroke-miterlimit:6.7;stroke-dasharray:none;stroke-opacity:1"
       d="m 2692.6963,-156.80801 c 5.6936,-7.88093 11.3872,-15.76173 6.6803,-26.63782 -4.7069,-10.87609 -19.8138,-24.74668 -48.2363,-31.68216 -28.4226,-6.93548 -70.1588,-6.93548 -98.1396,-0.56278 -27.9808,6.3727 -42.2048,19.11757 -51.8589,32.77952 -9.6542,13.66196 -14.738,28.23992 -10.8749,39.0243 3.8632,10.78437 16.673,17.77402 41.6932,21.61738 25.0202,3.84336 62.2489,4.54007 89.3754,8.90135 27.1264,4.36127 44.1492,12.38677 50.2619,23.076627 6.1126,10.689853 1.3149,24.043263 -9.9444,33.382459 -11.2593,9.339195 -28.9792,14.663636 -58.1746,17.32593 -29.1954,2.662294 -69.8643,2.662294 -96.5292,-2.065487 -26.6649,-4.727781 -39.3245,-14.182969 -44.1628,-21.220617 -4.8383,-7.037648 -1.8551,-11.657349 1.1281,-16.277129"
       id="path26"
       transform="matrix(0.81064647,0,0,0.81064647,1099.9188,-24.781173)"
       sodipodi:nodetypes="cccccccccccccc"
       inkscape:original-d="m 2692.6963,-156.80801 c 0,0 11.3872,-15.76172 17.0809,-23.64278 -15.1075,-13.87113 -30.2144,-27.74172 -45.3217,-41.61268 -41.7378,0 -83.474,0 -125.211,0 -14.2246,12.74537 -28.4486,25.49024 -42.6728,38.23535 -5.0841,14.57883 -10.1679,29.1568 -15.252,43.73555 12.8104,6.98999 25.6202,13.97963 38.4306,20.96963 37.23,0.69673 74.4587,1.39344 111.6881,2.09016 17.0235,8.02585 34.0463,16.05137 51.0696,24.07706 -4.798,13.353968 -9.5957,26.707401 -14.3936,40.061102 -17.7207,5.324676 -35.4406,10.64914 -53.161,15.973708 -40.6704,0 -81.3393,0 -122.009,0 -12.6601,-9.455571 -25.3197,-18.910766 -37.9796,-28.366149 2.9833,-4.619897 5.9665,-9.239582 8.9497,-13.859378"
       inkscape:path-effect="#path-effect27" /><g
       id="g28"><path
         style="font-weight:900;font-size:192.623px;line-height:161.784px;font-family:'Noto Sans Malayalam';-inkscape-font-specification:'Noto Sans Malayalam Heavy';letter-spacing:0px;word-spacing:4.81557px;fill:#00acd7;fill-opacity:1;stroke-width:17.2935;stroke-linecap:square;stroke-miterlimit:6.7"
         d="m 2622.6307,-130.42725 c -3.8479,12.25973 -8.8833,23.99997 -15.1065,35.220726 -31.3222,56.475718 -77.4583,57.973939 -96.5251,57.973939 -15.7922,0 -28.3288,-1.766231 -37.6096,-5.298692 -9.0079,-3.74026 -15.683,-8.623369 -20.0254,-14.649326 -4.3424,-6.025973 -7.0346,-12.675312 -8.0767,-19.948033 -0.8341,-7.272705 -1.045,-14.545427 -0.6323,-21.818148 l 47.0565,-9.122436 c 2.426,-0.4703 4.2291,1.14905 4.2507,3.61949 0.2311,26.354138 20.5813,27.321094 28.8056,27.321094 38.1553,0 98.3636,-109.883404 26.8298,-105.038794 -16.7397,1.13369 -32.0094,14.62844 -40.6551,27.9595 -1.3444,2.0729 -4.3105,3.81609 -6.7816,3.79564 l -40.3001,-0.33345 c -2.4711,-0.0204 -3.3884,-1.72045 -2.0546,-3.80071 5.4252,-8.46115 14.1132,-22.01476 19.4502,-28.24435 6.4385,-7.27272 13.7916,-13.81816 22.0594,-19.63633 8.5406,-6.02597 18.4563,-10.80518 29.7468,-14.33764 11.2904,-3.53247 17.5505,-5.2987 32.3037,-5.2987 16.8313,0 29.9381,2.5974 39.3206,7.79219 9.6555,4.98702 16.3343,11.84415 20.0367,20.5714 3.7025,8.72727 5.1759,18.59738 4.4206,29.61035 -0.6901,10.80517 -2.8613,22.02593 -6.5136,33.66228 z"
         id="path12"
         sodipodi:nodetypes="ssscscccssccccsscscs"
         inkscape:path-effect="#path-effect30"
         inkscape:original-d="m 2622.6307,-130.42725 c -3.8479,12.25973 -8.8833,23.99997 -15.1065,35.220726 -31.3222,56.475718 -77.4583,57.973939 -96.5251,57.973939 -15.7922,0 -28.3288,-1.766231 -37.6096,-5.298692 -9.0079,-3.74026 -15.683,-8.623369 -20.0254,-14.649326 -4.3424,-6.025973 -7.0346,-12.675312 -8.0767,-19.948033 -0.8341,-7.272705 -1.045,-14.545427 -0.6323,-21.818148 l 51.4492,-9.973996 c -2.1324,30.718502 19.9975,31.792144 28.6636,31.792144 38.1553,0 98.3636,-109.883404 26.8298,-105.038794 -18.3505,1.24278 -34.9344,17.33998 -42.9624,31.79216 l -49.2487,-0.40749 c 4.8414,-7.48051 15.6393,-24.73533 21.8699,-32.00804 6.4385,-7.27272 13.7916,-13.81816 22.0594,-19.63633 8.5406,-6.02597 18.4563,-10.80518 29.7468,-14.33764 11.2904,-3.53247 17.5505,-5.2987 32.3037,-5.2987 16.8313,0 29.9381,2.5974 39.3206,7.79219 9.6555,4.98702 16.3343,11.84415 20.0367,20.5714 3.7025,8.72727 5.1759,18.59738 4.4206,29.61035 -0.6901,10.80517 -2.8613,22.02593 -6.5136,33.66228 z" /><path
         style="font-weight:900;font-size:192.623px;line-height:161.784px;font-family:'Noto Sans Malayalam';-inkscape-font-specification:'Noto Sans Malayalam Heavy';letter-spacing:0px;word-spacing:4.81557px;fill:#00acd7;fill-opacity:1;stroke-width:17.2935;stroke-linecap:square;stroke-miterlimit:6.7"
         d="m 2262.8123,-149.0281 c 18.7013,0 32.6963,3.25833 42.2599,9.35064 24.6453,15.69983 21.978,40.421064 9.3356,62.860523 h 68.5933 a 10.781585,10.781585 143.27147 0 0 10.3353,-7.711704 l 38.3141,-128.991279 a 11.944569,11.944569 143.27147 0 1 11.4502,-8.54355 l 40.4606,0 a 6.6269717,6.6269717 53.366899 0 1 6.3464,8.53505 l -50.7821,168.903487 a 10.819136,10.819136 143.3669 0 1 -10.361,7.704031 h -183.734 c -1.9316,0 -2.2692,-0.973398 -0.8299,-2.261156 19.9939,-17.887969 53.9917,-68.047732 6.8108,-70.261692 -23.7217,0 -48.6722,23.76064 -34.3814,69.203293 0.5795,1.842562 -0.465,3.319555 -2.3966,3.319555 h -40.7565 c -1.9316,0 -4.3433,-1.318989 -5.3002,-2.996722 -4.0311,-7.067721 -6.8534,-14.692181 -8.4671,-22.873369 -1.6366,-9.350635 -0.6613,-11.84761 2.9257,-23.276174 4.1088,-13.090895 11.0592,-24.311653 20.8512,-33.662283 9.8572,-9.55843 21.5944,-16.83114 35.2116,-21.81814 13.6173,-4.98701 28.322,-7.48051 44.1141,-7.48051 z"
         id="path11"
         sodipodi:nodetypes="ssccccccscccscss"
         inkscape:path-effect="#path-effect29"
         inkscape:original-d="m 2262.8123,-149.0281 c 18.7013,0 32.6963,3.25833 42.2599,9.35064 24.6453,15.69983 21.978,40.421064 9.3356,62.860523 h 76.638 l 43.1424,-145.246533 h 58.2856 l -55.6645,185.142568 h -195.2762 c 19.3529,-15.420459 58.8353,-70.206778 9.4784,-72.522848 -24.2928,0 -49.8742,24.918412 -33.2805,72.522848 h -47.7515 c -5.0022,-7.896088 -8.4254,-16.519457 -10.2698,-25.870091 -1.6366,-9.350635 -0.6613,-11.84761 2.9257,-23.276174 4.1088,-13.090895 11.0592,-24.311653 20.8512,-33.662283 9.8572,-9.55843 21.5944,-16.83114 35.2116,-21.81814 13.6173,-4.98701 28.322,-7.48051 44.1141,-7.48051 z" /><path
         style="font-weight:900;font-size:192.623px;line-height:161.784px;font-family:'Noto Sans Malayalam';-inkscape-font-specification:'Noto Sans Malayalam Heavy';letter-spacing:0px;word-spacing:4.81557px;fill:#00acd7;fill-opacity:1;stroke-width:17.2935;stroke-linecap:square;stroke-miterlimit:6.7"
         d="m 2986.735,-130.42725 c -3.8479,12.25973 -8.8833,23.99997 -15.1065,35.220726 -31.3221,56.475718 -77.4583,57.973939 -96.5251,57.973939 -15.7922,0 -28.3288,-1.766231 -37.6095,-5.298692 -9.008,-3.74026 -15.6831,-8.623369 -20.0255,-14.649326 -4.3424,-6.025973 -7.0346,-12.675312 -8.0767,-19.948033 -0.8341,-7.272705 -1.0449,-14.545427 -0.6323,-21.818148 l 46.0097,-8.919496 c 3.0042,-0.58238 5.2259,1.42521 5.3182,4.48262 0.7643,25.31431 20.6731,26.255024 28.7849,26.255024 38.1553,0 98.3636,-109.883404 26.8298,-105.038794 -16.251,1.10059 -31.1164,13.85103 -39.881,26.7918 -1.8191,2.68581 -5.7117,4.9786 -8.9565,4.95175 l -43.3736,-0.35888 c 4.8415,-7.48051 15.6394,-24.73533 21.8699,-32.00804 6.4386,-7.27272 13.7916,-13.81816 22.0594,-19.63633 8.5407,-6.02597 18.4564,-10.80518 29.7468,-14.33764 11.2905,-3.53247 17.5505,-5.2987 32.3037,-5.2987 16.8313,0 29.9381,2.5974 39.3206,7.79219 9.6555,4.98702 16.3343,11.84415 20.0368,20.5714 3.7024,8.72727 5.1758,18.59738 4.4205,29.61035 -0.6901,10.80517 -2.8613,22.02593 -6.5136,33.66228 z"
         id="path22"
         sodipodi:nodetypes="ssscscccssccccsscscs"
         inkscape:path-effect="#path-effect32"
         inkscape:original-d="m 2986.735,-130.42725 c -3.8479,12.25973 -8.8833,23.99997 -15.1065,35.220726 -31.3221,56.475718 -77.4583,57.973939 -96.5251,57.973939 -15.7922,0 -28.3288,-1.766231 -37.6095,-5.298692 -9.008,-3.74026 -15.6831,-8.623369 -20.0255,-14.649326 -4.3424,-6.025973 -7.0346,-12.675312 -8.0767,-19.948033 -0.8341,-7.272705 -1.0449,-14.545427 -0.6323,-21.818148 l 51.4492,-9.973996 c -2.1324,30.718502 19.9976,31.792144 28.6636,31.792144 38.1553,0 98.3636,-109.883404 26.8298,-105.038794 -18.3505,1.24278 -34.9343,17.33998 -42.9623,31.79216 l -49.2488,-0.40749 c 4.8415,-7.48051 15.6394,-24.73533 21.8699,-32.00804 6.4386,-7.27272 13.7916,-13.81816 22.0594,-19.63633 8.5407,-6.02597 18.4564,-10.80518 29.7468,-14.33764 11.2905,-3.53247 17.5505,-5.2987 32.3037,-5.2987 16.8313,0 29.9381,2.5974 39.3206,7.79219 9.6555,4.98702 16.3343,11.84415 20.0368,20.5714 3.7024,8.72727 5.1758,18.59738 4.4205,29.61035 -0.6901,10.80517 -2.8613,22.02593 -6.5136,33.66228 z" /><path
         style="color:#000000;fill:#00acd7;stroke-width:0.810646;stroke-linecap:square;stroke-miterlimit:6.7;-inkscape-stroke:none"
         d="m 2737.8916,-227.07705 c -15.6029,-0.0612 -31.1351,1.52118 -44.9292,4.6628 -27.5879,6.28322 -45.8168,21.5554 -55.9329,35.87111 -10.1161,14.31556 -19.3117,31.83753 -11.7307,53.00076 3.7905,10.58166 12.5022,18.90323 21.6056,23.68132 9.1034,4.77811 18.9922,7.26834 30.6431,9.05803 33.03,5.07375 94.489,5.778228 91.896,13.03051 -9.7783,27.347844 -114.6182,14.454335 -117.9634,2.346441 -0.6052,-2.19056 1.4754,-5.117661 3.4841,-7.319724 1.6915,-1.854257 1.2526,-3.372 -1.244,-3.647066 l -47.4162,-5.223971 c -1.2091,1.8725 -4.566,6.067659 -6.132,14.027982 -1.5662,7.960323 1.0086,18.413997 5.5921,25.080959 9.1671,13.334074 25.3386,22.427428 50.9757,26.972994 25.6373,4.54558 58.8315,4.272762 84.453,1.936368 25.6215,-2.336395 44.9154,-6.854617 59.9561,-19.330435 7.5204,-6.237963 13.5599,-14.194148 16.6769,-24.075567 3.1169,-9.881418 2.6176,-22.310466 -3.249,-32.569941 -11.7332,-20.51911 -32.4085,-26.17375 -57.3215,-30.17916 -24.9131,-4.00542 -55.3498,-4.5886 -72.6131,-7.24041 -6.937,-1.0656 -11.2021,-2.40561 -13.8586,-3.45791 0.6365,-2.07566 1.7573,-5.36426 4.4111,-9.11977 5.5361,-7.83431 10.3691,-13.22654 28.1462,-17.27532 24.9446,-5.68118 86.0796,-3.54434 89.6081,10.5479 1.5794,6.30789 -5.5026,10.95449 -10.7937,15.94212 -2.0205,1.90458 -1.1308,3.7793 1.6495,3.85536 l 41.7257,1.14151 c 2.6545,0.0726 6.6153,-1.07152 8.5002,-2.93749 8.9243,-8.83475 9.0865,-21.65515 4.2243,-34.47409 -8.1778,-18.89611 -26.8497,-32.23153 -55.0083,-39.10261 -14.0794,-3.43553 -29.7522,-5.14146 -45.3551,-5.2027 z"
         id="path24"
         sodipodi:nodetypes="ssssssssccssssssssscssaccsss"
         inkscape:path-effect="#path-effect31"
         inkscape:original-d="m 2737.8916,-227.07705 c -15.6029,-0.0612 -31.1351,1.52118 -44.9292,4.6628 -27.5879,6.28322 -45.8168,21.5554 -55.9329,35.87111 -10.1161,14.31556 -19.3117,31.83753 -11.7307,53.00076 3.7905,10.58166 12.5022,18.90323 21.6056,23.68132 9.1034,4.77811 18.9922,7.26834 30.6431,9.05803 33.03,5.07375 94.489,5.778228 91.896,13.03051 -9.7783,27.347844 -114.6182,14.454335 -117.9634,2.346441 -1.1062,-4.003984 6.7607,-10.468739 6.7607,-10.468739 l -51.9368,-5.722022 c -1.2091,1.8725 -4.566,6.067659 -6.132,14.027982 -1.5662,7.960323 1.0086,18.413997 5.5921,25.080959 9.1671,13.334074 25.3386,22.427428 50.9757,26.972994 25.6373,4.54558 58.8315,4.272762 84.453,1.936368 25.6215,-2.336395 44.9154,-6.854617 59.9561,-19.330435 7.5204,-6.237963 13.5599,-14.194148 16.6769,-24.075567 3.1169,-9.881418 2.6176,-22.310466 -3.249,-32.569941 -11.7332,-20.51911 -32.4085,-26.17375 -57.3215,-30.17916 -24.9131,-4.00542 -55.3498,-4.5886 -72.6131,-7.24041 -6.937,-1.0656 -11.2021,-2.40561 -13.8586,-3.45791 0.6365,-2.07566 1.7573,-5.36426 4.4111,-9.11977 5.5361,-7.83431 10.3691,-13.22654 28.1462,-17.27532 24.9446,-5.68118 86.0796,-3.54434 89.6081,10.5479 1.9625,7.83772 -9.4472,13.11061 -14.1783,19.65976 l 51.5662,1.41072 c 12.5024,-8.75287 13.3778,-23.14889 7.9181,-37.54307 -8.1778,-18.89611 -26.8497,-32.23153 -55.0083,-39.10261 -14.0794,-3.43553 -29.7522,-5.14146 -45.3551,-5.2027 z" /><path
         style="fill:none;fill-opacity:1;stroke:#00acd7;stroke-width:43.8815;stroke-linecap:square;stroke-miterlimit:6.7;stroke-dasharray:none;stroke-opacity:1"
         d="m 2876.3699,-156.16097 c 32.5578,-1.78542 65.116,-3.57085 85.0383,-9.98252 19.9224,-6.41167 27.2087,-17.44919 28.4575,-27.54034 1.2487,-10.09116 -3.5403,-19.23535 -18.1874,-23.80749 -14.6471,-4.57215 -39.1512,-4.57215 -58.843,2.4078 -19.6919,6.97995 -34.5698,20.93904 -48.9016,42.02522 -14.3318,21.08618 -28.1158,49.29691 -28.5924,73.174681 -0.4767,23.877768 12.3541,43.420051 29.6906,53.19138 17.3365,9.771329 39.1776,9.771329 54.8687,3.509258 15.6911,-6.26207 25.2314,-18.785798 23.3903,-29.89744 -1.841,-11.111641 -15.0631,-20.810713 -31.389,-25.38062 -16.326,-4.569909 -35.7546,-4.010319 -55.1836,-3.450719"
         id="path27"
         inkscape:path-effect="#path-effect28"
         inkscape:original-d="m 2876.3699,-156.16097 c 32.5578,-1.78542 65.116,-3.57086 97.674,-5.35628 7.2866,-11.03795 14.573,-22.07546 21.8596,-33.11319 -4.7892,-9.14452 -9.5782,-18.28868 -14.3671,-27.43303 -24.5052,0 -49.0093,0 -73.5142,0 -14.8788,13.95989 -29.7567,27.91902 -44.6356,41.87895 -13.7847,28.21242 -27.5687,56.42311 -41.3534,84.635559 12.8314,19.543097 25.6622,39.085404 38.4933,58.628051 21.8419,0 43.683,0 65.5246,0 9.5406,-12.524153 19.081,-25.047805 28.6213,-37.571706 -13.2225,-9.699509 -26.4445,-19.398628 -39.6671,-29.097944 -19.4294,0.55961 -38.858,1.1192 -58.287,1.6788"
         transform="matrix(0.90331018,0,0,0.79620654,-501.50879,-28.454483)"
         sodipodi:nodetypes="cccccccccccc" /></g><path
       id="path28"
       style="display:inline;fill:#00acd7;fill-rule:evenodd;stroke-width:5.9005"
       d="m 1900.3853,-154.75545 c -1.4339,0 -1.7879,-0.71987 -1.074,-1.78785 l 7.5114,-9.65913 c 0.708,-1.0739 2.5018,-1.78785 3.9297,-1.78785 h 127.6692 c 1.4338,0 1.7879,1.07389 1.0739,2.14777 l -6.0775,9.29921 c -0.714,1.06798 -2.5019,2.14189 -3.5757,2.14189 z m -54.0015,32.89532 c -1.428,0 -1.7879,-0.70805 -1.0739,-1.78785 l 7.5113,-9.65323 c 0.714,-1.07389 2.5019,-1.78785 3.9357,-1.78785 h 163.0663 c 1.428,0 2.1479,1.07389 1.7879,2.14779 l -2.8617,8.57933 c -0.3541,1.43382 -1.7879,2.14779 -3.2158,2.14779 z m 86.5367,32.901238 c -1.4279,0 -1.7818,-1.073902 -1.0679,-2.147788 l 5.0036,-8.93927 c 0.7199,-1.0739 2.1478,-2.14189 3.5816,-2.14189 h 71.5142 c 1.4338,0 2.1477,1.06799 2.1477,2.501821 l -0.708,8.579339 c 0,1.433825 -1.4338,2.507712 -2.5078,2.507712 z" /><g
       id="g50"
       transform="matrix(0.8181476,0,0,0.8181476,108.22837,58.677037)"><g
         id="g49"><path
           style="fill:none;fill-opacity:1;stroke-width:0.733999;stroke-linecap:square;stroke-miterlimit:6.7"
           d="m 1728.1737,-255.34784 c 2.2993,-0.22826 4.5377,0.47593 6.8472,0.44726 3.2426,-0.0403 6.5982,0.35416 9.7162,-0.54785 1.6267,-0.47058 3.1792,-1.18765 4.6788,-1.96641 2.1568,-1.12011 4.2369,-2.68444 5.375,-4.84992 0.8327,-1.58427 1.3016,-3.28726 2.0457,-4.93744 0.6005,-1.33163 1.0777,-2.97862 0.2805,-4.34761 -0.4703,-0.80747 -1.0762,-1.63185 -2.1235,-1.74213 -2.0906,-0.22014 -4.1814,0.14079 -6.2651,0.28921 -3.3441,0.2382 -6.7643,0.74782 -9.7611,2.27486 -1.8138,0.92426 -3.9064,1.50869 -5.3579,2.93755 -2.6002,2.55976 -4.67,5.60631 -6.5408,8.7181 -1.2338,2.05231 -2.6829,4.03495 -3.4428,6.31071 -0.5962,1.78536 -0.8547,3.65415 -1.4209,5.45453 -0.6131,1.94957 -1.4286,3.84999 -1.633,5.90951 -0.1921,1.93529 -0.5776,3.87104 -0.503,5.81582 0.062,1.61396 0.6483,3.15028 1.1769,4.65669 0.8259,2.354 1.5381,4.82146 2.9577,6.87506 0.8975,1.29821 2.1562,2.27558 3.1126,3.53609 1.296,1.70813 2.5839,3.42004 3.8654,5.13999 0.8118,1.08945 2.1015,1.64328 3.2557,2.28382 2.3502,1.3044 5.0947,1.84799 7.7714,1.47713 1.6232,-0.22491 3.2621,-0.56667 4.6771,-1.45576 2.6025,-1.6352 5.5859,-2.72241 7.784,-4.95865 2.2398,-2.27862 4.5983,-4.43689 6.8434,-6.70914 1.0772,-1.09031 2.0703,-2.3001 2.5842,-3.76631 0.3762,-1.07348 0.9514,-2.15562 0.889,-3.31235 -0.062,-1.14926 -0.5202,-2.44607 -1.7105,-2.85555 -1.4547,-0.50041 -2.938,-0.94198 -4.4423,-1.26601 -2.6917,-0.57982 -5.4844,-0.8249 -8.2174,-0.37212 -0.9738,0.16134 -2.1277,-0.0563 -2.9213,0.54504 -1.0282,0.77902 -2.3121,1.22782 -3.5736,1.35788 -0.936,0.0965 -1.8193,0.38943 -2.6779,0.76466 -2.163,0.94522 -4.4735,1.44247 -6.7475,2.03085 -1.3682,0.354 -2.5332,1.18136 -3.7976,1.78254 -1.2525,0.59555 -2.4923,1.1911 -3.812,1.66343 -1.0066,0.36027 -1.7332,1.27265 -1.8726,2.36864 -0.1576,1.23985 -0.053,2.49827 0.1075,3.73225"
           id="path32"
           inkscape:path-effect="#path-effect39"
           inkscape:original-d="m 1728.1737,-255.34784 c 1.985,-0.22643 3.9251,0.45188 5.8963,0.4505 3.3802,-0.002 6.7692,-0.10036 10.1302,-0.46047 0.9652,-0.10341 1.8705,-0.53853 2.7628,-0.92092 2.3427,-1.004 4.201,-1.89872 5.986,-3.68371 0.695,-0.69494 1.3759,-1.43699 1.8419,-2.30232 0.6217,-1.15465 0.877,-2.47319 1.3813,-3.68371 0.2641,-0.6336 0.7039,-1.19066 0.921,-1.84185 0.7171,-2.15138 0.7385,-3.12915 -0.921,-5.0651 -0.5849,-0.68239 -3.3064,-0.49326 -3.6836,-0.46046 -5.77,0.50173 -7.9957,0.46583 -12.893,2.3023 -0.7803,0.2926 -5.5818,2.84427 -5.9861,3.22326 -3.3595,3.14955 -8.0296,10.88493 -9.6697,14.27437 -0.7622,1.5753 -0.8785,3.38887 -1.3814,5.0651 -1.624,5.41337 -1.7087,3.60066 -2.3023,10.13019 -0.125,1.37572 -0.3559,2.80943 0,4.14418 0.8888,3.33274 2.1412,6.58466 3.6837,9.66973 0.6329,1.2657 1.8705,2.12497 2.7628,3.22324 1.1036,1.35823 2.13,2.77763 3.2232,4.14418 0.7489,0.93609 1.2888,2.12265 2.3023,2.76279 4.5512,2.87439 7.3126,3.52135 12.4326,2.3023 1.3355,-0.31797 2.4704,-1.19952 3.6837,-1.84185 6.2887,-3.32931 4.2015,-2.22539 11.0511,-8.7488 0.8195,-0.78049 3.4462,-3.20871 4.1442,-4.60464 0.5865,-1.17296 1.0363,-2.41852 1.3813,-3.68371 0.1212,-0.44424 0.076,-0.92719 0,-1.38139 -0.4072,-2.44335 -1.6714,-2.3433 -4.6046,-3.22324 -2.1675,-0.65026 -5.825,-1.21074 -8.2883,-0.92093 -6.8698,0.80821 -2.3832,0.48472 -6.907,1.84185 -0.7496,0.22489 -1.5348,0.30698 -2.3023,0.46047 -1.2279,0.46046 -2.4332,0.98648 -3.6837,1.38138 -1.6688,0.52699 -3.4048,0.82799 -5.0651,1.3814 -0.6512,0.21707 -1.2279,0.61395 -1.8419,0.92092 0,2e-4 -3.6833,1.84169 -3.6837,1.84186 -1.3107,0.56174 -1.6566,0.2753 -2.7627,1.38139 -1.0993,1.09925 -0.4605,5.15264 -0.4605,5.20606"
           transform="matrix(0.49083381,0,0,0.49083381,-727.71732,326.60977)" /><path
           style="font-weight:900;font-size:192.623px;line-height:161.784px;font-family:'Noto Sans Malayalam';-inkscape-font-specification:'Noto Sans Malayalam Heavy';letter-spacing:0px;word-spacing:4.81557px;fill:#00acd7;fill-opacity:1;stroke-width:17.2935;stroke-linecap:square;stroke-miterlimit:6.7"
           d="m 2622.6307,-130.42725 c -3.8479,12.25973 -8.8833,23.99997 -15.1065,35.220726 -31.3222,56.475718 -77.4583,57.973939 -96.5251,57.973939 -15.7922,0 -28.3288,-1.766231 -37.6096,-5.298692 -9.0079,-3.74026 -15.683,-8.623369 -20.0254,-14.649326 -4.3424,-6.025973 -7.0346,-12.675312 -8.0767,-19.948033 -0.8341,-7.272705 -1.045,-14.545427 -0.6323,-21.818148 l 47.0565,-9.122436 c 2.426,-0.4703 4.2291,1.14905 4.2507,3.61949 0.2311,26.354138 20.5813,27.321094 28.8056,27.321094 38.1553,0 98.3636,-109.883404 26.8298,-105.038794 -16.7397,1.13369 -32.0094,14.62844 -40.6551,27.9595 -1.3444,2.0729 -4.3105,3.81609 -6.7816,3.79564 l -40.3001,-0.33345 c -2.4711,-0.0204 -3.3884,-1.72045 -2.0546,-3.80071 5.4252,-8.46115 14.1132,-22.01476 19.4502,-28.24435 6.4385,-7.27272 13.7916,-13.81816 22.0594,-19.63633 8.5406,-6.02597 18.4563,-10.80518 29.7468,-14.33764 11.2904,-3.53247 17.5505,-5.2987 32.3037,-5.2987 16.8313,0 29.9381,2.5974 39.3206,7.79219 9.6555,4.98702 16.3343,11.84415 20.0367,20.5714 3.7025,8.72727 5.1759,18.59738 4.4206,29.61035 -0.6901,10.80517 -2.8613,22.02593 -6.5136,33.66228 z"
           id="path33"
           sodipodi:nodetypes="ssscscccssccccsscscs"
           inkscape:path-effect="#path-effect41"
           inkscape:original-d="m 2622.6307,-130.42725 c -3.8479,12.25973 -8.8833,23.99997 -15.1065,35.220726 -31.3222,56.475718 -77.4583,57.973939 -96.5251,57.973939 -15.7922,0 -28.3288,-1.766231 -37.6096,-5.298692 -9.0079,-3.74026 -15.683,-8.623369 -20.0254,-14.649326 -4.3424,-6.025973 -7.0346,-12.675312 -8.0767,-19.948033 -0.8341,-7.272705 -1.045,-14.545427 -0.6323,-21.818148 l 51.4492,-9.973996 c -2.1324,30.718502 19.9975,31.792144 28.6636,31.792144 38.1553,0 98.3636,-109.883404 26.8298,-105.038794 -18.3505,1.24278 -34.9344,17.33998 -42.9624,31.79216 l -49.2487,-0.40749 c 4.8414,-7.48051 15.6393,-24.73533 21.8699,-32.00804 6.4385,-7.27272 13.7916,-13.81816 22.0594,-19.63633 8.5406,-6.02597 18.4563,-10.80518 29.7468,-14.33764 11.2904,-3.53247 17.5505,-5.2987 32.3037,-5.2987 16.8313,0 29.9381,2.5974 39.3206,7.79219 9.6555,4.98702 16.3343,11.84415 20.0367,20.5714 3.7025,8.72727 5.1759,18.59738 4.4206,29.61035 -0.6901,10.80517 -2.8613,22.02593 -6.5136,33.66228 z"
           transform="matrix(0.49083381,0,0,0.49083381,-996.31522,326.60977)" /><path
           style="font-weight:900;font-size:192.623px;line-height:161.784px;font-family:'Noto Sans Malayalam';-inkscape-font-specification:'Noto Sans Malayalam Heavy';letter-spacing:0px;word-spacing:4.81557px;fill:#00acd7;fill-opacity:1;stroke-width:17.2935;stroke-linecap:square;stroke-miterlimit:6.7"
           d="m 2262.8123,-149.0281 c 18.7013,0 32.6963,3.25833 42.2599,9.35064 24.6453,15.69983 21.978,40.421064 9.3356,62.860523 h 68.5933 a 10.781585,10.781585 143.27147 0 0 10.3353,-7.711704 l 38.3141,-128.991279 a 11.944569,11.944569 143.27147 0 1 11.4502,-8.54355 l 40.4606,0 a 6.6269717,6.6269717 53.366899 0 1 6.3464,8.53505 l -50.7821,168.903487 a 10.819136,10.819136 143.3669 0 1 -10.361,7.704031 h -183.734 c -1.9316,0 -2.2692,-0.973398 -0.8299,-2.261156 19.9939,-17.887969 53.9917,-68.047732 6.8108,-70.261692 -23.7217,0 -48.6722,23.76064 -34.3814,69.203293 0.5795,1.842562 -0.465,3.319555 -2.3966,3.319555 h -40.7565 c -1.9316,0 -4.3433,-1.318989 -5.3002,-2.996722 -4.0311,-7.067721 -6.8534,-14.692181 -8.4671,-22.873369 -1.6366,-9.350635 -0.6613,-11.84761 2.9257,-23.276174 4.1088,-13.090895 11.0592,-24.311653 20.8512,-33.662283 9.8572,-9.55843 21.5944,-16.83114 35.2116,-21.81814 13.6173,-4.98701 28.322,-7.48051 44.1141,-7.48051 z"
           id="path34"
           sodipodi:nodetypes="ssccccccscccscss"
           inkscape:path-effect="#path-effect43"
           inkscape:original-d="m 2262.8123,-149.0281 c 18.7013,0 32.6963,3.25833 42.2599,9.35064 24.6453,15.69983 21.978,40.421064 9.3356,62.860523 h 76.638 l 43.1424,-145.246533 h 58.2856 l -55.6645,185.142568 h -195.2762 c 19.3529,-15.420459 58.8353,-70.206778 9.4784,-72.522848 -24.2928,0 -49.8742,24.918412 -33.2805,72.522848 h -47.7515 c -5.0022,-7.896088 -8.4254,-16.519457 -10.2698,-25.870091 -1.6366,-9.350635 -0.6613,-11.84761 2.9257,-23.276174 4.1088,-13.090895 11.0592,-24.311653 20.8512,-33.662283 9.8572,-9.55843 21.5944,-16.83114 35.2116,-21.81814 13.6173,-4.98701 28.322,-7.48051 44.1141,-7.48051 z"
           transform="matrix(0.49083381,0,0,0.49083381,-996.31522,326.60977)" /><path
           style="font-weight:900;font-size:192.623px;line-height:161.784px;font-family:'Noto Sans Malayalam';-inkscape-font-specification:'Noto Sans Malayalam Heavy';letter-spacing:0px;word-spacing:4.81557px;fill:#00acd7;fill-opacity:1;stroke-width:17.2935;stroke-linecap:square;stroke-miterlimit:6.7"
           d="m 2986.735,-130.42725 c -3.8479,12.25973 -8.8833,23.99997 -15.1065,35.220726 -31.3221,56.475718 -77.4583,57.973939 -96.5251,57.973939 -15.7922,0 -28.3288,-1.766231 -37.6095,-5.298692 -9.008,-3.74026 -15.6831,-8.623369 -20.0255,-14.649326 -4.3424,-6.025973 -7.0346,-12.675312 -8.0767,-19.948033 -0.8341,-7.272705 -1.0449,-14.545427 -0.6323,-21.818148 l 46.0097,-8.919496 c 3.0042,-0.58238 5.2259,1.42521 5.3182,4.48262 0.7643,25.31431 20.6731,26.255024 28.7849,26.255024 38.1553,0 98.3636,-109.883404 26.8298,-105.038794 -16.251,1.10059 -31.1164,13.85103 -39.881,26.7918 -1.8191,2.68581 -5.7117,4.9786 -8.9565,4.95175 l -43.3736,-0.35888 c 4.8415,-7.48051 15.6394,-24.73533 21.8699,-32.00804 6.4386,-7.27272 13.7916,-13.81816 22.0594,-19.63633 8.5407,-6.02597 18.4564,-10.80518 29.7468,-14.33764 11.2905,-3.53247 17.5505,-5.2987 32.3037,-5.2987 16.8313,0 29.9381,2.5974 39.3206,7.79219 9.6555,4.98702 16.3343,11.84415 20.0368,20.5714 3.7024,8.72727 5.1758,18.59738 4.4205,29.61035 -0.6901,10.80517 -2.8613,22.02593 -6.5136,33.66228 z"
           id="path35"
           sodipodi:nodetypes="ssscscccssccccsscscs"
           inkscape:path-effect="#path-effect45"
           inkscape:original-d="m 2986.735,-130.42725 c -3.8479,12.25973 -8.8833,23.99997 -15.1065,35.220726 -31.3221,56.475718 -77.4583,57.973939 -96.5251,57.973939 -15.7922,0 -28.3288,-1.766231 -37.6095,-5.298692 -9.008,-3.74026 -15.6831,-8.623369 -20.0255,-14.649326 -4.3424,-6.025973 -7.0346,-12.675312 -8.0767,-19.948033 -0.8341,-7.272705 -1.0449,-14.545427 -0.6323,-21.818148 l 51.4492,-9.973996 c -2.1324,30.718502 19.9976,31.792144 28.6636,31.792144 38.1553,0 98.3636,-109.883404 26.8298,-105.038794 -18.3505,1.24278 -34.9343,17.33998 -42.9623,31.79216 l -49.2488,-0.40749 c 4.8415,-7.48051 15.6394,-24.73533 21.8699,-32.00804 6.4386,-7.27272 13.7916,-13.81816 22.0594,-19.63633 8.5407,-6.02597 18.4564,-10.80518 29.7468,-14.33764 11.2905,-3.53247 17.5505,-5.2987 32.3037,-5.2987 16.8313,0 29.9381,2.5974 39.3206,7.79219 9.6555,4.98702 16.3343,11.84415 20.0368,20.5714 3.7024,8.72727 5.1758,18.59738 4.4205,29.61035 -0.6901,10.80517 -2.8613,22.02593 -6.5136,33.66228 z"
           transform="matrix(0.49083381,0,0,0.49083381,-996.31522,326.60977)" /><path
           style="color:#000000;fill:#00acd7;stroke-width:0.810646;stroke-linecap:square;stroke-miterlimit:6.7;-inkscape-stroke:none"
           d="m 2737.8916,-227.07705 c -15.6029,-0.0612 -31.1351,1.52118 -44.9292,4.6628 -27.5879,6.28322 -45.8168,21.5554 -55.9329,35.87111 -10.1161,14.31556 -19.3117,31.83753 -11.7307,53.00076 3.7905,10.58166 12.5022,18.90323 21.6056,23.68132 9.1034,4.77811 18.9922,7.26834 30.6431,9.05803 33.03,5.07375 94.489,5.778228 91.896,13.03051 -9.7783,27.347844 -114.6182,14.454335 -117.9634,2.346441 -0.6052,-2.19056 1.4754,-5.117661 3.4841,-7.319724 1.6915,-1.854257 1.2526,-3.372 -1.244,-3.647066 l -47.4162,-5.223971 c -1.2091,1.8725 -4.566,6.067659 -6.132,14.027982 -1.5662,7.960323 1.0086,18.413997 5.5921,25.080959 9.1671,13.334074 25.3386,22.427428 50.9757,26.972994 25.6373,4.54558 58.8315,4.272762 84.453,1.936368 25.6215,-2.336395 44.9154,-6.854617 59.9561,-19.330435 7.5204,-6.237963 13.5599,-14.194148 16.6769,-24.075567 3.1169,-9.881418 2.6176,-22.310466 -3.249,-32.569941 -11.7332,-20.51911 -32.4085,-26.17375 -57.3215,-30.17916 -24.9131,-4.00542 -55.3498,-4.5886 -72.6131,-7.24041 -6.937,-1.0656 -11.2021,-2.40561 -13.8586,-3.45791 0.6365,-2.07566 1.7573,-5.36426 4.4111,-9.11977 5.5361,-7.83431 10.3691,-13.22654 28.1462,-17.27532 24.9446,-5.68118 86.0796,-3.54434 89.6081,10.5479 1.5794,6.30789 -5.5026,10.95449 -10.7937,15.94212 -2.0205,1.90458 -1.1308,3.7793 1.6495,3.85536 l 41.7257,1.14151 c 2.6545,0.0726 6.6153,-1.07152 8.5002,-2.93749 8.9243,-8.83475 9.0865,-21.65515 4.2243,-34.47409 -8.1778,-18.89611 -26.8497,-32.23153 -55.0083,-39.10261 -14.0794,-3.43553 -29.7522,-5.14146 -45.3551,-5.2027 z"
           id="path36"
           sodipodi:nodetypes="ssssssssccssssssssscssaccsss"
           inkscape:path-effect="#path-effect47"
           inkscape:original-d="m 2737.8916,-227.07705 c -15.6029,-0.0612 -31.1351,1.52118 -44.9292,4.6628 -27.5879,6.28322 -45.8168,21.5554 -55.9329,35.87111 -10.1161,14.31556 -19.3117,31.83753 -11.7307,53.00076 3.7905,10.58166 12.5022,18.90323 21.6056,23.68132 9.1034,4.77811 18.9922,7.26834 30.6431,9.05803 33.03,5.07375 94.489,5.778228 91.896,13.03051 -9.7783,27.347844 -114.6182,14.454335 -117.9634,2.346441 -1.1062,-4.003984 6.7607,-10.468739 6.7607,-10.468739 l -51.9368,-5.722022 c -1.2091,1.8725 -4.566,6.067659 -6.132,14.027982 -1.5662,7.960323 1.0086,18.413997 5.5921,25.080959 9.1671,13.334074 25.3386,22.427428 50.9757,26.972994 25.6373,4.54558 58.8315,4.272762 84.453,1.936368 25.6215,-2.336395 44.9154,-6.854617 59.9561,-19.330435 7.5204,-6.237963 13.5599,-14.194148 16.6769,-24.075567 3.1169,-9.881418 2.6176,-22.310466 -3.249,-32.569941 -11.7332,-20.51911 -32.4085,-26.17375 -57.3215,-30.17916 -24.9131,-4.00542 -55.3498,-4.5886 -72.6131,-7.24041 -6.937,-1.0656 -11.2021,-2.40561 -13.8586,-3.45791 0.6365,-2.07566 1.7573,-5.36426 4.4111,-9.11977 5.5361,-7.83431 10.3691,-13.22654 28.1462,-17.27532 24.9446,-5.68118 86.0796,-3.54434 89.6081,10.5479 1.9625,7.83772 -9.4472,13.11061 -14.1783,19.65976 l 51.5662,1.41072 c 12.5024,-8.75287 13.3778,-23.14889 7.9181,-37.54307 -8.1778,-18.89611 -26.8497,-32.23153 -55.0083,-39.10261 -14.0794,-3.43553 -29.7522,-5.14146 -45.3551,-5.2027 z"
           transform="matrix(0.49083381,0,0,0.49083381,-996.31522,326.60977)" /><path
           style="fill:none;fill-opacity:1;stroke:#00acd7;stroke-width:43.8815;stroke-linecap:square;stroke-miterlimit:6.7;stroke-dasharray:none;stroke-opacity:1"
           d="m 2876.3699,-156.16097 c 32.5578,-1.78542 65.116,-3.57085 85.0383,-9.98252 19.9224,-6.41167 27.2087,-17.44919 28.4575,-27.54034 1.2487,-10.09116 -3.5403,-19.23535 -18.1874,-23.80749 -14.6471,-4.57215 -39.1512,-4.57215 -58.843,2.4078 -19.6919,6.97995 -34.5698,20.93904 -48.9016,42.02522 -14.3318,21.08618 -28.1158,49.29691 -28.5924,73.174681 -0.4767,23.877768 12.3541,43.420051 29.6906,53.19138 17.3365,9.771329 39.1776,9.771329 54.8687,3.509258 15.6911,-6.26207 25.2314,-18.785798 23.3903,-29.89744 -1.841,-11.111641 -15.0631,-20.810713 -31.389,-25.38062 -16.326,-4.569909 -35.7546,-4.010319 -55.1836,-3.450719"
           id="path37"
           inkscape:path-effect="#path-effect49"
           inkscape:original-d="m 2876.3699,-156.16097 c 32.5578,-1.78542 65.116,-3.57086 97.674,-5.35628 7.2866,-11.03795 14.573,-22.07546 21.8596,-33.11319 -4.7892,-9.14452 -9.5782,-18.28868 -14.3671,-27.43303 -24.5052,0 -49.0093,0 -73.5142,0 -14.8788,13.95989 -29.7567,27.91902 -44.6356,41.87895 -13.7847,28.21242 -27.5687,56.42311 -41.3534,84.635559 12.8314,19.543097 25.6622,39.085404 38.4933,58.628051 21.8419,0 43.683,0 65.5246,0 9.5406,-12.524153 19.081,-25.047805 28.6213,-37.571706 -13.2225,-9.699509 -26.4445,-19.398628 -39.6671,-29.097944 -19.4294,0.55961 -38.858,1.1192 -58.287,1.6788"
           transform="matrix(0.44337518,0,0,0.39080509,-1242.4727,312.64335)"
           sodipodi:nodetypes="cccccccccccc" /><path
           id="path38"
           style="display:inline;fill:#00acd7;fill-rule:evenodd;stroke-width:2.89616"
           d="m -63.541872,250.65056 c -0.703807,0 -0.877562,-0.35334 -0.527156,-0.87754 l 3.686849,-4.74103 c 0.347511,-0.5271 1.227968,-0.87753 1.92883,-0.87753 H 4.2110105 c 0.7037575,0 0.8775618,0.5271 0.5271064,1.05419 l -2.9830425,4.56437 C 1.4046191,250.29722 0.52705734,250.82433 0,250.82433 Z m -26.505762,16.14613 c -0.700911,0 -0.877562,-0.34753 -0.527107,-0.87753 l 3.6868,-4.73813 c 0.350456,-0.52711 1.228017,-0.87754 1.931775,-0.87754 h 80.038453 c 0.7009107,0 1.0542619,0.5271 0.8775618,1.05421 l -1.4046191,4.21102 c -0.1738043,0.70377 -0.8775618,1.05421 -1.5784234,1.05421 z m 42.475138,16.14904 c -0.700862,0 -0.874568,-0.5271 -0.524162,-1.0542 l 2.455936,-4.3877 c 0.353352,-0.52711 1.054213,-1.05131 1.757971,-1.05131 h 35.1015869 c 0.7037575,0 1.0541638,0.5242 1.0541638,1.22798 l -0.3475103,4.21103 c 0,0.70377 -0.7037576,1.23087 -1.2309131,1.23087 z" /></g></g></g></svg>
