<?xml version="1.0" encoding="UTF-8" standalone="no"?>
<!-- Created with Inkscape (http://www.inkscape.org/) -->

<svg
   width="2000"
   height="2000"
   viewBox="0 0 529.16667 529.16667"
   version="1.1"
   id="svg1"
   inkscape:version="1.3.2 (091e20ef0f, 2023-11-25, custom)"
   sodipodi:docname="go.svg"
   inkscape:export-filename="rust.png"
   inkscape:export-xdpi="1500"
   inkscape:export-ydpi="1500"
   xml:space="preserve"
   xmlns:inkscape="http://www.inkscape.org/namespaces/inkscape"
   xmlns:sodipodi="http://sodipodi.sourceforge.net/DTD/sodipodi-0.dtd"
   xmlns="http://www.w3.org/2000/svg"
   xmlns:svg="http://www.w3.org/2000/svg"><sodipodi:namedview
     id="namedview1"
     pagecolor="#505050"
     bordercolor="#ffffff"
     borderopacity="1"
     inkscape:showpageshadow="0"
     inkscape:pageopacity="0"
     inkscape:pagecheckerboard="1"
     inkscape:deskcolor="#524b4b"
     inkscape:document-units="mm"
     inkscape:zoom="0.36449821"
     inkscape:cx="847.7408"
     inkscape:cy="989.03093"
     inkscape:window-width="1920"
     inkscape:window-height="1048"
     inkscape:window-x="0"
     inkscape:window-y="32"
     inkscape:window-maximized="1"
     inkscape:current-layer="layer1"
     showguides="true"><sodipodi:guide
       position="1149.9076,751.23014"
       orientation="0,-1"
       id="guide14"
       inkscape:locked="false" /><sodipodi:guide
       position="1214.0744,566.08758"
       orientation="0,-1"
       id="guide15"
       inkscape:locked="false" /><inkscape:page
       x="0"
       y="0"
       width="529.16669"
       height="529.16669"
       id="page51"
       margin="10"
       bleed="0" /></sodipodi:namedview><defs
     id="defs1"><inkscape:path-effect
       effect="bspline"
       id="path-effect49"
       is_visible="true"
       lpeversion="1.3"
       weight="33.333333"
       steps="2"
       helper_size="0"
       apply_no_weight="true"
       apply_with_weight="true"
       only_selected="false"
       uniform="false" /><inkscape:path-effect
       effect="fillet_chamfer"
       id="path-effect47"
       is_visible="true"
       lpeversion="1"
       nodesatellites_param="F,0,0,1,0,0,0,1 @ F,0,0,1,0,0,0,1 @ F,0,0,1,0,0,0,1 @ F,0,0,1,0,0,0,1 @ F,0,0,1,0,0,0,1 @ F,0,0,1,0,0,0,1 @ F,0,0,1,0,0,0,1 @ F,0,0,1,0,0,0,1 @ F,0,0,1,0,4.5479841,0,1 @ F,0,0,1,0,0,0,1 @ F,0,0,1,0,0,0,1 @ F,0,0,1,0,0,0,1 @ F,0,0,1,0,0,0,1 @ F,0,0,1,0,0,0,1 @ F,0,0,1,0,0,0,1 @ F,0,0,1,0,0,0,1 @ F,0,0,1,0,0,0,1 @ F,0,0,1,0,0,0,1 @ F,0,0,1,0,0,0,1 @ F,0,0,1,0,0,0,1 @ F,0,0,1,0,0,0,1 @ F,0,0,1,0,0,0,1 @ F,0,0,1,0,0,0,1 @ F,0,0,1,0,5.0359575,0,1 @ F,0,0,1,0,4.8081598,0,1 @ F,0,0,1,0,0,0,1 @ F,0,0,1,0,0,0,1"
       radius="0"
       unit="px"
       method="auto"
       mode="F"
       chamfer_steps="1"
       flexible="false"
       use_knot_distance="true"
       apply_no_radius="true"
       apply_with_radius="true"
       only_selected="false"
       hide_knots="false" /><inkscape:path-effect
       effect="fillet_chamfer"
       id="path-effect45"
       is_visible="true"
       lpeversion="1"
       nodesatellites_param="F,0,0,1,0,0,0,1 @ F,0,0,1,0,0,0,1 @ F,0,0,1,0,0,0,1 @ F,0,0,1,0,0,0,1 @ F,0,0,1,0,0,0,1 @ F,0,0,1,0,0,0,1 @ F,0,0,1,0,0,0,1 @ F,0,0,1,0,5.5407252,0,1 @ F,0,0,1,0,0,0,1 @ F,0,0,1,0,0,0,1 @ F,0,0,1,0,5.8754091,0,1 @ F,0,0,1,0,0,0,1 @ F,0,0,1,0,0,0,1 @ F,0,0,1,0,0,0,1 @ F,0,0,1,0,0,0,1 @ F,0,0,1,0,0,0,1 @ F,0,0,1,0,0,0,1 @ F,0,0,1,0,0,0,1 @ F,0,0,1,0,0,0,1"
       radius="0"
       unit="px"
       method="auto"
       mode="F"
       chamfer_steps="1"
       flexible="false"
       use_knot_distance="true"
       apply_no_radius="true"
       apply_with_radius="true"
       only_selected="false"
       hide_knots="false" /><inkscape:path-effect
       effect="fillet_chamfer"
       id="path-effect43"
       is_visible="true"
       lpeversion="1"
       nodesatellites_param="F,0,0,1,0,0,0,1 @ F,0,0,1,0,0,0,1 @ F,0,0,1,0,0,0,1 @ F,0,0,1,0,8.0447013,0,1 @ F,0,0,1,0,8.9124635,0,1 @ F,0,0,1,0,8.9124635,0,1 @ F,0,0,1,0,8.0447013,0,1 @ F,0,1,1,0,3.4974762,0,1 @ F,0,0,1,0,0,0,1 @ F,0,0,1,0,3.4974762,0,1 @ F,0,1,1,0,3.4974762,0,1 @ F,0,0,1,0,0,0,1 @ F,0,0,1,0,0,0,1 @ F,0,0,1,0,0,0,1 @ F,0,0,1,0,0,0,1"
       radius="0"
       unit="px"
       method="auto"
       mode="F"
       chamfer_steps="1"
       flexible="false"
       use_knot_distance="true"
       apply_no_radius="true"
       apply_with_radius="true"
       only_selected="false"
       hide_knots="false" /><inkscape:path-effect
       effect="fillet_chamfer"
       id="path-effect41"
       is_visible="true"
       lpeversion="1"
       nodesatellites_param="F,0,0,1,0,0,0,1 @ F,0,0,1,0,0,0,1 @ F,0,0,1,0,0,0,1 @ F,0,0,1,0,0,0,1 @ F,0,0,1,0,0,0,1 @ F,0,0,1,0,0,0,1 @ F,0,0,1,0,0,0,1 @ F,0,0,1,0,4.4744365,0,1 @ F,0,0,1,0,0,0,1 @ F,0,0,1,0,0,0,1 @ F,0,1,1,0,4.4744365,0,1 @ F,0,1,1,0,4.4744365,0,1 @ F,0,0,1,0,0,0,1 @ F,0,0,1,0,0,0,1 @ F,0,0,1,0,0,0,1 @ F,0,0,1,0,0,0,1 @ F,0,0,1,0,0,0,1 @ F,0,0,1,0,0,0,1 @ F,0,0,1,0,0,0,1"
       radius="0"
       unit="px"
       method="auto"
       mode="F"
       chamfer_steps="1"
       flexible="false"
       use_knot_distance="true"
       apply_no_radius="true"
       apply_with_radius="true"
       only_selected="false"
       hide_knots="false" /><inkscape:path-effect
       effect="simplify"
       id="path-effect39"
       is_visible="true"
       lpeversion="1.3"
       threshold="10.8696"
       steps="1"
       smooth_angles="360"
       helper_size="0"
       simplify_individual_paths="false"
       simplify_just_coalesce="false" /><inkscape:path-effect
       effect="fillet_chamfer"
       id="path-effect32"
       is_visible="true"
       lpeversion="1"
       nodesatellites_param="F,0,0,1,0,0,0,1 @ F,0,0,1,0,0,0,1 @ F,0,0,1,0,0,0,1 @ F,0,0,1,0,0,0,1 @ F,0,0,1,0,0,0,1 @ F,0,0,1,0,0,0,1 @ F,0,0,1,0,0,0,1 @ F,0,0,1,0,5.5407252,0,1 @ F,0,0,1,0,0,0,1 @ F,0,0,1,0,0,0,1 @ F,0,0,1,0,5.8754091,0,1 @ F,0,0,1,0,0,0,1 @ F,0,0,1,0,0,0,1 @ F,0,0,1,0,0,0,1 @ F,0,0,1,0,0,0,1 @ F,0,0,1,0,0,0,1 @ F,0,0,1,0,0,0,1 @ F,0,0,1,0,0,0,1 @ F,0,0,1,0,0,0,1"
       radius="0"
       unit="px"
       method="auto"
       mode="F"
       chamfer_steps="1"
       flexible="false"
       use_knot_distance="true"
       apply_no_radius="true"
       apply_with_radius="true"
       only_selected="false"
       hide_knots="false" /><inkscape:path-effect
       effect="fillet_chamfer"
       id="path-effect31"
       is_visible="true"
       lpeversion="1"
       nodesatellites_param="F,0,0,1,0,0,0,1 @ F,0,0,1,0,0,0,1 @ F,0,0,1,0,0,0,1 @ F,0,0,1,0,0,0,1 @ F,0,0,1,0,0,0,1 @ F,0,0,1,0,0,0,1 @ F,0,0,1,0,0,0,1 @ F,0,0,1,0,0,0,1 @ F,0,0,1,0,4.5479841,0,1 @ F,0,0,1,0,0,0,1 @ F,0,0,1,0,0,0,1 @ F,0,0,1,0,0,0,1 @ F,0,0,1,0,0,0,1 @ F,0,0,1,0,0,0,1 @ F,0,0,1,0,0,0,1 @ F,0,0,1,0,0,0,1 @ F,0,0,1,0,0,0,1 @ F,0,0,1,0,0,0,1 @ F,0,0,1,0,0,0,1 @ F,0,0,1,0,0,0,1 @ F,0,0,1,0,0,0,1 @ F,0,0,1,0,0,0,1 @ F,0,0,1,0,0,0,1 @ F,0,0,1,0,5.0359575,0,1 @ F,0,0,1,0,4.8081598,0,1 @ F,0,0,1,0,0,0,1 @ F,0,0,1,0,0,0,1"
       radius="0"
       unit="px"
       method="auto"
       mode="F"
       chamfer_steps="1"
       flexible="false"
       use_knot_distance="true"
       apply_no_radius="true"
       apply_with_radius="true"
       only_selected="false"
       hide_knots="false" /><inkscape:path-effect
       effect="fillet_chamfer"
       id="path-effect30"
       is_visible="true"
       lpeversion="1"
       nodesatellites_param="F,0,0,1,0,0,0,1 @ F,0,0,1,0,0,0,1 @ F,0,0,1,0,0,0,1 @ F,0,0,1,0,0,0,1 @ F,0,0,1,0,0,0,1 @ F,0,0,1,0,0,0,1 @ F,0,0,1,0,0,0,1 @ F,0,0,1,0,4.4744365,0,1 @ F,0,0,1,0,0,0,1 @ F,0,0,1,0,0,0,1 @ F,0,1,1,0,4.4744365,0,1 @ F,0,1,1,0,4.4744365,0,1 @ F,0,0,1,0,0,0,1 @ F,0,0,1,0,0,0,1 @ F,0,0,1,0,0,0,1 @ F,0,0,1,0,0,0,1 @ F,0,0,1,0,0,0,1 @ F,0,0,1,0,0,0,1 @ F,0,0,1,0,0,0,1"
       radius="0"
       unit="px"
       method="auto"
       mode="F"
       chamfer_steps="1"
       flexible="false"
       use_knot_distance="true"
       apply_no_radius="true"
       apply_with_radius="true"
       only_selected="false"
       hide_knots="false" /><inkscape:path-effect
       effect="fillet_chamfer"
       id="path-effect29"
       is_visible="true"
       lpeversion="1"
       nodesatellites_param="F,0,0,1,0,0,0,1 @ F,0,0,1,0,0,0,1 @ F,0,0,1,0,0,0,1 @ F,0,0,1,0,8.0447013,0,1 @ F,0,0,1,0,8.9124635,0,1 @ F,0,0,1,0,8.9124635,0,1 @ F,0,0,1,0,8.0447013,0,1 @ F,0,1,1,0,3.4974762,0,1 @ F,0,0,1,0,0,0,1 @ F,0,0,1,0,3.4974762,0,1 @ F,0,1,1,0,3.4974762,0,1 @ F,0,0,1,0,0,0,1 @ F,0,0,1,0,0,0,1 @ F,0,0,1,0,0,0,1 @ F,0,0,1,0,0,0,1"
       radius="0"
       unit="px"
       method="auto"
       mode="F"
       chamfer_steps="1"
       flexible="false"
       use_knot_distance="true"
       apply_no_radius="true"
       apply_with_radius="true"
       only_selected="false"
       hide_knots="false" /><inkscape:path-effect
       effect="bspline"
       id="path-effect28"
       is_visible="true"
       lpeversion="1.3"
       weight="33.333333"
       steps="2"
       helper_size="0"
       apply_no_weight="true"
       apply_with_weight="true"
       only_selected="false"
       uniform="false" /><inkscape:path-effect
       effect="bspline"
       id="path-effect27"
       is_visible="true"
       lpeversion="1.3"
       weight="33.333333"
       steps="2"
       helper_size="0"
       apply_no_weight="true"
       apply_with_weight="true"
       only_selected="false"
       uniform="false" /><inkscape:path-effect
       effect="bspline"
       id="path-effect24"
       is_visible="true"
       lpeversion="1.3"
       weight="33.333333"
       steps="2"
       helper_size="0"
       apply_no_weight="true"
       apply_with_weight="true"
       only_selected="false"
       uniform="false" /><inkscape:path-effect
       effect="simplify"
       id="path-effect23"
       is_visible="true"
       lpeversion="1.3"
       threshold="10.8696"
       steps="1"
       smooth_angles="360"
       helper_size="0"
       simplify_individual_paths="false"
       simplify_just_coalesce="false" /><inkscape:path-effect
       effect="simplify"
       id="path-effect10"
       is_visible="true"
       lpeversion="1.3"
       threshold="10.8696"
       steps="1"
       smooth_angles="360"
       helper_size="0"
       simplify_individual_paths="false"
       simplify_just_coalesce="false" /><inkscape:path-effect
       effect="skeletal"
       id="path-effect9"
       is_visible="true"
       lpeversion="1"
       pattern="M 0,4.9921384 C 0,2.236478 2.236478,0 4.9921384,0 c 2.7556604,0 4.9921384,2.236478 4.9921384,4.9921384 0,2.7556604 -2.236478,4.9921384 -4.9921384,4.9921384 C 2.236478,9.9842768 0,7.7477988 0,4.9921384 Z"
       copytype="single_stretched"
       prop_scale="5.5"
       scale_y_rel="false"
       spacing="0"
       normal_offset="0"
       tang_offset="0"
       prop_units="false"
       vertical_pattern="false"
       hide_knot="false"
       fuse_tolerance="0" /><inkscape:path-effect
       effect="simplify"
       id="path-effect8"
       is_visible="true"
       lpeversion="1.3"
       threshold="10.8696"
       steps="1"
       smooth_angles="360"
       helper_size="0"
       simplify_individual_paths="false"
       simplify_just_coalesce="false" /><inkscape:path-effect
       effect="skeletal"
       id="path-effect7"
       is_visible="true"
       lpeversion="1"
       pattern="M 0,4.9921384 C 0,2.236478 2.236478,0 4.9921384,0 c 2.7556604,0 4.9921384,2.236478 4.9921384,4.9921384 0,2.7556604 -2.236478,4.9921384 -4.9921384,4.9921384 C 2.236478,9.9842768 0,7.7477988 0,4.9921384 Z"
       copytype="single_stretched"
       prop_scale="5.5"
       scale_y_rel="false"
       spacing="0"
       normal_offset="0"
       tang_offset="0"
       prop_units="false"
       vertical_pattern="false"
       hide_knot="false"
       fuse_tolerance="0" /><inkscape:path-effect
       effect="simplify"
       id="path-effect6"
       is_visible="true"
       lpeversion="1.3"
       threshold="0.00108696"
       steps="1"
       smooth_angles="360"
       helper_size="0"
       simplify_individual_paths="false"
       simplify_just_coalesce="false" /><inkscape:path-effect
       effect="bspline"
       id="path-effect4"
       is_visible="true"
       lpeversion="1.3"
       weight="33.333333"
       steps="2"
       helper_size="0"
       apply_no_weight="true"
       apply_with_weight="true"
       only_selected="false"
       uniform="false" /><inkscape:path-effect
       effect="bspline"
       id="path-effect3"
       is_visible="true"
       lpeversion="1.3"
       weight="33.333333"
       steps="2"
       helper_size="0"
       apply_no_weight="true"
       apply_with_weight="true"
       only_selected="false"
       uniform="false" /><inkscape:path-effect
       effect="bspline"
       id="path-effect2"
       is_visible="true"
       lpeversion="1.3"
       weight="33.333333"
       steps="2"
       helper_size="0"
       apply_no_weight="true"
       apply_with_weight="true"
       only_selected="false"
       uniform="false" /><linearGradient
       id="deviconNodejs0"
       x1="34.513"
       x2="27.157"
       y1="15.535"
       y2="30.448"
       gradientTransform="matrix(1.6365088,0,0,1.6365088,290.58155,21.983)"
       gradientUnits="userSpaceOnUse"><stop
         stop-color="#3F873F"
         id="stop3" /><stop
         offset=".33"
         stop-color="#3F8B3D"
         id="stop4" /><stop
         offset=".637"
         stop-color="#3E9638"
         id="stop5" /><stop
         offset=".934"
         stop-color="#3DA92E"
         id="stop6" /><stop
         offset="1"
         stop-color="#3DAE2B"
         id="stop7" /></linearGradient><linearGradient
       id="deviconNodejs1"
       x1="30.009001"
       x2="50.533001"
       y1="23.358999"
       y2="8.2880001"
       gradientTransform="matrix(1.6365088,0,0,1.6365088,290.58155,21.983)"
       gradientUnits="userSpaceOnUse"><stop
         offset=".138"
         stop-color="#3F873F"
         id="stop8" /><stop
         offset=".402"
         stop-color="#52A044"
         id="stop9" /><stop
         offset=".713"
         stop-color="#64B749"
         id="stop10" /><stop
         offset=".908"
         stop-color="#6ABF4B"
         id="stop11" /></linearGradient><linearGradient
       id="deviconNodejs2"
       x1="21.917"
       x2="40.555"
       y1="22.261"
       y2="22.261"
       gradientTransform="matrix(1.6365088,0,0,1.6365088,290.58155,21.983)"
       gradientUnits="userSpaceOnUse"><stop
         offset=".092"
         stop-color="#6ABF4B"
         id="stop12" /><stop
         offset=".287"
         stop-color="#64B749"
         id="stop13" /><stop
         offset=".598"
         stop-color="#52A044"
         id="stop14" /><stop
         offset=".862"
         stop-color="#3F873F"
         id="stop15" /></linearGradient><clipPath
       clipPathUnits="userSpaceOnUse"
       id="clipPath40"><path
         style="stroke-width:0.172619"
         d="m 348.67952,70.223354 c 0.46606,0 0.88035,-0.241647 1.10476,-0.638688 l 6.09343,-10.58154 c 0.10353,-0.172603 0.15539,-0.379772 0.17261,-0.586901 v -0.103563 c 0,-0.207127 -0.069,-0.397034 -0.17261,-0.586904 l -6.09343,-10.564284 c -0.22443,-0.397034 -0.65596,-0.638683 -1.10476,-0.638683 l -16.39881,0.01744 c -0.22439,0 -0.43155,0.120825 -0.55238,0.310732 -0.12082,0.189905 -0.12082,0.431549 0,0.638691 l 3.60774,6.283333 c 0.24165,0.397034 0.65595,0.638688 1.10476,0.638688 h 7.66428 c 0.44881,0 0.88035,0.241647 1.10475,0.638694 l 1.53632,2.675557 c 0.12083,0.207126 0.17261,0.414292 0.17261,0.638693 0,0.224385 -0.0518,0.448805 -0.17261,0.638688 l -1.53632,2.675594 c -0.22438,0.397034 -0.65594,0.638688 -1.10475,0.638688 h -7.66428 c -0.44881,0 -0.88036,0.241647 -1.10476,0.638691 l -3.60774,6.28332 c -0.12082,0.189865 -0.12082,0.448807 0,0.638688 0.10352,0.189868 0.32799,0.310732 0.55238,0.310732 z"
         id="path41" /></clipPath></defs><g
     inkscape:label="Layer 1"
     inkscape:groupmode="layer"
     id="layer1"><path
       style="fill:none;fill-opacity:1;stroke-width:0.733999;stroke-linecap:square;stroke-miterlimit:6.7"
       d="m 1728.1737,-255.34784 c 2.089,-0.23472 4.1259,0.45743 6.2132,0.45003 3.3506,-0.0119 6.7341,0.0774 10.0384,-0.49013 1.1623,-0.19961 2.2188,-0.75251 3.2896,-1.21761 1.8183,-0.78984 3.5876,-1.76409 5.0246,-3.15173 0.9948,-0.96067 1.9128,-2.03851 2.4361,-3.34285 0.5015,-1.25007 0.7691,-2.59675 1.4747,-3.76267 0.4488,-0.74148 0.6777,-1.59092 0.8486,-2.43344 0.1769,-0.87185 -0.047,-1.78519 -0.5394,-2.51861 -0.2745,-0.40867 -0.4946,-0.9109 -0.9209,-1.15856 -0.6251,-0.36308 -1.3818,-0.37918 -2.084,-0.38922 -1.3539,-0.0193 -2.6997,0.15425 -4.0472,0.26092 -2.4772,0.19611 -4.9721,0.42161 -7.3693,1.1133 -1.1034,0.31837 -2.2275,0.6115 -3.2611,1.11304 -1.7501,0.8492 -3.4293,1.83648 -5.1506,2.74264 -0.6206,0.32672 -1.0773,0.87295 -1.5346,1.38801 -1.9963,2.24849 -3.7024,4.73853 -5.2843,7.2892 -1.2283,1.98044 -2.484,3.95967 -3.4373,6.08794 -0.7691,1.71709 -0.9307,3.60987 -1.4596,5.40354 -0.3994,1.35455 -0.9483,2.66038 -1.3469,4.01424 -0.4621,1.56946 -0.6216,3.20834 -0.7337,4.83241 -0.1032,1.49515 -0.4995,3.01874 -0.1705,4.4996 0.2783,1.25295 0.6684,2.4802 1.0864,3.69283 0.7851,2.27789 1.5948,4.57554 2.8194,6.65092 0.7537,1.27718 1.9814,2.15658 2.8946,3.30993 1.0833,1.36827 2.1854,2.72365 3.205,4.13988 0.6683,0.92824 1.2684,1.95339 2.2752,2.5808 1.9807,1.23428 4.1155,2.3579 6.4625,2.66168 2.0142,0.2607 4.0779,0.0241 6.0062,-0.55852 1.4033,-0.42398 2.5899,-1.30891 3.8642,-2.00276 1.4738,-0.80244 3.0257,-1.49627 4.3583,-2.52522 1.2505,-0.9656 2.3265,-2.12972 3.4365,-3.24773 1.476,-1.48668 3.0521,-2.87161 4.51,-4.37567 0.8612,-0.88847 1.8224,-1.73661 2.3909,-2.84407 0.649,-1.26426 1.2976,-2.57881 1.4902,-3.98579 0.1008,-0.73584 -0.051,-1.48997 -0.2946,-2.1856 -0.255,-0.72813 -0.9176,-1.21191 -1.6262,-1.45817 -1.0138,-0.35236 -2.0528,-0.62497 -3.0902,-0.89834 -2.1372,-0.56316 -4.3456,-0.90638 -6.5575,-0.89312 -1.27,0.008 -2.5339,0.16803 -3.7833,0.37847 -0.6193,0.10431 -1.3407,0.004 -1.8515,0.37968 -0.3264,0.24005 -0.6649,0.4642 -1.0456,0.61697 -1.0419,0.41816 -2.1242,0.7541 -3.2406,0.88781 -0.4247,0.0509 -0.8274,0.17904 -1.2248,0.33722 -1.5099,0.60103 -3.0342,1.16819 -4.6098,1.58361 -1.3126,0.34608 -2.6918,0.52125 -3.924,1.09857 -0.7227,0.33863 -1.4072,0.75048 -2.1243,1.10252 -1.0751,0.52782 -2.1166,1.13049 -3.2202,1.5946 -0.7047,0.29635 -1.4898,0.39753 -2.1152,0.88272 -0.392,0.30409 -0.7415,0.6818 -0.8806,1.17391 -0.3243,1.14706 -0.2638,2.36063 -0.156,3.53396 0.028,0.30854 0.066,0.61614 0.1067,0.92323"
       id="path23"
       inkscape:path-effect="#path-effect23"
       inkscape:original-d="m 1728.1737,-255.34784 c 1.985,-0.22643 3.9251,0.45188 5.8963,0.4505 3.3802,-0.002 6.7692,-0.10036 10.1302,-0.46047 0.9652,-0.10341 1.8705,-0.53853 2.7628,-0.92092 2.3427,-1.004 4.201,-1.89872 5.986,-3.68371 0.695,-0.69494 1.3759,-1.43699 1.8419,-2.30232 0.6217,-1.15465 0.877,-2.47319 1.3813,-3.68371 0.2641,-0.6336 0.7039,-1.19066 0.921,-1.84185 0.7171,-2.15138 0.7385,-3.12915 -0.921,-5.0651 -0.5849,-0.68239 -3.3064,-0.49326 -3.6836,-0.46046 -5.77,0.50173 -7.9957,0.46583 -12.893,2.3023 -0.7803,0.2926 -5.5818,2.84427 -5.9861,3.22326 -3.3595,3.14955 -8.0296,10.88493 -9.6697,14.27437 -0.7622,1.5753 -0.8785,3.38887 -1.3814,5.0651 -1.624,5.41337 -1.7087,3.60066 -2.3023,10.13019 -0.125,1.37572 -0.3559,2.80943 0,4.14418 0.8888,3.33274 2.1412,6.58466 3.6837,9.66973 0.6329,1.2657 1.8705,2.12497 2.7628,3.22324 1.1036,1.35823 2.13,2.77763 3.2232,4.14418 0.7489,0.93609 1.2888,2.12265 2.3023,2.76279 4.5512,2.87439 7.3126,3.52135 12.4326,2.3023 1.3355,-0.31797 2.4704,-1.19952 3.6837,-1.84185 6.2887,-3.32931 4.2015,-2.22539 11.0511,-8.7488 0.8195,-0.78049 3.4462,-3.20871 4.1442,-4.60464 0.5865,-1.17296 1.0363,-2.41852 1.3813,-3.68371 0.1212,-0.44424 0.076,-0.92719 0,-1.38139 -0.4072,-2.44335 -1.6714,-2.3433 -4.6046,-3.22324 -2.1675,-0.65026 -5.825,-1.21074 -8.2883,-0.92093 -6.8698,0.80821 -2.3832,0.48472 -6.907,1.84185 -0.7496,0.22489 -1.5348,0.30698 -2.3023,0.46047 -1.2279,0.46046 -2.4332,0.98648 -3.6837,1.38138 -1.6688,0.52699 -3.4048,0.82799 -5.0651,1.3814 -0.6512,0.21707 -1.2279,0.61395 -1.8419,0.92092 0,2e-4 -3.6833,1.84169 -3.6837,1.84186 -1.3107,0.56174 -1.6566,0.2753 -2.7627,1.38139 -1.0993,1.09925 -0.4605,5.15264 -0.4605,5.20606"
       transform="translate(547.22786)" /><path
       style="fill:none;fill-opacity:1;stroke:#00acd7;stroke-width:57.6503;stroke-linecap:square;stroke-miterlimit:6.7;stroke-dasharray:none;stroke-opacity:1"
       d="m 2692.6963,-156.80801 c 5.6936,-7.88093 11.3872,-15.76173 6.6803,-26.63782 -4.7069,-10.87609 -19.8138,-24.74668 -48.2363,-31.68216 -28.4226,-6.93548 -70.1588,-6.93548 -98.1396,-0.56278 -27.9808,6.3727 -42.2048,19.11757 -51.8589,32.77952 -9.6542,13.66196 -14.738,28.23992 -10.8749,39.0243 3.8632,10.78437 16.673,17.77402 41.6932,21.61738 25.0202,3.84336 62.2489,4.54007 89.3754,8.90135 27.1264,4.36127 44.1492,12.38677 50.2619,23.076627 6.1126,10.689853 1.3149,24.043263 -9.9444,33.382459 -11.2593,9.339195 -28.9792,14.663636 -58.1746,17.32593 -29.1954,2.662294 -69.8643,2.662294 -96.5292,-2.065487 -26.6649,-4.727781 -39.3245,-14.182969 -44.1628,-21.220617 -4.8383,-7.037648 -1.8551,-11.657349 1.1281,-16.277129"
       id="path26"
       transform="matrix(0.81064647,0,0,0.81064647,1099.9188,-24.781173)"
       sodipodi:nodetypes="cccccccccccccc"
       inkscape:original-d="m 2692.6963,-156.80801 c 0,0 11.3872,-15.76172 17.0809,-23.64278 -15.1075,-13.87113 -30.2144,-27.74172 -45.3217,-41.61268 -41.7378,0 -83.474,0 -125.211,0 -14.2246,12.74537 -28.4486,25.49024 -42.6728,38.23535 -5.0841,14.57883 -10.1679,29.1568 -15.252,43.73555 12.8104,6.98999 25.6202,13.97963 38.4306,20.96963 37.23,0.69673 74.4587,1.39344 111.6881,2.09016 17.0235,8.02585 34.0463,16.05137 51.0696,24.07706 -4.798,13.353968 -9.5957,26.707401 -14.3936,40.061102 -17.7207,5.324676 -35.4406,10.64914 -53.161,15.973708 -40.6704,0 -81.3393,0 -122.009,0 -12.6601,-9.455571 -25.3197,-18.910766 -37.9796,-28.366149 2.9833,-4.619897 5.9665,-9.239582 8.9497,-13.859378"
       inkscape:path-effect="#path-effect27" /><g
       id="g28"><path
         style="font-weight:900;font-size:192.623px;line-height:161.784px;font-family:'Noto Sans Malayalam';-inkscape-font-specification:'Noto Sans Malayalam Heavy';letter-spacing:0px;word-spacing:4.81557px;fill:#00acd7;fill-opacity:1;stroke-width:17.2935;stroke-linecap:square;stroke-miterlimit:6.7"
         d="m 2622.6307,-130.42725 c -3.8479,12.25973 -8.8833,23.99997 -15.1065,35.220726 -31.3222,56.475718 -77.4583,57.973939 -96.5251,57.973939 -15.7922,0 -28.3288,-1.766231 -37.6096,-5.298692 -9.0079,-3.74026 -15.683,-8.623369 -20.0254,-14.649326 -4.3424,-6.025973 -7.0346,-12.675312 -8.0767,-19.948033 -0.8341,-7.272705 -1.045,-14.545427 -0.6323,-21.818148 l 47.0565,-9.122436 c 2.426,-0.4703 4.2291,1.14905 4.2507,3.61949 0.2311,26.354138 20.5813,27.321094 28.8056,27.321094 38.1553,0 98.3636,-109.883404 26.8298,-105.038794 -16.7397,1.13369 -32.0094,14.62844 -40.6551,27.9595 -1.3444,2.0729 -4.3105,3.81609 -6.7816,3.79564 l -40.3001,-0.33345 c -2.4711,-0.0204 -3.3884,-1.72045 -2.0546,-3.80071 5.4252,-8.46115 14.1132,-22.01476 19.4502,-28.24435 6.4385,-7.27272 13.7916,-13.81816 22.0594,-19.63633 8.5406,-6.02597 18.4563,-10.80518 29.7468,-14.33764 11.2904,-3.53247 17.5505,-5.2987 32.3037,-5.2987 16.8313,0 29.9381,2.5974 39.3206,7.79219 9.6555,4.98702 16.3343,11.84415 20.0367,20.5714 3.7025,8.72727 5.1759,18.59738 4.4206,29.61035 -0.6901,10.80517 -2.8613,22.02593 -6.5136,33.66228 z"
         id="path12"
         sodipodi:nodetypes="ssscscccssccccsscscs"
         inkscape:path-effect="#path-effect30"
         inkscape:original-d="m 2622.6307,-130.42725 c -3.8479,12.25973 -8.8833,23.99997 -15.1065,35.220726 -31.3222,56.475718 -77.4583,57.973939 -96.5251,57.973939 -15.7922,0 -28.3288,-1.766231 -37.6096,-5.298692 -9.0079,-3.74026 -15.683,-8.623369 -20.0254,-14.649326 -4.3424,-6.025973 -7.0346,-12.675312 -8.0767,-19.948033 -0.8341,-7.272705 -1.045,-14.545427 -0.6323,-21.818148 l 51.4492,-9.973996 c -2.1324,30.718502 19.9975,31.792144 28.6636,31.792144 38.1553,0 98.3636,-109.883404 26.8298,-105.038794 -18.3505,1.24278 -34.9344,17.33998 -42.9624,31.79216 l -49.2487,-0.40749 c 4.8414,-7.48051 15.6393,-24.73533 21.8699,-32.00804 6.4385,-7.27272 13.7916,-13.81816 22.0594,-19.63633 8.5406,-6.02597 18.4563,-10.80518 29.7468,-14.33764 11.2904,-3.53247 17.5505,-5.2987 32.3037,-5.2987 16.8313,0 29.9381,2.5974 39.3206,7.79219 9.6555,4.98702 16.3343,11.84415 20.0367,20.5714 3.7025,8.72727 5.1759,18.59738 4.4206,29.61035 -0.6901,10.80517 -2.8613,22.02593 -6.5136,33.66228 z" /><path
         style="font-weight:900;font-size:192.623px;line-height:161.784px;font-family:'Noto Sans Malayalam';-inkscape-font-specification:'Noto Sans Malayalam Heavy';letter-spacing:0px;word-spacing:4.81557px;fill:#00acd7;fill-opacity:1;stroke-width:17.2935;stroke-linecap:square;stroke-miterlimit:6.7"
         d="m 2262.8123,-149.0281 c 18.7013,0 32.6963,3.25833 42.2599,9.35064 24.6453,15.69983 21.978,40.421064 9.3356,62.860523 h 68.5933 a 10.781585,10.781585 143.27147 0 0 10.3353,-7.711704 l 38.3141,-128.991279 a 11.944569,11.944569 143.27147 0 1 11.4502,-8.54355 l 40.4606,0 a 6.6269717,6.6269717 53.366899 0 1 6.3464,8.53505 l -50.7821,168.903487 a 10.819136,10.819136 143.3669 0 1 -10.361,7.704031 h -183.734 c -1.9316,0 -2.2692,-0.973398 -0.8299,-2.261156 19.9939,-17.887969 53.9917,-68.047732 6.8108,-70.261692 -23.7217,0 -48.6722,23.76064 -34.3814,69.203293 0.5795,1.842562 -0.465,3.319555 -2.3966,3.319555 h -40.7565 c -1.9316,0 -4.3433,-1.318989 -5.3002,-2.996722 -4.0311,-7.067721 -6.8534,-14.692181 -8.4671,-22.873369 -1.6366,-9.350635 -0.6613,-11.84761 2.9257,-23.276174 4.1088,-13.090895 11.0592,-24.311653 20.8512,-33.662283 9.8572,-9.55843 21.5944,-16.83114 35.2116,-21.81814 13.6173,-4.98701 28.322,-7.48051 44.1141,-7.48051 z"
         id="path11"
         sodipodi:nodetypes="ssccccccscccscss"
         inkscape:path-effect="#path-effect29"
         inkscape:original-d="m 2262.8123,-149.0281 c 18.7013,0 32.6963,3.25833 42.2599,9.35064 24.6453,15.69983 21.978,40.421064 9.3356,62.860523 h 76.638 l 43.1424,-145.246533 h 58.2856 l -55.6645,185.142568 h -195.2762 c 19.3529,-15.420459 58.8353,-70.206778 9.4784,-72.522848 -24.2928,0 -49.8742,24.918412 -33.2805,72.522848 h -47.7515 c -5.0022,-7.896088 -8.4254,-16.519457 -10.2698,-25.870091 -1.6366,-9.350635 -0.6613,-11.84761 2.9257,-23.276174 4.1088,-13.090895 11.0592,-24.311653 20.8512,-33.662283 9.8572,-9.55843 21.5944,-16.83114 35.2116,-21.81814 13.6173,-4.98701 28.322,-7.48051 44.1141,-7.48051 z" /><path
         style="font-weight:900;font-size:192.623px;line-height:161.784px;font-family:'Noto Sans Malayalam';-inkscape-font-specification:'Noto Sans Malayalam Heavy';letter-spacing:0px;word-spacing:4.81557px;fill:#00acd7;fill-opacity:1;stroke-width:17.2935;stroke-linecap:square;stroke-miterlimit:6.7"
         d="m 2986.735,-130.42725 c -3.8479,12.25973 -8.8833,23.99997 -15.1065,35.220726 -31.3221,56.475718 -77.4583,57.973939 -96.5251,57.973939 -15.7922,0 -28.3288,-1.766231 -37.6095,-5.298692 -9.008,-3.74026 -15.6831,-8.623369 -20.0255,-14.649326 -4.3424,-6.025973 -7.0346,-12.675312 -8.0767,-19.948033 -0.8341,-7.272705 -1.0449,-14.545427 -0.6323,-21.818148 l 46.0097,-8.919496 c 3.0042,-0.58238 5.2259,1.42521 5.3182,4.48262 0.7643,25.31431 20.6731,26.255024 28.7849,26.255024 38.1553,0 98.3636,-109.883404 26.8298,-105.038794 -16.251,1.10059 -31.1164,13.85103 -39.881,26.7918 -1.8191,2.68581 -5.7117,4.9786 -8.9565,4.95175 l -43.3736,-0.35888 c 4.8415,-7.48051 15.6394,-24.73533 21.8699,-32.00804 6.4386,-7.27272 13.7916,-13.81816 22.0594,-19.63633 8.5407,-6.02597 18.4564,-10.80518 29.7468,-14.33764 11.2905,-3.53247 17.5505,-5.2987 32.3037,-5.2987 16.8313,0 29.9381,2.5974 39.3206,7.79219 9.6555,4.98702 16.3343,11.84415 20.0368,20.5714 3.7024,8.72727 5.1758,18.59738 4.4205,29.61035 -0.6901,10.80517 -2.8613,22.02593 -6.5136,33.66228 z"
         id="path22"
         sodipodi:nodetypes="ssscscccssccccsscscs"
         inkscape:path-effect="#path-effect32"
         inkscape:original-d="m 2986.735,-130.42725 c -3.8479,12.25973 -8.8833,23.99997 -15.1065,35.220726 -31.3221,56.475718 -77.4583,57.973939 -96.5251,57.973939 -15.7922,0 -28.3288,-1.766231 -37.6095,-5.298692 -9.008,-3.74026 -15.6831,-8.623369 -20.0255,-14.649326 -4.3424,-6.025973 -7.0346,-12.675312 -8.0767,-19.948033 -0.8341,-7.272705 -1.0449,-14.545427 -0.6323,-21.818148 l 51.4492,-9.973996 c -2.1324,30.718502 19.9976,31.792144 28.6636,31.792144 38.1553,0 98.3636,-109.883404 26.8298,-105.038794 -18.3505,1.24278 -34.9343,17.33998 -42.9623,31.79216 l -49.2488,-0.40749 c 4.8415,-7.48051 15.6394,-24.73533 21.8699,-32.00804 6.4386,-7.27272 13.7916,-13.81816 22.0594,-19.63633 8.5407,-6.02597 18.4564,-10.80518 29.7468,-14.33764 11.2905,-3.53247 17.5505,-5.2987 32.3037,-5.2987 16.8313,0 29.9381,2.5974 39.3206,7.79219 9.6555,4.98702 16.3343,11.84415 20.0368,20.5714 3.7024,8.72727 5.1758,18.59738 4.4205,29.61035 -0.6901,10.80517 -2.8613,22.02593 -6.5136,33.66228 z" /><path
         style="color:#000000;fill:#00acd7;stroke-width:0.810646;stroke-linecap:square;stroke-miterlimit:6.7;-inkscape-stroke:none"
         d="m 2737.8916,-227.07705 c -15.6029,-0.0612 -31.1351,1.52118 -44.9292,4.6628 -27.5879,6.28322 -45.8168,21.5554 -55.9329,35.87111 -10.1161,14.31556 -19.3117,31.83753 -11.7307,53.00076 3.7905,10.58166 12.5022,18.90323 21.6056,23.68132 9.1034,4.77811 18.9922,7.26834 30.6431,9.05803 33.03,5.07375 94.489,5.778228 91.896,13.03051 -9.7783,27.347844 -114.6182,14.454335 -117.9634,2.346441 -0.6052,-2.19056 1.4754,-5.117661 3.4841,-7.319724 1.6915,-1.854257 1.2526,-3.372 -1.244,-3.647066 l -47.4162,-5.223971 c -1.2091,1.8725 -4.566,6.067659 -6.132,14.027982 -1.5662,7.960323 1.0086,18.413997 5.5921,25.080959 9.1671,13.334074 25.3386,22.427428 50.9757,26.972994 25.6373,4.54558 58.8315,4.272762 84.453,1.936368 25.6215,-2.336395 44.9154,-6.854617 59.9561,-19.330435 7.5204,-6.237963 13.5599,-14.194148 16.6769,-24.075567 3.1169,-9.881418 2.6176,-22.310466 -3.249,-32.569941 -11.7332,-20.51911 -32.4085,-26.17375 -57.3215,-30.17916 -24.9131,-4.00542 -55.3498,-4.5886 -72.6131,-7.24041 -6.937,-1.0656 -11.2021,-2.40561 -13.8586,-3.45791 0.6365,-2.07566 1.7573,-5.36426 4.4111,-9.11977 5.5361,-7.83431 10.3691,-13.22654 28.1462,-17.27532 24.9446,-5.68118 86.0796,-3.54434 89.6081,10.5479 1.5794,6.30789 -5.5026,10.95449 -10.7937,15.94212 -2.0205,1.90458 -1.1308,3.7793 1.6495,3.85536 l 41.7257,1.14151 c 2.6545,0.0726 6.6153,-1.07152 8.5002,-2.93749 8.9243,-8.83475 9.0865,-21.65515 4.2243,-34.47409 -8.1778,-18.89611 -26.8497,-32.23153 -55.0083,-39.10261 -14.0794,-3.43553 -29.7522,-5.14146 -45.3551,-5.2027 z"
         id="path24"
         sodipodi:nodetypes="ssssssssccssssssssscssaccsss"
         inkscape:path-effect="#path-effect31"
         inkscape:original-d="m 2737.8916,-227.07705 c -15.6029,-0.0612 -31.1351,1.52118 -44.9292,4.6628 -27.5879,6.28322 -45.8168,21.5554 -55.9329,35.87111 -10.1161,14.31556 -19.3117,31.83753 -11.7307,53.00076 3.7905,10.58166 12.5022,18.90323 21.6056,23.68132 9.1034,4.77811 18.9922,7.26834 30.6431,9.05803 33.03,5.07375 94.489,5.778228 91.896,13.03051 -9.7783,27.347844 -114.6182,14.454335 -117.9634,2.346441 -1.1062,-4.003984 6.7607,-10.468739 6.7607,-10.468739 l -51.9368,-5.722022 c -1.2091,1.8725 -4.566,6.067659 -6.132,14.027982 -1.5662,7.960323 1.0086,18.413997 5.5921,25.080959 9.1671,13.334074 25.3386,22.427428 50.9757,26.972994 25.6373,4.54558 58.8315,4.272762 84.453,1.936368 25.6215,-2.336395 44.9154,-6.854617 59.9561,-19.330435 7.5204,-6.237963 13.5599,-14.194148 16.6769,-24.075567 3.1169,-9.881418 2.6176,-22.310466 -3.249,-32.569941 -11.7332,-20.51911 -32.4085,-26.17375 -57.3215,-30.17916 -24.9131,-4.00542 -55.3498,-4.5886 -72.6131,-7.24041 -6.937,-1.0656 -11.2021,-2.40561 -13.8586,-3.45791 0.6365,-2.07566 1.7573,-5.36426 4.4111,-9.11977 5.5361,-7.83431 10.3691,-13.22654 28.1462,-17.27532 24.9446,-5.68118 86.0796,-3.54434 89.6081,10.5479 1.9625,7.83772 -9.4472,13.11061 -14.1783,19.65976 l 51.5662,1.41072 c 12.5024,-8.75287 13.3778,-23.14889 7.9181,-37.54307 -8.1778,-18.89611 -26.8497,-32.23153 -55.0083,-39.10261 -14.0794,-3.43553 -29.7522,-5.14146 -45.3551,-5.2027 z" /><path
         style="fill:none;fill-opacity:1;stroke:#00acd7;stroke-width:43.8815;stroke-linecap:square;stroke-miterlimit:6.7;stroke-dasharray:none;stroke-opacity:1"
         d="m 2876.3699,-156.16097 c 32.5578,-1.78542 65.116,-3.57085 85.0383,-9.98252 19.9224,-6.41167 27.2087,-17.44919 28.4575,-27.54034 1.2487,-10.09116 -3.5403,-19.23535 -18.1874,-23.80749 -14.6471,-4.57215 -39.1512,-4.57215 -58.843,2.4078 -19.6919,6.97995 -34.5698,20.93904 -48.9016,42.02522 -14.3318,21.08618 -28.1158,49.29691 -28.5924,73.174681 -0.4767,23.877768 12.3541,43.420051 29.6906,53.19138 17.3365,9.771329 39.1776,9.771329 54.8687,3.509258 15.6911,-6.26207 25.2314,-18.785798 23.3903,-29.89744 -1.841,-11.111641 -15.0631,-20.810713 -31.389,-25.38062 -16.326,-4.569909 -35.7546,-4.010319 -55.1836,-3.450719"
         id="path27"
         inkscape:path-effect="#path-effect28"
         inkscape:original-d="m 2876.3699,-156.16097 c 32.5578,-1.78542 65.116,-3.57086 97.674,-5.35628 7.2866,-11.03795 14.573,-22.07546 21.8596,-33.11319 -4.7892,-9.14452 -9.5782,-18.28868 -14.3671,-27.43303 -24.5052,0 -49.0093,0 -73.5142,0 -14.8788,13.95989 -29.7567,27.91902 -44.6356,41.87895 -13.7847,28.21242 -27.5687,56.42311 -41.3534,84.635559 12.8314,19.543097 25.6622,39.085404 38.4933,58.628051 21.8419,0 43.683,0 65.5246,0 9.5406,-12.524153 19.081,-25.047805 28.6213,-37.571706 -13.2225,-9.699509 -26.4445,-19.398628 -39.6671,-29.097944 -19.4294,0.55961 -38.858,1.1192 -58.287,1.6788"
         transform="matrix(0.90331018,0,0,0.79620654,-501.50879,-28.454483)"
         sodipodi:nodetypes="cccccccccccc" /></g><path
       id="path28"
       style="display:inline;fill:#00acd7;fill-rule:evenodd;stroke-width:5.9005"
       d="m 1900.3853,-154.75545 c -1.4339,0 -1.7879,-0.71987 -1.074,-1.78785 l 7.5114,-9.65913 c 0.708,-1.0739 2.5018,-1.78785 3.9297,-1.78785 h 127.6692 c 1.4338,0 1.7879,1.07389 1.0739,2.14777 l -6.0775,9.29921 c -0.714,1.06798 -2.5019,2.14189 -3.5757,2.14189 z m -54.0015,32.89532 c -1.428,0 -1.7879,-0.70805 -1.0739,-1.78785 l 7.5113,-9.65323 c 0.714,-1.07389 2.5019,-1.78785 3.9357,-1.78785 h 163.0663 c 1.428,0 2.1479,1.07389 1.7879,2.14779 l -2.8617,8.57933 c -0.3541,1.43382 -1.7879,2.14779 -3.2158,2.14779 z m 86.5367,32.901238 c -1.4279,0 -1.7818,-1.073902 -1.0679,-2.147788 l 5.0036,-8.93927 c 0.7199,-1.0739 2.1478,-2.14189 3.5816,-2.14189 h 71.5142 c 1.4338,0 2.1477,1.06799 2.1477,2.501821 l -0.708,8.579339 c 0,1.433825 -1.4338,2.507712 -2.5078,2.507712 z" /><path
       id="path355"
       style="font-weight:900;font-size:192.623px;line-height:161.784px;font-family:'Noto Sans Malayalam';-inkscape-font-specification:'Noto Sans Malayalam Heavy';letter-spacing:0px;word-spacing:4.81557px;fill:#00acd7;fill-opacity:1;stroke:#ffffff;stroke-width:15;stroke-linecap:square;stroke-linejoin:round;stroke-miterlimit:6.7;stroke-dasharray:none;stroke-opacity:1;paint-order:normal"
       d="m 392.56312,234.70351 c -6.26572,-0.0246 -12.50348,0.61116 -18.04283,1.87274 -11.07857,2.52318 -18.39881,8.65601 -22.46116,14.40481 -1.13009,1.59922 -2.21283,3.30902 -3.14865,5.11132 -0.16801,-2.88205 -0.75838,-5.54715 -1.79265,-7.98505 -1.48679,-3.50463 -4.16913,-6.25833 -8.04654,-8.26099 -3.76776,-2.0861 -9.03123,-3.12952 -15.79025,-3.12952 -5.9245,0 -8.4384,0.70949 -12.97233,2.12803 -4.53398,1.41855 -8.51584,3.33792 -11.94553,5.75779 -3.32012,2.33643 -6.27284,4.96477 -8.85837,7.88531 -0.11736,0.13699 -0.25224,0.31334 -0.37724,0.46715 l 3.85145,-12.81059 a 2.6612229,2.6612229 0 0 0 -2.54869,-3.42769 h -16.2481 a 4.7966344,4.7966344 0 0 0 -4.59817,3.43131 l -15.38562,51.79942 a 4.3296096,4.3296096 0 0 1 -4.15066,3.09698 h -27.54509 c 5.07687,-9.01111 6.14779,-18.93879 -3.74912,-25.24342 -3.8405,-2.44652 -9.46059,-3.75482 -16.97054,-3.75482 -6.34168,0 -12.24685,1.00131 -17.7152,3.00395 -5.46831,2.00266 -10.18131,4.92334 -14.1397,8.76174 -2.09319,1.99884 -3.85293,4.21701 -5.29942,6.64146 -1.16381,-1.45668 -2.58222,-2.6854 -4.06177,-3.71089 -3.05874,-2.12005 -6.60614,-3.56913 -10.4376,-4.51445 -6.75842,-1.66749 -13.50553,-1.58467 -19.8453,-1.42059 0.4337,-1.01959 0.96796,-2.04459 1.5012,-3.08663 l 3.74602,-0.18138 c 11.81017,-0.57087 23.62593,-0.90159 32.84968,-3.51814 9.22367,-2.6165 14.95349,-8.71335 15.78301,-14.62184 v -5.2e-4 c 0.41477,-2.95429 -0.24147,-6.47789 -2.50682,-9.34155 -2.26535,-2.86363 -5.75579,-4.76606 -9.6175,-5.82858 -3.86168,-1.0625 -8.1799,-1.55979 -12.67055,-1.43609 -4.49064,0.1237 -9.15373,0.8683 -13.7051,2.2903 -9.10278,2.84397 -15.94245,8.68715 -21.66276,16.10548 -5.72032,7.41831 -11.51507,16.97787 -11.74657,27.20041 -0.23154,10.22252 6.04009,18.89679 14.81976,23.25852 8.77961,4.36172 18.70788,4.3594 26.76116,1.52652 2.61499,-0.91986 5.10004,-2.19392 7.21972,-3.77031 0.66169,2.2663 1.56356,4.42235 2.72489,6.45853 0.38427,0.67373 1.35236,1.20354 2.12804,1.20354 h 16.36696 c 0.77568,0 1.19493,-0.59333 0.96221,-1.33325 -5.7388,-18.24858 4.2809,-27.79055 13.80692,-27.79055 18.94659,0.88906 5.29378,21.03198 -2.73524,28.21533 -0.57798,0.51713 -0.44235,0.90847 0.33331,0.90847 h 73.78309 a 4.3446891,4.3446891 0 0 0 4.16047,-3.09387 l 3.09645,-10.29912 c 0.57315,1.8659 1.44203,3.62022 2.62155,5.25705 1.7438,2.41986 4.42455,4.38086 8.04189,5.88284 3.72693,1.41855 8.76121,2.12752 15.10295,2.12752 7.05322,0 23.32717,-0.52534 35.68155,-18.33376 -0.0341,2.8358 0.87412,6.00307 2.37349,8.184 3.68127,5.3546 10.17541,9.00651 20.47059,10.83189 10.29526,1.82539 23.62529,1.71545 33.91421,0.77722 10.2889,-0.93824 18.03713,-2.75236 24.07708,-7.76232 1.77927,-1.47585 3.3429,-3.19836 4.59094,-5.17023 0.51914,1.20516 1.16844,2.36141 1.96215,3.46284 1.7438,2.41985 4.42452,4.38086 8.04189,5.88284 3.72689,1.41855 8.76122,2.12752 15.10295,2.12752 7.65673,0 26.18383,-0.60159 38.76198,-23.28075 2.49908,-4.50595 4.52107,-9.22064 6.06629,-14.14384 1.46667,-4.67285 2.33874,-9.17845 2.61586,-13.51751 0.30332,-4.42253 -0.28829,-8.38611 -1.77508,-11.89076 -1.48683,-3.50462 -4.16913,-6.25833 -8.04654,-8.26099 -3.76775,-2.0861 -9.03072,-3.12952 -15.78973,-3.12952 -5.92449,0 -8.43836,0.70949 -12.97234,2.12803 -4.53392,1.41855 -8.5158,3.33792 -11.94552,5.75779 -3.32013,2.33643 -6.27332,4.96477 -8.85889,7.88531 -0.59737,0.69729 -1.30312,1.63206 -2.05207,2.67838 -0.20954,-0.88575 -0.46237,-1.77652 -0.80151,-2.67063 -3.28399,-7.58818 -10.78186,-12.94368 -22.0896,-15.70292 -5.65392,-1.37962 -11.94764,-2.06468 -18.21336,-2.08927 z m -232.56927,16.35403 c 3.06782,-0.0688 5.85091,0.16545 7.3024,0.56482 0.5924,0.163 0.83007,0.28157 1.03198,0.38034 -0.063,0.57197 -0.46917,1.42741 -4.82451,2.6629 -4.02521,1.14183 -11.96008,1.88053 -20.78013,2.42258 2.5929,-2.27008 5.21287,-3.82906 8.25841,-4.78058 2.59171,-0.80974 5.94404,-1.18129 9.01185,-1.25006 z m 159.06626,1.62316 c 26.66469,-0.5195 3.00031,42.23825 -12.08247,42.23825 -3.30267,0 -11.47444,-0.38829 -11.56724,-10.97143 -0.009,-0.99206 -0.73266,-1.64199 -1.70688,-1.45313 l -14.2906,2.77037 5.97896,-19.88457 13.31082,0.11006 c 0.99233,0.008 2.18348,-0.69151 2.72335,-1.52394 3.47188,-5.3534 9.6039,-10.77299 16.32613,-11.22825 0.44885,-0.0304 0.88468,-0.0491 1.30793,-0.0573 z m 146.21485,0 c 26.66466,-0.5195 3.0008,42.23825 -12.08195,42.23825 -3.25748,0 -11.25258,-0.37746 -11.5595,-10.54303 -0.0371,-1.22778 -0.92937,-2.03427 -2.13579,-1.80041 l -14.69109,2.84841 c -0.33621,-1.21665 -0.80556,-2.40889 -1.44901,-3.53415 -4.71174,-8.23993 -13.01433,-10.51069 -23.01875,-12.11916 -10.00445,-1.60848 -22.22697,-1.84293 -29.15946,-2.90783 -2.78572,-0.42792 -4.49877,-0.96597 -5.56555,-1.38855 0.2556,-0.83353 0.70576,-2.15419 1.77147,-3.6623 2.22315,-3.14606 4.16385,-5.31117 11.30267,-6.93704 10.0171,-2.28143 34.56742,-1.42367 35.98436,4.23539 0.63424,2.53309 -2.20934,4.39929 -4.3341,6.40219 -0.81138,0.76483 -0.45401,1.51768 0.66249,1.54823 l 16.75557,0.45837 c 1.06598,0.0291 2.65681,-0.43044 3.41374,-1.17977 0.30896,-0.30585 0.58213,-0.62739 0.83975,-0.95601 l 12.34549,0.10232 c 1.30303,0.0108 2.86618,-0.90998 3.59669,-1.98851 3.51962,-5.19669 9.48907,-10.31707 16.01504,-10.75904 0.44884,-0.0304 0.88468,-0.0491 1.30793,-0.0573 z m -404.869862,5.75055 c -0.573407,0 -1.293884,0.28706 -1.578197,0.71831 l -3.016354,3.87883 c -0.286683,0.42887 -0.144835,0.71778 0.430981,0.71778 l 51.987012,0.14212 c 0.43121,0 1.14884,-0.43103 1.43557,-0.8599 l 2.44068,-3.73466 c 0.28672,-0.43123 0.14479,-0.86248 -0.43099,-0.86248 z m 286.595942,12.54136 c 0.12243,0.43241 0.18957,0.85219 0.34726,1.29243 1.52218,4.24931 5.02079,7.59073 8.67648,9.50949 3.65568,1.91877 7.62701,2.91883 12.30571,3.6375 13.26397,2.03749 37.94395,2.32044 36.90266,5.23276 -3.92672,10.98218 -46.02741,5.80427 -47.37076,0.94206 -0.24303,-0.87967 0.59225,-2.05506 1.39889,-2.93935 0.67926,-0.74463 0.50335,-1.35406 -0.4992,-1.46451 l -17.30695,-1.90634 c 1.92629,-3.78076 3.54599,-7.69581 4.82192,-11.76105 0.26848,-0.85536 0.49538,-1.69882 0.72399,-2.54299 z m -308.279372,0.67127 c -0.575778,0 -1.293541,0.28654 -1.580266,0.71779 l -3.016353,3.87625 c -0.286724,0.43362 -0.142466,0.7183 0.430981,0.7183 l 67.92609,-0.14211 c 0.5734,0 1.14919,-0.28669 1.29139,-0.86248 l 1.14928,-3.44526 c 0.14457,-0.43126 -0.14433,-0.86249 -0.71778,-0.86249 z m 33.60415,13.21211 c -0.575778,0 -1.149061,0.42865 -1.438155,0.8599 l -2.009696,3.58997 c -0.286684,0.43124 -0.144493,0.86247 0.428913,0.86247 l 31.30817,0.1447 c 0.43129,0 1.00717,-0.43138 1.00717,-1.00717 l 0.28422,-3.44527 c 0,-0.5758 -0.2867,-1.0046 -0.86248,-1.0046 z m 61.011782,3.94861 c 4.9732,-0.0289 9.36552,0.16107 12.50156,0.93482 2.09068,0.51583 3.90226,1.34843 4.88911,2.03243 0.23716,0.16437 0.259,0.22144 0.38654,0.34003 -0.35651,0.37179 -1.09938,1.29912 -3.17965,2.03089 -3.33048,1.17155 -9.24737,1.16846 -13.0452,-0.7183 -2.02002,-1.00355 -3.80702,-2.5682 -5.0369,-4.55993 1.17482,-0.0246 2.36126,-0.0534 3.48454,-0.06 z" /><g
       id="g50"
       transform="matrix(0.8181476,0,0,0.8181476,108.22837,58.677037)"
       style="stroke:none;stroke-opacity:1;stroke-width:12.2227334;stroke-dasharray:none;paint-order:normal;stroke-linejoin:round"><path
         style="font-weight:900;font-size:192.623px;line-height:161.784px;font-family:'Noto Sans Malayalam';-inkscape-font-specification:'Noto Sans Malayalam Heavy';letter-spacing:0px;word-spacing:4.81557px;fill:#00acd7;fill-opacity:1;stroke-width:12.2227334;stroke-linecap:square;stroke-miterlimit:6.7;stroke:none;stroke-opacity:1;stroke-dasharray:none;paint-order:normal;stroke-linejoin:round"
         d="m 290.9606,262.59167 c -1.88868,6.01749 -4.36023,11.77999 -7.41478,17.28752 -15.374,27.72019 -38.01915,28.45557 -47.37778,28.45557 -7.75135,0 -13.90474,-0.86693 -18.46007,-2.60078 -4.42138,-1.83584 -7.69774,-4.23264 -9.82914,-7.19038 -2.1314,-2.95775 -3.45282,-6.22147 -3.96432,-9.79117 -0.4094,-3.56969 -0.51292,-7.13939 -0.31035,-10.70909 l 23.09692,-4.4776 c 1.19076,-0.23084 2.07578,0.564 2.08639,1.77657 0.11343,12.9355 10.10199,13.41012 14.13876,13.41012 18.72791,0 48.28018,-53.93449 13.16897,-51.55659 -8.21641,0.55645 -15.7113,7.18013 -19.9549,13.72346 -0.65987,1.01745 -2.11574,1.87307 -3.32864,1.86303 l -19.78065,-0.16367 c -1.2129,-0.01 -1.66314,-0.84445 -1.00846,-1.86551 2.66287,-4.15302 6.92723,-10.80559 9.54681,-13.86328 3.16023,-3.5697 6.76939,-6.78242 10.8275,-9.63818 4.19202,-2.95775 9.05898,-5.30355 14.60074,-7.0374 5.54171,-1.73385 8.61437,-2.60078 15.85574,-2.60078 8.26138,0 14.69464,1.27489 19.29988,3.82467 4.73925,2.4478 8.01743,5.81351 9.83469,10.09714 1.81732,4.28364 2.54051,9.12822 2.16978,14.53376 -0.33872,5.30354 -1.40442,10.81107 -3.19709,16.52259 z"
         id="path33"
         sodipodi:nodetypes="ssscscccssccccsscscs" /><path
         style="font-weight:900;font-size:192.623px;line-height:161.784px;font-family:'Noto Sans Malayalam';-inkscape-font-specification:'Noto Sans Malayalam Heavy';letter-spacing:0px;word-spacing:4.81557px;fill:#00acd7;fill-opacity:1;stroke-width:12.2227334;stroke-linecap:square;stroke-miterlimit:6.7;stroke:none;stroke-opacity:1;stroke-dasharray:none;paint-order:normal;stroke-linejoin:round"
         d="m 114.34956,253.46174 c 9.17923,0 16.04845,1.5993 20.74259,4.58961 12.09675,7.70601 10.78755,19.84002 4.58223,30.85407 h 33.66791 a 5.2919664,5.2919664 0 0 0 5.07291,-3.78516 l 18.80586,-63.31329 a 5.8627983,5.8627983 0 0 1 5.62014,-4.19346 h 19.85944 a 3.2527418,3.2527418 0 0 1 3.11502,4.18929 l -24.92557,82.90354 a 5.3103977,5.3103977 0 0 1 -5.08553,3.7814 H 105.6217 c -0.94809,0 -1.1138,-0.47777 -0.40734,-1.10985 9.81368,-8.78002 26.50095,-33.40013 3.34297,-34.48681 -11.643411,0 -23.88996,11.66252 -16.875553,33.96731 0.284439,0.90439 -0.228237,1.62935 -1.176332,1.62935 H 70.500777 c -0.948095,0 -2.131839,-0.6474 -2.601518,-1.47089 -1.9786,-3.46908 -3.36388,-7.21142 -4.155938,-11.22702 -0.803299,-4.58961 -0.324589,-5.81521 1.436032,-11.42474 2.016738,-6.42545 5.428229,-11.93298 10.234474,-16.52258 4.838247,-4.6916 10.599262,-8.26129 17.283044,-10.70908 6.683831,-2.4478 13.901399,-3.67169 21.652689,-3.67169 z"
         id="path34"
         sodipodi:nodetypes="ssccccccscccscss" /><path
         style="font-weight:900;font-size:192.623px;line-height:161.784px;font-family:'Noto Sans Malayalam';-inkscape-font-specification:'Noto Sans Malayalam Heavy';letter-spacing:0px;word-spacing:4.81557px;fill:#00acd7;fill-opacity:1;stroke-width:12.2227334;stroke-linecap:square;stroke-miterlimit:6.7;stroke:none;stroke-opacity:1;stroke-dasharray:none;paint-order:normal;stroke-linejoin:round"
         d="m 469.6753,262.59167 c -1.88868,6.01749 -4.36022,11.77999 -7.41478,17.28752 -15.37395,27.72019 -38.01915,28.45557 -47.37778,28.45557 -7.75135,0 -13.90474,-0.86693 -18.46002,-2.60078 -4.42143,-1.83584 -7.69779,-4.23264 -9.82919,-7.19038 -2.1314,-2.95775 -3.45282,-6.22147 -3.96432,-9.79117 -0.4094,-3.56969 -0.51287,-7.13939 -0.31035,-10.70909 l 22.58311,-4.37799 c 1.47457,-0.28585 2.56505,0.69954 2.61036,2.20022 0.37514,12.42512 10.14705,12.88686 14.1286,12.88686 18.72791,0 48.28018,-53.93449 13.16897,-51.55659 -7.97654,0.5402 -15.27298,6.79855 -19.57494,13.15032 -0.89288,1.31828 -2.8035,2.44366 -4.39615,2.43048 l -21.28923,-0.17615 c 2.37637,-3.67168 7.67634,-12.14093 10.73448,-15.71062 3.16028,-3.5697 6.76939,-6.78242 10.8275,-9.63818 4.19207,-2.95775 9.05903,-5.30355 14.60074,-7.0374 5.54176,-1.73385 8.61438,-2.60078 15.85574,-2.60078 8.26138,0 14.69464,1.27489 19.29988,3.82467 4.73925,2.4478 8.01743,5.81351 9.83474,10.09714 1.81727,4.28364 2.54046,9.12822 2.16973,14.53376 -0.33872,5.30354 -1.40442,10.81107 -3.19709,16.52259 z"
         id="path35"
         sodipodi:nodetypes="ssscscccssccccsscscs" /><path
         style="color:#000000;fill:#00acd7;stroke-width:12.2227334;stroke-linecap:square;stroke-miterlimit:6.7;stroke:none;stroke-opacity:1;stroke-dasharray:none;paint-order:normal;stroke-linejoin:round"
         d="m 347.53455,215.15268 c -7.65844,-0.03 -15.28216,0.74664 -22.05278,2.28866 -13.54107,3.08401 -22.48843,10.58012 -27.45375,17.60675 -4.96533,7.02656 -9.47884,15.62694 -5.75783,26.01456 1.86051,5.19384 6.1365,9.27835 10.60476,11.6236 4.46826,2.34526 9.32202,3.56754 15.04067,4.44598 16.21224,2.49037 46.3784,2.83615 45.10566,6.39582 -4.79952,13.42325 -56.25848,7.09468 -57.90042,1.15171 -0.29705,-1.0752 0.72418,-2.51192 1.71011,-3.59277 0.83025,-0.91013 0.61482,-1.65509 -0.61059,-1.7901 l -23.27348,-2.5641 c -0.59346,0.91909 -2.24114,2.97821 -3.00979,6.88541 -0.76874,3.90719 0.49505,9.03821 2.74479,12.31058 4.49952,6.54481 12.43704,11.00814 25.0206,13.23926 12.58365,2.23112 28.87649,2.09721 41.45239,0.95043 12.57589,-1.14678 22.04599,-3.36448 29.42848,-9.48803 3.69126,-3.0618 6.65565,-6.96697 8.18558,-11.8171 1.52988,-4.85014 1.28481,-10.95073 -1.59472,-15.98643 -5.75905,-10.07147 -15.90718,-12.84696 -28.13533,-14.81295 -12.22819,-1.966 -27.16755,-2.25224 -35.64096,-3.55384 -3.40491,-0.52303 -5.49837,-1.18075 -6.80227,-1.69726 0.31242,-1.0188 0.86254,-2.63296 2.16512,-4.47629 2.7173,-3.84534 5.0895,-6.49203 13.8151,-8.47931 12.24366,-2.78852 42.25078,-1.73968 43.98269,5.17726 0.77522,3.09613 -2.70086,5.37684 -5.29791,7.82494 -0.99173,0.93483 -0.55504,1.855 0.80963,1.89234 l 20.48038,0.56029 c 1.30292,0.0356 3.24701,-0.52594 4.17219,-1.44182 4.38034,-4.33639 4.45996,-10.62908 2.07343,-16.92105 -4.01395,-9.27485 -13.17875,-15.82032 -26.99994,-19.19288 -6.91064,-1.68628 -14.60338,-2.5236 -22.26181,-2.55366 z"
         id="path36"
         sodipodi:nodetypes="ssssssssccssssssssscssaccsss" /><path
         style="color:#000000;fill:#00acd7;stroke-width:12.2227334;stroke-linecap:square;stroke-miterlimit:6.7;stroke:none;stroke-opacity:1;stroke-dasharray:none;paint-order:normal;stroke-linejoin:round"
         d="m 62.507748,217.70596 c -5.488808,0.15119 -11.188218,1.06167 -16.751247,2.79975 -11.126101,3.47612 -19.486028,10.61804 -26.477833,19.68528 -6.991805,9.06723 -14.074768,20.75115 -14.3577301,33.24591 -0.2830064,12.49476 7.3831281,23.09753 18.1143151,28.42878 10.731098,5.33121 22.865966,5.32803 32.709294,1.86548 9.843284,-3.46253 18.257303,-10.96918 16.362451,-21.04928 -0.94736,-5.04 -4.396243,-8.66572 -8.134915,-11.25702 -3.738628,-2.59129 -8.074305,-4.36237 -12.757411,-5.51783 -8.260656,-2.03813 -16.507656,-1.93705 -24.256613,-1.73649 0.530099,-1.24622 1.183235,-2.49929 1.834997,-3.77295 l 4.57838,-0.22135 c 14.435277,-0.69775 28.877469,-1.10225 40.151436,-4.30038 11.273878,-3.1981 18.277211,-10.64989 19.291121,-17.8717 v -7.8e-4 c 0.506955,-3.61096 -0.294889,-7.91791 -3.063767,-11.41808 -2.768878,-3.50016 -7.035433,-5.82511 -11.755516,-7.1238 -4.720039,-1.29867 -9.998155,-1.90676 -15.486962,-1.75556 z m 0.763802,17.43586 c 3.749713,-0.0841 7.151376,0.20187 8.925497,0.69001 0.724076,0.19922 1.01493,0.34412 1.261713,0.46485 -0.07697,0.6991 -0.573816,1.74457 -5.897245,3.25467 -4.919912,1.39566 -14.618257,2.29902 -25.398791,2.96157 3.169246,-2.77468 6.371213,-4.68074 10.093702,-5.84376 3.167783,-0.98972 7.265412,-1.44329 11.015124,-1.52734 z m -32.581159,46.13713 c 6.078629,-0.0353 11.446883,0.19692 15.279995,1.14265 2.555392,0.63048 4.76983,1.64771 5.976032,2.48375 0.289879,0.2009 0.316925,0.27104 0.472815,0.41599 -0.435749,0.45442 -1.343781,1.5878 -3.886449,2.48222 -4.070761,1.43195 -11.303052,1.42837 -15.945057,-0.87778 -2.469024,-1.22661 -4.652913,-3.13909 -6.156176,-5.57355 1.435959,-0.0301 2.885885,-0.0653 4.25884,-0.0733 z"
         id="path37" /><path
         id="path38"
         style="display:inline;fill:#00acd7;fill-rule:evenodd;stroke-width:12.2227334;stroke:none;stroke-opacity:1;stroke-dasharray:none;paint-order:normal;stroke-linejoin:round"
         d="m -63.541872,250.65056 c -0.703807,0 -0.877562,-0.35334 -0.527156,-0.87754 l 3.686849,-4.74103 c 0.347511,-0.5271 1.227968,-0.87753 1.92883,-0.87753 H 4.2110105 c 0.7037575,0 0.8775618,0.5271 0.5271064,1.05419 l -2.9830425,4.56437 C 1.4046191,250.29722 0.52705734,250.82433 0,250.82433 Z m -26.505762,16.14613 c -0.700911,0 -0.877562,-0.34753 -0.527107,-0.87753 l 3.6868,-4.73813 c 0.350456,-0.52711 1.228017,-0.87754 1.931775,-0.87754 h 80.038453 c 0.7009107,0 1.0542619,0.5271 0.8775618,1.05421 l -1.4046191,4.21102 c -0.1738043,0.70377 -0.8775618,1.05421 -1.5784234,1.05421 z m 42.475138,16.14904 c -0.700862,0 -0.874568,-0.5271 -0.524162,-1.0542 l 2.455936,-4.3877 c 0.353352,-0.52711 1.054213,-1.05131 1.757971,-1.05131 h 35.1015869 c 0.7037575,0 1.0541638,0.5242 1.0541638,1.22798 l -0.3475103,4.21103 c 0,0.70377 -0.7037576,1.23087 -1.2309131,1.23087 z" /></g></g></svg>
