<?xml version="1.0" encoding="UTF-8" standalone="no"?>
<!-- Created with Inkscape (http://www.inkscape.org/) -->

<svg
   width="2000"
   height="2000"
   viewBox="0 0 33.866667 33.866667"
   version="1.1"
   id="svg1"
   inkscape:version="1.3.2 (091e20ef0f, 2023-11-25, custom)"
   sodipodi:docname="node.svg"
   inkscape:export-filename="rust.png"
   inkscape:export-xdpi="1500"
   inkscape:export-ydpi="1500"
   xml:space="preserve"
   xmlns:inkscape="http://www.inkscape.org/namespaces/inkscape"
   xmlns:sodipodi="http://sodipodi.sourceforge.net/DTD/sodipodi-0.dtd"
   xmlns="http://www.w3.org/2000/svg"
   xmlns:svg="http://www.w3.org/2000/svg"><sodipodi:namedview
     id="namedview1"
     pagecolor="#505050"
     bordercolor="#ffffff"
     borderopacity="1"
     inkscape:showpageshadow="0"
     inkscape:pageopacity="0"
     inkscape:pagecheckerboard="1"
     inkscape:deskcolor="#524b4b"
     inkscape:document-units="mm"
     inkscape:zoom="0.51205031"
     inkscape:cx="693.29125"
     inkscape:cy="1397.3236"
     inkscape:window-width="1920"
     inkscape:window-height="1048"
     inkscape:window-x="0"
     inkscape:window-y="32"
     inkscape:window-maximized="1"
     inkscape:current-layer="layer1"
     showguides="true" /><defs
     id="defs1"><inkscape:path-effect
       effect="simplify"
       id="path-effect10"
       is_visible="true"
       lpeversion="1.3"
       threshold="10.8696"
       steps="1"
       smooth_angles="360"
       helper_size="0"
       simplify_individual_paths="false"
       simplify_just_coalesce="false" /><inkscape:path-effect
       effect="skeletal"
       id="path-effect9"
       is_visible="true"
       lpeversion="1"
       pattern="M 0,4.9921384 C 0,2.236478 2.236478,0 4.9921384,0 c 2.7556604,0 4.9921384,2.236478 4.9921384,4.9921384 0,2.7556604 -2.236478,4.9921384 -4.9921384,4.9921384 C 2.236478,9.9842768 0,7.7477988 0,4.9921384 Z"
       copytype="single_stretched"
       prop_scale="5.5"
       scale_y_rel="false"
       spacing="0"
       normal_offset="0"
       tang_offset="0"
       prop_units="false"
       vertical_pattern="false"
       hide_knot="false"
       fuse_tolerance="0" /><inkscape:path-effect
       effect="simplify"
       id="path-effect8"
       is_visible="true"
       lpeversion="1.3"
       threshold="10.8696"
       steps="1"
       smooth_angles="360"
       helper_size="0"
       simplify_individual_paths="false"
       simplify_just_coalesce="false" /><inkscape:path-effect
       effect="skeletal"
       id="path-effect7"
       is_visible="true"
       lpeversion="1"
       pattern="M 0,4.9921384 C 0,2.236478 2.236478,0 4.9921384,0 c 2.7556604,0 4.9921384,2.236478 4.9921384,4.9921384 0,2.7556604 -2.236478,4.9921384 -4.9921384,4.9921384 C 2.236478,9.9842768 0,7.7477988 0,4.9921384 Z"
       copytype="single_stretched"
       prop_scale="5.5"
       scale_y_rel="false"
       spacing="0"
       normal_offset="0"
       tang_offset="0"
       prop_units="false"
       vertical_pattern="false"
       hide_knot="false"
       fuse_tolerance="0" /><inkscape:path-effect
       effect="simplify"
       id="path-effect6"
       is_visible="true"
       lpeversion="1.3"
       threshold="0.00108696"
       steps="1"
       smooth_angles="360"
       helper_size="0"
       simplify_individual_paths="false"
       simplify_just_coalesce="false" /><inkscape:path-effect
       effect="bspline"
       id="path-effect4"
       is_visible="true"
       lpeversion="1.3"
       weight="33.333333"
       steps="2"
       helper_size="0"
       apply_no_weight="true"
       apply_with_weight="true"
       only_selected="false"
       uniform="false" /><inkscape:path-effect
       effect="bspline"
       id="path-effect3"
       is_visible="true"
       lpeversion="1.3"
       weight="33.333333"
       steps="2"
       helper_size="0"
       apply_no_weight="true"
       apply_with_weight="true"
       only_selected="false"
       uniform="false" /><inkscape:path-effect
       effect="bspline"
       id="path-effect2"
       is_visible="true"
       lpeversion="1.3"
       weight="33.333333"
       steps="2"
       helper_size="0"
       apply_no_weight="true"
       apply_with_weight="true"
       only_selected="false"
       uniform="false" /><linearGradient
       id="deviconNodejs0"
       x1="34.513"
       x2="27.157"
       y1="15.535"
       y2="30.448"
       gradientTransform="matrix(1.6365088,0,0,1.6365088,290.58155,21.983)"
       gradientUnits="userSpaceOnUse"><stop
         stop-color="#3F873F"
         id="stop3" /><stop
         offset=".33"
         stop-color="#3F8B3D"
         id="stop4" /><stop
         offset=".637"
         stop-color="#3E9638"
         id="stop5" /><stop
         offset=".934"
         stop-color="#3DA92E"
         id="stop6" /><stop
         offset="1"
         stop-color="#3DAE2B"
         id="stop7" /></linearGradient><linearGradient
       id="deviconNodejs1"
       x1="30.009"
       x2="50.533"
       y1="23.359"
       y2="8.288"
       gradientTransform="matrix(1.6365088,0,0,1.6365088,290.58155,21.983)"
       gradientUnits="userSpaceOnUse"><stop
         offset=".138"
         stop-color="#3F873F"
         id="stop8" /><stop
         offset=".402"
         stop-color="#52A044"
         id="stop9" /><stop
         offset=".713"
         stop-color="#64B749"
         id="stop10" /><stop
         offset=".908"
         stop-color="#6ABF4B"
         id="stop11" /></linearGradient><linearGradient
       id="deviconNodejs2"
       x1="21.917"
       x2="40.555"
       y1="22.261"
       y2="22.261"
       gradientTransform="matrix(1.6365088,0,0,1.6365088,290.58155,21.983)"
       gradientUnits="userSpaceOnUse"><stop
         offset=".092"
         stop-color="#6ABF4B"
         id="stop12" /><stop
         offset=".287"
         stop-color="#64B749"
         id="stop13" /><stop
         offset=".598"
         stop-color="#52A044"
         id="stop14" /><stop
         offset=".862"
         stop-color="#3F873F"
         id="stop15" /></linearGradient><clipPath
       clipPathUnits="userSpaceOnUse"
       id="clipPath40"><path
         style="stroke-width:0.172619"
         d="m 348.67952,70.223354 c 0.46606,0 0.88035,-0.241647 1.10476,-0.638688 l 6.09343,-10.58154 c 0.10353,-0.172603 0.15539,-0.379772 0.17261,-0.586901 v -0.103563 c 0,-0.207127 -0.069,-0.397034 -0.17261,-0.586904 l -6.09343,-10.564284 c -0.22443,-0.397034 -0.65596,-0.638683 -1.10476,-0.638683 l -16.39881,0.01744 c -0.22439,0 -0.43155,0.120825 -0.55238,0.310732 -0.12082,0.189905 -0.12082,0.431549 0,0.638691 l 3.60774,6.283333 c 0.24165,0.397034 0.65595,0.638688 1.10476,0.638688 h 7.66428 c 0.44881,0 0.88035,0.241647 1.10475,0.638694 l 1.53632,2.675557 c 0.12083,0.207126 0.17261,0.414292 0.17261,0.638693 0,0.224385 -0.0518,0.448805 -0.17261,0.638688 l -1.53632,2.675594 c -0.22438,0.397034 -0.65594,0.638688 -1.10475,0.638688 h -7.66428 c -0.44881,0 -0.88036,0.241647 -1.10476,0.638691 l -3.60774,6.28332 c -0.12082,0.189865 -0.12082,0.448807 0,0.638688 0.10352,0.189868 0.32799,0.310732 0.55238,0.310732 z"
         id="path41" /></clipPath></defs><g
     inkscape:label="Layer 1"
     inkscape:groupmode="layer"
     id="layer1"><g
       id="g57"
       transform="matrix(1.1314291,0,0,1.1314291,-2.2128312,-3.0144875)"
       style="stroke:#ffffff;stroke-opacity:1;stroke-width:0.56565631;stroke-dasharray:none"><path
         fill="#539e43"
         d="m 13.274969,24.292038 c -0.06634,0 -0.128251,-0.01769 -0.185743,-0.04865 l -0.58822,-0.349391 c -0.08845,-0.04865 -0.04422,-0.06633 -0.01769,-0.07518 0.119407,-0.0398 0.141519,-0.04865 0.265347,-0.119422 0.01329,-0.0088 0.03098,-0.0044 0.04423,0.0044 l 0.451124,0.269787 c 0.01769,0.0088 0.0398,0.0088 0.05307,0 l 1.764643,-1.021621 c 0.01769,-0.0088 0.02654,-0.02654 0.02654,-0.04865 v -2.03885 c 0,-0.02211 -0.0088,-0.0398 -0.02654,-0.04865 l -1.764643,-1.017215 c -0.01769,-0.0088 -0.0398,-0.0088 -0.05307,0 l -1.764642,1.017231 c -0.01769,0.0088 -0.02654,0.03096 -0.02654,0.04865 v 2.038834 c 0,0.01769 0.0088,0.0398 0.02654,0.04865 l 0.48208,0.278615 c 0.260942,0.132673 0.424555,-0.02211 0.424555,-0.176898 v -2.012317 c 0,-0.02654 0.02213,-0.05307 0.05308,-0.05307 h 0.225561 c 0.02654,0 0.05307,0.02211 0.05307,0.05307 v 2.0123 c 0,0.34939 -0.190183,0.552823 -0.521883,0.552823 -0.101717,0 -0.181321,0 -0.406866,-0.110561 l -0.46439,-0.265321 C 11.2096,23.164243 11.13884,23.040418 11.13884,22.907744 v -2.038818 c 0,-0.132673 0.07076,-0.256502 0.185744,-0.322855 l 1.764642,-1.02162 c 0.110561,-0.06191 0.260925,-0.06191 0.371486,0 l 1.764642,1.02162 c 0.114983,0.06633 0.185743,0.190165 0.185743,0.322855 v 2.038835 c 0,0.132673 -0.07076,0.256502 -0.185743,0.322839 l -1.764642,1.021653 c -0.05749,0.02654 -0.123829,0.0398 -0.185743,0.0398 m 0.543978,-1.401984 c -0.773962,0 -0.933171,-0.353796 -0.933171,-0.65454 0,-0.02654 0.02211,-0.05307 0.05307,-0.05307 h 0.229967 c 0.02654,0 0.04867,0.01769 0.04867,0.04422 0.03538,0.23439 0.137096,0.34939 0.605892,0.34939 0.371503,0 0.530728,-0.08403 0.530728,-0.283037 0,-0.115 -0.04423,-0.199027 -0.623599,-0.256535 -0.482064,-0.04865 -0.782807,-0.154786 -0.782807,-0.53954 0,-0.358252 0.300726,-0.57053 0.804919,-0.57053 0.566091,0 0.844722,0.194589 0.880102,0.619161 0,0.01327 -0.0044,0.02654 -0.01327,0.0398 -0.0088,0.0088 -0.02211,0.01769 -0.03538,0.01769 h -0.229972 c -0.02213,0 -0.04423,-0.01769 -0.04866,-0.0398 -0.05307,-0.243234 -0.190166,-0.322838 -0.552824,-0.322838 -0.406865,0 -0.45553,0.141518 -0.45553,0.247657 0,0.128267 0.05749,0.168053 0.605893,0.238812 0.543996,0.07076 0.800497,0.172493 0.800497,0.55284 -0.0044,0.389193 -0.322838,0.610316 -0.884523,0.610316"
         id="path46"
         style="display:inline;stroke-width:0.56565631;stroke:#ffffff;stroke-opacity:1;stroke-dasharray:none" /><g
         id="g51"
         inkscape:label="g51"
         style="stroke:#ffffff;stroke-opacity:1;stroke-width:0.56565631;stroke-dasharray:none"><path
           id="path51"
           style="fill:#303030;fill-opacity:1;stroke-width:0.56565631;stroke:#ffffff;stroke-opacity:1;stroke-dasharray:none"
           d="m 12.595486,16.973963 c 0,-0.07725 -0.04005,-0.145917 -0.105862,-0.183111 L 10.735762,15.78088 c -0.02861,-0.01717 -0.06295,-0.02575 -0.09728,-0.02861 h -0.01716 c -0.03433,0 -0.06581,0.01144 -0.09728,0.02861 l -1.7510012,1.009972 c -0.065807,0.03719 -0.1058603,0.108722 -0.1058603,0.183111 l 0.00289,2.718057 c 0,0.03719 0.020026,0.07153 0.051503,0.09155 0.031477,0.02003 0.071528,0.02003 0.105861,0 l 1.0414452,-0.597972 c 0.065807,-0.04005 0.1058609,-0.108723 0.1058609,-0.183112 v -1.270333 c 0,-0.07439 0.040052,-0.145917 0.1058614,-0.183111 l 0.443467,-0.254639 c 0.03433,-0.02003 0.06867,-0.02861 0.105861,-0.02861 0.03719,0 0.07439,0.0086 0.105861,0.02861 l 0.443473,0.254639 c 0.06581,0.03719 0.10586,0.108722 0.10586,0.183111 v 1.270333 c 0,0.07439 0.04006,0.145917 0.105862,0.183112 l 0.44456,0.255255 0.755844,-0.508212 z m 2.619176,0 c 0,-0.07725 -0.04005,-0.145917 -0.105861,-0.183111 L 13.35494,15.78088 c -0.02861,-0.01717 -0.06295,-0.02575 -0.09728,-0.02861 h -0.01717 c -0.03433,0 -0.06581,0.01144 -0.09728,0.02861 l -1.751002,1.009972 c -0.06581,0.03719 -0.10586,0.108722 -0.10586,0.183111 l 0.0029,2.718057 c 0,0.03719 0.02003,0.07153 0.0515,0.09155 0.03148,0.02003 0.07153,0.02003 0.105862,0 l 1.041444,-0.597972 c 0.06581,-0.04005 0.105862,-0.108723 0.105862,-0.183112 v -1.270333 c 0,-0.07439 0.04005,-0.145917 0.105861,-0.183111 l 0.443467,-0.254639 c 0.03433,-0.02003 0.06867,-0.02861 0.105861,-0.02861 0.0372,0 0.07439,0.0086 0.105861,0.02861 l 0.443472,0.254639 c 0.06581,0.03719 0.105862,0.108722 0.105862,0.183111 v 1.270333 c 0,0.07439 0.04005,0.145917 0.105861,0.183112 l 1.041444,0.597972 c 0.03147,0.02003 0.07439,0.02003 0.105862,0 0.03147,-0.01716 0.0515,-0.05436 0.0515,-0.09155 z" /></g><path
         style="display:inline;fill:#303030;fill-opacity:1;stroke-width:0.56565631;stroke:#ffffff;stroke-opacity:1;stroke-dasharray:none"
         d="m 5.2509761,15.811279 c -0.07725,0 -0.1459167,0.04006 -0.1831109,0.105861 l -1.0099728,1.753862 c -0.017165,0.02861 -0.025748,0.06294 -0.028609,0.09728 v 0.01717 c 0,0.03433 0.011443,0.06581 0.028609,0.09728 l 1.0099728,1.751001 c 0.037191,0.06581 0.1087225,0.105861 0.1831109,0.105861 l 2.7180567,-0.0029 c 0.037191,0 0.071528,-0.02003 0.091556,-0.0515 0.020026,-0.03148 0.020026,-0.07153 0,-0.105862 L 7.462616,18.537887 C 7.4225566,18.47208 7.3538935,18.432025 7.2795043,18.432025 H 6.0091706 c -0.074389,0 -0.145916,-0.04005 -0.183111,-0.10586 L 5.5714211,17.882724 c -0.020026,-0.03433 -0.028609,-0.06867 -0.028609,-0.105861 0,-0.03719 0.00859,-0.07439 0.028609,-0.105861 L 5.8260596,17.22753 c 0.037199,-0.06581 0.1087225,-0.105862 0.183111,-0.105862 h 1.2703337 c 0.074389,0 0.1459174,-0.04005 0.1831117,-0.105861 l 0.5979726,-1.041444 c 0.020026,-0.03147 0.020026,-0.07439 0,-0.105862 -0.017165,-0.03147 -0.054364,-0.0515 -0.091556,-0.0515 z"
         id="path52" /><path
         id="path56"
         style="display:inline;fill:#303030;fill-opacity:1;stroke-width:0.56565631;stroke:#ffffff;stroke-opacity:1;stroke-dasharray:none"
         d="m 25.886625,18.605512 c 0,0.07725 0.04006,0.145917 0.105861,0.183112 l 1.753863,1.009972 c 0.02861,0.01716 0.06295,0.02575 0.09728,0.02861 h 0.01716 c 0.03434,0 0.06581,-0.01144 0.09728,-0.02861 l 1.751,-1.009972 c 0.06581,-0.0372 0.105861,-0.108723 0.105861,-0.183112 l -0.0029,-2.718056 c 0,-0.0372 -0.02003,-0.07153 -0.0515,-0.09156 -0.03147,-0.02003 -0.07153,-0.02003 -0.10586,0 l -1.041446,0.597973 c -0.06581,0.04006 -0.105861,0.108722 -0.105861,0.183111 v 1.270334 c 0,0.07439 -0.04005,0.145916 -0.105861,0.183111 l -0.443466,0.254639 c -0.03434,0.02003 -0.06867,0.02861 -0.105863,0.02861 -0.03719,0 -0.07439,-0.0086 -0.105859,-0.02861 l -0.443437,-0.254639 c -0.06581,-0.0372 -0.751123,-0.459036 -0.751123,-0.533425 z m 3.928308,-3.331099 c 0,0.05012 -0.02599,0.09466 -0.06868,0.118794 l -1.13782,0.655222 c -0.01857,0.01114 -0.04083,0.01671 -0.06311,0.01856 h -0.01113 c -0.02227,0 -0.0427,-0.0074 -0.06311,-0.01856 l -1.135965,-0.655222 c -0.04269,-0.02413 -0.06868,-0.07053 -0.06868,-0.118794 l 0.0018,-1.180831 c 0,-0.02413 0.01299,-0.0464 0.03341,-0.0594 0.02042,-0.01299 0.0464,-0.01299 0.06868,0 l 0.675657,0.387936 c 0.0427,0.02599 0.06868,0.07053 0.06868,0.118794 v 0.241618 c 0,0.04826 0.02599,0.09466 0.06868,0.118794 l 0.2877,0.165197 c 0.02227,0.01299 0.04455,0.01856 0.06867,0.01856 0.02413,0 0.04826,-0.0056 0.06868,-0.01856 l 0.287704,-0.165197 c 0.04269,-0.02413 0.06868,-0.07053 0.06868,-0.118794 v -0.241618 c 0,-0.04826 0.02599,-0.09466 0.06868,-0.118794 l 0.675638,-0.387936 c 0.02041,-0.01299 0.04826,-0.01299 0.06867,0 0.02041,0.01114 0.03342,0.03527 0.03342,0.0594 z m -5.588479,1.743182 c 0,-0.07725 -0.04005,-0.145917 -0.105861,-0.183111 l -1.753861,-1.009973 c -0.02861,-0.01717 -0.06295,-0.02575 -0.09728,-0.02861 h -0.01716 c -0.03433,0 -0.06581,0.01144 -0.09728,0.02861 l -1.751,1.009973 c -0.06581,0.03719 -0.105861,0.108722 -0.105861,0.183111 l 0.0029,2.718057 c 0,0.03719 0.02003,0.07153 0.0515,0.09155 0.03148,0.02003 0.07153,0.02003 0.10586,0 l 1.041446,-0.597972 c 0.06581,-0.04006 0.105861,-0.108723 0.105861,-0.183112 V 17.77579 c 0,-0.07439 0.04005,-0.145917 0.105861,-0.183111 l 0.443466,-0.254639 c 0.03433,-0.02003 0.06867,-0.02861 0.105861,-0.02861 0.0372,0 0.07439,0.0086 0.105863,0.02861 l 0.443471,0.254639 c 0.06581,0.03719 0.105862,0.108722 0.105862,0.183111 v 0.83137 c 0,0.07439 0.04005,0.145916 0.105861,0.183111 l 1.041444,0.597972 c 0.03148,0.02003 0.07439,0.02003 0.105863,0 0.03147,-0.01716 0.0515,-0.05436 0.0515,-0.09155 z m -1.313251,1.587917 c 0,0.07725 0.04006,0.145917 0.105862,0.183112 l 1.753862,1.009972 c 0.02861,0.01716 0.06295,0.02575 0.09728,0.02861 h 0.01716 c 0.03433,0 0.06581,-0.01144 0.09728,-0.02861 l 1.751002,-1.009972 c 0.06581,-0.0372 0.105859,-0.108723 0.105859,-0.183112 l -0.0029,-2.718056 c 0,-0.0372 -0.02003,-0.07153 -0.0515,-0.09156 -0.03147,-0.02003 -0.07153,-0.02003 -0.105861,0 l -1.04143,0.597973 c -0.06581,0.04006 -0.105861,0.108722 -0.105861,0.183111 v 1.270334 c 0,0.07439 -0.04006,0.145916 -0.105863,0.183111 l -0.443466,0.254639 c -0.03433,0.02003 -0.06867,0.02861 -0.105861,0.02861 -0.03719,0 -0.07439,-0.0086 -0.105861,-0.02861 l -0.443452,-0.254639 c -0.06581,-0.0372 -0.105861,-0.108723 -0.105861,-0.183111 z" /><path
         sodipodi:type="star"
         style="fill:#3b9f5f;fill-opacity:1;stroke:#ffffff;stroke-width:21.1079625;stroke-linecap:square;stroke-miterlimit:6.7;stroke-opacity:1;stroke-dasharray:none"
         id="path57"
         inkscape:flatsided="true"
         sodipodi:sides="6"
         sodipodi:cx="-180.27112"
         sodipodi:cy="-196.14655"
         sodipodi:r1="18.970642"
         sodipodi:r2="16.429058"
         sodipodi:arg1="0.52359878"
         sodipodi:arg2="1.0471976"
         inkscape:rounded="0"
         inkscape:randomized="0"
         d="m -163.84206,-186.66122 -16.42906,9.48532 -16.42906,-9.48532 0,-18.97065 16.42906,-9.48532 16.42906,9.48532 z"
         transform="matrix(0.02320796,-0.01339912,0.01339912,0.02320796,13.135879,19.900362)" /><path
         style="display:inline;fill:#303030;fill-opacity:1;stroke-width:0.56565631;stroke:#ffffff;stroke-opacity:1;stroke-dasharray:none"
         d="m 18.546722,15.811279 c 0.07725,0 0.145916,0.04006 0.183111,0.105861 l 1.009972,1.753862 c 0.01717,0.02861 0.02575,0.06294 0.02861,0.09728 v 0.01717 c 0,0.03433 -0.01144,0.06581 -0.02861,0.09728 l -1.009972,1.751001 c -0.03719,0.06581 -0.108723,0.105861 -0.183111,0.105861 l -2.718057,-0.0029 c -0.03719,0 -0.07153,-0.02003 -0.09156,-0.0515 -0.02003,-0.03148 -0.02003,-0.07153 0,-0.105862 l 0.597973,-1.041445 c 0.04006,-0.06581 0.108722,-0.105862 0.183111,-0.105862 h 1.270334 c 0.07439,0 0.145916,-0.04005 0.183111,-0.10586 l 0.254639,-0.443441 c 0.02003,-0.03433 0.02861,-0.06867 0.02861,-0.105861 0,-0.03719 -0.0086,-0.07439 -0.02861,-0.105861 L 17.971634,17.22753 c -0.0372,-0.06581 -0.108722,-0.105862 -0.183111,-0.105862 h -1.270334 c -0.07439,0 -0.145917,-0.04005 -0.183111,-0.105861 l -0.597973,-1.041444 c -0.02003,-0.03147 -0.02003,-0.07439 0,-0.105862 0.01716,-0.03147 0.05436,-0.0515 0.09156,-0.0515 z"
         id="path59" /></g><g
       id="g1"
       transform="matrix(1.1314291,0,0,1.1314291,-2.2128312,-3.0144875)"
       style="display:inline"><path
         fill="#539e43"
         d="m 13.274969,24.292038 c -0.06634,0 -0.128251,-0.01769 -0.185743,-0.04865 l -0.58822,-0.349391 c -0.08845,-0.04865 -0.04422,-0.06633 -0.01769,-0.07518 0.119407,-0.0398 0.141519,-0.04865 0.265347,-0.119422 0.01329,-0.0088 0.03098,-0.0044 0.04423,0.0044 l 0.451124,0.269787 c 0.01769,0.0088 0.0398,0.0088 0.05307,0 l 1.764643,-1.021621 c 0.01769,-0.0088 0.02654,-0.02654 0.02654,-0.04865 v -2.03885 c 0,-0.02211 -0.0088,-0.0398 -0.02654,-0.04865 l -1.764643,-1.017215 c -0.01769,-0.0088 -0.0398,-0.0088 -0.05307,0 l -1.764642,1.017231 c -0.01769,0.0088 -0.02654,0.03096 -0.02654,0.04865 v 2.038834 c 0,0.01769 0.0088,0.0398 0.02654,0.04865 l 0.48208,0.278615 c 0.260942,0.132673 0.424555,-0.02211 0.424555,-0.176898 v -2.012317 c 0,-0.02654 0.02213,-0.05307 0.05308,-0.05307 h 0.225561 c 0.02654,0 0.05307,0.02211 0.05307,0.05307 v 2.0123 c 0,0.34939 -0.190183,0.552823 -0.521883,0.552823 -0.101717,0 -0.181321,0 -0.406866,-0.110561 l -0.46439,-0.265321 C 11.2096,23.164243 11.13884,23.040418 11.13884,22.907744 v -2.038818 c 0,-0.132673 0.07076,-0.256502 0.185744,-0.322855 l 1.764642,-1.02162 c 0.110561,-0.06191 0.260925,-0.06191 0.371486,0 l 1.764642,1.02162 c 0.114983,0.06633 0.185743,0.190165 0.185743,0.322855 v 2.038835 c 0,0.132673 -0.07076,0.256502 -0.185743,0.322839 l -1.764642,1.021653 c -0.05749,0.02654 -0.123829,0.0398 -0.185743,0.0398 m 0.543978,-1.401984 c -0.773962,0 -0.933171,-0.353796 -0.933171,-0.65454 0,-0.02654 0.02211,-0.05307 0.05307,-0.05307 h 0.229967 c 0.02654,0 0.04867,0.01769 0.04867,0.04422 0.03538,0.23439 0.137096,0.34939 0.605892,0.34939 0.371503,0 0.530728,-0.08403 0.530728,-0.283037 0,-0.115 -0.04423,-0.199027 -0.623599,-0.256535 -0.482064,-0.04865 -0.782807,-0.154786 -0.782807,-0.53954 0,-0.358252 0.300726,-0.57053 0.804919,-0.57053 0.566091,0 0.844722,0.194589 0.880102,0.619161 0,0.01327 -0.0044,0.02654 -0.01327,0.0398 -0.0088,0.0088 -0.02211,0.01769 -0.03538,0.01769 h -0.229972 c -0.02213,0 -0.04423,-0.01769 -0.04866,-0.0398 -0.05307,-0.243234 -0.190166,-0.322838 -0.552824,-0.322838 -0.406865,0 -0.45553,0.141518 -0.45553,0.247657 0,0.128267 0.05749,0.168053 0.605893,0.238812 0.543996,0.07076 0.800497,0.172493 0.800497,0.55284 -0.0044,0.389193 -0.322838,0.610316 -0.884523,0.610316"
         id="js"
         style="display:inline;stroke-width:0.0166885" /><g
         id="o"
         transform="matrix(0.16969944,0,0,0.16969944,-40.607583,7.8817318)"
         clip-path="url(#clipPath40)"><path
           fill="url(#deviconNodejs0)"
           d="m 342.4928,41.705041 a 1.6060208,1.6060208 0 0 0 -1.59676,0 L 327.7145,49.36076 c -0.50138,0.283633 -0.78316,0.818885 -0.78316,1.386417 v 15.342658 c 0,0.567002 0.313,1.102519 0.78263,1.386417 l 13.18154,7.655454 a 1.6060208,1.6060208 0 0 0 1.59703,0 l 13.18154,-7.655719 c 0.50112,-0.283633 0.78264,-0.81915 0.78264,-1.386417 V 50.747177 c 0,-0.567267 -0.313,-1.102519 -0.78264,-1.386417 z"
           id="path1-3"
           style="fill:url(#deviconNodejs0);stroke-width:0.264583" /><path
           fill="url(#deviconNodejs1)"
           d="m 355.70583,49.36076 -13.24398,-7.655719 a 2.1592646,2.1592646 0 0 0 -0.4072,-0.157427 l -14.841,25.550283 a 1.6539104,1.6539104 0 0 0 0.43841,0.378355 l 13.24425,7.655454 c 0.37571,0.220398 0.81386,0.283633 1.22105,0.157427 l 13.93296,-25.64474 a 0.9794875,0.9794875 0 0 0 -0.34449,-0.283633"
           id="path2"
           style="fill:url(#deviconNodejs1);stroke-width:0.264583" /><path
           fill="url(#deviconNodejs2)"
           d="m 355.7061,67.475458 c 0.3757,-0.220398 0.65749,-0.598488 0.78263,-1.008063 l -14.49652,-24.95206 c -0.37571,-0.06297 -0.7829,-0.03148 -1.12712,0.189177 l -13.15032,7.624233 14.18325,26.023094 c 0.18786,-0.03175 0.40746,-0.09472 0.59531,-0.189177 z"
           id="path3"
           style="fill:url(#deviconNodejs2);stroke-width:0.264583" /></g><g
         id="n"><path
           style="fill:#303030;fill-opacity:1;stroke-width:0.0286111"
           d="m 15.214662,16.973963 c 0,-0.07725 -0.04005,-0.145917 -0.105861,-0.183111 L 13.35494,15.78088 c -0.02861,-0.01717 -0.06295,-0.02575 -0.09728,-0.02861 h -0.01717 c -0.03433,0 -0.06581,0.01144 -0.09728,0.02861 l -1.751002,1.009972 c -0.06581,0.03719 -0.10586,0.108722 -0.10586,0.183111 l 0.0029,2.718057 c 0,0.03719 0.02003,0.07153 0.0515,0.09155 0.03148,0.02003 0.07153,0.02003 0.105862,0 l 1.041444,-0.597972 c 0.06581,-0.04005 0.105862,-0.108723 0.105862,-0.183112 v -1.270333 c 0,-0.07439 0.04005,-0.145917 0.105861,-0.183111 l 0.443467,-0.254639 c 0.03433,-0.02003 0.06867,-0.02861 0.105861,-0.02861 0.0372,0 0.07439,0.0086 0.105861,0.02861 l 0.443472,0.254639 c 0.06581,0.03719 0.105862,0.108722 0.105862,0.183111 v 1.270333 c 0,0.07439 0.04005,0.145917 0.105861,0.183112 l 1.041444,0.597972 c 0.03147,0.02003 0.07439,0.02003 0.105862,0 0.03147,-0.01716 0.0515,-0.05436 0.0515,-0.09155 z"
           id="path31" /><path
           style="fill:#303030;fill-opacity:1;stroke-width:0.0286111"
           d="m 12.595486,16.973963 c 0,-0.07725 -0.04005,-0.145917 -0.105862,-0.183111 L 10.735762,15.78088 c -0.02861,-0.01717 -0.06295,-0.02575 -0.09728,-0.02861 h -0.01716 c -0.03433,0 -0.06581,0.01144 -0.09728,0.02861 l -1.7510012,1.009972 c -0.065807,0.03719 -0.1058603,0.108722 -0.1058603,0.183111 l 0.00289,2.718057 c 0,0.03719 0.020026,0.07153 0.051503,0.09155 0.031477,0.02003 0.071528,0.02003 0.105861,0 l 1.0414452,-0.597972 c 0.065807,-0.04005 0.1058609,-0.108723 0.1058609,-0.183112 v -1.270333 c 0,-0.07439 0.040052,-0.145917 0.1058614,-0.183111 l 0.443467,-0.254639 c 0.03433,-0.02003 0.06867,-0.02861 0.105861,-0.02861 0.03719,0 0.07439,0.0086 0.105861,0.02861 l 0.443473,0.254639 c 0.06581,0.03719 0.10586,0.108722 0.10586,0.183111 v 1.270333 c 0,0.07439 0.04006,0.145917 0.105862,0.183112 l 0.44456,0.255255 0.755844,-0.508212 z"
           id="path4"
           sodipodi:nodetypes="ccccsccccsccssccsccsscccc" /></g><path
         style="display:inline;fill:#303030;fill-opacity:1;stroke-width:0.0286111"
         d="m 5.2509761,15.811279 c -0.07725,0 -0.1459167,0.04006 -0.1831109,0.105861 l -1.0099728,1.753862 c -0.017165,0.02861 -0.025748,0.06294 -0.028609,0.09728 v 0.01717 c 0,0.03433 0.011443,0.06581 0.028609,0.09728 l 1.0099728,1.751001 c 0.037191,0.06581 0.1087225,0.105861 0.1831109,0.105861 l 2.7180567,-0.0029 c 0.037191,0 0.071528,-0.02003 0.091556,-0.0515 0.020026,-0.03148 0.020026,-0.07153 0,-0.105862 L 7.462616,18.537887 C 7.4225566,18.47208 7.3538935,18.432025 7.2795043,18.432025 H 6.0091706 c -0.074389,0 -0.145916,-0.04005 -0.183111,-0.10586 L 5.5714211,17.882724 c -0.020026,-0.03433 -0.028609,-0.06867 -0.028609,-0.105861 0,-0.03719 0.00859,-0.07439 0.028609,-0.105861 L 5.8260596,17.22753 c 0.037199,-0.06581 0.1087225,-0.105862 0.183111,-0.105862 h 1.2703337 c 0.074389,0 0.1459174,-0.04005 0.1831117,-0.105861 l 0.5979726,-1.041444 c 0.020026,-0.03147 0.020026,-0.07439 0,-0.105862 -0.017165,-0.03147 -0.054364,-0.0515 -0.091556,-0.0515 z"
         id="e" /><g
         id="d"><path
           style="display:inline;fill:#303030;fill-opacity:1;stroke-width:0.0286112"
           d="m 22.913203,18.605512 c 0,0.07725 0.04006,0.145917 0.105862,0.183112 l 1.753862,1.009972 c 0.02861,0.01716 0.06295,0.02575 0.09728,0.02861 h 0.01716 c 0.03433,0 0.06581,-0.01144 0.09728,-0.02861 l 1.751002,-1.009972 c 0.06581,-0.0372 0.105859,-0.108723 0.105859,-0.183112 l -0.0029,-2.718056 c 0,-0.0372 -0.02003,-0.07153 -0.0515,-0.09156 -0.03147,-0.02003 -0.07153,-0.02003 -0.105861,0 l -1.04143,0.597973 c -0.06581,0.04006 -0.105861,0.108722 -0.105861,0.183111 v 1.270334 c 0,0.07439 -0.04006,0.145916 -0.105863,0.183111 l -0.443466,0.254639 c -0.03433,0.02003 -0.06867,0.02861 -0.105861,0.02861 -0.03719,0 -0.07439,-0.0086 -0.105861,-0.02861 l -0.443452,-0.254639 c -0.06581,-0.0372 -0.105861,-0.108723 -0.105861,-0.183111 z"
           id="path24-9"
           sodipodi:nodetypes="ccccsccccsccssccscccc" /><path
           style="display:inline;fill:#303030;fill-opacity:1;stroke-width:0.0286112"
           d="m 24.226454,17.017595 c 0,-0.07725 -0.04005,-0.145917 -0.105861,-0.183111 l -1.753861,-1.009973 c -0.02861,-0.01717 -0.06295,-0.02575 -0.09728,-0.02861 h -0.01716 c -0.03433,0 -0.06581,0.01144 -0.09728,0.02861 l -1.751,1.009973 c -0.06581,0.03719 -0.105861,0.108722 -0.105861,0.183111 l 0.0029,2.718057 c 0,0.03719 0.02003,0.07153 0.0515,0.09155 0.03148,0.02003 0.07153,0.02003 0.10586,0 l 1.041446,-0.597972 c 0.06581,-0.04006 0.105861,-0.108723 0.105861,-0.183112 V 17.77579 c 0,-0.07439 0.04005,-0.145917 0.105861,-0.183111 l 0.443466,-0.254639 c 0.03433,-0.02003 0.06867,-0.02861 0.105861,-0.02861 0.0372,0 0.07439,0.0086 0.105863,0.02861 l 0.443471,0.254639 c 0.06581,0.03719 0.105862,0.108722 0.105862,0.183111 v 0.83137 c 0,0.07439 0.04005,0.145916 0.105861,0.183111 l 1.041444,0.597972 c 0.03148,0.02003 0.07439,0.02003 0.105863,0 0.03147,-0.01716 0.0515,-0.05436 0.0515,-0.09155 z"
           id="path34"
           sodipodi:nodetypes="ccccsccccsccssccsccssccccc" /><path
           style="fill:#303030;fill-opacity:1;stroke-width:0.0185615"
           d="m 29.814933,15.274413 c 0,0.05012 -0.02599,0.09466 -0.06868,0.118794 l -1.13782,0.655222 c -0.01857,0.01114 -0.04083,0.01671 -0.06311,0.01856 h -0.01113 c -0.02227,0 -0.0427,-0.0074 -0.06311,-0.01856 l -1.135965,-0.655222 c -0.04269,-0.02413 -0.06868,-0.07053 -0.06868,-0.118794 l 0.0018,-1.180831 c 0,-0.02413 0.01299,-0.0464 0.03341,-0.0594 0.02042,-0.01299 0.0464,-0.01299 0.06868,0 l 0.675657,0.387936 c 0.0427,0.02599 0.06868,0.07053 0.06868,0.118794 v 0.241618 c 0,0.04826 0.02599,0.09466 0.06868,0.118794 l 0.2877,0.165197 c 0.02227,0.01299 0.04455,0.01856 0.06867,0.01856 0.02413,0 0.04826,-0.0056 0.06868,-0.01856 l 0.287704,-0.165197 c 0.04269,-0.02413 0.06868,-0.07053 0.06868,-0.118794 v -0.241618 c 0,-0.04826 0.02599,-0.09466 0.06868,-0.118794 l 0.675638,-0.387936 c 0.02041,-0.01299 0.04826,-0.01299 0.06867,0 0.02041,0.01114 0.03342,0.03527 0.03342,0.0594 z"
           id="path37"
           sodipodi:nodetypes="ccccsccccsccssccsccssccccc" /><path
           style="display:inline;fill:#303030;fill-opacity:1;stroke-width:0.0286112"
           d="m 25.886625,18.605512 c 0,0.07725 0.04006,0.145917 0.105861,0.183112 l 1.753863,1.009972 c 0.02861,0.01716 0.06295,0.02575 0.09728,0.02861 h 0.01716 c 0.03434,0 0.06581,-0.01144 0.09728,-0.02861 l 1.751,-1.009972 c 0.06581,-0.0372 0.105861,-0.108723 0.105861,-0.183112 l -0.0029,-2.718056 c 0,-0.0372 -0.02003,-0.07153 -0.0515,-0.09156 -0.03147,-0.02003 -0.07153,-0.02003 -0.10586,0 l -1.041446,0.597973 c -0.06581,0.04006 -0.105861,0.108722 -0.105861,0.183111 v 1.270334 c 0,0.07439 -0.04005,0.145916 -0.105861,0.183111 l -0.443466,0.254639 c -0.03434,0.02003 -0.06867,0.02861 -0.105863,0.02861 -0.03719,0 -0.07439,-0.0086 -0.105859,-0.02861 l -0.443437,-0.254639 c -0.06581,-0.0372 -0.751123,-0.459036 -0.751123,-0.533425 z"
           id="path38"
           sodipodi:nodetypes="ccccsccccsccssccscccc" /></g><path
         sodipodi:type="star"
         style="fill:#3b9f5f;fill-opacity:1;stroke:none;stroke-width:0.733999;stroke-linecap:square;stroke-miterlimit:6.7"
         id="hexagon"
         inkscape:flatsided="true"
         sodipodi:sides="6"
         sodipodi:cx="-180.27112"
         sodipodi:cy="-196.14655"
         sodipodi:r1="18.970642"
         sodipodi:r2="16.429058"
         sodipodi:arg1="0.52359878"
         sodipodi:arg2="1.0471976"
         inkscape:rounded="0"
         inkscape:randomized="0"
         d="m -163.84206,-186.66122 -16.42906,9.48532 -16.42906,-9.48532 0,-18.97065 16.42906,-9.48532 16.42906,9.48532 z"
         transform="matrix(0.02320796,-0.01339912,0.01339912,0.02320796,13.135879,19.900362)" /></g></g></svg>
