<svg xmlns="http://www.w3.org/2000/svg" xmlns:xlink="http://www.w3.org/1999/xlink" width="500" zoomAndPan="magnify" viewBox="0 0 375 374.999991" height="500" preserveAspectRatio="xMidYMid meet" version="1.0"><defs><g/><clipPath id="f70e9502e0"><path d="M 37 146 L 101 146 L 101 210 L 37 210 Z M 37 146 " clip-rule="nonzero"/></clipPath><clipPath id="d73a4f6d07"><path d="M 79.953125 146.777344 C 58.4375 146.777344 59.78125 156.109375 59.78125 156.109375 L 59.804688 165.777344 L 80.335938 165.777344 L 80.335938 168.675781 L 51.644531 168.675781 C 51.644531 168.675781 37.882812 167.113281 37.882812 188.824219 C 37.882812 210.53125 49.898438 209.761719 49.898438 209.761719 L 57.070312 209.761719 L 57.070312 199.6875 C 57.070312 199.6875 56.683594 187.671875 68.894531 187.671875 L 89.257812 187.671875 C 89.257812 187.671875 100.699219 187.859375 100.699219 176.617188 L 100.699219 158.027344 C 100.699219 158.027344 102.433594 146.777344 79.953125 146.777344 Z M 68.628906 153.277344 C 70.671875 153.277344 72.324219 154.929688 72.324219 156.972656 C 72.324219 159.015625 70.671875 160.667969 68.628906 160.667969 C 68.140625 160.667969 67.667969 160.574219 67.214844 160.386719 C 66.761719 160.199219 66.363281 159.933594 66.015625 159.585938 C 65.671875 159.238281 65.402344 158.839844 65.214844 158.386719 C 65.027344 157.933594 64.933594 157.460938 64.9375 156.972656 C 64.9375 154.929688 66.589844 153.277344 68.628906 153.277344 Z M 68.628906 153.277344 " clip-rule="nonzero"/></clipPath><linearGradient x1="16.151647" gradientTransform="matrix(2.648437, 0, 0, 2.648438, -4.492529, 104.403467)" y1="15.848854" x2="40.333824" gradientUnits="userSpaceOnUse" y2="40.112034" id="abe7d05f50"><stop stop-opacity="1" stop-color="rgb(21.998596%, 49.398804%, 72.198486%)" offset="0"/><stop stop-opacity="1" stop-color="rgb(21.995544%, 49.372864%, 72.154236%)" offset="0.125"/><stop stop-opacity="1" stop-color="rgb(21.984863%, 49.249268%, 71.940613%)" offset="0.140625"/><stop stop-opacity="1" stop-color="rgb(21.965027%, 49.053955%, 71.601868%)" offset="0.15625"/><stop stop-opacity="1" stop-color="rgb(21.946716%, 48.858643%, 71.261597%)" offset="0.171875"/><stop stop-opacity="1" stop-color="rgb(21.92688%, 48.661804%, 70.922852%)" offset="0.1875"/><stop stop-opacity="1" stop-color="rgb(21.908569%, 48.466492%, 70.584106%)" offset="0.203125"/><stop stop-opacity="1" stop-color="rgb(21.888733%, 48.271179%, 70.245361%)" offset="0.21875"/><stop stop-opacity="1" stop-color="rgb(21.868896%, 48.074341%, 69.90509%)" offset="0.234375"/><stop stop-opacity="1" stop-color="rgb(21.850586%, 47.879028%, 69.566345%)" offset="0.25"/><stop stop-opacity="1" stop-color="rgb(21.83075%, 47.683716%, 69.2276%)" offset="0.265625"/><stop stop-opacity="1" stop-color="rgb(21.812439%, 47.486877%, 68.888855%)" offset="0.28125"/><stop stop-opacity="1" stop-color="rgb(21.792603%, 47.291565%, 68.55011%)" offset="0.296875"/><stop stop-opacity="1" stop-color="rgb(21.774292%, 47.096252%, 68.209839%)" offset="0.3125"/><stop stop-opacity="1" stop-color="rgb(21.754456%, 46.899414%, 67.871094%)" offset="0.328125"/><stop stop-opacity="1" stop-color="rgb(21.736145%, 46.704102%, 67.532349%)" offset="0.34375"/><stop stop-opacity="1" stop-color="rgb(21.716309%, 46.508789%, 67.193604%)" offset="0.359375"/><stop stop-opacity="1" stop-color="rgb(21.697998%, 46.311951%, 66.853333%)" offset="0.375"/><stop stop-opacity="1" stop-color="rgb(21.678162%, 46.116638%, 66.514587%)" offset="0.390625"/><stop stop-opacity="1" stop-color="rgb(21.659851%, 45.921326%, 66.175842%)" offset="0.40625"/><stop stop-opacity="1" stop-color="rgb(21.640015%, 45.724487%, 65.837097%)" offset="0.421875"/><stop stop-opacity="1" stop-color="rgb(21.621704%, 45.529175%, 65.496826%)" offset="0.4375"/><stop stop-opacity="1" stop-color="rgb(21.601868%, 45.333862%, 65.158081%)" offset="0.453125"/><stop stop-opacity="1" stop-color="rgb(21.583557%, 45.137024%, 64.819336%)" offset="0.46875"/><stop stop-opacity="1" stop-color="rgb(21.563721%, 44.941711%, 64.480591%)" offset="0.484375"/><stop stop-opacity="1" stop-color="rgb(21.54541%, 44.746399%, 64.141846%)" offset="0.497719"/><stop stop-opacity="1" stop-color="rgb(21.536255%, 44.648743%, 63.972473%)" offset="0.5"/><stop stop-opacity="1" stop-color="rgb(21.525574%, 44.549561%, 63.801575%)" offset="0.502281"/><stop stop-opacity="1" stop-color="rgb(21.516418%, 44.451904%, 63.632202%)" offset="0.515625"/><stop stop-opacity="1" stop-color="rgb(21.507263%, 44.354248%, 63.46283%)" offset="0.53125"/><stop stop-opacity="1" stop-color="rgb(21.487427%, 44.158936%, 63.124084%)" offset="0.546875"/><stop stop-opacity="1" stop-color="rgb(21.469116%, 43.962097%, 62.785339%)" offset="0.5625"/><stop stop-opacity="1" stop-color="rgb(21.44928%, 43.766785%, 62.445068%)" offset="0.578125"/><stop stop-opacity="1" stop-color="rgb(21.430969%, 43.571472%, 62.106323%)" offset="0.59375"/><stop stop-opacity="1" stop-color="rgb(21.411133%, 43.374634%, 61.767578%)" offset="0.609375"/><stop stop-opacity="1" stop-color="rgb(21.391296%, 43.179321%, 61.428833%)" offset="0.625"/><stop stop-opacity="1" stop-color="rgb(21.372986%, 42.984009%, 61.090088%)" offset="0.640625"/><stop stop-opacity="1" stop-color="rgb(21.353149%, 42.78717%, 60.749817%)" offset="0.65625"/><stop stop-opacity="1" stop-color="rgb(21.334839%, 42.591858%, 60.411072%)" offset="0.671875"/><stop stop-opacity="1" stop-color="rgb(21.315002%, 42.396545%, 60.072327%)" offset="0.6875"/><stop stop-opacity="1" stop-color="rgb(21.296692%, 42.199707%, 59.733582%)" offset="0.703125"/><stop stop-opacity="1" stop-color="rgb(21.276855%, 42.004395%, 59.393311%)" offset="0.71875"/><stop stop-opacity="1" stop-color="rgb(21.258545%, 41.809082%, 59.054565%)" offset="0.734375"/><stop stop-opacity="1" stop-color="rgb(21.238708%, 41.612244%, 58.71582%)" offset="0.75"/><stop stop-opacity="1" stop-color="rgb(21.220398%, 41.416931%, 58.377075%)" offset="0.765625"/><stop stop-opacity="1" stop-color="rgb(21.205139%, 41.25824%, 58.102417%)" offset="0.78125"/><stop stop-opacity="1" stop-color="rgb(21.199036%, 41.19873%, 57.998657%)" offset="0.8125"/><stop stop-opacity="1" stop-color="rgb(21.199036%, 41.19873%, 57.998657%)" offset="0.875"/><stop stop-opacity="1" stop-color="rgb(21.199036%, 41.19873%, 57.998657%)" offset="1"/></linearGradient><clipPath id="29a0e1a45f"><path d="M 59 168 L 123 168 L 123 232 L 59 232 Z M 59 168 " clip-rule="nonzero"/></clipPath><clipPath id="6497a0dcd0"><path d="M 80.5625 231.085938 C 102.078125 231.085938 100.734375 221.753906 100.734375 221.753906 L 100.707031 212.089844 L 80.179688 212.089844 L 80.179688 209.1875 L 108.867188 209.1875 C 108.867188 209.1875 122.632812 210.75 122.632812 189.042969 C 122.632812 167.332031 110.617188 168.105469 110.617188 168.105469 L 103.445312 168.105469 L 103.445312 178.175781 C 103.445312 178.175781 103.832031 190.191406 91.621094 190.191406 L 71.257812 190.191406 C 71.257812 190.191406 59.816406 190.007812 59.816406 201.25 L 59.816406 219.839844 C 59.816406 219.839844 58.078125 231.085938 80.5625 231.085938 Z M 91.882812 224.585938 C 91.394531 224.585938 90.921875 224.496094 90.46875 224.308594 C 90.015625 224.121094 89.617188 223.851562 89.269531 223.507812 C 88.921875 223.160156 88.65625 222.761719 88.46875 222.308594 C 88.28125 221.855469 88.1875 221.382812 88.191406 220.890625 C 88.191406 218.851562 89.84375 217.199219 91.882812 217.199219 C 93.925781 217.199219 95.578125 218.851562 95.578125 220.890625 C 95.578125 222.9375 93.925781 224.585938 91.882812 224.585938 Z M 91.882812 224.585938 " clip-rule="nonzero"/></clipPath><linearGradient x1="23.54834" gradientTransform="matrix(2.648437, 0, 0, 2.648438, -4.492529, 104.403467)" y1="23.842057" x2="48.282327" gradientUnits="userSpaceOnUse" y2="47.538301" id="dcd7608649"><stop stop-opacity="1" stop-color="rgb(100%, 87.799072%, 32.199097%)" offset="0"/><stop stop-opacity="1" stop-color="rgb(100%, 87.799072%, 32.199097%)" offset="0.125"/><stop stop-opacity="1" stop-color="rgb(100%, 87.799072%, 32.199097%)" offset="0.1875"/><stop stop-opacity="1" stop-color="rgb(100%, 87.748718%, 32.141113%)" offset="0.21875"/><stop stop-opacity="1" stop-color="rgb(100%, 87.57019%, 31.936646%)" offset="0.234375"/><stop stop-opacity="1" stop-color="rgb(100%, 87.313843%, 31.640625%)" offset="0.25"/><stop stop-opacity="1" stop-color="rgb(100%, 87.057495%, 31.344604%)" offset="0.265625"/><stop stop-opacity="1" stop-color="rgb(100%, 86.799622%, 31.05011%)" offset="0.28125"/><stop stop-opacity="1" stop-color="rgb(100%, 86.543274%, 30.754089%)" offset="0.296875"/><stop stop-opacity="1" stop-color="rgb(100%, 86.2854%, 30.458069%)" offset="0.3125"/><stop stop-opacity="1" stop-color="rgb(100%, 86.029053%, 30.162048%)" offset="0.328125"/><stop stop-opacity="1" stop-color="rgb(100%, 85.771179%, 29.867554%)" offset="0.34375"/><stop stop-opacity="1" stop-color="rgb(100%, 85.514832%, 29.571533%)" offset="0.359375"/><stop stop-opacity="1" stop-color="rgb(100%, 85.258484%, 29.275513%)" offset="0.375"/><stop stop-opacity="1" stop-color="rgb(100%, 85.00061%, 28.979492%)" offset="0.390625"/><stop stop-opacity="1" stop-color="rgb(100%, 84.744263%, 28.684998%)" offset="0.40625"/><stop stop-opacity="1" stop-color="rgb(100%, 84.486389%, 28.388977%)" offset="0.421875"/><stop stop-opacity="1" stop-color="rgb(100%, 84.230042%, 28.092957%)" offset="0.4375"/><stop stop-opacity="1" stop-color="rgb(100%, 83.973694%, 27.796936%)" offset="0.453125"/><stop stop-opacity="1" stop-color="rgb(100%, 83.71582%, 27.502441%)" offset="0.46875"/><stop stop-opacity="1" stop-color="rgb(100%, 83.459473%, 27.206421%)" offset="0.484375"/><stop stop-opacity="1" stop-color="rgb(100%, 83.201599%, 26.9104%)" offset="0.486171"/><stop stop-opacity="1" stop-color="rgb(100%, 83.073425%, 26.76239%)" offset="0.5"/><stop stop-opacity="1" stop-color="rgb(100%, 82.945251%, 26.61438%)" offset="0.513829"/><stop stop-opacity="1" stop-color="rgb(100%, 82.817078%, 26.467896%)" offset="0.515625"/><stop stop-opacity="1" stop-color="rgb(100%, 82.688904%, 26.319885%)" offset="0.53125"/><stop stop-opacity="1" stop-color="rgb(100%, 82.43103%, 26.023865%)" offset="0.546875"/><stop stop-opacity="1" stop-color="rgb(100%, 82.174683%, 25.727844%)" offset="0.5625"/><stop stop-opacity="1" stop-color="rgb(100%, 81.916809%, 25.431824%)" offset="0.578125"/><stop stop-opacity="1" stop-color="rgb(100%, 81.660461%, 25.137329%)" offset="0.59375"/><stop stop-opacity="1" stop-color="rgb(100%, 81.402588%, 24.841309%)" offset="0.609375"/><stop stop-opacity="1" stop-color="rgb(100%, 81.14624%, 24.545288%)" offset="0.625"/><stop stop-opacity="1" stop-color="rgb(100%, 80.889893%, 24.249268%)" offset="0.640625"/><stop stop-opacity="1" stop-color="rgb(100%, 80.632019%, 23.954773%)" offset="0.65625"/><stop stop-opacity="1" stop-color="rgb(100%, 80.375671%, 23.658752%)" offset="0.671875"/><stop stop-opacity="1" stop-color="rgb(100%, 80.117798%, 23.362732%)" offset="0.6875"/><stop stop-opacity="1" stop-color="rgb(100%, 79.86145%, 23.066711%)" offset="0.703125"/><stop stop-opacity="1" stop-color="rgb(100%, 79.605103%, 22.772217%)" offset="0.71875"/><stop stop-opacity="1" stop-color="rgb(100%, 79.347229%, 22.476196%)" offset="0.734375"/><stop stop-opacity="1" stop-color="rgb(100%, 79.090881%, 22.180176%)" offset="0.75"/><stop stop-opacity="1" stop-color="rgb(100%, 78.833008%, 21.884155%)" offset="0.765625"/><stop stop-opacity="1" stop-color="rgb(100%, 78.57666%, 21.589661%)" offset="0.78125"/><stop stop-opacity="1" stop-color="rgb(100%, 78.318787%, 21.29364%)" offset="0.796875"/><stop stop-opacity="1" stop-color="rgb(100%, 78.062439%, 20.99762%)" offset="0.8125"/><stop stop-opacity="1" stop-color="rgb(100%, 77.806091%, 20.701599%)" offset="0.828125"/><stop stop-opacity="1" stop-color="rgb(100%, 77.548218%, 20.407104%)" offset="0.84375"/><stop stop-opacity="1" stop-color="rgb(100%, 77.29187%, 20.111084%)" offset="0.859375"/><stop stop-opacity="1" stop-color="rgb(100%, 77.033997%, 19.815063%)" offset="0.875"/><stop stop-opacity="1" stop-color="rgb(100%, 76.777649%, 19.519043%)" offset="0.890625"/><stop stop-opacity="1" stop-color="rgb(100%, 76.574707%, 19.285583%)" offset="0.90625"/><stop stop-opacity="1" stop-color="rgb(100%, 76.499939%, 19.198608%)" offset="0.9375"/><stop stop-opacity="1" stop-color="rgb(100%, 76.499939%, 19.198608%)" offset="1"/></linearGradient></defs><g clip-path="url(#f70e9502e0)"><g clip-path="url(#d73a4f6d07)"><path fill="url(#abe7d05f50)" d="M 37.882812 146.777344 L 37.882812 210.53125 L 102.433594 210.53125 L 102.433594 146.777344 Z M 37.882812 146.777344 " fill-rule="nonzero"/></g></g><g clip-path="url(#29a0e1a45f)"><g clip-path="url(#6497a0dcd0)"><path fill="url(#dcd7608649)" d="M 58.078125 167.332031 L 58.078125 231.085938 L 122.632812 231.085938 L 122.632812 167.332031 Z M 58.078125 167.332031 " fill-rule="nonzero"/></g></g><g fill="#808080" fill-opacity="1"><g transform="translate(129.906396, 200.420337)"><g><path d="M 30.78125 0 L 2.828125 0 L 2.828125 -12.421875 C 2.828125 -15.472656 3.296875 -17.972656 4.234375 -19.921875 C 5.179688 -21.867188 6.660156 -23.414062 8.671875 -24.5625 C 10.691406 -25.71875 13.285156 -26.296875 16.453125 -26.296875 C 19.367188 -26.296875 21.890625 -25.820312 24.015625 -24.875 C 26.140625 -23.9375 27.796875 -22.492188 28.984375 -20.546875 C 30.179688 -18.609375 30.78125 -15.875 30.78125 -12.34375 Z M 6.84375 -3.140625 L 7.0625 -3.140625 C 10.519531 -5.742188 13.191406 -8.390625 15.078125 -11.078125 C 16.972656 -13.773438 17.921875 -16.289062 17.921875 -18.625 C 17.921875 -20 17.609375 -21.066406 16.984375 -21.828125 C 16.359375 -22.585938 15.453125 -22.96875 14.265625 -22.96875 C 12.148438 -22.96875 10.382812 -22.039062 8.96875 -20.1875 C 7.550781 -18.332031 6.84375 -15.441406 6.84375 -11.515625 Z M 26.78125 -11.515625 C 26.78125 -15.265625 26.207031 -17.945312 25.0625 -19.5625 C 23.914062 -21.175781 22.34375 -22.238281 20.34375 -22.75 C 20.914062 -22.039062 21.316406 -21.328125 21.546875 -20.609375 C 21.785156 -19.890625 21.90625 -19.085938 21.90625 -18.203125 C 21.90625 -15.847656 21.171875 -13.460938 19.703125 -11.046875 C 18.234375 -8.628906 15.914062 -5.988281 12.75 -3.125 C 14.09375 -3.21875 15.421875 -3.265625 16.734375 -3.265625 L 26.78125 -3.265625 Z M 26.78125 -11.515625 "/></g></g></g><g fill="#808080" fill-opacity="1"><g transform="translate(163.521786, 200.420337)"><g><path d="M 6.953125 -10.28125 L 6.953125 -3.265625 L 32.53125 -3.265625 L 32.53125 -25.671875 L 36.53125 -25.671875 L 36.53125 0 L 2.9375 0 L 2.9375 -14.515625 C 2.9375 -17.421875 3.378906 -19.691406 4.265625 -21.328125 C 5.160156 -22.972656 6.4375 -24.210938 8.09375 -25.046875 C 9.75 -25.878906 11.757812 -26.296875 14.125 -26.296875 C 17.832031 -26.296875 20.613281 -25.34375 22.46875 -23.4375 C 24.332031 -21.539062 25.265625 -18.703125 25.265625 -14.921875 L 25.265625 -10.28125 Z M 6.953125 -13.53125 L 21.25 -13.53125 L 21.25 -14.828125 C 21.25 -17.722656 20.6875 -19.816406 19.5625 -21.109375 C 18.4375 -22.398438 16.609375 -23.046875 14.078125 -23.046875 C 11.578125 -23.046875 9.765625 -22.394531 8.640625 -21.09375 C 7.515625 -19.800781 6.953125 -17.734375 6.953125 -14.890625 Z M 6.953125 -13.53125 "/></g></g></g><g fill="#808080" fill-opacity="1"><g transform="translate(203.33961, 200.420337)"><g><path d="M 21.078125 -22.15625 C 22.097656 -23.601562 23.242188 -24.65625 24.515625 -25.3125 C 25.796875 -25.96875 27.359375 -26.296875 29.203125 -26.296875 C 31.429688 -26.296875 33.394531 -25.753906 35.09375 -24.671875 C 36.789062 -23.597656 38.097656 -22.082031 39.015625 -20.125 C 39.941406 -18.164062 40.40625 -15.96875 40.40625 -13.53125 C 40.40625 -11.644531 40.132812 -9.878906 39.59375 -8.234375 C 39.0625 -6.585938 38.117188 -4.929688 36.765625 -3.265625 L 48.0625 -3.265625 L 48.0625 -25.671875 L 52.109375 -25.671875 L 52.109375 0 L 32.90625 0 L 31.234375 -2.515625 C 33.242188 -4.429688 34.59375 -6.234375 35.28125 -7.921875 C 35.976562 -9.609375 36.328125 -11.476562 36.328125 -13.53125 C 36.328125 -16.28125 35.65625 -18.539062 34.3125 -20.3125 C 32.96875 -22.082031 31.25 -22.96875 29.15625 -22.96875 C 27.945312 -22.96875 26.945312 -22.757812 26.15625 -22.34375 C 25.375 -21.9375 24.742188 -21.335938 24.265625 -20.546875 C 23.785156 -19.765625 23.472656 -18.859375 23.328125 -17.828125 C 23.179688 -16.796875 23.109375 -15.359375 23.109375 -13.515625 L 23.109375 0 L 19.109375 0 L 19.109375 -13.515625 C 19.109375 -15.265625 19.039062 -16.632812 18.90625 -17.625 C 18.769531 -18.625 18.476562 -19.523438 18.03125 -20.328125 C 17.582031 -21.128906 16.953125 -21.765625 16.140625 -22.234375 C 15.335938 -22.710938 14.347656 -22.953125 13.171875 -22.953125 C 11.078125 -22.953125 9.335938 -22.054688 7.953125 -20.265625 C 6.578125 -18.484375 5.890625 -16.234375 5.890625 -13.515625 C 5.890625 -8.773438 7.738281 -5.113281 11.4375 -2.53125 L 8.78125 0.390625 C 6.332031 -1.546875 4.554688 -3.625 3.453125 -5.84375 C 2.359375 -8.070312 1.8125 -10.628906 1.8125 -13.515625 C 1.8125 -16.015625 2.289062 -18.242188 3.25 -20.203125 C 4.21875 -22.160156 5.578125 -23.664062 7.328125 -24.71875 C 9.078125 -25.769531 11.085938 -26.296875 13.359375 -26.296875 C 15.054688 -26.296875 16.539062 -25.957031 17.8125 -25.28125 C 19.082031 -24.613281 20.171875 -23.570312 21.078125 -22.15625 Z M 21.078125 -22.15625 "/></g></g></g><g fill="#808080" fill-opacity="1"><g transform="translate(258.731432, 200.420337)"><g><path d="M 0.765625 -7.859375 L 4.796875 -8.609375 C 5.773438 -4.679688 7.738281 -2.71875 10.6875 -2.71875 C 12.882812 -2.71875 14.550781 -3.582031 15.6875 -5.3125 C 16.820312 -7.050781 17.390625 -9.570312 17.390625 -12.875 C 17.390625 -16.132812 16.832031 -18.644531 15.71875 -20.40625 C 14.613281 -22.164062 13.007812 -23.046875 10.90625 -23.046875 C 9.445312 -23.046875 8.203125 -22.515625 7.171875 -21.453125 C 6.148438 -20.398438 5.421875 -18.96875 4.984375 -17.15625 L 0.96875 -17.921875 C 1.769531 -20.671875 3.035156 -22.753906 4.765625 -24.171875 C 6.503906 -25.585938 8.632812 -26.296875 11.15625 -26.296875 C 14.488281 -26.296875 17.035156 -25.109375 18.796875 -22.734375 C 20.566406 -20.359375 21.453125 -17.085938 21.453125 -12.921875 C 21.453125 -8.566406 20.539062 -5.234375 18.71875 -2.921875 C 16.894531 -0.609375 14.222656 0.546875 10.703125 0.546875 C 8.148438 0.546875 6.007812 -0.195312 4.28125 -1.6875 C 2.5625 -3.175781 1.390625 -5.234375 0.765625 -7.859375 Z M 0.765625 -7.859375 "/></g></g></g><g fill="#808080" fill-opacity="1"><g transform="translate(282.115067, 200.420337)"><g><path d="M 21.078125 -22.15625 C 22.097656 -23.601562 23.242188 -24.65625 24.515625 -25.3125 C 25.796875 -25.96875 27.359375 -26.296875 29.203125 -26.296875 C 31.429688 -26.296875 33.394531 -25.753906 35.09375 -24.671875 C 36.789062 -23.597656 38.097656 -22.082031 39.015625 -20.125 C 39.941406 -18.164062 40.40625 -15.96875 40.40625 -13.53125 C 40.40625 -11.644531 40.132812 -9.878906 39.59375 -8.234375 C 39.0625 -6.585938 38.117188 -4.929688 36.765625 -3.265625 L 48.0625 -3.265625 L 48.0625 -25.671875 L 52.109375 -25.671875 L 52.109375 0 L 32.90625 0 L 31.234375 -2.515625 C 33.242188 -4.429688 34.59375 -6.234375 35.28125 -7.921875 C 35.976562 -9.609375 36.328125 -11.476562 36.328125 -13.53125 C 36.328125 -16.28125 35.65625 -18.539062 34.3125 -20.3125 C 32.96875 -22.082031 31.25 -22.96875 29.15625 -22.96875 C 27.945312 -22.96875 26.945312 -22.757812 26.15625 -22.34375 C 25.375 -21.9375 24.742188 -21.335938 24.265625 -20.546875 C 23.785156 -19.765625 23.472656 -18.859375 23.328125 -17.828125 C 23.179688 -16.796875 23.109375 -15.359375 23.109375 -13.515625 L 23.109375 0 L 19.109375 0 L 19.109375 -13.515625 C 19.109375 -15.265625 19.039062 -16.632812 18.90625 -17.625 C 18.769531 -18.625 18.476562 -19.523438 18.03125 -20.328125 C 17.582031 -21.128906 16.953125 -21.765625 16.140625 -22.234375 C 15.335938 -22.710938 14.347656 -22.953125 13.171875 -22.953125 C 11.078125 -22.953125 9.335938 -22.054688 7.953125 -20.265625 C 6.578125 -18.484375 5.890625 -16.234375 5.890625 -13.515625 C 5.890625 -8.773438 7.738281 -5.113281 11.4375 -2.53125 L 8.78125 0.390625 C 6.332031 -1.546875 4.554688 -3.625 3.453125 -5.84375 C 2.359375 -8.070312 1.8125 -10.628906 1.8125 -13.515625 C 1.8125 -16.015625 2.289062 -18.242188 3.25 -20.203125 C 4.21875 -22.160156 5.578125 -23.664062 7.328125 -24.71875 C 9.078125 -25.769531 11.085938 -26.296875 13.359375 -26.296875 C 15.054688 -26.296875 16.539062 -25.957031 17.8125 -25.28125 C 19.082031 -24.613281 20.171875 -23.570312 21.078125 -22.15625 Z M 21.078125 -22.15625 "/></g></g></g><g fill="#808080" fill-opacity="1"><g transform="translate(337.506889, 200.420337)"><g><path d="M -13.078125 -37.921875 L -9.640625 -37.28125 C -9.828125 -36.601562 -9.921875 -35.847656 -9.921875 -35.015625 C -9.921875 -33.535156 -9.507812 -32.421875 -8.6875 -31.671875 C -7.875 -30.929688 -6.691406 -30.5625 -5.140625 -30.5625 C -3.585938 -30.5625 -2.398438 -30.929688 -1.578125 -31.671875 C -0.765625 -32.421875 -0.359375 -33.535156 -0.359375 -35.015625 C -0.359375 -35.847656 -0.453125 -36.601562 -0.640625 -37.28125 L 2.8125 -37.921875 C 3.113281 -36.847656 3.265625 -35.828125 3.265625 -34.859375 C 3.265625 -32.566406 2.515625 -30.75 1.015625 -29.40625 C -0.472656 -28.070312 -2.523438 -27.40625 -5.140625 -27.40625 C -7.742188 -27.40625 -9.789062 -28.070312 -11.28125 -29.40625 C -12.78125 -30.75 -13.53125 -32.566406 -13.53125 -34.859375 C -13.53125 -35.929688 -13.378906 -36.953125 -13.078125 -37.921875 Z M -5.4375 -39.09375 Z M -4.734375 -25.671875 Z M -4.734375 -25.671875 "/></g></g></g><g fill="#808080" fill-opacity="1"><g transform="translate(343.184698, 167.481328)"><g><path d="M 6.546875 -7.296875 L 6.546875 -14.390625 L 8.453125 -14.390625 L 10.34375 -8.921875 L 12.296875 -14.390625 L 14.125 -14.390625 L 14.125 -7.296875 L 12.84375 -7.296875 L 12.84375 -11.40625 C 12.84375 -11.507812 12.847656 -11.71875 12.859375 -12.03125 C 12.867188 -12.351562 12.882812 -12.597656 12.90625 -12.765625 L 12.8125 -12.765625 L 10.78125 -7.296875 L 9.71875 -7.296875 L 7.78125 -12.765625 L 7.703125 -12.765625 C 7.710938 -12.546875 7.722656 -12.300781 7.734375 -12.03125 C 7.753906 -11.757812 7.765625 -11.585938 7.765625 -11.515625 L 7.765625 -7.296875 Z M 2.375 -7.296875 L 2.375 -13.296875 L 0.34375 -13.296875 L 0.34375 -14.390625 L 5.703125 -14.390625 L 5.703125 -13.296875 L 3.640625 -13.296875 L 3.640625 -7.296875 Z M 2.375 -7.296875 "/></g></g></g></svg>