<?xml version="1.0" encoding="UTF-8" standalone="no"?>
<!-- Created with Inkscape (http://www.inkscape.org/) -->

<svg
   width="2000"
   height="2000"
   viewBox="0 0 33.866667 33.866667"
   version="1.1"
   id="svg1"
   inkscape:version="1.3.2 (091e20ef0f, 2023-11-25, custom)"
   sodipodi:docname="rust.svg"
   inkscape:export-filename="rust.png"
   inkscape:export-xdpi="96"
   inkscape:export-ydpi="96"
   xmlns:inkscape="http://www.inkscape.org/namespaces/inkscape"
   xmlns:sodipodi="http://sodipodi.sourceforge.net/DTD/sodipodi-0.dtd"
   xmlns="http://www.w3.org/2000/svg"
   xmlns:svg="http://www.w3.org/2000/svg">
  <sodipodi:namedview
     id="namedview1"
     pagecolor="#505050"
     bordercolor="#ffffff"
     borderopacity="1"
     inkscape:showpageshadow="0"
     inkscape:pageopacity="0"
     inkscape:pagecheckerboard="1"
     inkscape:deskcolor="#524b4b"
     inkscape:document-units="mm"
     inkscape:zoom="0.26769507"
     inkscape:cx="808.75602"
     inkscape:cy="1421.3934"
     inkscape:window-width="1920"
     inkscape:window-height="1048"
     inkscape:window-x="0"
     inkscape:window-y="32"
     inkscape:window-maximized="1"
     inkscape:current-layer="layer1"
     showguides="true">
    <sodipodi:guide
       position="10.845364,7.3526785"
       orientation="0,-1"
       id="guide1"
       inkscape:locked="false" />
    <sodipodi:guide
       position="9.1207459,4.3077512"
       orientation="0,-1"
       id="guide2"
       inkscape:locked="false" />
    <sodipodi:guide
       position="14.659464,6.3445634"
       orientation="0,-1"
       id="guide3"
       inkscape:locked="false" />
    <sodipodi:guide
       position="22.83539,5.7438228"
       orientation="1,0"
       id="guide4"
       inkscape:locked="false" />
    <sodipodi:guide
       position="24.637496,9.1665128"
       orientation="0,-1"
       id="guide5"
       inkscape:locked="false" />
  </sodipodi:namedview>
  <defs
     id="defs1">
    <inkscape:path-effect
       effect="simplify"
       id="path-effect10"
       is_visible="true"
       lpeversion="1.3"
       threshold="10.8696"
       steps="1"
       smooth_angles="360"
       helper_size="0"
       simplify_individual_paths="false"
       simplify_just_coalesce="false" />
    <inkscape:path-effect
       effect="skeletal"
       id="path-effect9"
       is_visible="true"
       lpeversion="1"
       pattern="M 0,4.9921384 C 0,2.236478 2.236478,0 4.9921384,0 c 2.7556604,0 4.9921384,2.236478 4.9921384,4.9921384 0,2.7556604 -2.236478,4.9921384 -4.9921384,4.9921384 C 2.236478,9.9842768 0,7.7477988 0,4.9921384 Z"
       copytype="single_stretched"
       prop_scale="5.5"
       scale_y_rel="false"
       spacing="0"
       normal_offset="0"
       tang_offset="0"
       prop_units="false"
       vertical_pattern="false"
       hide_knot="false"
       fuse_tolerance="0" />
    <inkscape:path-effect
       effect="simplify"
       id="path-effect8"
       is_visible="true"
       lpeversion="1.3"
       threshold="10.8696"
       steps="1"
       smooth_angles="360"
       helper_size="0"
       simplify_individual_paths="false"
       simplify_just_coalesce="false" />
    <inkscape:path-effect
       effect="skeletal"
       id="path-effect7"
       is_visible="true"
       lpeversion="1"
       pattern="M 0,4.9921384 C 0,2.236478 2.236478,0 4.9921384,0 c 2.7556604,0 4.9921384,2.236478 4.9921384,4.9921384 0,2.7556604 -2.236478,4.9921384 -4.9921384,4.9921384 C 2.236478,9.9842768 0,7.7477988 0,4.9921384 Z"
       copytype="single_stretched"
       prop_scale="5.5"
       scale_y_rel="false"
       spacing="0"
       normal_offset="0"
       tang_offset="0"
       prop_units="false"
       vertical_pattern="false"
       hide_knot="false"
       fuse_tolerance="0" />
    <inkscape:path-effect
       effect="simplify"
       id="path-effect6"
       is_visible="true"
       lpeversion="1.3"
       threshold="0.00108696"
       steps="1"
       smooth_angles="360"
       helper_size="0"
       simplify_individual_paths="false"
       simplify_just_coalesce="false" />
    <inkscape:path-effect
       effect="bspline"
       id="path-effect4"
       is_visible="true"
       lpeversion="1.3"
       weight="33.333333"
       steps="2"
       helper_size="0"
       apply_no_weight="true"
       apply_with_weight="true"
       only_selected="false"
       uniform="false" />
    <inkscape:path-effect
       effect="bspline"
       id="path-effect3"
       is_visible="true"
       lpeversion="1.3"
       weight="33.333333"
       steps="2"
       helper_size="0"
       apply_no_weight="true"
       apply_with_weight="true"
       only_selected="false"
       uniform="false" />
    <inkscape:path-effect
       effect="bspline"
       id="path-effect2"
       is_visible="true"
       lpeversion="1.3"
       weight="33.333333"
       steps="2"
       helper_size="0"
       apply_no_weight="true"
       apply_with_weight="true"
       only_selected="false"
       uniform="false" />
  </defs>
  <g
     inkscape:label="Layer 1"
     inkscape:groupmode="layer"
     id="layer1">
    <path
       id="path24"
       style="color:#000000;fill:#000000;stroke-linecap:square;stroke-miterlimit:6.7;-inkscape-stroke:none;stroke:#ffffff;stroke-opacity:1"
       d="m 24.308594,25.542969 v 0.367187 1.121094 h 1.845703 l 0.933594,-0.539063 v -0.582031 -0.367187 h -0.734375 v 0.367187 0.158203 l -0.394532,0.228516 h -0.916015 v -0.386719 -0.367187 z m -5.857422,1.611328 v 3.050781 h 1.613281 0.367188 v -0.734375 h -0.367188 -0.878906 v -1.582031 h 1.201172 l 0.6875,0.818359 0.121093,0.144531 v 0.986329 0.367187 h 0.734375 v -0.367187 -1.949219 h 1.806641 l -0.01367,0.728515 -0.845703,0.652344 v 0.935547 h 3.304688 v -2.683594 -0.367187 h -0.734375 v 0.367187 1.949219 h -1.628907 l 0.632813,-0.488281 0.03125,-1.828125 h -3.28711 v 0.554687 l -0.466796,-0.554687 z m -2.751953,0 -0.138672,0.105469 -0.121094,-0.09961 h -1.546875 l -0.822265,0.941406 v 2.101563 h 0.96875 0.367187 V 29.46875 h -0.367187 -0.236329 v -1.091797 l 0.423829,-0.482422 h 0.490234 l -0.208984,0.158203 v 2.150391 l 2.033203,-0.0039 v -2.132813 l -0.212891,-0.175781 1.123047,0.002 v 0.316406 l -0.544922,0.439453 0.521484,0.542969 v 0.152344 l -0.115234,0.125 h -0.308594 -0.367187 v 0.734375 h 0.367187 0.626953 l 0.53125,-0.570313 V 28.894584 L 17.990234,28.71685 18.185547,28.5606 v -0.699219 -0.701172 z m -0.158203,1.039062 0.265625,0.21875 v 1.054688 l -0.564453,0.002 V 28.418016 Z M 8.640625,27.154297 7.8671875,27.980469 v 2.226562 L 9,30.203125 l 0.3671875,-0.002 -0.00195,-0.734375 -0.3671875,0.002 -0.3984375,0.002 v -1.201172 l 0.359375,-0.380859 h 0.8320312 l -0.3164062,0.277344 v 1.611328 l 0.4355469,0.419922 h 0.9199216 l 0.525391,-0.390625 V 28.1895 l -0.310547,-0.300781 h 0.607422 l 0.490234,0.58789 v 1.556641 l -0.375,0.216797 c -1.222169,0.02318 -3.5332029,0.0078 -3.5332029,0.0078 l -0.3730469,-0.002 0.00781,1.003907 L 8.375,31.818359 h 4.154297 0.367187 V 31.083984 H 12.529297 8.7011719 l -0.085937,-0.0918 c 0.4234067,0.0027 2.1697841,0.01598 3.2617191,-0.0078 l 0.09375,-0.002 0.904297,-0.527344 v -2.244141 l -0.876953,-1.05664 h -1.371094 l -0.179687,0.158203 -0.16211,-0.158203 z m 1.783203,1.15625 L 10.621094,28.5 v 0.9375 l -0.03516,0.02734 h -0.37695 V 28.5 Z m 2.191888,-20.9079453 -1.8619,1.9824933 v 5.353791 l 2.727254,-0.0093 0.88258,-0.0026 -0.0066,-1.763835 -0.881256,0.0026 -0.956791,0.0026 V 10.0834 l 0.860052,-0.9170363 h 2.005021 L 14.62204,9.8356585 v 3.8735475 l 1.04823,1.008474 h 2.210427 l 1.260261,-0.942214 V 9.8873439 L 18.394872,9.1664374 h 1.463017 l 1.176774,1.4139836 v 3.741028 l -0.898483,0.522127 c -2.937367,0.05587 -8.498481,0.0212 -8.498481,0.0212 l -0.894507,-0.0066 0.0159,2.411856 1.21918,1.343749 h 12.619863 0.882581 V 16.849923 H 24.598137 12.758838 l -0.20143,-0.223958 c 1.020785,0.0066 5.214285,0.03863 7.838534,-0.01855 l 0.227933,-0.0053 2.174646,-1.266887 V 9.943002 L 20.686159,7.4026017 H 17.393048 L 16.962359,7.7802825 16.571426,7.4026017 Z m 4.288334,2.7762853 0.473095,0.457193 v 2.255483 l -0.08216,0.06229 h -0.907759 v -2.320418 z m 0.144624,-8.4112915 c -0.108751,0 -0.217336,0.052531 -0.282254,0.1574305 l -0.610437,0.9859567 c -0.09037,0.00768 -0.17766,0.015405 -0.265774,0.024894 L 15.099551,2.0898196 C 14.931256,1.9098845 14.632419,1.9695794 14.545914,2.2002664 l -0.406725,1.0844823 c -0.0854,0.024853 -0.171105,0.048623 -0.255605,0.075735 L 12.942507,2.6827261 c -0.20028,-0.1437388 -0.481757,-0.02663 -0.521379,0.216686 l -0.187584,1.1479454 c -0.07817,0.040668 -0.155896,0.080944 -0.233166,0.12342 l -1.057133,-0.480356 c -0.225491,-0.102705 -0.479976,0.068706 -0.469487,0.3162636 l 0.04137,1.1665285 c -0.06733,0.053772 -0.135341,0.1079126 -0.199506,0.1630405 L 9.178901,5.066273 C 8.9388661,5.0102591 8.7235256,5.2259502 8.7795393,5.4659853 L 9.0474167,6.6027107 C 8.9918371,6.6682315 8.9377975,6.7353396 8.8840255,6.8022162 L 7.7178477,6.7608424 C 7.6029979,6.7573821 7.4943519,6.8129241 7.4299848,6.9081048 7.3661976,7.0037964 7.3562654,7.1257185 7.4040382,7.2303289 L 7.8857966,8.2881638 C 7.8433221,8.3649814 7.8030455,8.4431561 7.762377,8.5213293 L 6.614081,8.708563 C 6.3707639,8.7481806 6.254006,9.0296626 6.3977455,9.2299416 l 0.6777576,0.9407264 c -0.026661,0.0845 -0.050882,0.170553 -0.075735,0.255956 L 5.9152858,10.832998 C 5.6845995,10.919508 5.6249046,11.21834 5.804839,11.386635 l 0.8460574,0.791009 c -0.00949,0.08811 -0.017208,0.176405 -0.024894,0.265423 l -0.98771,0.610087 c -0.209798,0.129833 -0.209798,0.435022 0,0.564857 l 0.9859569,0.610438 c 0.00768,0.09037 0.015407,0.177308 0.024894,0.265422 L 5.8030859,15.28453 c -0.1799343,0.168293 -0.1202393,0.467131 0.1104468,0.553637 l 1.0844823,0.406724 c 0.024851,0.0854 0.048623,0.170756 0.075735,0.255255 l -0.6777576,0.941077 c -0.1437387,0.20028 -0.026981,0.481757 0.2163355,0.521379 l 1.1486466,0.187584 c 0.040668,0.07772 0.080944,0.156098 0.1234199,0.232464 l -0.4803559,1.058536 c -0.047774,0.104611 -0.037841,0.226533 0.025946,0.322224 0.062577,0.09718 0.1724386,0.153347 0.2878629,0.147263 l 1.1668791,-0.04102 c 0.053321,0.06688 0.1075623,0.133132 0.16269,0.198804 l -0.2678774,1.137076 c -0.056012,0.240033 0.1593275,0.455375 0.3993616,0.399361 l 1.1370763,-0.267878 c 0.06567,0.05513 0.131977,0.109418 0.199155,0.163041 l -0.04137,1.166528 c -0.0087,0.246576 0.24492,0.416363 0.469486,0.31416 l 1.058536,-0.48246 c 0.07637,0.04247 0.154743,0.0824 0.232465,0.12307 l 0.187585,1.148997 c 0.03941,0.24351 0.321322,0.360305 0.521378,0.215985 l 0.941077,-0.678109 c 0.08405,0.02711 0.169852,0.05123 0.255255,0.07609 l 0.406725,1.084482 c 0.0869,0.230217 0.385154,0.289444 0.553636,0.110096 l 0.790659,-0.845706 c 0.08812,0.0095 0.177205,0.01721 0.265773,0.02489 l 0.610437,0.985957 c 0.129834,0.209799 0.435024,0.209799 0.564856,0 l 0.610438,-0.985957 c 0.09037,-0.0077 0.177661,-0.01532 0.265773,-0.02525 l 0.79066,0.846057 c 0.168483,0.179349 0.466732,0.120121 0.553636,-0.110096 l 0.406724,-1.084482 c 0.0854,-0.02485 0.170755,-0.04897 0.255256,-0.07609 l 0.940726,0.678109 c 0.200055,0.144319 0.482316,0.02753 0.521729,-0.215985 l 0.187234,-1.148647 c 0.07772,-0.04067 0.155998,-0.08095 0.232814,-0.12342 l 1.058186,0.48246 c 0.224567,0.102203 0.478224,-0.06758 0.469487,-0.31416 l -0.04102,-1.166528 c 0.06687,-0.05392 0.133132,-0.108214 0.198805,-0.163041 l 1.136374,0.267877 c 0.240033,0.05601 0.455724,-0.159328 0.399713,-0.399361 L 25.04993,20.068454 c 0.05513,-0.06537 0.109769,-0.131626 0.163391,-0.198804 l 1.166528,0.04102 c 0.115224,0.0052 0.224646,-0.05079 0.287864,-0.147262 0.06394,-0.09561 0.07394,-0.217538 0.0263,-0.322224 L 26.211201,18.383 c 0.04247,-0.07682 0.08275,-0.155095 0.12342,-0.232814 l 1.148647,-0.187585 c 0.243315,-0.03962 0.360425,-0.321099 0.216686,-0.521379 l -0.678108,-0.941076 c 0.02666,-0.0845 0.05133,-0.169853 0.07573,-0.255256 l 1.084483,-0.406724 c 0.230687,-0.0865 0.290031,-0.385343 0.110096,-0.553637 L 27.446452,14.49387 c 0.0095,-0.08811 0.01686,-0.176858 0.02454,-0.265422 l 0.986307,-0.610438 c 0.209799,-0.129834 0.209799,-0.435023 0,-0.564856 h 0.0021 l -0.985958,-0.610438 c -0.0077,-0.09038 -0.01542,-0.177661 -0.02489,-0.265774 l 0.846057,-0.790659 c 0.179934,-0.168295 0.120239,-0.467131 -0.110446,-0.553636 L 27.09968,10.425922 c -0.02441,-0.08495 -0.04873,-0.170857 -0.07539,-0.254904 l 0.677758,-0.9410771 c 0.14374,-0.200279 0.02698,-0.4817569 -0.216336,-0.5213786 L 26.337073,8.5209786 c -0.04067,-0.078173 -0.08094,-0.1559972 -0.12342,-0.2328148 l 0.48246,-1.0581854 C 26.798316,7.0054125 26.628881,6.7517567 26.382304,6.7604918 l -1.166879,0.041023 c -0.05392,-0.066876 -0.108214,-0.1331326 -0.16304,-0.198804 L 25.318158,5.4659853 C 25.374171,5.2259508 25.15848,5.0102601 24.918446,5.066273 L 23.78172,5.334501 C 23.716347,5.2793729 23.650093,5.2247315 23.582916,5.1711099 l 0.04102,-1.1665285 C 23.634427,3.7570261 23.379943,3.5856158 23.154452,3.6883178 l -1.058185,0.484914 C 22.01945,4.1307561 21.941173,4.0900281 21.863452,4.0498119 L 21.675868,2.9011652 c -0.03962,-0.2433165 -0.3211,-0.3604248 -0.521379,-0.216686 L 20.21201,3.3611849 C 20.127962,3.3345248 20.042507,3.3098509 19.957106,3.28545 L 19.550381,2.2009677 C 19.463875,1.970282 19.165039,1.9109379 18.996744,2.0908715 L 18.206086,2.936929 C 18.117976,2.927439 18.02933,2.919717 17.940312,2.912035 L 17.331277,1.925026 C 17.26636,1.820127 17.157423,1.7675955 17.048674,1.7675955 Z m -0.03541,2.0336235 h 0.02033 c 0.609024,0.016793 0.897714,0.7578717 0.460721,1.1823066 -0.436993,0.4244349 -1.1696,0.114172 -1.168632,-0.4950821 7.46e-4,-0.3792709 0.308305,-0.6864785 0.687575,-0.6872245 z m -1.536438,1.1325179 1.06064,1.1114804 c 0.238609,0.2511221 0.63569,0.2601463 0.885328,0.019986 l 1.186861,-1.1297131 c 2.446521,0.4582789 4.567538,1.969105 5.800386,4.1314113 l -0.813099,1.8330665 c -0.13751,0.317249 0.0049,0.686383 0.320121,0.828526 l 1.563084,0.692483 c 0.04872,0.488673 0.05492,0.9808 0.01823,1.470521 -0.07797,0.662274 -0.156019,1.324529 -0.427061,2.057466 -0.271043,0.732937 -0.735027,1.536484 -1.199137,2.340069 -0.239387,0.320748 -0.501331,0.624073 -0.783646,0.907768 l -1.452288,-0.311004 c -0.3394,-0.07287 -0.673607,0.143409 -0.74648,0.48281 L 20.5444,20.980429 c -2.247653,1.018187 -4.827526,1.005759 -7.06544,-0.03366 l -0.345013,-1.61112 c -0.07203,-0.338716 -0.405353,-0.555048 -0.744026,-0.48281 l -1.423887,0.305394 C 10.701945,18.88568 10.456658,18.595923 10.231475,18.290437 L 8.899453,15.582911 C 8.6004287,14.532509 8.5069868,13.434188 8.6245632,12.348398 c 0,0 1.0334183,-0.259387 1.3916298,-0.619203 0.194234,-0.195104 0.316119,-0.481256 0.332376,-0.75608 0.03461,-0.585141 -0.5129493,-1.6820168 -0.5129493,-1.6820168 0,0 1.4152053,-2.1124708 2.3757163,-2.8720092 1.022603,-0.8086395 3.265489,-1.4853521 3.265489,-1.4853521 z M 8.8040831,10.029717 h 0.020687 c 0.6085762,0.01718 0.8971186,0.757534 0.460721,1.181956 -0.4363977,0.424423 -1.1683901,0.115489 -1.1686323,-0.493329 l -0.00105,3.51e-4 c -2.497e-4,-0.38033 0.3079472,-0.688728 0.6882761,-0.688978 z m 16.4162509,0.03085 h 0.01999 c 0.918196,0.01325 0.898213,1.390507 -0.01999,1.377254 -0.918196,0 -0.918196,-1.377254 0,-1.377254 z M 11.916579,19.72449 h 0.02034 c 0.371728,0.01219 0.666738,0.317401 0.666538,0.689328 h 0.0021 c -4.04e-4,0.613343 -0.741999,0.919963 -1.175645,0.486317 -0.433647,-0.433647 -0.126676,-1.175243 0.486667,-1.175645 z m 10.193012,0.0312 h 0.01999 c 0.372647,0.01052 0.669035,0.315832 0.668641,0.688627 h 0.0024 c -3e-6,0.613017 -0.740819,0.920424 -1.174943,0.48772 -0.434125,-0.432706 -0.12915,-1.174335 0.483862,-1.176347 z" />
    <g
       id="g5"
       transform="translate(0.40867878,0.64111533)">
      <path
         style="fill:none;stroke:#000000;stroke-width:0.734;stroke-linecap:square;stroke-miterlimit:6.7;stroke-dasharray:none;stroke-opacity:1"
         d="m 8.5907203,29.194536 -0.766064,0.0025 v -1.71316 l 0.5660671,-0.603024 h 1.3379278 l 0.8506358,0.822217 v 1.277865 l -0.279335,0.208822 H 9.6501842 L 9.4334973,28.980934 V 27.691773 L 10.35713,26.880868 h 1.059269 l 0.683778,0.822201 V 29.6023 l -0.640498,0.373309 c -1.207151,0.0263 -3.6373477,0.0089 -3.6373477,0.0089 l 0.00329,0.490772 0.303514,0.334614 h 3.9914197"
         id="path11-3"
         sodipodi:nodetypes="cccccccccccccccccccc" />
      <path
         style="fill:none;stroke:#000000;stroke-width:0.734;stroke-linecap:square;stroke-miterlimit:6.7;stroke-dasharray:none;stroke-opacity:1"
         d="m 13.630548,29.194351 h -0.602585 v 0 -1.596137 l 0.622493,-0.712399 h 1.247971 l 0.86616,0.712399 v 1.59365 l -1.297721,0.0025 v -1.600578 l 0.945441,-0.712496 1.997588,0.0046 v 0.335079 0.52299 l -0.369957,0.298104 0.345809,0.35971 v 0.445872 l -0.3228,0.346768 h -0.467484"
         id="path2"
         sodipodi:nodetypes="ccccccccccccccccccc" />
      <path
         id="path4"
         style="fill:none;stroke:#000000;stroke-width:0.733999;stroke-linecap:square;stroke-miterlimit:6.7;stroke-dasharray:none;stroke-opacity:1"
         d="m 21.153572,29.19711 v -2.316122 0 h 2.546278 l -0.02126,1.277922 -0.843195,0.649527 -4.94e-4,0.388673 h 2.571108 v -2.316122 m -5.749443,2.316122 h -1.246277 v -2.316122 h 1.737905 l 0.798469,0.94875"
         sodipodi:nodetypes="cccccccccccccc" />
      <path
         style="fill:none;stroke:#000000;stroke-width:0.733999;stroke-linecap:square;stroke-miterlimit:6.7;stroke-dasharray:none;stroke-opacity:1"
         d="m 24.266785,25.268384 v 0.753845 h 1.380967 l 0.663876,-0.383289 v -0.370556"
         id="path5"
         sodipodi:nodetypes="ccccc" />
    </g>
    <g
       id="g1"
       transform="matrix(0.67850029,0,0,0.67850029,5.4808618,1.7665436)">
      <path
         id="path1"
         style="stroke-width:0.0665979"
         d="m 17.049089,0.00155029 c -0.160281,0 -0.320318,0.07742296 -0.415996,0.23202718 L 15.733407,1.6867187 c -0.133197,0.011322 -0.261842,0.022705 -0.391708,0.03669 L 14.176396,0.47645671 C 13.928357,0.21126139 13.48792,0.29924204 13.360425,0.63923747 L 12.760978,2.2375895 c -0.125869,0.036629 -0.252181,0.071663 -0.376721,0.1116211 L 10.997262,1.3503052 C 10.702081,1.1384574 10.287229,1.3110563 10.228833,1.6696655 L 9.9523641,3.3615519 C 9.8371485,3.42149 9.722599,3.4808505 9.6087158,3.543453 L 8.0506714,2.8354858 C 7.7183338,2.6841151 7.3432648,2.9367478 7.358724,3.3016073 L 7.419702,5.0208822 C 7.3204727,5.1001336 7.2202316,5.1799279 7.1256632,5.2611776 L 5.4503133,4.863269 C 5.0965406,4.7807135 4.7791635,5.0986074 4.8617187,5.4523804 l 0.394808,1.6753499 C 5.1746113,7.2242974 5.0949657,7.323204 5.0157145,7.4217692 L 3.2969564,7.360791 c -0.16927,-0.0051 -0.3293967,0.07676 -0.4242635,0.217041 -0.094012,0.1410339 -0.1086505,0.3207275 -0.038241,0.4749064 l 0.7100342,1.559078 C 3.4818854,9.7250331 3.4225242,9.8402501 3.3625854,9.9554647 L 1.6701823,10.231417 c -0.3586102,0.05839 -0.5306925,0.473249 -0.3188436,0.768428 l 0.9989054,1.386479 c -0.039294,0.124538 -0.074992,0.251367 -0.1116211,0.377238 l -1.598352,0.59893 c -0.33999436,0.127495 -0.42797497,0.567932 -0.16278077,0.815971 l 1.24695227,1.16582 c -0.013983,0.129867 -0.025362,0.259992 -0.03669,0.391191 l -1.45572512,0.89917 c -0.30920846,0.191353 -0.30920846,0.641152 0,0.832507 l 1.45314132,0.899687 c 0.011322,0.133194 0.022707,0.261324 0.03669,0.39119 l -1.24695229,1.165304 c -0.26519424,0.248037 -0.1772134,0.688476 0.16278076,0.815971 l 1.59835203,0.599446 c 0.036626,0.125871 0.071663,0.251667 0.1116211,0.376205 l -0.9989054,1.386995 c -0.2118477,0.295181 -0.039766,0.710033 0.3188436,0.768429 l 1.6929199,0.276469 c 0.059938,0.114547 0.1192989,0.230063 0.181901,0.342614 l -0.7079671,1.560112 c -0.070411,0.154179 -0.055771,0.333872 0.038241,0.474906 0.092228,0.143228 0.2541466,0.226008 0.4242635,0.217041 l 1.7197916,-0.06046 c 0.078586,0.09857 0.1585294,0.196216 0.2397787,0.293005 l -0.394808,1.675867 c -0.082553,0.353771 0.234823,0.671149 0.5885946,0.588594 L 7.12618,28.843717 c 0.096789,0.08125 0.1945128,0.161265 0.2935221,0.240296 l -0.060978,1.719275 c -0.012877,0.363412 0.3609721,0.613651 0.6919474,0.463021 L 9.610783,30.555241 c 0.1125512,0.0626 0.2280655,0.121444 0.3426147,0.181384 l 0.2764693,1.693437 c 0.05809,0.358895 0.473577,0.531032 0.768428,0.318327 l 1.386996,-0.999423 c 0.12387,0.03996 0.250334,0.07551 0.376204,0.112138 l 0.599447,1.598352 c 0.12808,0.339303 0.567655,0.426594 0.81597,0.162264 l 1.165304,-1.246435 c 0.129867,0.01399 0.261174,0.02536 0.391707,0.03669 l 0.899687,1.453141 c 0.191354,0.309211 0.641155,0.309211 0.832507,0 l 0.899687,-1.453141 c 0.133196,-0.01133 0.261843,-0.02258 0.391707,-0.03721 l 1.165304,1.246952 c 0.248317,0.264331 0.687889,0.177039 0.815971,-0.162264 l 0.599446,-1.598352 c 0.12587,-0.03663 0.251665,-0.07217 0.376205,-0.112138 l 1.386479,0.999423 c 0.294849,0.212703 0.710856,0.04057 0.768945,-0.318327 l 0.275952,-1.69292 c 0.11455,-0.05994 0.229916,-0.119301 0.343131,-0.181901 l 1.559595,0.711068 c 0.330976,0.15063 0.704825,-0.09961 0.691948,-0.463021 l -0.06046,-1.719275 c 0.09856,-0.07947 0.196215,-0.159489 0.293006,-0.240296 l 1.674833,0.394808 c 0.35377,0.08255 0.671664,-0.234824 0.589111,-0.588594 L 28.84165,26.974064 c 0.08125,-0.09635 0.161782,-0.193996 0.240813,-0.293005 l 1.719274,0.06046 c 0.169821,0.0076 0.331092,-0.07486 0.424264,-0.217041 0.09423,-0.140917 0.108971,-0.320615 0.03876,-0.474906 l -0.711584,-1.559595 c 0.0626,-0.113218 0.121961,-0.228585 0.181901,-0.343131 l 1.69292,-0.276469 c 0.358608,-0.0584 0.531208,-0.473249 0.31936,-0.768429 l -0.999422,-1.386995 c 0.03929,-0.124538 0.07565,-0.250335 0.111621,-0.376205 l 1.598352,-0.599446 c 0.339996,-0.127495 0.427459,-0.567933 0.162264,-0.815971 l -1.246435,-1.165304 c 0.01399,-0.129866 0.02485,-0.26066 0.03617,-0.39119 l 1.453658,-0.899687 c 0.309209,-0.191355 0.309209,-0.641154 0,-0.832507 h 0.0031 l -1.453142,-0.899687 c -0.01133,-0.133198 -0.02272,-0.261843 -0.03669,-0.391707 l 1.246952,-1.165304 c 0.265193,-0.24804 0.177213,-0.688477 -0.16278,-0.815971 l -1.598352,-0.599447 c -0.03597,-0.125202 -0.07182,-0.251815 -0.111105,-0.375687 l 0.998906,-1.386996 c 0.211849,-0.295179 0.03977,-0.710032 -0.318844,-0.768428 L 30.738692,9.9549479 C 30.678752,9.8397332 30.619393,9.7250331 30.556791,9.6118164 L 31.267859,8.0522217 C 31.41849,7.7212478 31.168769,7.3474001 30.805355,7.3602743 l -1.719792,0.060461 C 29.00609,7.3221703 28.926073,7.2245194 28.845268,7.1277303 L 29.236975,5.4523804 C 29.31953,5.0986083 29.001635,4.780715 28.647864,4.863269 l -1.67535,0.3953247 C 26.876164,5.1773439 26.778517,5.0968112 26.679508,5.0177816 L 26.73997,3.2985067 C 26.755428,2.9336502 26.380359,2.6810191 26.048022,2.8323853 l -1.559594,0.714685 C 24.375211,3.484468 24.259844,3.4244414 24.145296,3.3651693 l -0.276469,-1.69292 C 23.810431,1.31364 23.395578,1.1410412 23.100399,1.352889 L 21.711336,2.3502441 C 21.587463,2.3109514 21.461517,2.2745861 21.335649,2.238623 L 20.736202,0.640271 C 20.608707,0.30027757 20.16827,0.21281392 19.920231,0.478007 L 18.754928,1.7249593 C 18.625062,1.7109744 18.494419,1.699591 18.36322,1.688269 L 17.465601,0.23357747 C 17.369923,0.07897325 17.209368,0.00155029 17.049089,0.00155029 Z m -0.05219,2.99723311 h 0.02997 c 0.897602,0.02475 1.323085,1.1169806 0.679028,1.7425293 -0.644057,0.6255485 -1.723802,0.1682711 -1.722375,-0.7296713 0.0011,-0.5589841 0.454391,-1.0117585 1.013374,-1.012858 z M 14.732438,4.6679321 16.29565,6.306075 c 0.351671,0.3701134 0.936904,0.3834137 1.30483,0.029456 l 1.749243,-1.665015 c 3.605777,0.6754292 6.731814,2.9021433 8.548833,6.089034 l -1.198377,2.701644 c -0.202667,0.467575 0.0072,1.011618 0.471806,1.221114 l 2.303735,1.020609 c 0.0718,0.720224 0.08094,1.445541 0.02687,2.16731 -0.114909,0.976085 -0.229946,1.952142 -0.629419,3.032373 -0.399473,1.080232 -1.083311,2.26453 -1.767334,3.448885 -0.352818,0.47273 -0.738881,0.919783 -1.154968,1.337903 l -2.140438,-0.45837 C 23.31021,25.12362 22.817643,25.44238 22.71024,25.942603 l -0.509013,2.375565 c -3.312677,1.500643 -7.114994,1.482327 -10.413318,-0.04961 L 11.279415,25.894027 C 11.173259,25.394813 10.68199,25.075975 10.182841,25.182442 L 8.0842611,25.632544 C 7.6950358,25.230844 7.3335225,24.803789 7.0016398,24.353552 L 5.0384521,20.363098 C 4.5977385,18.814974 4.4600202,17.196226 4.6333089,15.595947 c 0,0 1.5230918,-0.382295 2.0510376,-0.912606 0.2862691,-0.287551 0.465908,-0.709294 0.4898688,-1.114339 0.051016,-0.862404 -0.7560045,-2.479022 -0.7560045,-2.479022 0,0 2.0857847,-3.1134413 3.5014221,-4.2328785 C 11.426786,5.6652974 14.732438,4.6679321 14.732438,4.6679321 Z M 4.8978923,12.178585 h 0.030489 c 0.8969431,0.02532 1.3222081,1.116483 0.6790284,1.742012 C 4.9642299,14.546128 3.8853911,14.09081 3.8850342,13.19351 l -0.00155,5.17e-4 c -3.68e-4,-0.560545 0.4538646,-1.015074 1.0144081,-1.015442 z m 24.1949057,0.04547 h 0.02946 c 1.353273,0.01953 1.323821,2.049383 -0.02946,2.02985 -1.353273,0 -1.353273,-2.02985 0,-2.02985 z M 9.4852091,26.467118 h 0.029972 c 0.5478669,0.01797 0.9826649,0.467798 0.9823689,1.015959 h 0.0031 C 10.500055,28.387045 9.4070636,28.838954 8.7679389,28.199829 8.128814,27.560704 8.5812393,26.467711 9.4852077,26.467118 Z m 15.0228559,0.04599 h 0.02946 c 0.549222,0.01551 0.98605,0.465486 0.98547,1.014925 h 0.0036 c -5e-6,0.903488 -1.091848,1.356556 -1.731677,0.71882 -0.63983,-0.637738 -0.190346,-1.73078 0.713135,-1.733745 z"
         sodipodi:nodetypes="sccccccccccccccccccccccccccccccccccccccccccccccccccccccccccccccccccccccccccccccccccccccccccccccccccccccccccccccccccccccccccccccccccccsccscccccccccccsccccccccccccaaccscsscccsccsccccscccccscssc" />
      <path
         style="opacity:1;fill:none;stroke:#000000;stroke-width:2.6;stroke-linecap:square;stroke-miterlimit:6.7;stroke-dasharray:none;stroke-opacity:1"
         d="m 11.787005,17.805347 -2.7145843,0.0089 V 11.743599 L 11.078307,9.6067536 h 4.74101 l 3.014267,2.9135114 v 4.528173 l -0.989835,0.739971 h -2.302483 l -0.76784,-0.739971 v -4.568203 l 3.272937,-2.8734814 h 3.753571 l 2.422999,2.9135114 v 6.730014 l -2.269637,1.322837 c -4.277594,0.09321 -12.8891135,0.03161 -12.8891135,0.03161 l 0.011591,1.739071 1.0755165,1.185723 h 18.024882"
         id="path11"
         sodipodi:nodetypes="cccccccccccccccccccc" />
    </g>
  </g>
</svg>
