<?xml version="1.0" encoding="UTF-8" standalone="no"?>
<!-- Created with Inkscape (http://www.inkscape.org/) -->

<svg
   width="2000"
   height="2000"
   viewBox="0 0 529.16667 529.16667"
   version="1.1"
   id="svg1"
   inkscape:version="1.3.2 (091e20ef0f, 2023-11-25, custom)"
   sodipodi:docname="vim.svg"
   inkscape:export-filename="rust.png"
   inkscape:export-xdpi="1500"
   inkscape:export-ydpi="1500"
   xml:space="preserve"
   xmlns:inkscape="http://www.inkscape.org/namespaces/inkscape"
   xmlns:sodipodi="http://sodipodi.sourceforge.net/DTD/sodipodi-0.dtd"
   xmlns="http://www.w3.org/2000/svg"
   xmlns:svg="http://www.w3.org/2000/svg"><sodipodi:namedview
     id="namedview1"
     pagecolor="#505050"
     bordercolor="#ffffff"
     borderopacity="1"
     inkscape:showpageshadow="0"
     inkscape:pageopacity="0"
     inkscape:pagecheckerboard="1"
     inkscape:deskcolor="#524b4b"
     inkscape:document-units="mm"
     inkscape:zoom="0.12875646"
     inkscape:cx="3025.0909"
     inkscape:cy="539.77874"
     inkscape:window-width="1920"
     inkscape:window-height="1080"
     inkscape:window-x="0"
     inkscape:window-y="0"
     inkscape:window-maximized="1"
     inkscape:current-layer="layer1"
     showguides="true"><inkscape:page
       x="0"
       y="0"
       width="529.16669"
       height="529.16669"
       id="page51"
       margin="10"
       bleed="0" /></sodipodi:namedview><defs
     id="defs1"><inkscape:path-effect
       effect="knot"
       id="path-effect38"
       is_visible="true"
       lpeversion="1"
       switcher_size="15.5"
       interruption_width="3"
       prop_to_stroke_width="true"
       add_stroke_width="inkscape_1.0_and_up"
       both="false"
       inverse_width="false"
       add_other_stroke_width="inkscape_1.0_and_up"
       crossing_points_vector="" /><inkscape:path-effect
       effect="fillet_chamfer"
       id="path-effect37"
       is_visible="true"
       lpeversion="1"
       nodesatellites_param="IC,0,0,1,0,0,0,1 @ IC,0,0,1,0,0,0,1 @ IC,0,0,1,0,0,0,1 @ IC,0,0,1,0,0,0,1 @ IC,0,0,1,0,0,0,1 @ IC,0,0,1,0,0,0,1 @ IC,0,0,1,0,0,0,1 @ IC,0,0,1,0,0,0,1 @ IC,0,0,1,0,0,0,1 @ IC,0,0,1,0,0,0,1 @ IC,0,0,1,0,0,0,1 @ IC,0,0,1,0,0,0,1 @ IC,0,0,1,0,0,0,1 @ IC,0,0,1,0,0,0,1 @ IC,0,0,1,0,0,0,1 @ IC,0,0,1,0,0,0,1 @ IC,0,0,1,0,0,0,1 @ IC,0,0,1,0,0,0,1 @ IC,0,0,1,0,0,0,1 @ IC,0,0,1,0,0,0,1 @ IC,0,0,1,0,0,0,1 @ IC,0,0,1,0,0,0,1 @ IC,0,0,1,0,0,0,1 @ IC,0,0,1,0,0,0,1 @ IC,0,0,1,0,0,0,1 @ IC,0,0,1,0,0,0,1 @ IC,0,0,1,0,0,0,1 @ IC,0,0,1,0,0,0,1 @ IC,0,0,1,0,0,0,1 @ IC,0,0,1,0,0,0,1"
       radius="0"
       unit="px"
       method="auto"
       mode="F"
       chamfer_steps="1"
       flexible="false"
       use_knot_distance="true"
       apply_no_radius="true"
       apply_with_radius="true"
       only_selected="false"
       hide_knots="false" /><inkscape:path-effect
       effect="simplify"
       id="path-effect35"
       is_visible="true"
       lpeversion="1.3"
       threshold="10.8696"
       steps="1"
       smooth_angles="360"
       helper_size="0"
       simplify_individual_paths="false"
       simplify_just_coalesce="false" /><inkscape:path-effect
       effect="bspline"
       id="path-effect34"
       is_visible="true"
       lpeversion="1.3"
       weight="33.333333"
       steps="2"
       helper_size="0"
       apply_no_weight="true"
       apply_with_weight="true"
       only_selected="false"
       uniform="false" /><inkscape:path-effect
       effect="bspline"
       id="path-effect49"
       is_visible="true"
       lpeversion="1.3"
       weight="33.333333"
       steps="2"
       helper_size="0"
       apply_no_weight="true"
       apply_with_weight="true"
       only_selected="false"
       uniform="false" /><inkscape:path-effect
       effect="fillet_chamfer"
       id="path-effect47"
       is_visible="true"
       lpeversion="1"
       nodesatellites_param="F,0,0,1,0,0,0,1 @ F,0,0,1,0,0,0,1 @ F,0,0,1,0,0,0,1 @ F,0,0,1,0,0,0,1 @ F,0,0,1,0,0,0,1 @ F,0,0,1,0,0,0,1 @ F,0,0,1,0,0,0,1 @ F,0,0,1,0,0,0,1 @ F,0,0,1,0,4.5479841,0,1 @ F,0,0,1,0,0,0,1 @ F,0,0,1,0,0,0,1 @ F,0,0,1,0,0,0,1 @ F,0,0,1,0,0,0,1 @ F,0,0,1,0,0,0,1 @ F,0,0,1,0,0,0,1 @ F,0,0,1,0,0,0,1 @ F,0,0,1,0,0,0,1 @ F,0,0,1,0,0,0,1 @ F,0,0,1,0,0,0,1 @ F,0,0,1,0,0,0,1 @ F,0,0,1,0,0,0,1 @ F,0,0,1,0,0,0,1 @ F,0,0,1,0,0,0,1 @ F,0,0,1,0,5.0359575,0,1 @ F,0,0,1,0,4.8081598,0,1 @ F,0,0,1,0,0,0,1 @ F,0,0,1,0,0,0,1"
       radius="0"
       unit="px"
       method="auto"
       mode="F"
       chamfer_steps="1"
       flexible="false"
       use_knot_distance="true"
       apply_no_radius="true"
       apply_with_radius="true"
       only_selected="false"
       hide_knots="false" /><inkscape:path-effect
       effect="fillet_chamfer"
       id="path-effect45"
       is_visible="true"
       lpeversion="1"
       nodesatellites_param="F,0,0,1,0,0,0,1 @ F,0,0,1,0,0,0,1 @ F,0,0,1,0,0,0,1 @ F,0,0,1,0,0,0,1 @ F,0,0,1,0,0,0,1 @ F,0,0,1,0,0,0,1 @ F,0,0,1,0,0,0,1 @ F,0,0,1,0,5.5407252,0,1 @ F,0,0,1,0,0,0,1 @ F,0,0,1,0,0,0,1 @ F,0,0,1,0,5.8754091,0,1 @ F,0,0,1,0,0,0,1 @ F,0,0,1,0,0,0,1 @ F,0,0,1,0,0,0,1 @ F,0,0,1,0,0,0,1 @ F,0,0,1,0,0,0,1 @ F,0,0,1,0,0,0,1 @ F,0,0,1,0,0,0,1 @ F,0,0,1,0,0,0,1"
       radius="0"
       unit="px"
       method="auto"
       mode="F"
       chamfer_steps="1"
       flexible="false"
       use_knot_distance="true"
       apply_no_radius="true"
       apply_with_radius="true"
       only_selected="false"
       hide_knots="false" /><inkscape:path-effect
       effect="fillet_chamfer"
       id="path-effect43"
       is_visible="true"
       lpeversion="1"
       nodesatellites_param="F,0,0,1,0,0,0,1 @ F,0,0,1,0,0,0,1 @ F,0,0,1,0,0,0,1 @ F,0,0,1,0,8.0447013,0,1 @ F,0,0,1,0,8.9124635,0,1 @ F,0,0,1,0,8.9124635,0,1 @ F,0,0,1,0,8.0447013,0,1 @ F,0,1,1,0,3.4974762,0,1 @ F,0,0,1,0,0,0,1 @ F,0,0,1,0,3.4974762,0,1 @ F,0,1,1,0,3.4974762,0,1 @ F,0,0,1,0,0,0,1 @ F,0,0,1,0,0,0,1 @ F,0,0,1,0,0,0,1 @ F,0,0,1,0,0,0,1"
       radius="0"
       unit="px"
       method="auto"
       mode="F"
       chamfer_steps="1"
       flexible="false"
       use_knot_distance="true"
       apply_no_radius="true"
       apply_with_radius="true"
       only_selected="false"
       hide_knots="false" /><inkscape:path-effect
       effect="fillet_chamfer"
       id="path-effect41"
       is_visible="true"
       lpeversion="1"
       nodesatellites_param="F,0,0,1,0,0,0,1 @ F,0,0,1,0,0,0,1 @ F,0,0,1,0,0,0,1 @ F,0,0,1,0,0,0,1 @ F,0,0,1,0,0,0,1 @ F,0,0,1,0,0,0,1 @ F,0,0,1,0,0,0,1 @ F,0,0,1,0,4.4744365,0,1 @ F,0,0,1,0,0,0,1 @ F,0,0,1,0,0,0,1 @ F,0,1,1,0,4.4744365,0,1 @ F,0,1,1,0,4.4744365,0,1 @ F,0,0,1,0,0,0,1 @ F,0,0,1,0,0,0,1 @ F,0,0,1,0,0,0,1 @ F,0,0,1,0,0,0,1 @ F,0,0,1,0,0,0,1 @ F,0,0,1,0,0,0,1 @ F,0,0,1,0,0,0,1"
       radius="0"
       unit="px"
       method="auto"
       mode="F"
       chamfer_steps="1"
       flexible="false"
       use_knot_distance="true"
       apply_no_radius="true"
       apply_with_radius="true"
       only_selected="false"
       hide_knots="false" /><inkscape:path-effect
       effect="simplify"
       id="path-effect39"
       is_visible="true"
       lpeversion="1.3"
       threshold="10.8696"
       steps="1"
       smooth_angles="360"
       helper_size="0"
       simplify_individual_paths="false"
       simplify_just_coalesce="false" /><inkscape:path-effect
       effect="fillet_chamfer"
       id="path-effect32"
       is_visible="true"
       lpeversion="1"
       nodesatellites_param="F,0,0,1,0,0,0,1 @ F,0,0,1,0,0,0,1 @ F,0,0,1,0,0,0,1 @ F,0,0,1,0,0,0,1 @ F,0,0,1,0,0,0,1 @ F,0,0,1,0,0,0,1 @ F,0,0,1,0,0,0,1 @ F,0,0,1,0,5.5407252,0,1 @ F,0,0,1,0,0,0,1 @ F,0,0,1,0,0,0,1 @ F,0,0,1,0,5.8754091,0,1 @ F,0,0,1,0,0,0,1 @ F,0,0,1,0,0,0,1 @ F,0,0,1,0,0,0,1 @ F,0,0,1,0,0,0,1 @ F,0,0,1,0,0,0,1 @ F,0,0,1,0,0,0,1 @ F,0,0,1,0,0,0,1 @ F,0,0,1,0,0,0,1"
       radius="0"
       unit="px"
       method="auto"
       mode="F"
       chamfer_steps="1"
       flexible="false"
       use_knot_distance="true"
       apply_no_radius="true"
       apply_with_radius="true"
       only_selected="false"
       hide_knots="false" /><inkscape:path-effect
       effect="fillet_chamfer"
       id="path-effect31"
       is_visible="true"
       lpeversion="1"
       nodesatellites_param="F,0,0,1,0,0,0,1 @ F,0,0,1,0,0,0,1 @ F,0,0,1,0,0,0,1 @ F,0,0,1,0,0,0,1 @ F,0,0,1,0,0,0,1 @ F,0,0,1,0,0,0,1 @ F,0,0,1,0,0,0,1 @ F,0,0,1,0,0,0,1 @ F,0,0,1,0,4.5479841,0,1 @ F,0,0,1,0,0,0,1 @ F,0,0,1,0,0,0,1 @ F,0,0,1,0,0,0,1 @ F,0,0,1,0,0,0,1 @ F,0,0,1,0,0,0,1 @ F,0,0,1,0,0,0,1 @ F,0,0,1,0,0,0,1 @ F,0,0,1,0,0,0,1 @ F,0,0,1,0,0,0,1 @ F,0,0,1,0,0,0,1 @ F,0,0,1,0,0,0,1 @ F,0,0,1,0,0,0,1 @ F,0,0,1,0,0,0,1 @ F,0,0,1,0,0,0,1 @ F,0,0,1,0,5.0359575,0,1 @ F,0,0,1,0,4.8081598,0,1 @ F,0,0,1,0,0,0,1 @ F,0,0,1,0,0,0,1"
       radius="0"
       unit="px"
       method="auto"
       mode="F"
       chamfer_steps="1"
       flexible="false"
       use_knot_distance="true"
       apply_no_radius="true"
       apply_with_radius="true"
       only_selected="false"
       hide_knots="false" /><inkscape:path-effect
       effect="fillet_chamfer"
       id="path-effect30"
       is_visible="true"
       lpeversion="1"
       nodesatellites_param="F,0,0,1,0,0,0,1 @ F,0,0,1,0,0,0,1 @ F,0,0,1,0,0,0,1 @ F,0,0,1,0,0,0,1 @ F,0,0,1,0,0,0,1 @ F,0,0,1,0,0,0,1 @ F,0,0,1,0,0,0,1 @ F,0,0,1,0,4.4744365,0,1 @ F,0,0,1,0,0,0,1 @ F,0,0,1,0,0,0,1 @ F,0,1,1,0,4.4744365,0,1 @ F,0,1,1,0,4.4744365,0,1 @ F,0,0,1,0,0,0,1 @ F,0,0,1,0,0,0,1 @ F,0,0,1,0,0,0,1 @ F,0,0,1,0,0,0,1 @ F,0,0,1,0,0,0,1 @ F,0,0,1,0,0,0,1 @ F,0,0,1,0,0,0,1"
       radius="0"
       unit="px"
       method="auto"
       mode="F"
       chamfer_steps="1"
       flexible="false"
       use_knot_distance="true"
       apply_no_radius="true"
       apply_with_radius="true"
       only_selected="false"
       hide_knots="false" /><inkscape:path-effect
       effect="fillet_chamfer"
       id="path-effect29"
       is_visible="true"
       lpeversion="1"
       nodesatellites_param="F,0,0,1,0,0,0,1 @ F,0,0,1,0,0,0,1 @ F,0,0,1,0,0,0,1 @ F,0,0,1,0,8.0447013,0,1 @ F,0,0,1,0,8.9124635,0,1 @ F,0,0,1,0,8.9124635,0,1 @ F,0,0,1,0,8.0447013,0,1 @ F,0,1,1,0,3.4974762,0,1 @ F,0,0,1,0,0,0,1 @ F,0,0,1,0,3.4974762,0,1 @ F,0,1,1,0,3.4974762,0,1 @ F,0,0,1,0,0,0,1 @ F,0,0,1,0,0,0,1 @ F,0,0,1,0,0,0,1 @ F,0,0,1,0,0,0,1"
       radius="0"
       unit="px"
       method="auto"
       mode="F"
       chamfer_steps="1"
       flexible="false"
       use_knot_distance="true"
       apply_no_radius="true"
       apply_with_radius="true"
       only_selected="false"
       hide_knots="false" /><inkscape:path-effect
       effect="bspline"
       id="path-effect28"
       is_visible="true"
       lpeversion="1.3"
       weight="33.333333"
       steps="2"
       helper_size="0"
       apply_no_weight="true"
       apply_with_weight="true"
       only_selected="false"
       uniform="false" /><inkscape:path-effect
       effect="bspline"
       id="path-effect27"
       is_visible="true"
       lpeversion="1.3"
       weight="33.333333"
       steps="2"
       helper_size="0"
       apply_no_weight="true"
       apply_with_weight="true"
       only_selected="false"
       uniform="false" /><inkscape:path-effect
       effect="bspline"
       id="path-effect24"
       is_visible="true"
       lpeversion="1.3"
       weight="33.333333"
       steps="2"
       helper_size="0"
       apply_no_weight="true"
       apply_with_weight="true"
       only_selected="false"
       uniform="false" /><inkscape:path-effect
       effect="simplify"
       id="path-effect23"
       is_visible="true"
       lpeversion="1.3"
       threshold="10.8696"
       steps="1"
       smooth_angles="360"
       helper_size="0"
       simplify_individual_paths="false"
       simplify_just_coalesce="false" /><inkscape:path-effect
       effect="simplify"
       id="path-effect10"
       is_visible="true"
       lpeversion="1.3"
       threshold="10.8696"
       steps="1"
       smooth_angles="360"
       helper_size="0"
       simplify_individual_paths="false"
       simplify_just_coalesce="false" /><inkscape:path-effect
       effect="skeletal"
       id="path-effect9"
       is_visible="true"
       lpeversion="1"
       pattern="M 0,4.9921384 C 0,2.236478 2.236478,0 4.9921384,0 c 2.7556604,0 4.9921384,2.236478 4.9921384,4.9921384 0,2.7556604 -2.236478,4.9921384 -4.9921384,4.9921384 C 2.236478,9.9842768 0,7.7477988 0,4.9921384 Z"
       copytype="single_stretched"
       prop_scale="5.5"
       scale_y_rel="false"
       spacing="0"
       normal_offset="0"
       tang_offset="0"
       prop_units="false"
       vertical_pattern="false"
       hide_knot="false"
       fuse_tolerance="0" /><inkscape:path-effect
       effect="simplify"
       id="path-effect8"
       is_visible="true"
       lpeversion="1.3"
       threshold="10.8696"
       steps="1"
       smooth_angles="360"
       helper_size="0"
       simplify_individual_paths="false"
       simplify_just_coalesce="false" /><inkscape:path-effect
       effect="skeletal"
       id="path-effect7"
       is_visible="true"
       lpeversion="1"
       pattern="M 0,4.9921384 C 0,2.236478 2.236478,0 4.9921384,0 c 2.7556604,0 4.9921384,2.236478 4.9921384,4.9921384 0,2.7556604 -2.236478,4.9921384 -4.9921384,4.9921384 C 2.236478,9.9842768 0,7.7477988 0,4.9921384 Z"
       copytype="single_stretched"
       prop_scale="5.5"
       scale_y_rel="false"
       spacing="0"
       normal_offset="0"
       tang_offset="0"
       prop_units="false"
       vertical_pattern="false"
       hide_knot="false"
       fuse_tolerance="0" /><inkscape:path-effect
       effect="simplify"
       id="path-effect6"
       is_visible="true"
       lpeversion="1.3"
       threshold="0.00108696"
       steps="1"
       smooth_angles="360"
       helper_size="0"
       simplify_individual_paths="false"
       simplify_just_coalesce="false" /><inkscape:path-effect
       effect="bspline"
       id="path-effect4"
       is_visible="true"
       lpeversion="1.3"
       weight="33.333333"
       steps="2"
       helper_size="0"
       apply_no_weight="true"
       apply_with_weight="true"
       only_selected="false"
       uniform="false" /><inkscape:path-effect
       effect="bspline"
       id="path-effect3"
       is_visible="true"
       lpeversion="1.3"
       weight="33.333333"
       steps="2"
       helper_size="0"
       apply_no_weight="true"
       apply_with_weight="true"
       only_selected="false"
       uniform="false" /><inkscape:path-effect
       effect="bspline"
       id="path-effect2"
       is_visible="true"
       lpeversion="1.3"
       weight="33.333333"
       steps="2"
       helper_size="0"
       apply_no_weight="true"
       apply_with_weight="true"
       only_selected="false"
       uniform="false" /><linearGradient
       id="deviconNodejs0"
       x1="34.513"
       x2="27.157"
       y1="15.535"
       y2="30.448"
       gradientTransform="matrix(1.6365088,0,0,1.6365088,290.58155,21.983)"
       gradientUnits="userSpaceOnUse"><stop
         stop-color="#3F873F"
         id="stop3" /><stop
         offset=".33"
         stop-color="#3F8B3D"
         id="stop4" /><stop
         offset=".637"
         stop-color="#3E9638"
         id="stop5" /><stop
         offset=".934"
         stop-color="#3DA92E"
         id="stop6" /><stop
         offset="1"
         stop-color="#3DAE2B"
         id="stop7" /></linearGradient><linearGradient
       id="deviconNodejs1"
       x1="30.009001"
       x2="50.533001"
       y1="23.358999"
       y2="8.2880001"
       gradientTransform="matrix(1.6365088,0,0,1.6365088,290.58155,21.983)"
       gradientUnits="userSpaceOnUse"><stop
         offset=".138"
         stop-color="#3F873F"
         id="stop8" /><stop
         offset=".402"
         stop-color="#52A044"
         id="stop9" /><stop
         offset=".713"
         stop-color="#64B749"
         id="stop10" /><stop
         offset=".908"
         stop-color="#6ABF4B"
         id="stop11" /></linearGradient><linearGradient
       id="deviconNodejs2"
       x1="21.917"
       x2="40.555"
       y1="22.261"
       y2="22.261"
       gradientTransform="matrix(1.6365088,0,0,1.6365088,290.58155,21.983)"
       gradientUnits="userSpaceOnUse"><stop
         offset=".092"
         stop-color="#6ABF4B"
         id="stop12" /><stop
         offset=".287"
         stop-color="#64B749"
         id="stop13" /><stop
         offset=".598"
         stop-color="#52A044"
         id="stop14" /><stop
         offset=".862"
         stop-color="#3F873F"
         id="stop15" /></linearGradient><clipPath
       clipPathUnits="userSpaceOnUse"
       id="clipPath40"><path
         style="stroke-width:0.172619"
         d="m 348.67952,70.223354 c 0.46606,0 0.88035,-0.241647 1.10476,-0.638688 l 6.09343,-10.58154 c 0.10353,-0.172603 0.15539,-0.379772 0.17261,-0.586901 v -0.103563 c 0,-0.207127 -0.069,-0.397034 -0.17261,-0.586904 l -6.09343,-10.564284 c -0.22443,-0.397034 -0.65596,-0.638683 -1.10476,-0.638683 l -16.39881,0.01744 c -0.22439,0 -0.43155,0.120825 -0.55238,0.310732 -0.12082,0.189905 -0.12082,0.431549 0,0.638691 l 3.60774,6.283333 c 0.24165,0.397034 0.65595,0.638688 1.10476,0.638688 h 7.66428 c 0.44881,0 0.88035,0.241647 1.10475,0.638694 l 1.53632,2.675557 c 0.12083,0.207126 0.17261,0.414292 0.17261,0.638693 0,0.224385 -0.0518,0.448805 -0.17261,0.638688 l -1.53632,2.675594 c -0.22438,0.397034 -0.65594,0.638688 -1.10475,0.638688 h -7.66428 c -0.44881,0 -0.88036,0.241647 -1.10476,0.638691 l -3.60774,6.28332 c -0.12082,0.189865 -0.12082,0.448807 0,0.638688 0.10352,0.189868 0.32799,0.310732 0.55238,0.310732 z"
         id="path41" /></clipPath></defs><g
     inkscape:label="Layer 1"
     inkscape:groupmode="layer"
     id="layer1"><rect
       style="fill:#f3fafa;stroke-width:0.733999;stroke-linecap:square;stroke-miterlimit:6.7;fill-opacity:1"
       id="rect1"
       width="529.16669"
       height="529.16669"
       x="0"
       y="0" /><g
       id="g62"
       transform="translate(22.512359)"><g
         id="g29"
         transform="translate(146.05001,-51.638988)"><path
           fill="#019833"
           d="M 118.93297,139.84203 -57.617758,315.82267 118.93297,492.61657 294.67325,315.82267 Z"
           id="path11"
           style="display:inline;stroke-width:1.39741" /><path
           fill="#66fe98"
           d="M 118.90223,156.00172 V 141.14584 L -56.459299,315.85479 h 15.026395 z"
           id="path12"
           style="display:inline;stroke-width:1.39741" /><path
           fill="#45fe02"
           d="m 118.90223,156.00172 v -14.85588 l 175.90654,174.70895 h -16.2603 z"
           id="path16"
           style="display:inline;stroke-width:1.39741" /><path
           fill="#017d17"
           d="m 118.90223,476.45683 v 16.44621 L -56.459299,315.85479 h 15.026395 z"
           id="path17"
           style="display:inline;stroke-width:1.39741" /><path
           fill="#005d04"
           d="m 118.90223,476.45683 v 16.44621 L 294.80877,315.85479 h -16.2603 z"
           id="path18"
           style="display:inline;stroke-width:1.39741" /><path
           d="M 118.90223,495.33035 -60.335726,315.85479 118.90223,137.11431 297.40239,315.85479 Z M -54.845284,315.85479 118.90223,489.83572 291.90914,315.85479 118.90223,142.61311 Z"
           id="path20"
           style="display:inline;stroke-width:1.39741" /></g><g
         id="g58"
         transform="matrix(0.76032439,0,0,0.76032439,23.730769,70.064306)"><path
           style="color:#000000;display:inline;fill:#fefefe;stroke-linejoin:bevel;stroke-miterlimit:6.7;-inkscape-stroke:none;paint-order:fill markers stroke"
           d="m 92.267578,71.619141 a 11.495373,11.495373 0 0 0 -8.380859,3.609375 L 27.935547,134.56836 a 11.495373,11.495373 0 0 0 -3.13086,7.88476 v 222.23633 a 11.495373,11.495373 0 0 0 4.017579,8.73047 l 55.357421,47.4043 a 11.495373,11.495373 0 0 0 7.476563,2.76367 h 81.30469 a 11.495373,11.495373 0 0 0 8.17578,-3.41406 l 6.99023,-7.07227 a 11.495373,11.495373 0 0 0 0.96094,-2.33789 11.495373,11.495373 0 0 0 1.68555,3.78125 l 7.04101,6.32227 a 11.495373,11.495373 0 0 0 7.67969,2.9414 h 293.12305 a 11.495373,11.495373 0 0 0 7.98828,-3.22851 l 6.51367,-6.29492 a 11.495373,11.495373 0 0 0 3.50586,-8.26563 v -47.08008 a 11.495373,11.495373 0 0 0 -3.25977,-8.01953 l -7.53125,-7.73242 a 11.495373,11.495373 0 0 0 -8.23437,-3.47461 h -3.43359 V 159.78516 a 11.495373,11.495373 0 0 0 7.6621,-3.93946 l 4.98829,-6.15625 a 11.495373,11.495373 0 0 0 2.56445,-7.33398 l -0.4668,-55.224611 a 11.495373,11.495373 0 0 0 -3.99219,-8.609375 l -4.40234,-3.792968 a 11.495373,11.495373 0 0 0 -7.50195,-2.78711 h -92.57422 a 11.495373,11.495373 0 0 0 -7.91602,3.16211 l -4.06836,3.865234 a 11.495373,11.495373 0 0 0 -3.57812,8.332031 v 55.152339 a 11.495373,11.495373 0 0 0 2.64453,7.33399 l 5.10156,6.15625 a 11.495373,11.495373 0 0 0 8.84961,4.16016 h 0.87696 V 339.71289 H 316.7168 l 48.95117,-49.18945 a 11.495373,11.495373 0 0 0 3.34765,-8.10742 V 151.05859 a 11.495373,11.495373 0 0 0 -2.87304,-7.60156 l -59.625,-67.623046 a 11.495373,11.495373 0 0 0 -8.60352,-3.892578 z m 47.326172,82.328129 h 122.94336 l 18.50976,17.30273 0.84766,106.0625 -62.20508,62.40039 h -15.20898 a 11.495373,11.495373 0 0 0 -8.5332,3.79297 l -6.02735,6.67969 a 11.495373,11.495373 0 0 0 -1.05273,2.73828 11.495373,11.495373 0 0 0 -0.58985,-1.47461 l -7.77539,-8.16797 a 11.495373,11.495373 0 0 0 -8.38476,-3.56836 l -46.65039,0.23438 -4.31641,-4.10547 V 171.23437 Z"
           id="path54" /><path
           style="fill:#808080;fill-opacity:1;stroke:none;stroke-width:4.99999;stroke-linecap:butt;stroke-linejoin:bevel;stroke-miterlimit:6.7;stroke-dasharray:none;stroke-opacity:1;paint-order:fill markers stroke"
           d="m 398.71295,141.06004 -13.77831,5.99083 16.19149,13.89865 13.7282,-12.49029 -12.48542,-2.26381 z"
           id="path56"
           sodipodi:nodetypes="cccccc" /><path
           style="display:inline;fill:#808080;fill-opacity:1;stroke:none;stroke-width:4.99999;stroke-linecap:butt;stroke-linejoin:bevel;stroke-miterlimit:6.7;stroke-dasharray:none;stroke-opacity:1;paint-order:fill markers stroke"
           d="m 96.122354,408.36193 -6.837603,13.28682 86.911149,1.2528 13.67829,-10.83045 9.92123,11.33576 302.76294,1.94931 15.0971,-17.22493 -2.27965,-54.69876 -12.64059,-10.6721 -8.86498,-4.07443 v 0 l -0.54613,-178.48461 8.69884,-4.08144 8.66148,-11.88255 -1.43769,-60.757293 v 0 l -12.60047,-12.473683 -3.69683,11.986143 -55.86307,167.935183 5.38644,123.21546 -158.24372,-20.40477 -58.33803,-2.83798 -7.35967,-10.74063 -19.72238,0.11216 -9.59801,12.38486 -12.21078,-10.46496 -53.55742,-5.57767 0.1847,-169.67124 15.8702,-12.76312 125.07471,-0.75648 17.60512,28.53509 -0.0367,95.85032 -63.79659,63.15834 14.18612,23.6736 71.75752,-40.80762 -4.49594,-201.02998 -180.39217,-26.197081 -10.59798,23.778861 z"
           id="path53"
           sodipodi:nodetypes="ccccccccccccccccccccccccccccccccccccccc" /><path
           style="fill:#808080;fill-opacity:1;stroke:none;stroke-width:4.99999;stroke-linecap:butt;stroke-linejoin:bevel;stroke-miterlimit:6.7;stroke-dasharray:none;stroke-opacity:1;paint-order:fill markers stroke"
           d="m 354.34666,151.90148 14.78033,-4.05395 0.5458,139.15667 -52.47447,51.30834 2.08092,2.84174 -19.73884,11.72751 -24.2424,3.00901 63.68132,-72.14457 z"
           id="path57"
           sodipodi:nodetypes="ccccccccc" /><path
           style="fill:#fefefe;fill-opacity:1;stroke:none;stroke-width:4.99999;stroke-linecap:butt;stroke-linejoin:bevel;stroke-miterlimit:6.7;stroke-dasharray:none;stroke-opacity:1;paint-order:fill markers stroke"
           d="m 199.88991,340.56003 4.81926,10.32778 19.53884,0.64795 v 0 l 75.05942,-67.13133 -16.86211,-6.79849 -62.27787,61.66284 z"
           id="path58"
           sodipodi:nodetypes="cccccccc" /><path
           style="color:#000000;display:inline;fill:#000000;stroke-linejoin:bevel;stroke-miterlimit:6.7;-inkscape-stroke:none;paint-order:fill markers stroke"
           d="m 92.271484,69.119141 c -3.86061,-0.0057 -7.554689,1.585592 -10.203125,4.394531 L 26.117187,132.85352 c -2.447499,2.59623 -3.812323,6.0316 -3.8125,9.5996 v 222.23633 c 1.04e-4,4.08579 1.787463,7.97109 4.890625,10.62891 l 55.357422,47.4043 c 2.535338,2.17093 5.765718,3.36519 9.103516,3.36523 h 81.30469 c 3.73905,1.5e-4 7.32455,-1.4971 9.95312,-4.15625 l 5.84766,-5.91602 0.3418,0.38868 7.04101,6.32226 c 2.5679,2.30535 5.89871,3.58212 9.34961,3.58203 h 293.12305 c 3.62798,2e-4 7.11556,-1.40875 9.72461,-3.92968 l 0.002,-0.002 6.51367,-6.29492 c 2.72731,-2.63638 4.26777,-6.26926 4.26758,-10.0625 v -47.08008 c -1.1e-4,-3.64645 -1.42476,-7.15124 -3.96875,-9.76367 l -7.53125,-7.73242 c -2.6336,-2.70386 -6.25091,-4.23035 -10.02539,-4.23047 h -0.93359 v -175.3691 c 2.72184,-0.71419 5.19365,-2.20783 7.05468,-4.36523 l 0.0508,-0.0586 4.98829,-6.15625 h -0.002 c 2.04516,-2.52337 3.15016,-5.68171 3.12305,-8.92969 l -0.4668,-55.224605 c -0.035,-4.02939 -1.80839,-7.852437 -4.86133,-10.482422 l -4.40039,-3.792969 h -0.002 c -2.53914,-2.18746 -5.78132,-3.391986 -9.13281,-3.392578 h -92.57422 c -3.58637,7.3e-4 -7.03883,1.379212 -9.63867,3.84961 l -4.06836,3.865234 c -2.77993,2.640811 -4.35471,6.310231 -4.35547,10.144531 v 55.152339 c 3.6e-4,3.25999 1.13853,6.41967 3.21875,8.92969 l 5.10156,6.15625 c 2.30579,2.78223 5.60405,4.46558 9.15235,4.88477 v 174.78906 h -77.12305 l 44.70898,-44.92578 c 2.60911,-2.62152 4.07562,-6.17247 4.07617,-9.87109 V 151.05859 c -2.9e-4,-3.40725 -1.24462,-6.70018 -3.49804,-9.25586 l -59.625,-67.623043 c -2.65065,-3.006038 -6.46685,-4.731787 -10.47461,-4.738281 z m -0.0078,5 205.646486,0.322265 c 2.57823,0.0042 5.02723,1.113059 6.73242,3.046875 l 59.625,67.623049 c 1.44905,1.64341 2.24785,3.75625 2.24804,5.94726 v 131.35743 c -3.5e-4,2.3788 -0.94106,4.65769 -2.61914,6.34375 l -48.95117,49.18945 1.77149,4.26367 h 85.63672 l 2.5,-2.5 V 160.10352 l -2.5,-2.5 h -0.87696 c -2.67949,-3e-4 -5.21404,-1.19278 -6.92383,-3.25586 l -5.10156,-6.15625 c -1.33757,-1.61394 -2.07008,-3.64213 -2.07031,-5.73829 V 87.300781 c 4.9e-4,-2.466304 1.01267,-4.820905 2.80078,-6.519531 L 394.25,76.916016 c 1.67199,-1.588742 3.88692,-2.474141 6.19336,-2.47461 h 92.57422 c 2.15546,3.81e-4 4.23628,0.774593 5.86914,2.181641 h 0.002 l 4.40235,3.792969 c 1.96402,1.691928 3.1005,4.14413 3.12304,6.736328 l 0.4668,55.224606 c 0.0174,2.08843 -0.69084,4.11577 -2.00586,5.73828 h -0.002 l -4.94727,6.10547 c -1.52344,1.76101 -3.66706,2.86308 -5.98633,3.07422 l -2.27343,2.49024 v 179.92773 l 2.5,2.5 h 3.43359 c 2.42772,8e-5 4.74945,0.97965 6.44336,2.71875 l 7.53125,7.73242 c 1.63613,1.68015 2.55071,3.93022 2.55078,6.27539 v 47.08008 c 1.2e-4,2.43982 -0.98993,4.77303 -2.74414,6.46875 l -6.51367,6.29492 c -1.67774,1.62009 -3.91766,2.52552 -6.25,2.52539 H 224.67787 205.49414 c -2.21914,6e-5 -4.35845,-0.8183 -6.00977,-2.30078 l -6.71875,-6.0332 c -0.56516,-0.86076 -1.0048,-1.79931 -1.24804,-2.80078 l -4.83203,-0.10156 c -0.15904,0.55345 -0.39284,1.08111 -0.6543,1.59375 l -6.67188,6.75 c -1.69063,1.7103 -3.99356,2.67197 -6.39843,2.67187 H 91.65625 c -2.146275,-2e-5 -4.219333,-0.76615 -5.849609,-2.16211 l -55.357422,-47.4043 c -1.996433,-1.70992 -3.144465,-4.20342 -3.144532,-6.83203 V 142.45312 c 1.14e-4,-2.2946 0.875221,-4.50027 2.449219,-6.16992 L 85.705078,76.943359 c 1.703564,-1.806805 4.075317,-2.827882 6.558594,-2.824218 z m 47.330076,77.328129 -1.70898,0.67578 -18.44336,17.28711 -0.79102,1.82421 V 335.8418 l 0.77734,1.81054 4.31641,4.10547 1.73438,0.68946 46.65039,-0.23438 h 0.002 c 2.47952,-0.0129 4.85072,0.99723 6.56055,2.79297 l 7.45507,7.83203 c 0.12288,0.28012 0.24805,0.56026 0.3418,0.85156 l 4.80859,-0.17383 c 0.16603,-0.68114 0.43111,-1.33123 0.75,-1.95507 l 5.75586,-6.37891 c 1.70648,-1.89055 4.13093,-2.96874 6.67774,-2.96875 h 15.20898 l 1.77149,-0.73437 62.20508,-62.4004 0.72851,-1.78515 -0.84766,-106.0625 -0.79296,-1.80664 -18.50977,-17.30274 -1.70703,-0.67382 z m 0.98828,5 h 120.96875 l 17.00391,15.89648 0.83203,103.94336 -60.73438,60.92578 h -14.17187 c -3.95907,2e-5 -7.73592,1.67828 -10.38867,4.61719 l -5.60547,6.21289 -6.17383,-6.48633 c -2.65773,-2.79127 -6.35296,-4.36319 -10.20703,-4.34375 h -0.002 l -45.64258,0.22852 -2.81055,-2.67188 V 172.31836 Z"
           id="path55"
           sodipodi:nodetypes="cccccccccccccccsccccccscccccccccccccccccccccccccccccccccccccccccccccccccccccccccccccccscccccccccccccccccccccccsccccccccccsccccccsccccccccccccccscccsccccc" /><path
           style="display:inline;fill:#cccccc;fill-opacity:1;stroke:#808080;stroke-width:1;stroke-linecap:butt;stroke-linejoin:bevel;stroke-miterlimit:6.7;stroke-dasharray:none;stroke-opacity:1;paint-order:fill markers stroke"
           d="M 92.24936,83.113537 36.2996,142.45407 V 364.6904 l 55.35691,47.40296 h 81.30366 l 6.99196,-7.07139 v -45.64669 l -7.77627,-8.16901 -51.27658,0.25937 -11.24287,-10.69235 v -174.5196 l 25.39293,-23.79962 H 267.0731 l 25.42982,23.76937 0.92347,115.80244 -68.96628,69.18039 H 204.481 l -6.02765,6.68083 v 48.10508 l 7.04169,6.32298 h 293.12159 l 6.51362,-6.29631 v -47.07927 l -7.52974,-7.73331 H 482.67099 V 148.39351 l 10.22693,0.21542 4.98875,-6.15486 -0.46635,-55.225903 -4.40262,-3.7918 h -92.57428 l -4.06878,3.86344 v 55.154263 l 5.10167,6.15486 h 12.3713 V 351.20627 H 289.06378 l 68.45738,-68.79076 V 151.05805 L 297.89581,83.436367 Z"
           id="path36"
           sodipodi:nodetypes="ccccccccccccccccccccccccccccccccccccccccc" /></g></g></g></svg>
