<?xml version="1.0" encoding="UTF-8" standalone="no"?>
<!-- Created with Inkscape (http://www.inkscape.org/) -->

<svg
   width="128"
   height="128"
   viewBox="0 0 33.866667 33.866667"
   version="1.1"
   id="svg1"
   inkscape:version="1.3.2 (091e20ef0f, 2023-11-25, custom)"
   sodipodi:docname="node2.svg"
   inkscape:export-filename="rust.png"
   inkscape:export-xdpi="1500"
   inkscape:export-ydpi="1500"
   xml:space="preserve"
   xmlns:inkscape="http://www.inkscape.org/namespaces/inkscape"
   xmlns:sodipodi="http://sodipodi.sourceforge.net/DTD/sodipodi-0.dtd"
   xmlns="http://www.w3.org/2000/svg"
   xmlns:svg="http://www.w3.org/2000/svg"><sodipodi:namedview
     id="namedview1"
     pagecolor="#505050"
     bordercolor="#ffffff"
     borderopacity="1"
     inkscape:showpageshadow="0"
     inkscape:pageopacity="0"
     inkscape:pagecheckerboard="1"
     inkscape:deskcolor="#524b4b"
     inkscape:document-units="mm"
     inkscape:zoom="4.3351239"
     inkscape:cx="49.479555"
     inkscape:cy="52.824326"
     inkscape:window-width="1920"
     inkscape:window-height="1048"
     inkscape:window-x="0"
     inkscape:window-y="32"
     inkscape:window-maximized="1"
     inkscape:current-layer="layer1"
     showguides="true" /><defs
     id="defs1"><inkscape:path-effect
       effect="simplify"
       id="path-effect10"
       is_visible="true"
       lpeversion="1.3"
       threshold="10.8696"
       steps="1"
       smooth_angles="360"
       helper_size="0"
       simplify_individual_paths="false"
       simplify_just_coalesce="false" /><inkscape:path-effect
       effect="skeletal"
       id="path-effect9"
       is_visible="true"
       lpeversion="1"
       pattern="M 0,4.9921384 C 0,2.236478 2.236478,0 4.9921384,0 c 2.7556604,0 4.9921384,2.236478 4.9921384,4.9921384 0,2.7556604 -2.236478,4.9921384 -4.9921384,4.9921384 C 2.236478,9.9842768 0,7.7477988 0,4.9921384 Z"
       copytype="single_stretched"
       prop_scale="5.5"
       scale_y_rel="false"
       spacing="0"
       normal_offset="0"
       tang_offset="0"
       prop_units="false"
       vertical_pattern="false"
       hide_knot="false"
       fuse_tolerance="0" /><inkscape:path-effect
       effect="simplify"
       id="path-effect8"
       is_visible="true"
       lpeversion="1.3"
       threshold="10.8696"
       steps="1"
       smooth_angles="360"
       helper_size="0"
       simplify_individual_paths="false"
       simplify_just_coalesce="false" /><inkscape:path-effect
       effect="skeletal"
       id="path-effect7"
       is_visible="true"
       lpeversion="1"
       pattern="M 0,4.9921384 C 0,2.236478 2.236478,0 4.9921384,0 c 2.7556604,0 4.9921384,2.236478 4.9921384,4.9921384 0,2.7556604 -2.236478,4.9921384 -4.9921384,4.9921384 C 2.236478,9.9842768 0,7.7477988 0,4.9921384 Z"
       copytype="single_stretched"
       prop_scale="5.5"
       scale_y_rel="false"
       spacing="0"
       normal_offset="0"
       tang_offset="0"
       prop_units="false"
       vertical_pattern="false"
       hide_knot="false"
       fuse_tolerance="0" /><inkscape:path-effect
       effect="simplify"
       id="path-effect6"
       is_visible="true"
       lpeversion="1.3"
       threshold="0.00108696"
       steps="1"
       smooth_angles="360"
       helper_size="0"
       simplify_individual_paths="false"
       simplify_just_coalesce="false" /><inkscape:path-effect
       effect="bspline"
       id="path-effect4"
       is_visible="true"
       lpeversion="1.3"
       weight="33.333333"
       steps="2"
       helper_size="0"
       apply_no_weight="true"
       apply_with_weight="true"
       only_selected="false"
       uniform="false" /><inkscape:path-effect
       effect="bspline"
       id="path-effect3"
       is_visible="true"
       lpeversion="1.3"
       weight="33.333333"
       steps="2"
       helper_size="0"
       apply_no_weight="true"
       apply_with_weight="true"
       only_selected="false"
       uniform="false" /><inkscape:path-effect
       effect="bspline"
       id="path-effect2"
       is_visible="true"
       lpeversion="1.3"
       weight="33.333333"
       steps="2"
       helper_size="0"
       apply_no_weight="true"
       apply_with_weight="true"
       only_selected="false"
       uniform="false" /><linearGradient
       id="deviconNodejs0"
       x1="34.513"
       x2="27.157"
       y1="15.535"
       y2="30.448"
       gradientTransform="matrix(1.6365088,0,0,1.6365088,290.58155,21.983)"
       gradientUnits="userSpaceOnUse"><stop
         stop-color="#3F873F"
         id="stop3" /><stop
         offset=".33"
         stop-color="#3F8B3D"
         id="stop4" /><stop
         offset=".637"
         stop-color="#3E9638"
         id="stop5" /><stop
         offset=".934"
         stop-color="#3DA92E"
         id="stop6" /><stop
         offset="1"
         stop-color="#3DAE2B"
         id="stop7" /></linearGradient><linearGradient
       id="deviconNodejs1"
       x1="30.009"
       x2="50.533"
       y1="23.359"
       y2="8.288"
       gradientTransform="matrix(1.6365088,0,0,1.6365088,290.58155,21.983)"
       gradientUnits="userSpaceOnUse"><stop
         offset=".138"
         stop-color="#3F873F"
         id="stop8" /><stop
         offset=".402"
         stop-color="#52A044"
         id="stop9" /><stop
         offset=".713"
         stop-color="#64B749"
         id="stop10" /><stop
         offset=".908"
         stop-color="#6ABF4B"
         id="stop11" /></linearGradient><linearGradient
       id="deviconNodejs2"
       x1="21.917"
       x2="40.555"
       y1="22.261"
       y2="22.261"
       gradientTransform="matrix(1.6365088,0,0,1.6365088,290.58155,21.983)"
       gradientUnits="userSpaceOnUse"><stop
         offset=".092"
         stop-color="#6ABF4B"
         id="stop12" /><stop
         offset=".287"
         stop-color="#64B749"
         id="stop13" /><stop
         offset=".598"
         stop-color="#52A044"
         id="stop14" /><stop
         offset=".862"
         stop-color="#3F873F"
         id="stop15" /></linearGradient><clipPath
       clipPathUnits="userSpaceOnUse"
       id="clipPath40"><path
         style="stroke-width:0.172619"
         d="m 348.67952,70.223354 c 0.46606,0 0.88035,-0.241647 1.10476,-0.638688 l 6.09343,-10.58154 c 0.10353,-0.172603 0.15539,-0.379772 0.17261,-0.586901 v -0.103563 c 0,-0.207127 -0.069,-0.397034 -0.17261,-0.586904 l -6.09343,-10.564284 c -0.22443,-0.397034 -0.65596,-0.638683 -1.10476,-0.638683 l -16.39881,0.01744 c -0.22439,0 -0.43155,0.120825 -0.55238,0.310732 -0.12082,0.189905 -0.12082,0.431549 0,0.638691 l 3.60774,6.283333 c 0.24165,0.397034 0.65595,0.638688 1.10476,0.638688 h 7.66428 c 0.44881,0 0.88035,0.241647 1.10475,0.638694 l 1.53632,2.675557 c 0.12083,0.207126 0.17261,0.414292 0.17261,0.638693 0,0.224385 -0.0518,0.448805 -0.17261,0.638688 l -1.53632,2.675594 c -0.22438,0.397034 -0.65594,0.638688 -1.10475,0.638688 h -7.66428 c -0.44881,0 -0.88036,0.241647 -1.10476,0.638691 l -3.60774,6.28332 c -0.12082,0.189865 -0.12082,0.448807 0,0.638688 0.10352,0.189868 0.32799,0.310732 0.55238,0.310732 z"
         id="path41" /></clipPath></defs><g
     inkscape:label="Layer 1"
     inkscape:groupmode="layer"
     id="layer1"><rect
       style="fill:#ffffff;stroke:none;stroke-width:0.733999;stroke-linecap:square;stroke-miterlimit:6.7;fill-opacity:1"
       id="rect1"
       width="33.866665"
       height="33.866665"
       x="0"
       y="0" /><g
       id="g1"
       transform="matrix(1.1577042,0,0,1.1577042,-9.0068822,1.9632041)"><g
         id="g52"
         transform="matrix(0.70464955,0,0,0.70464955,45.00676,6.8962168)"><path
           style="stroke-width:0.0406034"
           d="m -20.752177,11.096682 -0.01624,-0.02842 v 0.03654 z"
           id="path42" /><path
           style="stroke-width:0.0406034"
           d="m -23.84615,5.8101284 -0.03248,0.020303 h 0.04467 z"
           id="path43" /><g
           id="g45"
           transform="matrix(0.15346141,0,0,0.15346141,-28.049688,8.0788395)"><path
             style="fill:#303030;fill-opacity:1;stroke-width:0.264583"
             d="m -66.331041,-1.058333 c 0,-0.714375 -0.370417,-1.349375 -0.978959,-1.693334 l -16.218958,-9.339791 c -0.264583,-0.15875 -0.582083,-0.238125 -0.899583,-0.264584 h -0.15875 c -0.3175,0 -0.608542,0.105834 -0.899584,0.264584 l -16.192505,9.339791 c -0.60854,0.343959 -0.97895,1.005417 -0.97895,1.693334 l 0.0265,25.135416 c 0,0.343959 0.18521,0.661459 0.47625,0.846667 0.29105,0.185208 0.66146,0.185208 0.97896,0 l 9.630837,-5.529792 c 0.608542,-0.370416 0.978958,-1.005416 0.978958,-1.693333 v -11.7475 c 0,-0.687917 0.370417,-1.349375 0.978959,-1.693333 L -85.486875,1.905 c 0.3175,-0.185208 0.635,-0.264583 0.978959,-0.264583 0.343958,0 0.687916,0.07937 0.978958,0.264583 l 4.101042,2.354792 c 0.608541,0.343958 0.978958,1.005416 0.978958,1.693333 v 11.7475 c 0,0.687917 0.370417,1.349375 0.978958,1.693333 l 4.111099,2.360494 6.989727,-4.699733 z"
             id="path44"
             sodipodi:nodetypes="ccccsccccsccssccsccsscccc" /><path
             style="fill:#303030;fill-opacity:1;stroke-width:0.264583"
             d="m -42.110018,-1.058333 c 0,-0.714375 -0.370417,-1.349375 -0.978959,-1.693334 l -16.218958,-9.339791 c -0.264583,-0.15875 -0.582083,-0.238125 -0.899583,-0.264584 h -0.15875 c -0.3175,0 -0.608542,0.105834 -0.899584,0.264584 l -16.192505,9.339791 c -0.60854,0.343959 -0.97895,1.005417 -0.97895,1.693334 l 0.0265,25.135416 c 0,0.343959 0.18521,0.661459 0.47625,0.846667 0.29105,0.185208 0.66146,0.185208 0.97896,0 l 9.630837,-5.529792 c 0.608542,-0.370416 0.978958,-1.005416 0.978958,-1.693333 v -11.7475 c 0,-0.687917 0.370417,-1.349375 0.978959,-1.693333 L -61.265852,1.905 c 0.3175,-0.185208 0.635,-0.264583 0.978959,-0.264583 0.343958,0 0.687916,0.07937 0.978958,0.264583 l 4.101042,2.354792 c 0.608541,0.343958 0.978958,1.005416 0.978958,1.693333 v 11.7475 c 0,0.687917 0.370417,1.349375 0.978958,1.693333 l 9.630834,5.529792 c 0.291041,0.185208 0.687916,0.185208 0.978958,0 0.291042,-0.15875 0.47625,-0.502708 0.47625,-0.846667 z"
             id="path45" /></g><path
           style="fill:#303030;fill-opacity:1;stroke-width:0.0406034"
           d="m -23.586604,10.231831 c 0,0.109629 0.05685,0.207077 0.150234,0.259862 l 2.488984,1.433297 c 0.0406,0.02436 0.08933,0.03654 0.138051,0.0406 h 0.02435 c 0.04872,0 0.09339,-0.01624 0.13805,-0.0406 l 2.484927,-1.433297 c 0.09339,-0.05279 0.150229,-0.154293 0.150229,-0.259862 l -0.0041,-3.8573164 c 0,-0.052785 -0.02842,-0.1015083 -0.07309,-0.1299306 -0.04466,-0.028422 -0.10151,-0.028422 -0.150232,0 l -1.477941,0.8486099 c -0.09339,0.056844 -0.150232,0.1542924 -0.150232,0.2598608 v 1.8027882 c 0,0.1055684 -0.05685,0.2070771 -0.150235,0.2598613 l -0.629343,0.3613695 c -0.04872,0.02842 -0.09745,0.040603 -0.150232,0.040603 -0.05278,0 -0.105567,-0.012183 -0.150232,-0.040603 L -21.576738,9.4157042 C -21.670127,9.36292 -21.72697,9.2614113 -21.72697,9.1558429 Z"
           id="path46"
           sodipodi:nodetypes="ccccsccccsccssccscccc" /><path
           style="fill:#303030;fill-opacity:1;stroke-width:0.0406034"
           d="m -21.722911,7.9783464 c 0,-0.1096293 -0.05684,-0.2070771 -0.150232,-0.2598613 l -2.488983,-1.4332978 c -0.0406,-0.024362 -0.08933,-0.036543 -0.138051,-0.040603 h -0.02435 c -0.04872,0 -0.09339,0.01624 -0.138053,0.040603 l -2.484924,1.4332978 c -0.09339,0.052784 -0.150232,0.1542923 -0.150232,0.2598613 l 0.0041,3.8573166 c 0,0.05278 0.02842,0.101508 0.07309,0.12993 0.04467,0.02842 0.101508,0.02842 0.150232,0 l 1.477963,-0.848609 c 0.09339,-0.05685 0.150232,-0.154293 0.150232,-0.259862 V 9.0543347 c 0,-0.105569 0.05684,-0.2070771 0.150232,-0.2598613 l 0.629343,-0.36137 c 0.04872,-0.02842 0.09745,-0.040603 0.150232,-0.040603 0.05279,0 0.10557,0.012183 0.150235,0.040603 l 0.629349,0.36137 c 0.09339,0.052784 0.150234,0.1542923 0.150234,0.2598613 v 1.1798343 c 0,0.105569 0.05684,0.207077 0.150232,0.259861 l 1.47796,0.84861 c 0.04467,0.02842 0.10557,0.02842 0.150235,0 0.04466,-0.02436 0.07308,-0.07715 0.07308,-0.12993 z"
           id="path47"
           sodipodi:nodetypes="ccccsccccsccssccsccssccccc" /><path
           style="fill:#303030;fill-opacity:1;stroke-width:0.0406034"
           d="m -29.8516,11.903165 c 0.109626,0 0.207075,-0.05684 0.259861,-0.150232 l 1.433295,-2.4889842 c 0.02435,-0.040603 0.03655,-0.089327 0.0406,-0.1380511 v -0.024361 c 0,-0.048722 -0.01624,-0.093388 -0.0406,-0.1380511 L -29.591739,6.4785611 C -29.644529,6.3851731 -29.746034,6.32833 -29.8516,6.32833 l -3.857319,0.00407 c -0.05278,0 -0.101509,0.028423 -0.12993,0.073086 -0.02842,0.044665 -0.02842,0.1015086 0,0.1502325 l 0.848611,1.4779623 c 0.05684,0.093388 0.154291,0.1502321 0.259861,0.1502321 h 1.802788 c 0.105568,0 0.207075,0.056844 0.259859,0.1502325 l 0.361372,0.6293437 c 0.02842,0.048722 0.0406,0.097448 0.0406,0.1502325 0,0.052784 -0.01219,0.1055685 -0.0406,0.1502326 l -0.361372,0.6293515 c -0.05278,0.093388 -0.154291,0.1502323 -0.259859,0.1502323 h -1.802788 c -0.10557,0 -0.207078,0.05684 -0.259861,0.150232 l -0.848611,1.477962 c -0.02842,0.04466 -0.02842,0.105568 0,0.150232 0.02435,0.04466 0.07715,0.07309 0.12993,0.07309 z"
           id="path48" /><path
           style="fill:#303030;fill-opacity:1;stroke-width:0.0406034"
           d="m -48.620012,11.903165 c -0.109626,0 -0.207075,-0.05684 -0.259858,-0.150232 l -1.433298,-2.4889842 c -0.02435,-0.040603 -0.03654,-0.089327 -0.0406,-0.1380511 v -0.024361 c 0,-0.048722 0.01624,-0.093388 0.0406,-0.1380511 l 1.433298,-2.4849245 c 0.05278,-0.093388 0.154292,-0.1502311 0.259858,-0.1502311 l 4.151565,0.00407 c 0.05278,0 0.101508,0.028423 0.129929,0.073086 0.02842,0.044665 0.02842,0.1015086 0,0.1502325 -0.421818,0.698617 -0.801879,1.4187705 -1.186051,2.1372908 -0.03345,0.062558 -0.06202,0.127323 -0.119158,0.1627918 -0.04317,0.026801 -0.09288,0.026226 -0.150199,0.026127 -0.453744,-7.836e-4 -1.264356,-0.00225 -1.589804,-0.00277 -0.08834,-1.551e-4 -0.0703,-0.00329 -0.08805,-0.030849 -0.01841,-0.028561 0.02486,-0.098848 0.02486,-0.098848 l 0.33958,-0.565522 h -0.436665 c -0.105567,0 -0.207078,0.056845 -0.259858,0.1502326 l -0.361373,0.6293436 c -0.02842,0.048722 -0.0406,0.097448 -0.0406,0.1502326 0,0.052784 0.01219,0.1055684 0.0406,0.150232 l 0.361373,0.629352 c 0.05278,0.093388 0.154291,0.1502321 0.259858,0.1502321 h 1.802788 c 0.10557,0 0.207078,0.05685 0.259862,0.150233 l 0.84861,1.477961 c 0.02842,0.04466 0.02842,0.105569 0,0.150232 -0.02435,0.04466 -0.07714,0.07309 -0.129929,0.07309 z"
           id="path49"
           sodipodi:nodetypes="ccccsccccsccacssccsccsccssccccc" /><path
           style="fill:#303030;fill-opacity:1;stroke-width:0.0263415"
           d="m -13.792048,5.5045183 c 0,0.071122 -0.03688,0.1343417 -0.09747,0.1685856 l -1.614733,0.9298554 c -0.02635,0.015804 -0.05795,0.023706 -0.08956,0.026341 h -0.01579 c -0.03161,0 -0.06059,-0.010537 -0.08956,-0.026341 l -1.6121,-0.9298554 c -0.06058,-0.034244 -0.09746,-0.1000976 -0.09746,-0.1685856 l 0.0025,-1.6757712 c 0,-0.034244 0.01844,-0.065854 0.04742,-0.084293 0.02898,-0.018439 0.06585,-0.018439 0.09746,0 l 0.958856,0.5505377 c 0.06059,0.036878 0.09747,0.1000977 0.09747,0.1685857 v 0.3428908 c 0,0.068488 0.03688,0.1343417 0.09746,0.1685857 l 0.408289,0.2344396 c 0.03161,0.018439 0.06322,0.026341 0.09746,0.026341 0.03425,0 0.06849,-0.0079 0.09746,-0.026341 l 0.408295,-0.2344396 c 0.06058,-0.034244 0.09746,-0.1000977 0.09746,-0.1685857 V 4.4635775 c 0,-0.068488 0.03688,-0.1343419 0.09747,-0.1685857 l 0.958829,-0.5505377 c 0.02897,-0.018439 0.06849,-0.018439 0.09746,0 0.02897,0.015804 0.04742,0.050049 0.04742,0.084293 z"
           id="path50"
           sodipodi:nodetypes="ccccsccccsccssccsccssccccc" /><path
           style="fill:#303030;fill-opacity:1;stroke-width:0.0406034"
           d="m -19.366886,10.231831 c 0,0.109629 0.05685,0.207077 0.150232,0.259862 l 2.488986,1.433297 c 0.0406,0.02436 0.08933,0.03654 0.138051,0.0406 h 0.02435 c 0.04873,0 0.09339,-0.01624 0.138052,-0.0406 l 2.484923,-1.433297 c 0.09339,-0.05279 0.150232,-0.154293 0.150232,-0.259862 l -0.0041,-3.8573164 c 0,-0.052785 -0.02842,-0.1015083 -0.07309,-0.1299306 -0.04466,-0.028422 -0.101508,-0.028422 -0.150231,0 l -1.477963,0.8486099 c -0.09339,0.056844 -0.150232,0.1542924 -0.150232,0.2598608 v 1.8027882 c 0,0.1055684 -0.05684,0.2070771 -0.150232,0.2598613 l -0.629343,0.3613695 c -0.04873,0.02842 -0.09745,0.040603 -0.150235,0.040603 -0.05278,0 -0.105567,-0.012183 -0.150229,-0.040603 L -17.357017,9.4157042 C -17.450405,9.36292 -18.422969,8.764266 -18.422969,8.6586975 Z"
           id="path51"
           sodipodi:nodetypes="ccccsccccsccssccscccc" /><path
           sodipodi:type="star"
           style="fill:#3b9f5f;fill-opacity:1;stroke:none;stroke-width:0.733999;stroke-linecap:square;stroke-miterlimit:6.7"
           id="path52"
           inkscape:flatsided="true"
           sodipodi:sides="6"
           sodipodi:cx="-256.16071"
           sodipodi:cy="-66.974808"
           sodipodi:r1="18.970642"
           sodipodi:r2="16.429058"
           sodipodi:arg1="0.52359878"
           sodipodi:arg2="1.0471976"
           inkscape:rounded="0"
           inkscape:randomized="0"
           d="m -239.73165,-57.489487 -16.42906,9.485321 -16.42905,-9.485321 0,-18.970642 16.42905,-9.485321 16.42906,9.485321 z"
           transform="matrix(0.03293547,-0.0190153,0.0190153,0.03293547,-21.636852,6.4625833)" /></g><path
         fill="#539e43"
         d="m 28.143871,19.663847 c -0.06634,0 -0.128251,-0.01769 -0.185743,-0.04865 l -0.58822,-0.349391 c -0.08845,-0.04865 -0.04422,-0.06633 -0.01769,-0.07518 0.119407,-0.0398 0.141519,-0.04865 0.265347,-0.119422 0.01329,-0.0088 0.03098,-0.0044 0.04423,0.0044 l 0.451124,0.269787 c 0.01769,0.0088 0.0398,0.0088 0.05307,0 l 1.764643,-1.021621 c 0.01769,-0.0088 0.02654,-0.02654 0.02654,-0.04865 v -2.03885 c 0,-0.02211 -0.0088,-0.0398 -0.02654,-0.04865 l -1.764643,-1.017215 c -0.01769,-0.0088 -0.0398,-0.0088 -0.05307,0 l -1.764642,1.017231 c -0.01769,0.0088 -0.02654,0.03096 -0.02654,0.04865 v 2.038834 c 0,0.01769 0.0088,0.0398 0.02654,0.04865 l 0.48208,0.278615 c 0.260942,0.132673 0.424555,-0.02211 0.424555,-0.176898 V 16.41317 c 0,-0.02654 0.02213,-0.05307 0.05308,-0.05307 h 0.225561 c 0.02654,0 0.05307,0.02211 0.05307,0.05307 v 2.0123 c 0,0.34939 -0.190183,0.552823 -0.521883,0.552823 -0.101717,0 -0.181321,0 -0.406866,-0.110561 l -0.46439,-0.265321 c -0.114982,-0.06636 -0.185742,-0.190184 -0.185742,-0.322858 v -2.038818 c 0,-0.132673 0.07076,-0.256502 0.185744,-0.322855 l 1.764642,-1.02162 c 0.110561,-0.06191 0.260925,-0.06191 0.371486,0 l 1.764642,1.02162 c 0.114983,0.06633 0.185743,0.190165 0.185743,0.322855 v 2.038835 c 0,0.132673 -0.07076,0.256502 -0.185743,0.322839 l -1.764642,1.021653 c -0.05749,0.02654 -0.123829,0.0398 -0.185743,0.0398 m 0.543978,-1.401984 c -0.773962,0 -0.933171,-0.353796 -0.933171,-0.65454 0,-0.02654 0.02211,-0.05307 0.05307,-0.05307 h 0.229967 c 0.02654,0 0.04867,0.01769 0.04867,0.04422 0.03538,0.23439 0.137096,0.34939 0.605892,0.34939 0.371503,0 0.530728,-0.08403 0.530728,-0.283037 0,-0.115 -0.04423,-0.199027 -0.623599,-0.256535 -0.482064,-0.04865 -0.782807,-0.154786 -0.782807,-0.53954 0,-0.358252 0.300726,-0.57053 0.804919,-0.57053 0.566091,0 0.844722,0.194589 0.880102,0.619161 0,0.01327 -0.0044,0.02654 -0.01327,0.0398 -0.0088,0.0088 -0.02211,0.01769 -0.03538,0.01769 h -0.229972 c -0.02213,0 -0.04423,-0.01769 -0.04866,-0.0398 -0.05307,-0.243234 -0.190166,-0.322838 -0.552824,-0.322838 -0.406865,0 -0.45553,0.141518 -0.45553,0.247657 0,0.128267 0.05749,0.168053 0.605893,0.238812 0.543996,0.07076 0.800497,0.172493 0.800497,0.55284 -0.0044,0.389193 -0.322838,0.610316 -0.884523,0.610316"
         id="path54"
         style="stroke-width:0.0166885" /></g></g></svg>
