<?xml version="1.0" encoding="UTF-8" standalone="no"?>
<!-- Created with Inkscape (http://www.inkscape.org/) -->

<svg
   width="2000"
   height="2000"
   viewBox="0 0 33.866667 33.866667"
   version="1.1"
   id="svg1"
   inkscape:version="1.3.2 (091e20ef0f, 2023-11-25, custom)"
   sodipodi:docname="rust.svg"
   inkscape:export-filename="rust.png"
   inkscape:export-xdpi="1500"
   inkscape:export-ydpi="1500"
   xmlns:inkscape="http://www.inkscape.org/namespaces/inkscape"
   xmlns:sodipodi="http://sodipodi.sourceforge.net/DTD/sodipodi-0.dtd"
   xmlns="http://www.w3.org/2000/svg"
   xmlns:svg="http://www.w3.org/2000/svg">
  <sodipodi:namedview
     id="namedview1"
     pagecolor="#505050"
     bordercolor="#ffffff"
     borderopacity="1"
     inkscape:showpageshadow="0"
     inkscape:pageopacity="0"
     inkscape:pagecheckerboard="1"
     inkscape:deskcolor="#524b4b"
     inkscape:document-units="mm"
     inkscape:zoom="4.0374372"
     inkscape:cx="204.46139"
     inkscape:cy="67.121788"
     inkscape:window-width="1920"
     inkscape:window-height="1048"
     inkscape:window-x="0"
     inkscape:window-y="32"
     inkscape:window-maximized="1"
     inkscape:current-layer="layer1"
     showguides="true">
    <sodipodi:guide
       position="10.845364,7.3526785"
       orientation="0,-1"
       id="guide1"
       inkscape:locked="false" />
    <sodipodi:guide
       position="9.1207459,4.3077512"
       orientation="0,-1"
       id="guide2"
       inkscape:locked="false" />
    <sodipodi:guide
       position="14.659464,6.3445634"
       orientation="0,-1"
       id="guide3"
       inkscape:locked="false" />
    <sodipodi:guide
       position="22.83539,5.7438228"
       orientation="1,0"
       id="guide4"
       inkscape:locked="false" />
    <sodipodi:guide
       position="24.637496,9.1665128"
       orientation="0,-1"
       id="guide5"
       inkscape:locked="false" />
  </sodipodi:namedview>
  <defs
     id="defs1">
    <inkscape:path-effect
       effect="simplify"
       id="path-effect10"
       is_visible="true"
       lpeversion="1.3"
       threshold="10.8696"
       steps="1"
       smooth_angles="360"
       helper_size="0"
       simplify_individual_paths="false"
       simplify_just_coalesce="false" />
    <inkscape:path-effect
       effect="skeletal"
       id="path-effect9"
       is_visible="true"
       lpeversion="1"
       pattern="M 0,4.9921384 C 0,2.236478 2.236478,0 4.9921384,0 c 2.7556604,0 4.9921384,2.236478 4.9921384,4.9921384 0,2.7556604 -2.236478,4.9921384 -4.9921384,4.9921384 C 2.236478,9.9842768 0,7.7477988 0,4.9921384 Z"
       copytype="single_stretched"
       prop_scale="5.5"
       scale_y_rel="false"
       spacing="0"
       normal_offset="0"
       tang_offset="0"
       prop_units="false"
       vertical_pattern="false"
       hide_knot="false"
       fuse_tolerance="0" />
    <inkscape:path-effect
       effect="simplify"
       id="path-effect8"
       is_visible="true"
       lpeversion="1.3"
       threshold="10.8696"
       steps="1"
       smooth_angles="360"
       helper_size="0"
       simplify_individual_paths="false"
       simplify_just_coalesce="false" />
    <inkscape:path-effect
       effect="skeletal"
       id="path-effect7"
       is_visible="true"
       lpeversion="1"
       pattern="M 0,4.9921384 C 0,2.236478 2.236478,0 4.9921384,0 c 2.7556604,0 4.9921384,2.236478 4.9921384,4.9921384 0,2.7556604 -2.236478,4.9921384 -4.9921384,4.9921384 C 2.236478,9.9842768 0,7.7477988 0,4.9921384 Z"
       copytype="single_stretched"
       prop_scale="5.5"
       scale_y_rel="false"
       spacing="0"
       normal_offset="0"
       tang_offset="0"
       prop_units="false"
       vertical_pattern="false"
       hide_knot="false"
       fuse_tolerance="0" />
    <inkscape:path-effect
       effect="simplify"
       id="path-effect6"
       is_visible="true"
       lpeversion="1.3"
       threshold="0.00108696"
       steps="1"
       smooth_angles="360"
       helper_size="0"
       simplify_individual_paths="false"
       simplify_just_coalesce="false" />
    <inkscape:path-effect
       effect="bspline"
       id="path-effect4"
       is_visible="true"
       lpeversion="1.3"
       weight="33.333333"
       steps="2"
       helper_size="0"
       apply_no_weight="true"
       apply_with_weight="true"
       only_selected="false"
       uniform="false" />
    <inkscape:path-effect
       effect="bspline"
       id="path-effect3"
       is_visible="true"
       lpeversion="1.3"
       weight="33.333333"
       steps="2"
       helper_size="0"
       apply_no_weight="true"
       apply_with_weight="true"
       only_selected="false"
       uniform="false" />
    <inkscape:path-effect
       effect="bspline"
       id="path-effect2"
       is_visible="true"
       lpeversion="1.3"
       weight="33.333333"
       steps="2"
       helper_size="0"
       apply_no_weight="true"
       apply_with_weight="true"
       only_selected="false"
       uniform="false" />
  </defs>
  <g
     inkscape:label="Layer 1"
     inkscape:groupmode="layer"
     id="layer1">
    <rect
       style="fill:#ffffff;stroke:none;stroke-width:3;stroke-linecap:square;stroke-miterlimit:6.7;fill-opacity:1"
       id="rect1"
       width="33.866665"
       height="33.866665"
       x="0"
       y="0" />
    <path
       fill="currentColor"
       d="m 91.447583,17.260239 -1.501612,-0.929732 c -0.0117,-0.137635 -0.02341,-0.270454 -0.03785,-0.404649 l 1.288274,-1.204316 A 0.5058124,0.5058124 0 0 0 91.02848,13.878521 l -1.651635,-0.619362 c -0.03716,-0.129377 -0.07432,-0.260131 -0.114925,-0.388133 l 1.03227,-1.433479 a 0.5058124,0.5058124 0 0 0 -0.329637,-0.79416 L 88.215199,10.357792 C 88.153261,10.238737 88.092013,10.12037 88.027323,10.003379 L 88.7623,8.3916615 A 0.5058124,0.5058124 0 0 0 88.284016,7.6766425 L 86.507135,7.739267 Q 86.383949,7.5864907 86.258701,7.4364676 l 0.40465,-1.7314613 a 0.50650057,0.50650057 0 0 0 -0.60835,-0.6083514 l -1.731462,0.4080908 q -0.149336,-0.1259368 -0.3028,-0.2484328 l 0.06262,-1.7768812 a 0.5058124,0.5058124 0 0 0 -0.71502,-0.481726 L 81.756628,3.7361229 C 81.639637,3.6714338 81.520582,3.6094976 81.402215,3.5482496 L 81.11662,1.7988958 A 0.5058124,0.5058124 0 0 0 80.32246,1.4692573 L 78.886916,2.4994631 C 78.758915,2.4588606 78.628849,2.4216988 78.498783,2.3845371 L 77.879421,0.73290472 A 0.5058124,0.5058124 0 0 0 77.0364,0.56498862 L 75.832084,1.8532618 C 75.697889,1.8388107 75.563006,1.827111 75.427435,1.8154119 L 74.499768,0.31242641 a 0.5058124,0.5058124 0 0 0 -0.860225,0 L 72.709812,1.8140354 c -0.137637,0.011699 -0.270456,0.023399 -0.404651,0.03785 L 71.100846,0.56361214 a 0.5058124,0.5058124 0 0 0 -0.84302,0.16791585 L 69.638463,2.3831603 c -0.130066,0.03785 -0.26082,0.074323 -0.38951,0.1156143 l -1.432791,-1.03227 a 0.5058124,0.5058124 0 0 0 -0.79416,0.3296383 l -0.285595,1.7486659 c -0.119055,0.061936 -0.237422,0.1231842 -0.3551,0.1878733 L 64.770965,3.0011465 a 0.5058124,0.5058124 0 0 0 -0.715019,0.481726 l 0.06331,1.776193 c -0.102538,0.081893 -0.206454,0.164475 -0.304175,0.2484331 L 62.08431,5.0966549 a 0.50650057,0.50650057 0 0 0 -0.608352,0.6083514 l 0.408091,1.7314613 c -0.08465,0.099786 -0.167227,0.2016367 -0.249121,0.3034873 l -1.776193,-0.062625 a 0.51062965,0.51062965 0 0 0 -0.43837,0.2243468 0.5058124,0.5058124 0 0 0 -0.03923,0.4906724 l 0.7336,1.6110299 c -0.06469,0.116991 -0.125937,0.236046 -0.187873,0.355101 l -1.748666,0.284907 a 0.5058124,0.5058124 0 0 0 -0.329638,0.79416 l 1.03227,1.432791 c -0.0406,0.12869 -0.07776,0.259444 -0.115614,0.389509 l -1.651633,0.619363 a 0.5058124,0.5058124 0 0 0 -0.167916,0.843021 l 1.288274,1.204315 c -0.01445,0.134194 -0.02615,0.269077 -0.03785,0.404649 l -1.504361,0.929043 a 0.5058124,0.5058124 0 0 0 0,0.860225 l 1.501609,0.929732 c 0.0117,0.137637 0.0234,0.269767 0.03785,0.403961 l -1.288273,1.204316 a 0.5058124,0.5058124 0 0 0 0.167916,0.84302 l 1.651632,0.619362 c 0.03785,0.130066 0.07432,0.260132 0.115615,0.388822 l -1.032271,1.43348 a 0.5058124,0.5058124 0 0 0 0.329639,0.794159 l 1.749353,0.285595 c 0.06194,0.118367 0.123184,0.237422 0.187873,0.353725 l -0.731535,1.612405 a 0.5058124,0.5058124 0 0 0 0.03923,0.490673 0.49067245,0.49067245 0 0 0 0.43837,0.224345 l 1.77757,-0.06262 q 0.121807,0.152777 0.247744,0.3028 l -0.408091,1.731463 a 0.50650057,0.50650057 0 0 0 0.608352,0.60835 l 1.731461,-0.408092 q 0.150023,0.125938 0.303487,0.248434 l -0.06331,1.776881 a 0.5058124,0.5058124 0 0 0 0.715019,0.478287 l 1.612406,-0.734977 c 0.116302,0.06469 0.235358,0.125936 0.353725,0.187873 l 0.285595,1.749354 a 0.50512423,0.50512423 0 0 0 0.79416,0.328948 l 1.433478,-1.03227 c 0.128002,0.04129 0.258757,0.07776 0.388822,0.115615 l 0.619363,1.651631 a 0.50650057,0.50650057 0 0 0 0.84302,0.167918 l 1.204315,-1.288272 c 0.134195,0.01446 0.269767,0.02615 0.40465,0.03785 l 0.929732,1.50161 a 0.5058124,0.5058124 0 0 0 0.860225,0 l 0.929731,-1.50161 c 0.137636,-0.0117 0.270455,-0.02341 0.40465,-0.03854 l 1.204315,1.288963 a 0.50650057,0.50650057 0 0 0 0.843021,-0.167918 l 0.619362,-1.651632 c 0.130066,-0.03785 0.260132,-0.07432 0.388822,-0.115614 l 1.432791,1.03227 a 0.50512423,0.50512423 0 0 0 0.79416,-0.328948 l 0.285595,-1.749355 c 0.118367,-0.06194 0.237422,-0.123186 0.354412,-0.187873 l 1.611719,0.734977 a 0.5058124,0.5058124 0 0 0 0.715018,-0.478287 l -0.06262,-1.776881 q 0.152775,-0.123182 0.3028,-0.248434 l 1.730773,0.408092 a 0.50650057,0.50650057 0 0 0 0.608349,-0.60835 L 86.255259,27.94424 q 0.125938,-0.149336 0.248434,-0.3028 l 1.776881,0.06262 a 0.49755424,0.49755424 0 0 0 0.438372,-0.224345 0.5058124,0.5058124 0 0 0 0.03991,-0.490673 L 88.023883,25.37732 c 0.06469,-0.116991 0.125935,-0.236046 0.187872,-0.354413 l 1.749355,-0.285595 a 0.5058124,0.5058124 0 0 0 0.329637,-0.794159 l -1.03227,-1.43348 c 0.0406,-0.12869 0.07776,-0.258756 0.114925,-0.388822 l 1.651632,-0.619362 a 0.5058124,0.5058124 0 0 0 0.16792,-0.84302 l -1.288275,-1.204316 c 0.01446,-0.134195 0.02615,-0.269078 0.03785,-0.403961 l 1.501607,-0.929732 a 0.5058124,0.5058124 0 0 0 0,-0.860225 z M 81.05606,26.143267 a 0.95725859,0.95725859 0 0 0 -1.136873,0.734976 l -0.52577,2.45474 a 12.904066,12.904066 0 0 1 -10.760385,-0.05092 l -0.52577,-2.45405 a 0.95450581,0.95450581 0 0 0 -1.132744,-0.734976 l -2.168455,0.465208 a 12.895119,12.895119 0 0 1 -1.118982,-1.321993 h 10.540856 c 0.118367,0 0.198884,-0.01996 0.198884,-0.131443 v -3.729248 c 0,-0.108044 -0.08052,-0.131442 -0.198884,-0.131442 h -3.085112 l 0.0035,-2.363899 h 3.336294 c 0.303488,0 1.628235,0.08809 2.050088,1.780322 0.131443,0.519576 0.424608,2.211811 0.623492,2.75272 0.198884,0.606975 1.004743,1.820925 1.864968,1.820925 h 5.440065 a 12.889614,12.889614 0 0 1 -1.193306,1.382555 z m 1.773442,2.373534 a 1.0487865,1.0487865 0 1 1 -1.052229,-1.048787 h 0.03028 a 1.0480984,1.0480984 0 0 1 1.018509,1.048787 z M 67.30278,28.470007 a 1.0487865,1.0487865 0 1 1 -1.049475,-1.049476 h 0.03097 a 1.0494747,1.0494747 0 0 1 1.015065,1.049475 z m -6.062867,-12.283329 2.259295,-1.004743 a 0.95519402,0.95519402 0 0 0 0.485856,-1.261434 L 63.519165,12.87309 h 1.827807 v 8.239581 H 61.658326 A 12.9137,12.9137 0 0 1 61.239913,16.186678 M 60.465022,13.7051 a 1.0487865,1.0487865 0 0 1 1.048098,-1.049474 h 0.03166 a 1.0487865,1.0487865 0 1 1 -1.078377,1.048786 z m 10.677803,1.685353 0.0035,-2.430652 h 4.353427 c 0.225723,0 1.587631,0.259444 1.587631,1.281392 0,0.845773 -1.045345,1.14926 -1.904882,1.14926 z m 12.767806,5.78966 c -0.674417,0.07776 -1.419715,-0.28353 -1.513996,-0.694374 -0.397768,-2.235897 -1.059109,-2.711429 -2.103767,-3.537246 1.297908,-0.822375 2.646741,-2.039765 2.646741,-3.665247 0,-1.756236 -1.203627,-2.862141 -2.02325,-3.4051155 C 79.762969,9.1211326 78.48846,8.9676683 78.145058,8.9676683 H 64.457155 A 12.90269,12.90269 0 0 1 71.675476,4.89433 l 1.615159,1.6929231 a 0.95106496,0.95106496 0 0 0 1.348834,0.03028 l 1.80716,-1.7204503 a 12.904066,12.904066 0 0 1 8.834168,6.2920312 l -1.238725,2.791946 a 0.96345222,0.96345222 0 0 0 0.487921,1.261434 l 2.380416,1.054981 a 12.877227,12.877227 0 0 1 0.02753,2.239338 h -1.326812 c -0.131442,0 -0.185121,0.0874 -0.185121,0.215401 v 0.606974 c -0.0013,1.427974 -0.805859,1.743161 -1.515371,1.820925 M 72.968567,4.2164725 a 1.0487865,1.0487865 0 0 1 1.046722,-1.0467219 h 0.03097 A 1.0487865,1.0487865 0 1 1 72.968567,4.2164725 M 86.514704,14.799995 a 1.0487865,1.0487865 0 1 1 0,-2.097573 h 0.03028 a 1.0488958,1.0488958 0 0 1 -0.03028,2.097573"
       id="path1-6"
       style="stroke-width:0.0688178" />
    <path
       style="opacity:0.265631;fill:none;stroke:#000000;stroke-width:1;stroke-linecap:square;stroke-miterlimit:6.7;stroke-dasharray:none;stroke-opacity:1"
       d="m 13.565247,20.195176 c -0.396723,-0.05122 -0.794069,-0.109085 -1.195375,-0.10261 -0.847268,0.01367 -1.716599,-0.182786 -2.542026,0.0087 -0.134975,0.0313 -0.3686525,0.03064 -0.365754,-0.167778 0.00621,-0.425379 0.031301,-0.851911 0.00653,-1.276665 C 9.4512083,18.358152 9.3526872,18.074487 9.2818856,17.786393 9.2109925,17.497927 9.2183284,17.190638 9.0945893,16.915786 9.0220386,16.754634 9.1138511,16.574582 9.0373616,16.41276 8.9466281,16.220803 8.9931531,15.97111 8.860553,15.807716 8.769519,15.695541 8.7661479,15.554547 8.7693099,15.41343 c 0.00554,-0.247251 -0.042877,-0.498612 -9.843e-4,-0.742103 0.026271,-0.152694 0.1023345,-0.28733 0.1093225,-0.450131 0.00593,-0.138137 -0.08315,-0.311627 0.013725,-0.416112 0.099644,-0.107471 0.078388,-0.249628 0.078388,-0.384096 0,-0.344011 0.1015855,-0.703365 0,-1.032036 -0.034316,-0.111026 0.044757,-0.144198 0.147043,-0.11362 0.1130977,0.03381 0.138847,-0.02755 0.260144,-0.09222 0.144525,-0.07705 0.3203108,-0.113706 0.4357355,-0.231084 0.085857,-0.08731 0.1815597,-0.166443 0.256295,-0.26322 0.09736,-0.126068 0.155158,-0.284046 0.32134,-0.357677 0.160532,-0.07113 0.27204,-0.216287 0.382898,-0.346907 0.08474,-0.09984 0.173402,-0.215995 0.313155,-0.23259 0.231988,-0.02755 0.385269,-0.21719 0.588395,-0.312258 0.225283,-0.105438 0.421087,-0.358212 0.668034,-0.332349 0.175884,0.01842 0.306927,-0.1440335 0.471348,-0.1821618 0.148041,-0.03433 0.233177,-0.22633 0.367666,-0.2188114 0.219476,0.01227 0.440253,0.00122 0.660231,0.00553 0.180124,0.00352 0.36212,-0.030596 0.540099,-0.00467 0.180558,0.026305 0.344893,0.1126448 0.518047,0.1672178 0.221994,0.069966 0.898112,0.2437324 0.670419,0.1954674 -0.06477,-0.01373 -0.286661,-0.094543 -0.100209,-0.081312 0.196425,0.01394 0.383984,0.1752737 0.572356,0.1238077 0.135118,-0.03692 0.302837,-0.04159 0.363028,0.103958 0.05967,0.144297 0.219308,0.02022 0.293295,0.149362 0.06203,0.108271 0.161072,0.135557 0.271429,0.147691 0.153673,0.0169 0.196609,0.215027 0.370681,0.170456 0.109406,-0.02801 0.155477,0.08318 0.217269,0.147382 0.08302,0.08625 0.196897,0.150055 0.25273,0.255417 0.06255,0.11804 0.131972,0.242108 0.233728,0.328506 0.102927,0.08739 0.32339,0.331313 0.193281,0.350395 -0.114287,0.01676 -0.03959,0.226552 0.01225,0.306016 0.108529,0.166379 0.134354,0.365081 0.228754,0.540989 0.138221,0.257565 0.476144,0.554966 0.333847,0.809537 -0.04156,0.07435 0.03138,0.208015 0.04713,0.316789 0.02093,0.144514 0.164694,0.250206 0.140875,0.400523 -0.02295,0.144829 -0.0018,0.290901 0.0511,0.426744 0.07868,0.202154 0.04134,0.418061 0.04198,0.628439 8.15e-4,0.268554 0.04316,0.540279 0.0037,0.805672 -0.0166,0.111676 -0.10648,0.268561 -0.105421,0.343085 0.0091,0.639304 0.22112,1.312945 0.01447,1.918064 -0.05065,0.148324 -0.151039,0.305985 -0.111152,0.457383 0.03648,0.138465 -0.230853,0.162446 -0.196401,0.271018 0.04723,0.14883 -0.144701,0.194797 -0.241984,0.256212 -0.136367,0.08609 -0.219627,0.230354 -0.361447,0.313323 -0.279525,0.163529 -0.51316,0.392985 -0.796474,0.551445 -0.150781,0.08433 -0.284975,0.210844 -0.451852,0.254444 -0.134222,0.03507 -0.26905,-0.0056 -0.408498,0.02262 -0.239336,0.04843 -0.46624,0.177341 -0.710647,0.182404 -0.188169,0.0039 -0.390222,-0.07576 -0.564378,-0.0064 -0.06383,0.02543 -0.240829,0.217231 -0.223778,0.06695 0.01675,-0.14763 0.0052,-0.297934 0.0077,-0.446733 0.0046,-0.267259 -0.0083,-0.534069 0.02246,-0.80102 0.04555,-0.394765 0.101266,-0.789707 0.07997,-1.189458 -0.02127,-0.39911 -0.136904,-0.792046 -0.08989,-1.195065 0.04098,-0.351228 0.114237,-0.701321 0.103893,-1.055533 -0.0028,-0.09454 0.0031,-0.373725 -0.0088,-0.32231 -0.02644,0.114155 -0.0023,0.05671 0.01271,-0.01514 0.07734,-0.370465 0.108226,-0.748455 0.175042,-1.120531 0.03738,-0.208179 0.119533,-0.40148 0.198937,-0.600079 0.122372,-0.306065 0.248666,-0.610111 0.386875,-0.909849 0.118136,-0.256204 0.220658,-0.517984 0.286352,-0.795523 0.0444,-0.187571 0.135018,-0.36194 0.15412,-0.556328 0.02405,-0.244755 0.125418,-0.469068 0.216638,-0.694909 0.0926,-0.22925 0.09395,-0.502772 0.241209,-0.701276 0.12061,-0.162578 0.286643,-0.2822822 0.427214,-0.4272104 0.208845,-0.215319 0.467968,-0.3902083 0.630948,-0.6419403 0.108288,-0.1672572 0.325893,-0.1626971 0.498797,-0.2101778 0.453572,-0.1245539 0.920745,-0.1880441 1.378123,-0.2957023 0.187246,-0.044074 0.368681,-0.1078876 0.564991,-0.114427 0.401485,-0.013374 0.812181,-0.027633 1.203787,0.068169 0.322599,0.078921 0.613861,0.2438341 0.918433,0.3716409 0.220742,0.092629 0.450827,0.1652506 0.651292,0.3013834 0.168071,0.114135 0.365157,0.1882318 0.515144,0.3250598 0.181003,0.1651231 0.280159,0.3970266 0.463995,0.5625636 0.10401,0.09366 0.217323,0.189859 0.253063,0.330718 0.03036,0.119669 0.007,0.244228 0.0077,0.36697 7.21e-4,0.129066 0.02006,0.262481 -0.04394,0.382455 -0.09273,0.173824 -0.01134,0.379524 -0.05492,0.562284 -0.06862,0.287804 -0.219864,0.56797 -0.205188,0.864369 0.01531,0.309152 -0.04678,0.625288 0.0177,0.928228 0.03966,0.186313 -0.09663,0.319385 -0.138935,0.487382 -0.03192,0.126755 -0.209764,0.325536 -0.09155,0.382012 0.105536,0.05042 0.03436,0.229483 0.0325,0.329586 -0.0031,0.165457 -0.113182,0.299552 -0.116699,0.468026 -0.004,0.191898 0.09032,0.400819 0.01106,0.575509 -0.06057,0.133488 -0.07327,0.257687 -0.102055,0.413667 -0.0254,0.13766 -0.108653,0.25936 -0.09497,0.406818 0.01181,0.127274 0.01143,0.253823 -0.03035,0.37913 -0.10686,0.320475 -0.258101,0.62453 -0.351483,0.949852 -0.04021,0.140081 -0.261185,0.228482 -0.216167,0.355716 0.0617,0.174388 -0.06876,0.192799 -0.162712,0.36267 -0.06768,0.122375 -0.255264,0.234671 -0.197142,0.374695 0.05966,0.143724 0.01509,0.224424 -0.09884,0.308372 -0.09404,0.06929 -0.06168,0.182631 -0.172174,0.264543 -0.0998,0.07398 -0.159646,0.207504 -0.291711,0.227197 -0.08948,0.01334 -0.0309,0.112944 -0.09541,0.152505 -0.112136,0.06877 -0.201405,0.167256 -0.319083,0.229919 -0.144819,0.07711 -0.292982,0.07358 -0.444518,0.142508 -0.155649,0.0708 -0.374888,0.119321 -0.428454,0.282792 -0.01364,0.04162 0.08546,0.02899 0.0011,0.0779 -0.177935,0.103179 -0.367172,0.180887 -0.564441,0.243927 -0.292297,0.09341 -0.579344,0.203073 -0.879531,0.27069 -0.191115,0.04305 -0.376668,0.13127 -0.572269,0.135477 -0.208323,0.0045 -0.423024,-0.04868 -0.625045,0.005 -0.1856,0.0493 -0.317299,-0.1234 -0.486633,-0.116716 -0.393373,0.01553 -0.787465,0.0091 -1.181197,0.0082 -0.488102,-0.0012 -0.982202,0.07393 -1.464344,-0.0018 -0.164787,-0.02589 -0.317021,0.05504 -0.466855,0.109834 -0.195803,0.07161 0.237701,-0.09688 0.03557,-0.06142 -0.155559,0.02729 -0.315957,0.0435 -0.457498,0.127878 -0.08354,0.0498 -0.183174,0.02374 -0.275963,0.02324 -0.452204,-0.0024 -0.904668,0.0072 -1.356606,-0.0079 -0.140269,-0.0047 -0.258651,0.112041 -0.394887,0.106724 -0.291761,-0.01139 -0.593533,-0.02165 -0.870244,0.09131 -0.285159,0.116414 -0.588977,0.208085 -0.895971,0.212982 -0.2063377,0.0033 -0.3917512,-0.119465 -0.599849,-0.112763 -0.315136,0.01015 -0.6368272,0.06609 -0.9459851,0.0044 -0.1675163,-0.03344 -0.3141253,0.145275 -0.4689984,0.104053 -0.1099878,-0.02927 -0.1480337,0.01138 -0.2101052,0.145467 -0.040723,0.08797 0.083941,0.07423 -0.1162158,0.07638 -0.1744904,0.0019 -0.2084026,0.116391 -0.1797043,0.296896 0.014019,0.08818 0.095197,0.163832 0.056972,0.27011 -0.057688,0.16039 0.1527944,0.27803 0.098115,0.421381 -0.035661,0.09349 0.050126,0.03765 0.099609,0.122608 0.065952,0.113234 0.050068,0.257926 0.1383792,0.362256 0.051511,0.06085 -0.00136,0.141662 0.1718023,0.120732 0.1545468,-0.01868 0.1807364,0.177149 0.2636464,0.268091 0.1050394,0.115214 0.1921476,0.247541 0.300618,0.361891 0.1121701,0.118251 0.1481465,0.283721 0.2491691,0.406986 0.068426,0.08349 0.2365323,-0.04272 0.2705227,0.04104 0.034673,0.08545 0.2109351,0.04688 0.1739814,0.108168 -0.065297,0.108292 0.1522626,0.12593 0.1367473,0.07077 -0.023933,-0.08509 0.072619,-0.03175 0.1483032,-0.103851 0.066342,-0.0632 0.1020489,-0.10902 0.2219602,-0.124158 0.07322,-0.0092 0.311876,-0.07359 0.229804,-0.09832 -0.128721,-0.03878 0.119107,-0.105089 0.19225,-0.105201 0.217399,-3.33e-4 0.441135,-0.05556 0.652123,-0.005 0.33584,0.08051 0.639924,0.322404 0.986784,0.311171 0.210977,-0.0068 0.430298,-0.03556 0.63165,0.05299 0.182679,0.08034 0.382141,0.198019 0.580749,0.133991 0.171016,-0.05513 0.294784,0.114518 0.450253,0.105998 0.130929,-0.0072 0.263298,-0.01789 0.39037,0.02866 0.156093,0.05718 0.320651,0.06721 0.487572,0.0654 0.461504,-0.005 0.923657,-0.0271 1.384647,-0.0072 0.16718,0.0072 0.306163,0.126349 0.481091,0.108115 0.315863,-0.03292 0.617073,0.07123 0.933441,0.09408 0.314102,0.02269 0.62371,0.104213 0.939028,0.102158 0.512028,-0.0033 1.024652,-0.02192 1.536248,-7.98e-4 0.132386,0.0055 0.245854,-0.07635 0.374259,-0.104642 0.221426,-0.04879 0.442557,0.03024 0.668519,-0.0092 0.205829,-0.03588 0.406349,-0.0896 0.59849,-0.183726 0.200322,-0.09813 0.408449,-0.184368 0.642965,-0.194087 0.152955,-0.0063 0.279296,-0.104862 0.437865,-0.110088 0.290019,-0.0096 0.584944,0.05217 0.870214,-0.01454 0.09999,-0.02338 0.409839,-0.06925 0.342893,-0.07359 -0.06001,-0.0039 -0.169606,-0.01598 -0.04376,-0.03033 0.363589,-0.04146 0.957905,-0.443314 1.093066,-0.103303 0.0347,0.0873 0.193775,0.14398 0.313911,0.136491 0.173176,-0.01079 0.346829,-0.01734 0.520328,-0.01285 0.184532,0.0048 0.345958,0.09521 0.524241,0.139047 0.196098,0.04822 0.395999,0.06584 0.599715,0.06603 0.215052,2.04e-4 0.463423,-0.113011 0.64529,0.0015 0.08164,0.05141 0.05197,-0.129093 0.05738,-0.0078 0.0047,0.105393 -0.09185,-0.102219 -0.11289,-0.138864 -0.104885,-0.182644 -0.199918,-0.370707 -0.302835,-0.55444"
       id="path10"
       inkscape:path-effect="#path-effect10"
       inkscape:original-d="m 13.565247,20.195176 c -0.27958,-0.03157 -0.557723,-0.08089 -0.83874,-0.0947 -0.362056,-0.0178 -0.724987,0 -1.087481,0 -0.527262,0 -1.054525,0 -1.581788,0 -0.065907,0 -0.1318145,0 -0.197722,0 -0.1710714,0 -0.3078183,0.06991 -0.3954468,-0.09886 -0.01406,-0.02708 0,-0.06103 0,-0.09154 0,-0.07372 0,-0.147431 0,-0.221147 0,-0.263631 0,-0.527262 0,-0.790893 0,-0.09886 0.012263,-0.198487 0,-0.296585 -0.057555,-0.460436 -0.1130567,-0.466418 -0.1977247,-0.889756 -0.039312,-0.196559 -0.055379,-0.397494 -0.098862,-0.593172 -0.022606,-0.101727 -0.081729,-0.193793 -0.09886,-0.296584 -0.016253,-0.09752 0.016253,-0.199069 0,-0.296585 -0.017132,-0.102792 -0.070234,-0.196387 -0.098862,-0.296587 -0.037327,-0.130645 -0.055895,-0.266547 -0.098862,-0.395447 -0.023302,-0.06991 -0.084411,-0.125466 -0.098862,-0.197722 -0.019389,-0.09694 0,-0.197723 0,-0.296585 0,-0.06591 0,-0.131816 0,-0.197724 0,-0.09886 0,-0.197724 0,-0.296585 0,-0.06591 -0.012925,-0.133096 0,-0.197725 0.020437,-0.102185 0.08173,-0.193793 0.098862,-0.296585 0.016253,-0.09752 0,-0.197722 0,-0.296584 0,-0.06591 -0.015986,-0.133784 0,-0.197725 0.017873,-0.07149 0.080991,-0.126235 0.098862,-0.197722 0.015986,-0.06394 0,-0.131816 0,-0.197725 0,-0.263631 0,-0.527262 0,-0.790893 0,-0.06591 0,-0.131815 0,-0.197723 0,-0.02769 0,-0.05538 0,-0.08307 0,-0.01841 -0.011486,-0.04084 0,-0.05522 0.00917,-0.01148 0.0294,0 0.0441,0 0.014846,0 0.031625,0.0073 0.044537,0 0.023948,-0.01359 0.033376,-0.04694 0.058406,-0.0584 0.020929,-0.0096 0.049081,0.01143 0.069066,0 0.037738,-0.02158 0.053065,-0.07332 0.092216,-0.09222 0.029679,-0.01432 0.067599,0.01042 0.098862,0 0.069906,-0.0233 0.1318162,-0.06591 0.1977244,-0.09886 0.065907,-0.03295 0.1387732,-0.05465 0.1977224,-0.09886 0.074567,-0.05592 0.1318167,-0.131816 0.1977247,-0.197724 0.032953,-0.03295 0.070898,-0.06158 0.098859,-0.09886 0.07129,-0.09505 0.113709,-0.212569 0.197725,-0.296585 0.05211,-0.05211 0.140182,-0.05283 0.197722,-0.09886 0.109175,-0.08734 0.197725,-0.197722 0.296587,-0.296584 0.06591,-0.06591 0.117798,-0.149768 0.197723,-0.197723 0.08936,-0.05361 0.203377,-0.05226 0.296584,-0.09886 0.106274,-0.05314 0.194702,-0.136593 0.296587,-0.197724 0.06319,-0.03791 0.131815,-0.06591 0.197723,-0.09886 0.131815,-0.06591 0.263631,-0.131817 0.395446,-0.197725 0.06591,-0.03295 0.127819,-0.07556 0.197725,-0.09886 0.03126,-0.01042 0.0676,0.01042 0.09886,0 0.06991,-0.0233 0.131814,-0.06591 0.197722,-0.09886 0.131816,-0.065908 0.269074,-0.121901 0.395447,-0.1977248 0.03996,-0.023979 0.05718,-0.07802 0.09886,-0.098862 0.02947,-0.014737 0.06591,0 0.09886,0 0.03295,0 0.06591,0 0.09886,0 0.09884,0 0.197685,0 0.296528,0 0.164769,0 0.329538,0 0.494307,0 0.09886,0 0.199069,-0.016253 0.296587,0 0.10279,0.017132 0.197721,0.065908 0.296582,0.098862 0.09886,0.032954 0.196386,0.070233 0.296587,0.098862 1.284318,0.3669508 -0.140583,-0.023426 0.593169,0.098863 0.134024,0.02234 0.262215,0.07221 0.395449,0.09886 0.123566,0.02471 0.148312,-0.04942 0.296583,0 0.01263,0.0042 0.170934,0.178554 0.18833,0.188328 0.02027,0.01139 0.04651,0 0.06977,0 0.02285,0 0.04869,-0.0113 0.06855,0 0.03978,0.02264 0.0662,0.06323 0.09886,0.09529 0.03325,0.03265 0.05718,0.07802 0.09886,0.09886 0.02947,0.01474 0.06591,0 0.09886,0 0.06591,0.03295 0.136413,0.05799 0.197725,0.09886 0.03878,0.02585 0.05465,0.08412 0.09886,0.09886 0.06253,0.02084 0.135199,-0.02084 0.197725,0 0.04421,0.01474 0.06591,0.06591 0.09886,0.09886 0.03278,0.03278 0.06555,0.06555 0.09833,0.09833 0.378728,0.378729 0.02099,-0.0048 0.394914,0.493779 0.02796,0.03728 0.07802,0.05718 0.09886,0.09886 0.298723,0.597443 -0.01436,0.04164 0.09886,0.494307 0.01787,0.07143 0.07152,0.12917 0.09886,0.197537 0.03867,0.09669 0.06578,0.197599 0.09868,0.296399 0.06591,0.131815 0.142987,0.258614 0.19772,0.395447 0.458394,1.14599 0.0052,0.11461 0.296587,0.988616 0.0233,0.06991 0.08441,0.125468 0.09886,0.197725 0.01939,0.09694 -0.01398,0.198716 0,0.296584 0.01921,0.134507 0.07965,0.26094 0.09886,0.395447 0.01398,0.09787 0,0.197723 0,0.296585 0,0.16477 0,0.329539 0,0.494309 0,0.09886 0,0.197723 0,0.296585 0,0.06591 0.01292,0.133096 0,0.197724 -0.130125,0.650624 -0.09886,-0.05452 -0.09886,0.59317 0,0.296585 0,0.59317 0,0.889756 0,1.242454 0.06394,0.372432 -0.09886,1.186341 -0.0065,0.03229 0.01472,0.06934 0,0.0988 -0.03917,0.07837 -0.157713,0.118878 -0.197073,0.197135 -0.01455,0.02892 0.02296,0.0743 0,0.09712 -0.08426,0.08377 -0.203806,0.123498 -0.296587,0.197723 -0.07278,0.05823 -0.124941,0.139498 -0.197724,0.197724 -0.09278,0.07422 -0.199898,0.128662 -0.296583,0.197723 -0.134079,0.09577 -0.258352,0.205188 -0.395449,0.296587 -0.15988,0.106586 -0.327472,0.20125 -0.494307,0.296584 -0.06398,0.03656 -0.125468,0.08441 -0.197724,0.09886 -0.09694,0.01939 -0.19932,-0.01769 -0.296587,0 -1.263315,0.229691 -0.352023,0.197722 -1.186339,0.197722 -0.06591,0 -0.135198,-0.02084 -0.197724,0 -0.03472,0.01157 -0.109834,0.171906 -0.19229,0.09886 -0.02065,-0.01829 0,-0.05518 0,-0.08276 0,-0.09166 0,-0.183328 0,-0.274991 0,-0.131816 0,-0.263632 0,-0.395448 0,-0.09886 -0.0082,-0.198064 0,-0.296584 0.05745,-0.689386 0.14077,-0.854318 0.09886,-1.482928 -0.01985,-0.297749 -0.09886,-0.591344 -0.09886,-0.889754 0,-0.331183 0.0782,-0.65808 0.09886,-0.988618 0.09232,-1.47706 -0.117231,0.209078 0.09886,-1.087479 0.06861,-0.411675 0.07119,-0.707877 0.197725,-1.087481 0.0233,-0.06991 0.06983,-0.129993 0.09886,-0.197722 0.06991,-0.163114 0.127819,-0.331195 0.197724,-0.494309 0.12785,-0.298316 0.278936,-0.586831 0.395445,-0.889756 0.04878,-0.126817 0.06154,-0.264803 0.09886,-0.395447 0.02863,-0.1002 0.07359,-0.195487 0.09886,-0.296585 0.04075,-0.163016 0.05058,-0.333363 0.09886,-0.494309 0.05099,-0.169977 0.13541,-0.328145 0.19772,-0.494307 1e-6,-2e-6 0.197722,-0.593168 0.197725,-0.593172 0.07755,-0.11633 0.197724,-0.197723 0.296587,-0.2965838 0.329546,-0.3295452 0.0659,-0.065903 0.395444,-0.3954468 0.09886,-0.098863 0.197725,-0.197725 0.296587,-0.2965871 0.06591,-0.065908 0.114357,-0.1560385 0.197725,-0.1977223 0.121527,-0.060764 0.263629,-0.065908 0.395444,-0.098862 0.558462,-0.1396161 0.262217,-0.072215 0.889757,-0.1977223 0.16477,-0.032954 0.330279,-0.06241 0.494311,-0.098862 0.132636,-0.029475 0.259973,-0.088442 0.395445,-0.098862 0.295712,-0.022746 0.593827,-0.019727 0.889756,0 0.62432,0.041622 0.67987,0.1432258 1.285201,0.3954467 0.654898,0.2728741 0.361435,0.1023213 0.988618,0.4943094 0.100757,0.062973 0.212571,0.1137058 0.296587,0.1977224 0.11651,0.1165092 0.1911,0.2688677 0.296583,0.3954468 0.05967,0.0716 0.131816,0.131816 0.197724,0.197724 0.03295,0.03295 0.07301,0.06009 0.09886,0.09886 0.04087,0.06131 0.08099,0.126235 0.09886,0.197722 0.01599,0.06394 0,0.131816 0,0.197725 0,0.06591 0,0.131815 0,0.197722 0,0.06591 0.01292,0.133096 0,0.197724 -0.02044,0.102186 -0.08413,0.193423 -0.09886,0.296585 -0.01864,0.130491 0,0.263631 0,0.395447 -0.06591,0.263631 -0.149113,0.523532 -0.197725,0.790894 -0.01769,0.09727 0,0.197723 0,0.296585 0,0.131815 0,0.263631 0,0.395447 0,0.164769 0.0233,0.331195 0,0.494309 -0.01042,0.07295 -0.07862,0.126872 -0.09886,0.197725 -0.276488,0.967721 0.02021,0.05629 -0.09886,0.889753 -0.01474,0.103163 -0.08413,0.193424 -0.09886,0.296587 -0.01864,0.130491 0,0.263631 0,0.395447 0,0.09886 0.01939,0.199643 0,0.296585 -0.01445,0.07226 -0.08099,0.126237 -0.09886,0.197725 -0.01599,0.06394 0.01265,0.13304 0,0.197722 -0.01949,0.09966 -0.07106,0.190755 -0.09526,0.289383 -0.0079,0.032 0,0.06591 0,0.09886 0,0.09886 0.02601,0.201207 0,0.296585 -0.07408,0.271637 -0.200366,0.526287 -0.296587,0.790893 -0.03561,0.09794 -0.06016,0.199829 -0.09886,0.296585 -0.03295,0.06591 -0.0659,0.131817 -0.09886,0.197725 -0.03295,0.03295 -0.07771,0.05733 -0.09886,0.09886 -0.01441,0.02829 0.01088,0.06543 0,0.09526 -0.05518,0.151333 -0.09116,0.03898 -0.167261,0.191175 -0.01474,0.02947 0,0.06591 0,0.09886 -0.06571,0.09808 -0.144198,0.188714 -0.197117,0.294245 -2.65e-4,5.29e-4 2.64e-4,0.197142 0,0.197682 -0.02084,0.04168 -0.07745,0.05747 -0.09886,0.09886 -0.01413,0.02732 0.01175,0.06385 0,0.09228 -0.0117,0.02831 -0.05281,0.03688 -0.06499,0.06499 -0.01126,0.02598 0.01623,0.06174 0,0.08495 -0.05342,0.07638 -0.131813,0.131817 -0.197721,0.197725 -0.03295,0.03295 -0.06008,0.07301 -0.09886,0.09886 -0.06131,0.04087 -0.145619,0.04675 -0.197724,0.09886 -0.0233,0.0233 0.0233,0.07556 0,0.09886 -0.05207,0.05207 -0.136171,0.05818 -0.197625,0.09876 -0.224465,0.148218 0.07806,0.06921 -0.291138,0.192278 -0.03126,0.01042 -0.06591,0 -0.09886,0 -0.131816,0.06591 -0.272825,0.115975 -0.395449,0.197725 -0.55173,0.36782 0.224014,0.03629 -0.494307,0.395447 -0.09321,0.0466 -0.197725,0.06591 -0.296587,0.09886 -0.09886,0.03295 -0.197721,0.06591 -0.296582,0.09886 -0.09886,0.03295 -0.196387,0.07023 -0.296587,0.09886 -1.1e-5,3e-6 -0.790885,0.197724 -0.790894,0.197725 -0.130797,0.01635 -0.26363,0 -0.395445,0 -0.16477,0 -0.331197,0.0233 -0.494311,0 -0.07295,-0.01042 -0.125468,-0.08441 -0.197725,-0.09886 -0.09694,-0.01939 -0.197721,0 -0.296582,0 -0.197725,0 -0.395449,0 -0.593174,0 -0.296584,0 -0.593168,0 -0.889752,0 -0.230678,0 -0.461357,0 -0.692036,0 -0.06591,0 -0.131813,0 -0.19772,0 -0.06591,0 -0.133096,-0.01292 -0.197724,0 -1.024071,0.341357 0.408791,-0.101527 -0.59317,0.09886 -0.07226,0.01445 -0.127818,0.07556 -0.197724,0.09886 -0.03126,0.01042 -0.06591,0 -0.09886,0 -0.09886,0 -0.197724,0 -0.296587,0 -0.296584,0 -0.593169,0 -0.889753,0 -0.131816,0 -0.264957,-0.01864 -0.395447,0 -0.103162,0.01474 -0.197724,0.06591 -0.296585,0.09886 -0.16477,0 -0.330547,-0.01819 -0.494309,0 -0.33287,0.03699 -0.39208,0.122737 -0.692032,0.197725 -0.163016,0.04075 -0.327965,0.0751 -0.494309,0.09886 -0.250363,0.03577 -0.3053751,-0.05775 -0.5931716,-0.09886 -0.097868,-0.01398 -0.1977231,0 -0.2965847,0 -0.098862,0 -0.1977231,0 -0.2965847,0 -0.1318157,0 -0.2636313,0 -0.395447,0 -0.065908,0 -0.1330963,-0.01293 -0.1977245,0 -0.1021855,0.02044 -0.1954868,0.07359 -0.2965846,0.09886 -0.03197,0.008 -0.065908,0 -0.098862,0 -0.024278,0 -0.05107,-0.01076 -0.072834,0 -0.153048,0.07566 -0.014288,0.05551 -0.071208,0.168528 -0.2112674,0.419494 0.00913,-0.104311 -0.1940377,0.09886 -0.00175,0.0017 0.00172,0.185733 0,0.188648 -0.019267,0.03291 -0.074018,0.03323 -0.093384,0.06608 -0.015629,0.02651 0,0.06154 0,0.09232 0,0.02097 0,0.04194 0,0.06291 0,0.0193 -0.00858,0.04062 0,0.05791 0.011933,0.02406 0.037981,0.03798 0.056972,0.05697 0,0.04951 -0.013594,0.100929 0,0.14854 0.02023,0.07086 0.08099,0.126237 0.098862,0.197725 0.015986,0.06394 -0.029475,0.138774 0,0.197724 0.014737,0.02948 0.080582,-0.02742 0.098862,0 0.057805,0.08671 0.045252,0.207222 0.098862,0.296583 0.3053887,0.509038 0.07537,0.09904 0.2930065,0.197634 0.1214961,0.05504 0.1260721,0.175544 0.193997,0.275892 0.026125,0.03859 0.069749,0.06247 0.098862,0.09886 0.1029304,0.128663 0.2051873,0.258349 0.2965847,0.395445 0.061864,0.0928 0.083338,0.238345 0.1977245,0.296587 0.028309,0.01441 0.063535,0 0.095302,0 0.022111,0 0.04422,0 0.06633,0 0.017822,0 0.039291,-0.0108 0.053469,0 0.033118,0.02523 0.040408,0.07781 0.076322,0.09886 0.02654,0.01556 0.070541,-0.02175 0.092295,0 0.021754,0.02175 -0.02149,0.07028 0,0.0923 0.020976,0.02149 0.060061,0 0.090091,0 0.016373,0 0.037872,0.0119 0.049116,0 0.011901,-0.01259 -0.015047,-0.04339 0,-0.05198 0.026355,-0.01505 0.064126,0.01402 0.091045,0 0.041338,-0.02152 0.057178,-0.07802 0.098862,-0.09886 0.029475,-0.01474 0.069387,0.01474 0.098862,0 0.041683,-0.02084 0.057333,-0.07771 0.09886,-0.09886 0.02829,-0.01441 0.06673,0.01399 0.09523,0 0.331227,-0.162547 -0.1360325,-0.02725 0.197643,-0.194051 0.02948,-0.01473 0.06591,0 0.09886,0 0.06591,0 0.131816,0 0.197724,0 0.09886,0 0.197723,0 0.296585,0 0.06591,0 0.134137,-0.01734 0.197722,0 0.301613,0.08226 0.585134,0.226289 0.889756,0.296587 0.12844,0.02964 0.26465,-0.01635 0.395447,0 0.251436,-0.01654 0.454537,0.163793 0.692034,0.19772 0.13049,0.01864 0.265424,-0.02167 0.395445,0 0.07268,0.01212 0.125468,0.08441 0.197725,0.09886 0.09694,0.01939 0.198718,-0.01398 0.296586,0 0.134507,0.01922 0.260939,0.07965 0.395445,0.09886 0.09787,0.01398 0.197725,0 0.296587,0 0.09886,0 0.197722,0 0.296582,0 0.263632,0 0.527263,0 0.790894,0 0.09886,0 0.19907,-0.01625 0.296587,0 0.102792,0.01713 0.193795,0.08173 0.296587,0.09886 0.09752,0.01625 0.198326,-0.01092 0.296582,0 0.199226,0.02213 0.39427,0.074 0.593174,0.09886 0.0654,0.0082 0.132141,-0.0066 0.19772,0 0.264365,0.02644 0.52653,0.07243 0.790894,0.09886 0.06558,0.0066 0.131817,0 0.197725,0 0.197723,0 0.395446,0 0.593169,0 0.197725,0 0.395449,0 0.593174,0 0.08523,0 0.170455,0 0.255682,0 0.02649,0 0.05385,0.0067 0.07947,0 0.100786,-0.0265 0.193425,-0.08413 0.296587,-0.09886 0.193749,-0.05592 0.397434,0.02796 0.593169,0 0.166345,-0.02377 0.332744,-0.0527 0.494312,-0.09886 0.07085,-0.02024 0.131813,-0.06591 0.19772,-0.09886 0.175752,-0.08788 0.290709,-0.157004 0.494312,-0.197725 0.06463,-0.01292 0.133096,0.01293 0.197724,0 0.102185,-0.02044 0.193179,-0.08593 0.296583,-0.09886 0.163498,-0.02044 0.329541,0 0.494311,0 0.09886,0 0.198485,0.01226 0.296583,0 1.36974,-0.171218 -0.569166,-0.03813 1.186342,-0.197724 0.758068,-0.06892 0.116025,-0.02042 0.59317,0.09886 0.06394,0.01599 0.131816,0 0.197725,0 0.06591,0 0.131813,0 0.19772,0 0.09886,0 0.199069,-0.01625 0.296587,0 0.102792,0.01713 0.197724,0.06591 0.296586,0.09886 0.164769,0.03295 0.327573,0.07802 0.494307,0.09886 0.0981,0.01226 0.197726,0 0.296587,0 0.06591,0 0.131816,0 0.197724,0 0.130616,0 0.261233,0 0.39185,0 0.02392,0 0.05262,0.01434 0.07177,0 0.01434,-0.01074 0,-0.07166 0,-0.05374 0,0.02975 0.01601,0.114347 0,0.08926 -0.1509,-0.236663 -0.274336,-0.489756 -0.411504,-0.734633"
       transform="translate(31.633975,-36.897567)" />
    <g
       id="g1"
       transform="matrix(0.67850029,0,0,0.67850029,5.4808618,1.7665436)">
      <path
         id="path1"
         style="stroke-width:0.0665979"
         d="m 17.049089,0.00155029 c -0.160281,0 -0.320318,0.07742296 -0.415996,0.23202718 L 15.733407,1.6867187 c -0.133197,0.011322 -0.261842,0.022705 -0.391708,0.03669 L 14.176396,0.47645671 C 13.928357,0.21126139 13.48792,0.29924204 13.360425,0.63923747 L 12.760978,2.2375895 c -0.125869,0.036629 -0.252181,0.071663 -0.376721,0.1116211 L 10.997262,1.3503052 C 10.702081,1.1384574 10.287229,1.3110563 10.228833,1.6696655 L 9.9523641,3.3615519 C 9.8371485,3.42149 9.722599,3.4808505 9.6087158,3.543453 L 8.0506714,2.8354858 C 7.7183338,2.6841151 7.3432648,2.9367478 7.358724,3.3016073 L 7.419702,5.0208822 C 7.3204727,5.1001336 7.2202316,5.1799279 7.1256632,5.2611776 L 5.4503133,4.863269 C 5.0965406,4.7807135 4.7791635,5.0986074 4.8617187,5.4523804 l 0.394808,1.6753499 C 5.1746113,7.2242974 5.0949657,7.323204 5.0157145,7.4217692 L 3.2969564,7.360791 c -0.16927,-0.0051 -0.3293967,0.07676 -0.4242635,0.217041 -0.094012,0.1410339 -0.1086505,0.3207275 -0.038241,0.4749064 l 0.7100342,1.559078 C 3.4818854,9.7250331 3.4225242,9.8402501 3.3625854,9.9554647 L 1.6701823,10.231417 c -0.3586102,0.05839 -0.5306925,0.473249 -0.3188436,0.768428 l 0.9989054,1.386479 c -0.039294,0.124538 -0.074992,0.251367 -0.1116211,0.377238 l -1.598352,0.59893 c -0.33999436,0.127495 -0.42797497,0.567932 -0.16278077,0.815971 l 1.24695227,1.16582 c -0.013983,0.129867 -0.025362,0.259992 -0.03669,0.391191 l -1.45572512,0.89917 c -0.30920846,0.191353 -0.30920846,0.641152 0,0.832507 l 1.45314132,0.899687 c 0.011322,0.133194 0.022707,0.261324 0.03669,0.39119 l -1.24695229,1.165304 c -0.26519424,0.248037 -0.1772134,0.688476 0.16278076,0.815971 l 1.59835203,0.599446 c 0.036626,0.125871 0.071663,0.251667 0.1116211,0.376205 l -0.9989054,1.386995 c -0.2118477,0.295181 -0.039766,0.710033 0.3188436,0.768429 l 1.6929199,0.276469 c 0.059938,0.114547 0.1192989,0.230063 0.181901,0.342614 l -0.7079671,1.560112 c -0.070411,0.154179 -0.055771,0.333872 0.038241,0.474906 0.092228,0.143228 0.2541466,0.226008 0.4242635,0.217041 l 1.7197916,-0.06046 c 0.078586,0.09857 0.1585294,0.196216 0.2397787,0.293005 l -0.394808,1.675867 c -0.082553,0.353771 0.234823,0.671149 0.5885946,0.588594 L 7.12618,28.843717 c 0.096789,0.08125 0.1945128,0.161265 0.2935221,0.240296 l -0.060978,1.719275 c -0.012877,0.363412 0.3609721,0.613651 0.6919474,0.463021 L 9.610783,30.555241 c 0.1125512,0.0626 0.2280655,0.121444 0.3426147,0.181384 l 0.2764693,1.693437 c 0.05809,0.358895 0.473577,0.531032 0.768428,0.318327 l 1.386996,-0.999423 c 0.12387,0.03996 0.250334,0.07551 0.376204,0.112138 l 0.599447,1.598352 c 0.12808,0.339303 0.567655,0.426594 0.81597,0.162264 l 1.165304,-1.246435 c 0.129867,0.01399 0.261174,0.02536 0.391707,0.03669 l 0.899687,1.453141 c 0.191354,0.309211 0.641155,0.309211 0.832507,0 l 0.899687,-1.453141 c 0.133196,-0.01133 0.261843,-0.02258 0.391707,-0.03721 l 1.165304,1.246952 c 0.248317,0.264331 0.687889,0.177039 0.815971,-0.162264 l 0.599446,-1.598352 c 0.12587,-0.03663 0.251665,-0.07217 0.376205,-0.112138 l 1.386479,0.999423 c 0.294849,0.212703 0.710856,0.04057 0.768945,-0.318327 l 0.275952,-1.69292 c 0.11455,-0.05994 0.229916,-0.119301 0.343131,-0.181901 l 1.559595,0.711068 c 0.330976,0.15063 0.704825,-0.09961 0.691948,-0.463021 l -0.06046,-1.719275 c 0.09856,-0.07947 0.196215,-0.159489 0.293006,-0.240296 l 1.674833,0.394808 c 0.35377,0.08255 0.671664,-0.234824 0.589111,-0.588594 L 28.84165,26.974064 c 0.08125,-0.09635 0.161782,-0.193996 0.240813,-0.293005 l 1.719274,0.06046 c 0.169821,0.0076 0.331092,-0.07486 0.424264,-0.217041 0.09423,-0.140917 0.108971,-0.320615 0.03876,-0.474906 l -0.711584,-1.559595 c 0.0626,-0.113218 0.121961,-0.228585 0.181901,-0.343131 l 1.69292,-0.276469 c 0.358608,-0.0584 0.531208,-0.473249 0.31936,-0.768429 l -0.999422,-1.386995 c 0.03929,-0.124538 0.07565,-0.250335 0.111621,-0.376205 l 1.598352,-0.599446 c 0.339996,-0.127495 0.427459,-0.567933 0.162264,-0.815971 l -1.246435,-1.165304 c 0.01399,-0.129866 0.02485,-0.26066 0.03617,-0.39119 l 1.453658,-0.899687 c 0.309209,-0.191355 0.309209,-0.641154 0,-0.832507 h 0.0031 l -1.453142,-0.899687 c -0.01133,-0.133198 -0.02272,-0.261843 -0.03669,-0.391707 l 1.246952,-1.165304 c 0.265193,-0.24804 0.177213,-0.688477 -0.16278,-0.815971 l -1.598352,-0.599447 c -0.03597,-0.125202 -0.07182,-0.251815 -0.111105,-0.375687 l 0.998906,-1.386996 c 0.211849,-0.295179 0.03977,-0.710032 -0.318844,-0.768428 L 30.738692,9.9549479 C 30.678752,9.8397332 30.619393,9.7250331 30.556791,9.6118164 L 31.267859,8.0522217 C 31.41849,7.7212478 31.168769,7.3474001 30.805355,7.3602743 l -1.719792,0.060461 C 29.00609,7.3221703 28.926073,7.2245194 28.845268,7.1277303 L 29.236975,5.4523804 C 29.31953,5.0986083 29.001635,4.780715 28.647864,4.863269 l -1.67535,0.3953247 C 26.876164,5.1773439 26.778517,5.0968112 26.679508,5.0177816 L 26.73997,3.2985067 C 26.755428,2.9336502 26.380359,2.6810191 26.048022,2.8323853 l -1.559594,0.714685 C 24.375211,3.484468 24.259844,3.4244414 24.145296,3.3651693 l -0.276469,-1.69292 C 23.810431,1.31364 23.395578,1.1410412 23.100399,1.352889 L 21.711336,2.3502441 C 21.587463,2.3109514 21.461517,2.2745861 21.335649,2.238623 L 20.736202,0.640271 C 20.608707,0.30027757 20.16827,0.21281392 19.920231,0.478007 L 18.754928,1.7249593 C 18.625062,1.7109744 18.494419,1.699591 18.36322,1.688269 L 17.465601,0.23357747 C 17.369923,0.07897325 17.209368,0.00155029 17.049089,0.00155029 Z m -0.05219,2.99723311 h 0.02997 c 0.897602,0.02475 1.323085,1.1169806 0.679028,1.7425293 -0.644057,0.6255485 -1.723802,0.1682711 -1.722375,-0.7296713 0.0011,-0.5589841 0.454391,-1.0117585 1.013374,-1.012858 z M 14.732438,4.6679321 16.29565,6.306075 c 0.351671,0.3701134 0.936904,0.3834137 1.30483,0.029456 l 1.749243,-1.665015 c 3.605777,0.6754292 6.731814,2.9021433 8.548833,6.089034 l -1.198377,2.701644 c -0.202667,0.467575 0.0072,1.011618 0.471806,1.221114 l 2.303735,1.020609 c 0.0718,0.720224 0.08094,1.445541 0.02687,2.16731 -0.114909,0.976085 -0.229946,1.952142 -0.629419,3.032373 -0.399473,1.080232 -1.083311,2.26453 -1.767334,3.448885 -0.352818,0.47273 -0.738881,0.919783 -1.154968,1.337903 l -2.140438,-0.45837 C 23.31021,25.12362 22.817643,25.44238 22.71024,25.942603 l -0.509013,2.375565 c -3.312677,1.500643 -7.114994,1.482327 -10.413318,-0.04961 L 11.279415,25.894027 C 11.173259,25.394813 10.68199,25.075975 10.182841,25.182442 L 8.0842611,25.632544 C 7.6950358,25.230844 7.3335225,24.803789 7.0016398,24.353552 L 5.0384521,20.363098 C 4.5977385,18.814974 4.4600202,17.196226 4.6333089,15.595947 c 0,0 1.5230918,-0.382295 2.0510376,-0.912606 0.2862691,-0.287551 0.465908,-0.709294 0.4898688,-1.114339 0.051016,-0.862404 -0.7560045,-2.479022 -0.7560045,-2.479022 0,0 2.0857847,-3.1134413 3.5014221,-4.2328785 C 11.426786,5.6652974 14.732438,4.6679321 14.732438,4.6679321 Z M 4.8978923,12.178585 h 0.030489 c 0.8969431,0.02532 1.3222081,1.116483 0.6790284,1.742012 C 4.9642299,14.546128 3.8853911,14.09081 3.8850342,13.19351 l -0.00155,5.17e-4 c -3.68e-4,-0.560545 0.4538646,-1.015074 1.0144081,-1.015442 z m 24.1949057,0.04547 h 0.02946 c 1.353273,0.01953 1.323821,2.049383 -0.02946,2.02985 -1.353273,0 -1.353273,-2.02985 0,-2.02985 z M 9.4852091,26.467118 h 0.029972 c 0.5478669,0.01797 0.9826649,0.467798 0.9823689,1.015959 h 0.0031 C 10.500055,28.387045 9.4070636,28.838954 8.7679389,28.199829 8.128814,27.560704 8.5812393,26.467711 9.4852077,26.467118 Z m 15.0228559,0.04599 h 0.02946 c 0.549222,0.01551 0.98605,0.465486 0.98547,1.014925 h 0.0036 c -5e-6,0.903488 -1.091848,1.356556 -1.731677,0.71882 -0.63983,-0.637738 -0.190346,-1.73078 0.713135,-1.733745 z"
         sodipodi:nodetypes="sccccccccccccccccccccccccccccccccccccccccccccccccccccccccccccccccccccccccccccccccccccccccccccccccccccccccccccccccccccccccccccccccccccsccscccccccccccsccccccccccccaaccscsscccsccsccccscccccscssc" />
      <path
         style="opacity:1;fill:none;stroke:#000000;stroke-width:2.6;stroke-linecap:square;stroke-miterlimit:6.7;stroke-dasharray:none;stroke-opacity:1"
         d="m 11.787005,17.805347 -2.7145843,0.0089 V 11.743599 L 11.078307,9.6067536 h 4.74101 l 3.014267,2.9135114 v 4.528173 l -0.989835,0.739971 h -2.302483 l -0.76784,-0.739971 v -4.568203 l 3.272937,-2.8734814 h 3.753571 l 2.422999,2.9135114 v 6.730014 l -2.269637,1.322837 c -4.277594,0.09321 -12.8891135,0.03161 -12.8891135,0.03161 l 0.011591,1.739071 1.0755165,1.185723 h 18.024882"
         id="path11"
         sodipodi:nodetypes="cccccccccccccccccccc" />
    </g>
    <circle
       id="path15"
       style="fill:#000000;stroke:none;stroke-width:0.264583"
       cx="24.678555"
       cy="24.153053"
       r="0" />
    <g
       id="g5"
       transform="translate(0.40867878,0.64111533)">
      <path
         style="fill:none;stroke:#000000;stroke-width:0.734;stroke-linecap:square;stroke-miterlimit:6.7;stroke-dasharray:none;stroke-opacity:1"
         d="m 8.5907203,29.194536 -0.766064,0.0025 v -1.71316 l 0.5660671,-0.603024 h 1.3379278 l 0.8506358,0.822217 v 1.277865 l -0.279335,0.208822 H 9.6501842 L 9.4334973,28.980934 V 27.691773 L 10.35713,26.880868 h 1.059269 l 0.683778,0.822201 V 29.6023 l -0.640498,0.373309 c -1.207151,0.0263 -3.6373477,0.0089 -3.6373477,0.0089 l 0.00329,0.490772 0.303514,0.334614 h 3.9914197"
         id="path11-3"
         sodipodi:nodetypes="cccccccccccccccccccc" />
      <path
         style="fill:none;stroke:#000000;stroke-width:0.734;stroke-linecap:square;stroke-miterlimit:6.7;stroke-dasharray:none;stroke-opacity:1"
         d="m 13.630548,29.194351 h -0.602585 v 0 -1.596137 l 0.622493,-0.712399 h 1.247971 l 0.86616,0.712399 v 1.59365 l -1.297721,0.0025 v -1.600578 l 0.945441,-0.712496 1.997588,0.0046 v 0.335079 0.52299 l -0.369957,0.298104 0.345809,0.35971 v 0.445872 l -0.3228,0.346768 h -0.467484"
         id="path2"
         sodipodi:nodetypes="ccccccccccccccccccc" />
      <path
         id="path4"
         style="fill:none;stroke:#000000;stroke-width:0.733999;stroke-linecap:square;stroke-miterlimit:6.7;stroke-dasharray:none;stroke-opacity:1"
         d="m 21.153572,29.19711 v -2.316122 0 h 2.546278 l -0.02126,1.277922 -0.843195,0.649527 -4.94e-4,0.388673 h 2.571108 v -2.316122 m -5.749443,2.316122 h -1.246277 v -2.316122 h 1.737905 l 0.798469,0.94875"
         sodipodi:nodetypes="cccccccccccccc" />
      <path
         style="fill:none;stroke:#000000;stroke-width:0.733999;stroke-linecap:square;stroke-miterlimit:6.7;stroke-dasharray:none;stroke-opacity:1"
         d="m 24.266785,25.268384 v 0.753845 h 1.380967 l 0.663876,-0.383289 v -0.370556"
         id="path5"
         sodipodi:nodetypes="ccccc" />
    </g>
  </g>
</svg>
