<?xml version="1.0" encoding="UTF-8" standalone="no"?>
<!-- Created with Inkscape (http://www.inkscape.org/) -->

<svg
   width="2000"
   height="2000"
   viewBox="0 0 33.866667 33.866667"
   version="1.1"
   id="svg1"
   inkscape:version="1.3.2 (091e20ef0f, 2023-11-25, custom)"
   sodipodi:docname="oombi.svg"
   inkscape:export-filename="rust.png"
   inkscape:export-xdpi="1500"
   inkscape:export-ydpi="1500"
   xml:space="preserve"
   xmlns:inkscape="http://www.inkscape.org/namespaces/inkscape"
   xmlns:sodipodi="http://sodipodi.sourceforge.net/DTD/sodipodi-0.dtd"
   xmlns:xlink="http://www.w3.org/1999/xlink"
   xmlns="http://www.w3.org/2000/svg"
   xmlns:svg="http://www.w3.org/2000/svg"><sodipodi:namedview
     id="namedview1"
     pagecolor="#505050"
     bordercolor="#ffffff"
     borderopacity="1"
     inkscape:showpageshadow="0"
     inkscape:pageopacity="0"
     inkscape:pagecheckerboard="1"
     inkscape:deskcolor="#524b4b"
     inkscape:document-units="mm"
     inkscape:zoom="4.5709891"
     inkscape:cx="78.210643"
     inkscape:cy="77.663716"
     inkscape:window-width="1920"
     inkscape:window-height="1048"
     inkscape:window-x="0"
     inkscape:window-y="32"
     inkscape:window-maximized="1"
     inkscape:current-layer="layer1"
     showguides="true"><sodipodi:guide
       position="-146.16411,8.9429168"
       orientation="0,-1"
       id="guide37"
       inkscape:locked="false" /><sodipodi:guide
       position="-154.08192,46.361615"
       orientation="0,-1"
       id="guide38"
       inkscape:locked="false" /><sodipodi:guide
       position="15.214663,18.114399"
       orientation="0,-1"
       id="guide52"
       inkscape:locked="false" /><sodipodi:guide
       position="15.214663,14.068071"
       orientation="0,-1"
       id="guide53"
       inkscape:locked="false" /></sodipodi:namedview><defs
     id="defs1"><inkscape:path-effect
       effect="simplify"
       id="path-effect10"
       is_visible="true"
       lpeversion="1.3"
       threshold="10.8696"
       steps="1"
       smooth_angles="360"
       helper_size="0"
       simplify_individual_paths="false"
       simplify_just_coalesce="false" /><inkscape:path-effect
       effect="skeletal"
       id="path-effect9"
       is_visible="true"
       lpeversion="1"
       pattern="M 0,4.9921384 C 0,2.236478 2.236478,0 4.9921384,0 c 2.7556604,0 4.9921384,2.236478 4.9921384,4.9921384 0,2.7556604 -2.236478,4.9921384 -4.9921384,4.9921384 C 2.236478,9.9842768 0,7.7477988 0,4.9921384 Z"
       copytype="single_stretched"
       prop_scale="5.5"
       scale_y_rel="false"
       spacing="0"
       normal_offset="0"
       tang_offset="0"
       prop_units="false"
       vertical_pattern="false"
       hide_knot="false"
       fuse_tolerance="0" /><inkscape:path-effect
       effect="simplify"
       id="path-effect8"
       is_visible="true"
       lpeversion="1.3"
       threshold="10.8696"
       steps="1"
       smooth_angles="360"
       helper_size="0"
       simplify_individual_paths="false"
       simplify_just_coalesce="false" /><inkscape:path-effect
       effect="skeletal"
       id="path-effect7"
       is_visible="true"
       lpeversion="1"
       pattern="M 0,4.9921384 C 0,2.236478 2.236478,0 4.9921384,0 c 2.7556604,0 4.9921384,2.236478 4.9921384,4.9921384 0,2.7556604 -2.236478,4.9921384 -4.9921384,4.9921384 C 2.236478,9.9842768 0,7.7477988 0,4.9921384 Z"
       copytype="single_stretched"
       prop_scale="5.5"
       scale_y_rel="false"
       spacing="0"
       normal_offset="0"
       tang_offset="0"
       prop_units="false"
       vertical_pattern="false"
       hide_knot="false"
       fuse_tolerance="0" /><inkscape:path-effect
       effect="simplify"
       id="path-effect6"
       is_visible="true"
       lpeversion="1.3"
       threshold="0.00108696"
       steps="1"
       smooth_angles="360"
       helper_size="0"
       simplify_individual_paths="false"
       simplify_just_coalesce="false" /><inkscape:path-effect
       effect="bspline"
       id="path-effect4"
       is_visible="true"
       lpeversion="1.3"
       weight="33.333333"
       steps="2"
       helper_size="0"
       apply_no_weight="true"
       apply_with_weight="true"
       only_selected="false"
       uniform="false" /><inkscape:path-effect
       effect="bspline"
       id="path-effect3"
       is_visible="true"
       lpeversion="1.3"
       weight="33.333333"
       steps="2"
       helper_size="0"
       apply_no_weight="true"
       apply_with_weight="true"
       only_selected="false"
       uniform="false" /><inkscape:path-effect
       effect="bspline"
       id="path-effect2"
       is_visible="true"
       lpeversion="1.3"
       weight="33.333333"
       steps="2"
       helper_size="0"
       apply_no_weight="true"
       apply_with_weight="true"
       only_selected="false"
       uniform="false" /><linearGradient
       id="deviconNodejs0"
       x1="34.513"
       x2="27.157"
       y1="15.535"
       y2="30.448"
       gradientTransform="matrix(1.6365088,0,0,1.6365088,290.58155,21.983)"
       gradientUnits="userSpaceOnUse"><stop
         stop-color="#3F873F"
         id="stop3" /><stop
         offset=".33"
         stop-color="#3F8B3D"
         id="stop4" /><stop
         offset=".637"
         stop-color="#3E9638"
         id="stop5" /><stop
         offset=".934"
         stop-color="#3DA92E"
         id="stop6" /><stop
         offset="1"
         stop-color="#3DAE2B"
         id="stop7" /></linearGradient><linearGradient
       id="deviconNodejs1"
       x1="30.009"
       x2="50.533"
       y1="23.359"
       y2="8.288"
       gradientTransform="matrix(1.6365088,0,0,1.6365088,290.58155,21.983)"
       gradientUnits="userSpaceOnUse"><stop
         offset=".138"
         stop-color="#3F873F"
         id="stop8" /><stop
         offset=".402"
         stop-color="#52A044"
         id="stop9" /><stop
         offset=".713"
         stop-color="#64B749"
         id="stop10" /><stop
         offset=".908"
         stop-color="#6ABF4B"
         id="stop11" /></linearGradient><linearGradient
       id="deviconNodejs2"
       x1="21.917"
       x2="40.555"
       y1="22.261"
       y2="22.261"
       gradientTransform="matrix(1.6365088,0,0,1.6365088,290.58155,21.983)"
       gradientUnits="userSpaceOnUse"><stop
         offset=".092"
         stop-color="#6ABF4B"
         id="stop12" /><stop
         offset=".287"
         stop-color="#64B749"
         id="stop13" /><stop
         offset=".598"
         stop-color="#52A044"
         id="stop14" /><stop
         offset=".862"
         stop-color="#3F873F"
         id="stop15" /></linearGradient><clipPath
       clipPathUnits="userSpaceOnUse"
       id="clipPath40"><path
         style="stroke-width:0.172619"
         d="m 348.67952,70.223354 c 0.46606,0 0.88035,-0.241647 1.10476,-0.638688 l 6.09343,-10.58154 c 0.10353,-0.172603 0.15539,-0.379772 0.17261,-0.586901 v -0.103563 c 0,-0.207127 -0.069,-0.397034 -0.17261,-0.586904 l -6.09343,-10.564284 c -0.22443,-0.397034 -0.65596,-0.638683 -1.10476,-0.638683 l -16.39881,0.01744 c -0.22439,0 -0.43155,0.120825 -0.55238,0.310732 -0.12082,0.189905 -0.12082,0.431549 0,0.638691 l 3.60774,6.283333 c 0.24165,0.397034 0.65595,0.638688 1.10476,0.638688 h 7.66428 c 0.44881,0 0.88035,0.241647 1.10475,0.638694 l 1.53632,2.675557 c 0.12083,0.207126 0.17261,0.414292 0.17261,0.638693 0,0.224385 -0.0518,0.448805 -0.17261,0.638688 l -1.53632,2.675594 c -0.22438,0.397034 -0.65594,0.638688 -1.10475,0.638688 h -7.66428 c -0.44881,0 -0.88036,0.241647 -1.10476,0.638691 l -3.60774,6.28332 c -0.12082,0.189865 -0.12082,0.448807 0,0.638688 0.10352,0.189868 0.32799,0.310732 0.55238,0.310732 z"
         id="path41" /></clipPath><linearGradient
       id="deviconNodejs0-6"
       x1="34.513"
       x2="27.157"
       y1="15.535"
       y2="30.448"
       gradientTransform="matrix(0.19659833,0,0,0.19659833,2.981536,13.387058)"
       gradientUnits="userSpaceOnUse"><stop
         stop-color="#3F873F"
         id="stop3-7" /><stop
         offset=".33"
         stop-color="#3F8B3D"
         id="stop4-5" /><stop
         offset=".637"
         stop-color="#3E9638"
         id="stop5-3" /><stop
         offset=".934"
         stop-color="#3DA92E"
         id="stop6-5" /><stop
         offset="1"
         stop-color="#3DAE2B"
         id="stop7-6" /></linearGradient><linearGradient
       id="deviconNodejs1-2"
       x1="30.009"
       x2="50.533"
       y1="23.359"
       y2="8.288"
       gradientTransform="matrix(0.19659833,0,0,0.19659833,2.981536,13.387058)"
       gradientUnits="userSpaceOnUse"><stop
         offset=".138"
         stop-color="#3F873F"
         id="stop8-9" /><stop
         offset=".402"
         stop-color="#52A044"
         id="stop9-1" /><stop
         offset=".713"
         stop-color="#64B749"
         id="stop10-2" /><stop
         offset=".908"
         stop-color="#6ABF4B"
         id="stop11-7" /></linearGradient><linearGradient
       id="deviconNodejs2-0"
       x1="21.917"
       x2="40.555"
       y1="22.261"
       y2="22.261"
       gradientTransform="matrix(0.19659833,0,0,0.19659833,2.981536,13.387058)"
       gradientUnits="userSpaceOnUse"><stop
         offset=".092"
         stop-color="#6ABF4B"
         id="stop12-9" /><stop
         offset=".287"
         stop-color="#64B749"
         id="stop13-3" /><stop
         offset=".598"
         stop-color="#52A044"
         id="stop14-6" /><stop
         offset=".862"
         stop-color="#3F873F"
         id="stop15-0" /></linearGradient><linearGradient
       inkscape:collect="always"
       xlink:href="#deviconNodejs2-0"
       id="linearGradient8"
       gradientUnits="userSpaceOnUse"
       gradientTransform="matrix(0.19659833,0,0,0.19659833,-1.136776,13.387058)"
       x1="21.917"
       y1="22.261"
       x2="40.555"
       y2="22.261" /><linearGradient
       inkscape:collect="always"
       xlink:href="#deviconNodejs1-2"
       id="linearGradient9"
       gradientUnits="userSpaceOnUse"
       gradientTransform="matrix(0.19659833,0,0,0.19659833,-1.136776,13.387058)"
       x1="30.009"
       y1="23.359"
       x2="50.533"
       y2="8.288" /><linearGradient
       inkscape:collect="always"
       xlink:href="#deviconNodejs0-6"
       id="linearGradient10"
       gradientUnits="userSpaceOnUse"
       gradientTransform="matrix(0.19659833,0,0,0.19659833,-1.136776,13.387058)"
       x1="34.513"
       y1="15.535"
       x2="27.157"
       y2="30.448" /><linearGradient
       inkscape:collect="always"
       xlink:href="#deviconNodejs0-6"
       id="linearGradient13"
       gradientUnits="userSpaceOnUse"
       gradientTransform="matrix(0.19659833,0,0,0.19659833,2.981536,13.387058)"
       x1="34.513"
       y1="15.535"
       x2="27.157"
       y2="30.448" /><linearGradient
       inkscape:collect="always"
       xlink:href="#deviconNodejs1-2"
       id="linearGradient14"
       gradientUnits="userSpaceOnUse"
       gradientTransform="matrix(0.19659833,0,0,0.19659833,2.981536,13.387058)"
       x1="30.009"
       y1="23.359"
       x2="50.533"
       y2="8.288" /><linearGradient
       inkscape:collect="always"
       xlink:href="#deviconNodejs2-0"
       id="linearGradient15"
       gradientUnits="userSpaceOnUse"
       gradientTransform="matrix(0.19659833,0,0,0.19659833,2.981536,13.387058)"
       x1="21.917"
       y1="22.261"
       x2="40.555"
       y2="22.261" /></defs><g
     inkscape:label="Layer 1"
     inkscape:groupmode="layer"
     id="layer1"><rect
       style="fill:#ffffff;stroke:none;stroke-width:0.733999;stroke-linecap:square;stroke-miterlimit:6.7;fill-opacity:1"
       id="rect1"
       width="33.866665"
       height="33.866665"
       x="0"
       y="0" /><g
       id="g1"><path
         style="stroke-width:0.03038"
         d="m 20.871641,10.0482 -0.0243,0.01519 h 0.03342 z"
         id="path9" /><g
         id="g13"
         transform="translate(3.2691697)"><path
           style="stroke-width:0.03038"
           d="m 23.186599,14.003681 -0.01216,-0.02127 v 0.02734 z"
           id="path10" /><path
           style="stroke-width:0.0260423"
           d="m 18.644315,14.090766 v 4.593871 c 0,0.06771 0.03646,0.132815 0.09636,0.166671 l 1.596396,0.921899 c 0.05989,0.03385 0.132817,0.03385 0.192714,0 l 1.596396,-0.921899 c 0.05989,-0.03386 0.09636,-0.09896 0.09636,-0.166671 v -1.843799 c 0,-0.06771 -0.03646,-0.132817 -0.09636,-0.166671 l -1.596396,-0.921899 c -0.05989,-0.03385 -0.132816,-0.03385 -0.192714,0 l -0.398447,0.229172 c -0.04427,0.02604 -0.101566,-0.0078 -0.101566,-0.0573 v -2.447978 c 0,-0.07292 -0.07813,-0.119795 -0.143233,-0.08334 l -0.950545,0.531264 c -0.05989,0.03125 -0.09896,0.09636 -0.09896,0.166671 m 1.197948,3.35686 c 0,-0.01823 0.01042,-0.03386 0.02344,-0.04167 l 0.54689,-0.317717 c 0.01563,-0.0078 0.03386,-0.0078 0.04948,0 l 0.54689,0.317717 c 0.01563,0.0078 0.02344,0.02344 0.02344,0.04167 v 0.632828 c 0,0.01823 -0.01042,0.03386 -0.02344,0.04167 l -0.54689,0.315113 c -0.01563,0.0078 -0.03386,0.0078 -0.04688,0 L 19.86831,18.122116 c -0.01563,-0.0078 -0.02344,-0.02344 -0.02344,-0.04167 v -0.632828 z"
           id="path5" /><path
           style="stroke-width:0.028611"
           d="m 15.295482,16.97396 c 0,-0.07725 -0.04005,-0.145917 -0.105861,-0.183111 l -1.753858,-1.009971 c -0.02861,-0.01716 -0.06293,-0.02575 -0.09728,-0.02861 h -0.01716 c -0.03433,0 -0.0658,0.01144 -0.09728,0.02861 l -1.750997,1.009971 c -0.06581,0.03721 -0.105861,0.108721 -0.105861,0.183111 l 0.0029,2.718051 c 0,0.0372 0.02003,0.07153 0.05151,0.09155 0.03148,0.02003 0.07153,0.02003 0.105861,0 l 1.041443,-0.597971 c 0.0658,-0.04005 0.10586,-0.108723 0.10586,-0.18311 v -1.270331 c 0,-0.07439 0.04005,-0.145917 0.105861,-0.183111 l 0.443471,-0.254639 c 0.03433,-0.02003 0.06866,-0.02861 0.105861,-0.02861 0.03721,0 0.07439,0.0086 0.105861,0.02861 l 0.443472,0.254639 c 0.0658,0.0372 0.105861,0.108723 0.105861,0.183111 v 1.270331 c 0,0.07439 0.04005,0.145916 0.105862,0.18311 l 1.041442,0.597971 c 0.03148,0.02003 0.07439,0.02003 0.105861,0 0.03148,-0.01717 0.0515,-0.05436 0.0515,-0.09155 z"
           id="path4" /><path
           fill="#539e43"
           d="m 22.360556,23.00462 c -0.04996,0 -0.09659,-0.01332 -0.139893,-0.03664 l -0.443021,-0.263146 c -0.06662,-0.03664 -0.03331,-0.04996 -0.01332,-0.05662 0.08993,-0.02998 0.106585,-0.03664 0.199847,-0.08994 0.01001,-0.0066 0.02333,-0.0033 0.03331,0.0033 l 0.339767,0.203191 c 0.01332,0.0066 0.02998,0.0066 0.03997,0 l 1.32905,-0.769439 c 0.01332,-0.0066 0.01999,-0.01999 0.01999,-0.03664 v -1.535572 c 0,-0.01665 -0.0066,-0.02998 -0.01999,-0.03664 l -1.32905,-0.766121 c -0.01332,-0.0066 -0.02998,-0.0066 -0.03997,0 l -1.32905,0.766133 c -0.01332,0.0066 -0.01999,0.02332 -0.01999,0.03664 v 1.53556 c 0,0.01332 0.0066,0.02998 0.01999,0.03664 l 0.363081,0.20984 c 0.19653,0.09992 0.319756,-0.01665 0.319756,-0.133232 v -1.515587 c 0,-0.01999 0.01667,-0.03997 0.03998,-0.03997 h 0.169883 c 0.01999,0 0.03997,0.01665 0.03997,0.03997 v 1.515575 c 0,0.263145 -0.143237,0.416361 -0.393059,0.416361 -0.07661,0 -0.136563,0 -0.306433,-0.08327 l -0.349758,-0.199828 c -0.0866,-0.04998 -0.139893,-0.143238 -0.139893,-0.243163 v -1.535547 c 0,-0.09992 0.05329,-0.193186 0.139894,-0.24316 l 1.32905,-0.769439 c 0.08327,-0.04663 0.196517,-0.04663 0.279787,0 l 1.32905,0.769439 c 0.0866,0.04996 0.139893,0.143224 0.139893,0.24316 v 1.53556 c 0,0.09992 -0.05329,0.193186 -0.139893,0.243148 l -1.32905,0.769464 c -0.0433,0.01999 -0.09326,0.02998 -0.139894,0.02998 m 0.4097,-1.055912 c -0.582913,0 -0.702822,-0.266463 -0.702822,-0.49297 0,-0.01999 0.01665,-0.03997 0.03997,-0.03997 h 0.173201 c 0.01999,0 0.03666,0.01332 0.03666,0.0333 0.02665,0.176533 0.103255,0.263145 0.456331,0.263145 0.2798,0 0.399721,-0.06329 0.399721,-0.21317 0,-0.08661 -0.03331,-0.149899 -0.469667,-0.193211 -0.363069,-0.03664 -0.589575,-0.116578 -0.589575,-0.406358 0,-0.269819 0.226493,-0.429698 0.606229,-0.429698 0.426354,0 0.636207,0.146556 0.662854,0.466325 0,0.01 -0.0033,0.01999 -0.01,0.02998 -0.0066,0.0066 -0.01665,0.01332 -0.02665,0.01332 h -0.173205 c -0.01667,0 -0.03331,-0.01332 -0.03665,-0.02998 -0.03997,-0.183193 -0.143224,-0.243147 -0.416362,-0.243147 -0.306433,0 -0.343085,0.106585 -0.343085,0.186524 0,0.09661 0.0433,0.12657 0.456332,0.179863 0.409713,0.05329 0.602898,0.129914 0.602898,0.416374 -0.0033,0.293123 -0.243147,0.459663 -0.666183,0.459663"
           id="path1"
           style="stroke-width:0.012569" /><path
           style="stroke-width:0.028611"
           d="m 17.914672,16.97396 c 0,-0.07725 -0.04005,-0.145917 -0.10586,-0.183111 l -1.753857,-1.009971 c -0.02861,-0.01716 -0.06293,-0.02575 -0.09728,-0.02861 H 15.9405 c -0.03433,0 -0.0658,0.01144 -0.09728,0.02861 l -1.750993,1.009971 c -0.06581,0.03721 -0.105861,0.108721 -0.105861,0.183111 l 0.0029,1.892019 c 0,0.0372 0.02003,0.07153 0.05151,0.09156 0.03148,0.02003 0.07153,0.02003 0.105861,0 l 1.041443,0.22806 c 0.0658,-0.04005 0.10586,-0.108722 0.10586,-0.18311 v -1.270328 c 0,-0.07439 0.04005,-0.145917 0.105861,-0.183111 l 0.443472,-0.254639 c 0.03433,-0.02003 0.06866,-0.02861 0.105861,-0.02861 0.0372,0 0.07439,0.0086 0.10586,0.02861 l 0.443473,0.254639 c 0.0658,0.0372 0.105861,0.108723 0.105861,0.183111 v 1.270331 c 0,0.07439 0.04005,0.145916 0.10586,0.18311 l 1.041443,0.597971 c 0.03148,0.02003 0.07439,0.02003 0.105861,0 0.03148,-0.01717 0.05151,-0.05436 0.05151,-0.09155 z"
           id="path13"
           sodipodi:nodetypes="ccccscccccccssccsccssccccc" /><path
           style="stroke-width:0.024464"
           d="m 24.098303,15.908837 c 0,-0.06605 -0.03425,-0.124766 -0.09052,-0.156569 l -0.948918,0.665722 c 0,0 -0.02137,0.01465 -0.04899,0.03208 -0.02715,0.01712 -0.03866,0.100184 -0.03866,0.100184 l 0.0066,1.13215 v 1.448323 c 0,0.0636 0.03425,0.124766 0.09052,0.156569 l 0.890487,0.511297 c 0.02692,0.01713 0.0636,0.01713 0.09052,0 0.02692,-0.01468 0.04404,-0.04648 0.04404,-0.07829 z"
           id="path15"
           sodipodi:nodetypes="cccsccsccccc" /><path
           fill="url(#deviconNodejs0)"
           d="m 9.2177786,15.756321 a 0.19293572,0.19293572 0 0 0 -0.1918234,0 l -1.583535,0.919704 c -0.060233,0.03407 -0.094084,0.09837 -0.094084,0.166553 v 1.843157 c 0,0.06811 0.037601,0.132449 0.09402,0.166554 l 1.5835351,0.919671 a 0.19293572,0.19293572 0 0 0 0.191855,0 l 1.5835357,-0.919703 c 0.0602,-0.03407 0.09401,-0.09841 0.09401,-0.166554 v -1.843125 c 0,-0.06815 -0.0376,-0.132449 -0.09401,-0.166553 z"
           id="path1-3"
           style="fill:url(#linearGradient13);stroke-width:0.031785" /><path
           fill="url(#deviconNodejs1)"
           d="M 10.805096,16.676025 9.2140597,15.756321 a 0.25939845,0.25939845 0 0 0 -0.048917,-0.01892 l -1.7828915,3.069426 a 0.19868885,0.19868885 0 0 0 0.052668,0.04546 l 1.5910682,0.919672 c 0.045135,0.02648 0.097772,0.03407 0.1466884,0.01892 l 1.6738062,-3.080774 a 0.11766855,0.11766855 0 0 0 -0.04139,-0.03407"
           id="path2"
           style="fill:url(#linearGradient14);stroke-width:0.031785" /><path
           fill="url(#deviconNodejs2)"
           d="m 10.805128,18.852193 c 0.04514,-0.02648 0.07898,-0.0719 0.09402,-0.121101 l -1.7415019,-2.99756 c -0.045135,-0.0076 -0.094052,-0.0038 -0.1354046,0.02273 l -1.5797845,0.915921 1.7038736,3.126226 c 0.022567,-0.0038 0.048949,-0.01133 0.071516,-0.02273 z"
           id="path3"
           style="fill:url(#linearGradient15);stroke-width:0.031785" /><path
           fill="url(#deviconNodejs0)"
           d="m 5.0994666,15.756321 a 0.19293572,0.19293572 0 0 0 -0.1918234,0 l -1.583535,0.919704 c -0.060233,0.03407 -0.094084,0.09837 -0.094084,0.166553 v 1.843157 c 0,0.06811 0.037601,0.132449 0.09402,0.166554 l 1.5835351,0.919671 a 0.19293572,0.19293572 0 0 0 0.191855,0 L 6.68297,18.852257 c 0.0602,-0.03407 0.09401,-0.09841 0.09401,-0.166554 v -1.843125 c 0,-0.06815 -0.0376,-0.132449 -0.09401,-0.166553 z"
           id="path6"
           style="fill:url(#linearGradient10);stroke-width:0.031785" /><path
           fill="url(#deviconNodejs1)"
           d="M 6.686784,16.676025 5.0957477,15.756321 a 0.25939845,0.25939845 0 0 0 -0.048917,-0.01892 l -1.7828915,3.069426 a 0.19868885,0.19868885 0 0 0 0.052668,0.04546 l 1.5910682,0.919672 c 0.045135,0.02648 0.097772,0.03407 0.1466884,0.01892 L 6.72817,16.710105 a 0.11766855,0.11766855 0 0 0 -0.04139,-0.03407"
           id="path7"
           style="fill:url(#linearGradient9);stroke-width:0.031785" /><path
           fill="url(#deviconNodejs2)"
           d="m 6.686816,18.852193 c 0.04514,-0.02648 0.07898,-0.0719 0.09402,-0.121101 l -1.7415019,-2.99756 c -0.045135,-0.0076 -0.094052,-0.0038 -0.1354046,0.02273 l -1.5797845,0.915921 1.7038736,3.126226 c 0.022567,-0.0038 0.048949,-0.01133 0.071516,-0.02273 z"
           id="path8"
           style="fill:url(#linearGradient8);stroke-width:0.031785" /></g></g></g></svg>
