<?xml version="1.0" encoding="UTF-8" standalone="no"?>
<svg
   class="h-fit w-full"
   viewBox="0 0 134.41 11.112"
   version="1.1"
   id="svg1"
   sodipodi:docname="curve.svg"
   inkscape:version="1.3.2 (091e20ef0f, 2023-11-25, custom)"
   xmlns:inkscape="http://www.inkscape.org/namespaces/inkscape"
   xmlns:sodipodi="http://sodipodi.sourceforge.net/DTD/sodipodi-0.dtd"
   xmlns="http://www.w3.org/2000/svg"
   xmlns:svg="http://www.w3.org/2000/svg">
  <defs
     id="defs1">
    <filter
       style="color-interpolation-filters:sRGB;"
       inkscape:label="Drop Shadow"
       id="filter10"
       x="-0.011718906"
       y="-0.21861309"
       width="1.0234377"
       height="1.5531998">
      <feFlood
         result="flood"
         in="SourceGraphic"
         flood-opacity="0.596078"
         flood-color="rgb(26,26,26)"
         id="feFlood9" />
      <feGaussianBlur
         result="blur"
         in="SourceGraphic"
         stdDeviation="0.600000"
         id="feGaussianBlur9" />
      <feOffset
         result="offset"
         in="blur"
         dx="0.000000"
         dy="1.000000"
         id="feOffset9" />
      <feComposite
         result="comp1"
         operator="in"
         in="flood"
         in2="offset"
         id="feComposite9" />
      <feComposite
         result="comp2"
         operator="over"
         in="SourceGraphic"
         in2="comp1"
         id="feComposite10" />
    </filter>
  </defs>
  <sodipodi:namedview
     id="namedview1"
     pagecolor="#505050"
     bordercolor="#ffffff"
     borderopacity="1"
     inkscape:showpageshadow="0"
     inkscape:pageopacity="0"
     inkscape:pagecheckerboard="1"
     inkscape:deskcolor="#d1d1d1"
     inkscape:zoom="11.868419"
     inkscape:cx="19.000003"
     inkscape:cy="7.9623072"
     inkscape:window-width="1920"
     inkscape:window-height="1048"
     inkscape:window-x="0"
     inkscape:window-y="32"
     inkscape:window-maximized="1"
     inkscape:current-layer="svg1" />
  <path
     d="m 0,0 c 1.2068,0.34311 2.4127,0.68953 3.6264,1.0082 4.0505,1.0602 8.1341,1.9936 12.24,2.8141 4.2974,0.85733 8.6201,1.5884 12.958,2.2096 4.7067,0.66934 9.4313,1.209 14.167,1.6219 5.143,0.44834 10.298,0.75062 15.458,0.9108799 5.0435,0.15506 10.091,0.17807 15.135,0.06262 5.111,-0.11289 10.218,-0.3706799 15.315,-0.7649899 4.8234,-0.3782 9.6372,-0.87897 14.432,-1.521 4.8575,-0.64754 9.6962,-1.4373 14.505,-2.3797 4.122,-0.8101 8.2222,-1.7335 12.29,-2.7832 1.4839,-0.38386 2.9459,-0.84632 4.4201,-1.2654"
     fill="#232a2d"
     stroke-width=".26458"
     style="stroke:#60a5fa;stroke-width:1;stroke-linejoin:round;stroke-dasharray:none;stroke-opacity:1;paint-order:stroke fill markers;filter:url(#filter10)"
     id="path1"
     sodipodi:nodetypes="cccccccccccc" />
</svg>
