<?xml version="1.0" encoding="UTF-8" standalone="no"?>
<svg
   width="160"
   height="250"
   version="1.1"
   viewBox="0 0 84.6656 132.29"
   id="svg43"
   sodipodi:docname="kunnamkulam.svg"
   inkscape:version="1.3.2 (091e20ef0f, 2023-11-25, custom)"
   xmlns:inkscape="http://www.inkscape.org/namespaces/inkscape"
   xmlns:sodipodi="http://sodipodi.sourceforge.net/DTD/sodipodi-0.dtd"
   xmlns="http://www.w3.org/2000/svg"
   xmlns:svg="http://www.w3.org/2000/svg">
  <sodipodi:namedview
     id="namedview43"
     pagecolor="#505050"
     bordercolor="#ffffff"
     borderopacity="1"
     inkscape:showpageshadow="0"
     inkscape:pageopacity="0"
     inkscape:pagecheckerboard="1"
     inkscape:deskcolor="#d1d1d1"
     inkscape:zoom="2.6513322"
     inkscape:cx="120.88263"
     inkscape:cy="125.03149"
     inkscape:window-width="1920"
     inkscape:window-height="1048"
     inkscape:window-x="0"
     inkscape:window-y="32"
     inkscape:window-maximized="1"
     inkscape:current-layer="svg43" />
  <defs
     id="defs5">
    <linearGradient
       id="linearGradient17"
       x1="270.82999"
       x2="259.51999"
       y1="14.854"
       y2="362.38"
       gradientUnits="userSpaceOnUse">
      <stop
         stop-color="#00ffd7"
         offset="0"
         id="stop1" />
      <stop
         stop-color="#fff"
         offset="1"
         id="stop2" />
    </linearGradient>
    <linearGradient
       id="linearGradient19"
       x1="276.04999"
       x2="276.89999"
       y1="320.5"
       y2="545.09003"
       gradientTransform="matrix(0.24736,0,0,0.24736,89.376,7.5264)"
       gradientUnits="userSpaceOnUse">
      <stop
         stop-color="#3f3f3f"
         offset="0"
         id="stop3" />
      <stop
         offset="1"
         id="stop4" />
    </linearGradient>
    <filter
       id="filter19"
       x="-0.048289888"
       y="-0.029844377"
       width="1.0965798"
       height="1.0616527"
       color-interpolation-filters="sRGB">
      <feFlood
         flood-color="rgb(0,0,0)"
         flood-opacity=".59608"
         in="SourceGraphic"
         result="flood"
         id="feFlood4" />
      <feGaussianBlur
         in="SourceGraphic"
         result="blur"
         stdDeviation="3.206609"
         id="feGaussianBlur4" />
      <feOffset
         dx="0.000000"
         dy="1.000000"
         in="blur"
         result="offset"
         id="feOffset4" />
      <feComposite
         in="flood"
         in2="offset"
         operator="in"
         result="comp1"
         id="feComposite4" />
      <feComposite
         in="SourceGraphic"
         in2="comp1"
         result="comp2"
         id="feComposite5" />
    </filter>
  </defs>
  <g
     transform="translate(-115.44383,-6.9525)"
     id="g43">
    <rect
       transform="matrix(0.24736,0,0,0.24736,89.376,7.5264)"
       x="118.75"
       y="10"
       width="314.67999"
       height="509.17001"
       ry="14.786"
       fill="url(#linearGradient17)"
       filter="url(#filter19)"
       stroke="#f4f4f4"
       stroke-linecap="round"
       stroke-linejoin="round"
       stroke-miterlimit="6.7"
       stroke-width="15"
       style="fill:url(#linearGradient17);paint-order:stroke fill markers"
       id="rect5" />
    <path
       d="m 118.75,66.925 v 65.366 c 0,2.0263 1.6313,3.6576 3.6576,3.6576 h 70.526 c 2.0263,0 3.6574,-1.6313 3.6574,-3.6576 V 66.925 a 79.003,79.003 0 0 1 -38.92,10.471 79.003,79.003 0 0 1 -38.92,-10.471 z"
       fill="url(#linearGradient19)"
       style="fill:url(#linearGradient19);paint-order:stroke fill markers"
       id="path5" />
    <g
       transform="matrix(0.24736,0,0,0.24736,89.376,7.5264)"
       fill="none"
       opacity="0"
       stroke-linecap="round"
       stroke-linejoin="round"
       stroke-miterlimit="6.7"
       stroke-width="5"
       id="g21">
      <g
         stroke="#000000"
         id="g14">
        <path
           d="m 132.4,80.03 c 2.7858,-0.84348 5.702,-0.47931 8.5645,-0.48226 3.6281,-0.0037 7.2984,-0.59307 10.883,-0.06376 2.6546,0.39193 3.0375,3.5414 3.4648,5.7011 0.85313,4.3113 2.7292,8.4819 2.3143,12.986 -0.24746,2.6866 -0.15396,5.3843 -0.50809,8.0675 -0.35764,2.7098 -0.91118,5.9071 -3.0848,7.5811 -1.7383,1.3388 -3.659,2.4669 -5.4049,3.8272 -1.6538,1.2885 -3.8365,2.184 -6.0657,1.5323 -3.06,-0.89448 -4.8614,-3.8868 -6.1101,-6.6191 -1.6013,-3.5039 -3.4039,-7.157 -3.1132,-11.174 0.26239,-3.6258 0.55716,-7.2468 0.47555,-10.889 -0.059,-2.6324 2.328,-6.3328 0.0891,-7.961 -1.7184,-1.2496 -1.566,-3.2346 -0.58828,-5.0189 1.377,-2.513 3.2001,-4.8856 3.2967,-7.9616 0.0984,-3.1333 0.79323,-6.1512 1.3373,-9.2635 0.41176,-2.3553 -0.26981,-4.6573 0.0333,-6.9896 0.40189,-3.092 1.1838,-6.016 1.6649,-9.1796 0.28779,-1.8924 0.2791,-4.1354 1.4558,-5.3381 1.7048,-1.7424 4.261,-1.7953 6.5004,-2.3132 1.3554,-0.31344 -1.1049,0.19242 0.67308,-0.18959 3.3987,-0.73023 6.9122,-1.0416 10.079,-2.6341 4.2483,-2.1363 9.0154,-2.6185 13.808,-2.4656 2.6137,0.08342 4.9151,1.5802 6.7805,3.2381 3.4637,3.0782 3.4516,8.0119 4.227,12.256 0.49726,2.7218 1.5433,5.3495 1.9166,8.078 0.81792,5.978 1.7916,11.971 1.5661,18.038 -0.14183,3.8165 0.32532,7.6073 0.55142,11.409 0.34017,5.7203 -0.0414,11.416 -0.47714,17.127 -0.2488,3.261 0.58759,6.9002 -0.99012,9.7657 -0.82693,1.5019 -1.442,2.8965 -3.6168,2.8965 h -1.9602"
           opacity="1"
           style="paint-order:stroke fill markers"
           id="path6" />
        <path
           d="m 196.06,113.02 c 0.97273,-3.9073 1.1082,-7.968 1.9008,-11.919 1.0205,-5.0874 1.6902,-10.229 2.2118,-15.392 0.64321,-6.3681 2.8253,-12.682 2.2356,-19.077 -0.33295,-3.6107 -0.70722,-7.2175 -0.66013,-10.856 0.0798,-6.1666 -1.3362,-12.494 0.0417,-18.502 0.48388,-2.1099 0.93311,-4.2048 0.97054,-6.4175 0.0127,-0.7521 -0.71856,-2.4023 0,-2.2646 1.6727,0.32047 3.5574,0.36835 5.1108,1.1216 4.632,2.2462 8.9571,5.0335 13.755,7.0114 2.2306,0.91951 5.7027,2.2042 5.392,4.686 -0.29988,2.395 1.2897,4.3634 1.8937,6.5922 1.2823,4.7313 2.8899,9.7275 1.9993,14.562 -0.59661,3.2392 -1.2365,6.5505 -2.6303,9.5397 -2.0793,4.4594 -4.6487,8.6545 -7.5995,12.612 -1.5796,2.1182 -3.0945,4.2249 -4.8203,6.275 -1.3903,1.6516 -4.7137,6.814 -4.5318,4.6681 0.14758,-1.7409 -2.4465,1.3984 -2.9789,2.058 -1.6982,2.1042 -3.9631,3.724 -5.4699,5.964 -1.664,2.4737 -4.8857,3.5319 -6.4823,5.9518 -0.95044,1.4405 -1.3524,3.5151 1.1665,3.6777 3.499,0.22576 6.8886,-0.9366 10.419,-0.71112 4.7454,0.30304 9.2885,2.2642 14.107,1.9087 4.0473,-0.29854 8.0296,0.22855 12.033,0.94806 2.2631,0.40668 -0.43243,-1.8813 -0.8688,-2.9859 -1.6554,-4.1905 -1.7554,-8.7275 -2.4948,-13.123 -0.76443,-4.5447 -1.7118,-9.0589 -2.2084,-13.645 -0.27438,-2.5338 -0.0881,-5.0976 -0.14511,-7.6485 -0.0537,-2.4021 0.18486,-4.8005 1.0417,-7.0849 0.82347,-2.1955 0.35347,-4.5245 0.4649,-6.805"
           opacity="1"
           style="paint-order:stroke fill markers"
           id="path7" />
        <path
           d="m 263.12,54.615 c 2.7449,-3.9295 5.3672,-8.7162 10.214,-10.19 1.6479,-0.50117 3.7068,-1.6993 5.2047,-0.68887 1.4247,0.96104 1.9844,2.7594 2.6526,4.2717 1.2961,2.9333 2.0893,6.0362 2.5052,9.2301 0.53028,4.0728 1.0466,8.1442 1.9498,12.161 0.95362,4.2409 1.2349,8.5592 1.4982,12.924 0.2096,3.4744 -0.10984,7.1035 -1.523,10.282 -0.93252,2.0975 -2.3228,3.9069 -4.3003,5.2467 -0.76207,0.51633 -3.9184,3.2909 -1.7597,1.3218 1.0744,-0.98006 -1.8465,0.8758 -2.3403,1.2418 -1.6187,1.1998 -2.8497,2.6839 -4.9382,3.1501 -2.107,0.47039 -3.325,0.41 -5.5202,1.5654 -1.8061,0.95064 -3.9928,-0.31693 -5.6872,-0.38674 -1.3982,-0.0576 -2.3101,-1.3471 -3.5015,-2.4922 -2.4482,-2.353 -4.2933,-5.234 -6.3386,-7.9278 -2.5619,-3.3743 -4.7528,-7.0831 -5.7665,-11.267 -1.2461,-5.1433 -0.54384,-10.449 -0.54384,-15.677 0,-7.9599 -2.4768,-16.315 0,-23.88 0.46229,-1.412 1.9936,1.8359 2.6036,2.6128 2.9133,3.7107 5.1165,7.8847 7.1992,12.103 3.7709,7.6364 9.0029,14.7 11.382,22.876 0.70462,2.4217 2.0668,4.5767 3.9105,6.2937 2.4709,2.3012 4.619,4.9149 7.4613,6.8526 1.9766,1.3475 4.1326,2.27 6.2274,3.4988 2.2495,1.3196 5.6889,1.5234 6.7939,3.8822 0.84253,1.7985 2.7298,3.2205 4.3969,2.4158 2.2392,-1.0808 5.8578,0.44781 7.1544,-1.7773 0.65787,-1.129 2.9176,-1.9855 3.127,-2.1944 2.4155,-2.4097 4.9412,-4.8518 6.0687,-8.2321 1.3115,-3.932 0.18409,-8.0761 -0.24434,-12.05 -0.31514,-2.9228 -0.63424,-5.8329 -1.4905,-8.6803 -2.4732,-8.2245 -2.2846,-17.251 -5.9176,-25.032 -0.99814,-2.138 -0.50794,-4.3144 -1.0766,-6.6263 -0.41336,-1.6804 -1.0433,-3.3206 -2.7976,-4.3068 -1.3184,-0.74118 -2.2017,-1.4558 -3.893,-1.4558 h -2.8489"
           opacity="1"
           style="paint-order:stroke fill markers"
           id="path8" />
        <path
           d="m 286.49,20.927 c 1.5356,0.31242 3.0526,0.70872 4.6115,0.90705 2.3711,0.30167 4.7174,0.75433 7.0671,1.184 1.7683,0.32337 3.5623,0.12555 5.3454,0.12648 1.3763,7.19e-4 2.7964,-0.29182 4.1278,0.05892 0.79017,0.20816 1.0821,-0.51959 1.621,-0.89308 0.44655,-0.3095 0.5818,-0.73345 0.58822,-1.3032 0.009,-0.82959 0.2081,-1.6702 0.061,-2.487 -0.12268,-0.68135 -0.84356,-0.9238 -1.2238,-1.4646 -0.78367,-1.1143 -1.4137,-2.335 -2.4085,-3.3022 -0.52624,-0.51159 -2.1321,-2.0194 -1.5963,-1.5173 0.66288,0.62102 0.093,-0.58411 -0.17048,-0.73809 -0.60755,-0.35507 -0.57381,-0.85088 -0.48526,-1.498"
           opacity="1"
           style="paint-order:stroke fill markers"
           id="path9" />
        <path
           d="m 323.83,106.64 c -1.0538,-4.3238 -1.3531,-8.8021 -1.7593,-13.226 -0.43465,-4.7337 -0.45764,-9.4792 -0.62534,-14.234 -0.15785,-4.4752 0.65991,-8.9036 0.49394,-13.389 -0.0743,-2.0083 0.56628,-4.1311 -0.0937,-6.0272 -0.71122,-2.0434 -0.4014,-4.2346 -0.39162,-6.362 0.0103,-2.2447 -1.12,-4.8016 0,-6.7357 0.81301,-1.404 0.83152,-4.2978 2.166,-4.4104 2.2425,-0.18928 3.9142,1.1989 5.8292,2.081 1.7544,0.80819 4.4078,-0.39298 5.264,1.5786 0.81836,1.8843 1.3874,3.6317 2.2697,5.6035 0.80764,1.805 1.5166,3.2169 1.4936,5.336 -0.0868,7.9663 -0.41467,15.944 -0.0516,23.902 0.15507,3.3988 1.0959,6.7196 1.2703,10.116 0.1252,2.438 1.0066,4.6583 1.0737,7.1073 0.0469,1.7134 -0.27811,3.5419 2.4631,3.4894 5.1806,-0.0991 11.423,2.8106 15.539,-0.35925 0.37743,-0.29066 2.087,-0.43746 3.0883,-0.12603 2.0319,0.63198 2.2471,-1.1671 2.2396,-3.0403 -0.0235,-5.9423 0.82303,-11.943 0,-17.827 -0.71601,-5.1188 -0.97057,-10.283 -0.97057,-15.459 0,-4.5527 -0.072,-18.21 0,-13.658 0.0863,5.4604 0.20089,10.891 0.48532,16.371 0.18679,3.5985 1.5399,7.0846 1.4558,10.676 -0.10205,4.3583 0.37672,8.7123 1.389,12.972 0.64312,2.7059 1.6409,5.4088 3.8619,7.3331 1.75,1.5161 3.442,2.6529 5.9626,3.0784 3.0553,0.51572 6.0986,0.89893 9.2281,0.91011 2.9137,0.0104 5.8003,-0.21326 8.6709,-0.90085 2.3777,-0.56954 5.7772,0.60212 7.2663,-1.5375 1.0739,-1.5431 0.96036,-3.8058 0.96848,-5.717 0.009,-2.2167 -0.14859,-8.8589 0.0407,-6.6504 0.0787,0.91792 -0.0522,3.4366 -0.31811,1.1249 -0.6893,-5.992 0.42783,-12.076 -0.89025,-18.022 -0.62024,-2.7977 -0.44808,-5.807 -1.5145,-8.455 -1.0815,-2.6857 -0.47143,-5.7713 -1.6854,-8.3742 -1.0034,-2.1513 0.63783,-5.2097 -1.2904,-6.7088 -1.5727,-1.2227 -2.5606,-3.4301 -4.4871,-3.961 -0.63677,-0.17547 -1.5641,0.38748 -1.8641,-0.47405"
           opacity="1"
           style="paint-order:stroke fill markers"
           id="path10" />
        <path
           d="m 382.75,31.022 c 1.3552,1.3165 2.3012,3.2625 4.1228,3.9115 1.1795,0.42022 2.4538,0.29283 3.685,0.41121 1.7696,0.17014 3.4793,-0.48419 5.0912,-1.121 3.0379,-1.2002 5.89,-2.77 8.8778,-4.109 0.7739,-0.34682 1.9039,-0.33964 2.3019,-1.085 0.4114,-0.77039 -0.40255,-1.7225 -0.77875,-2.44 -1.6074,-3.0658 -3.6848,-5.8662 -5.9623,-8.4511 -0.27743,-0.31488 -0.78215,-0.62148 -0.99967,-0.90456 -0.72304,-0.94097 -1.6015,-1.7849 -2.1454,-2.8392 -0.44143,-0.85574 -0.32326,-1.8768 -0.27105,-2.805 0.0298,-0.5296 0.0681,-1.0592 0.0681,-1.5899"
           opacity="1"
           style="paint-order:stroke fill markers"
           id="path11" />
        <path
           d="m 132.09,166.26 c 3.4223,0.0851 6.8476,0.34264 10.279,0.55313 4.0017,0.2455 3.75,3.7859 3.2415,7.2144 -0.46316,3.123 -2.7546,5.6513 -2.6727,8.875 0.0509,2.005 0.50373,2.3298 -2.3198,3.3455 -3.0154,1.0847 -8.6038,4.8914 -9.4288,1.8233 -0.7494,-2.787 -0.49007,-6.2126 -0.81929,-9.2832 -0.36172,-3.3738 -0.0922,-6.7642 1.1724,-9.9629 1.5672,-3.964 -1.1919,-8.0577 -0.35802,-12.062 0.70012,-3.3619 1.2304,-6.5656 2.5257,-9.9142 1.3584,-3.5115 5.5184,-3.2312 8.617,-4.1154 3.8334,-1.0939 7.5653,-2.608 11.461,-3.4779 4.7276,-1.0557 9.4664,-1.8216 14.377,-2.1122 1.4194,-0.084 4.8552,-1.0852 5.4943,-0.5195 1.3073,1.1572 5.5712,-0.90158 5.5617,2.9627 -0.0101,4.094 0.67604,8.1566 0.46886,12.256 -0.19713,3.9011 -0.25821,7.7991 -0.53161,11.709 -0.29844,4.2681 -0.33615,17.161 -0.0333,12.872 0.12465,-1.7653 0.0157,1.9068 -0.19833,-0.23146 -1.0096,-10.089 -3.3467,-20.116 -3.1029,-30.35 0.0632,-2.6521 -1.5629,-5.947 0.11052,-7.9703 1.6732,-2.0232 5.0342,-1.9485 7.7741,-3.0847 4.7254,-1.9595 10.056,-3.0841 15.029,-2.2041 6.5192,1.1536 13.677,-1.8754 19.729,0.69725 3.1533,1.3404 0.9714,5.4824 0.79717,8.1041 -0.32588,4.9038 -0.47464,9.7802 -0.74398,14.712 -0.34507,6.3189 0.64475,12.573 0.99838,18.865 0.1669,2.9697 -1.9765,6.0162 -1.0284,8.7932 1.0509,3.0782 -1.59,2.1966 -3.7375,2.4291 -3.453,0.37387 -13.816,0.84925 -10.356,1.1627 1.2304,0.11149 5.9658,-0.42994 2.1756,-0.33659 -8.8526,0.21804 -17.558,2.6786 -26.394,2.6064 -7.56,-0.0617 -15.48,-2.2969 -22.688,-0.0356 -2.7927,0.87611 -5.6316,1.6384 -8.3744,2.6606 -3.2106,1.1966 -6.6657,1.5031 -10.067,1.9391 -2.7632,0.35411 -7.3504,-0.17586 -8.2767,2.4209 -1.1676,3.2732 0.14646,6.8071 0.0606,10.206 -0.12886,5.1041 0.40271,10.178 0.45283,15.287 0.0317,3.2311 -2.3568,11.905 0,9.7056 2.1114,-1.9703 5.7702,-0.23944 7.8977,1.2272 2.5617,1.766 5.1004,2.9506 8.0278,4.3806 3.9879,1.9479 8.0752,4.1072 12.469,4.7025 4.2023,0.5694 8.165,2.3007 12.339,2.9223 8.4185,1.2537 16.873,2.7395 24.838,5.9141 3.8822,1.5474 7.8522,2.762 12.092,3.1168 3.8716,0.32398 7.77,0.9767 11.632,0.67899 1.7269,-0.13313 3.8704,2.1955 3.7395,-0.76181 -0.15401,-3.4809 -0.79138,-7.9021 1.6885,-10.194 0.41647,-0.38487 0.21057,-0.92383 0.25264,-1.4014"
           opacity="1"
           style="paint-order:stroke fill markers"
           id="path12" />
        <path
           d="m 237.82,253.9 c -0.82824,-3.7585 -0.34298,-7.6143 -0.51935,-11.442 -0.13263,-2.8784 -0.45222,-5.6957 -0.42754,-8.5974 0.10801,-12.698 -0.30242,-25.421 0.58753,-38.088 0.65852,-9.3736 -0.75108,-19.065 1.7059,-28.14 1.2585,-4.6483 5.7381,-10.384 2.7597,-14.179 -0.27074,-0.34494 2.0045,-2.586 2.5838,-4.0407 1.0364,-2.6029 3.1305,-4.5659 5.7618,-5.5298 3.1926,-1.1695 6.6728,-1.0006 10.026,-1.1708 6.245,-0.31703 12.508,-0.23276 18.757,-0.091 3.225,0.0732 6.4036,1.1649 9.604,0.91376 2.1612,-0.16961 6.5622,-0.97562 6.4216,0.7874 -0.41989,5.2645 0.12018,10.546 0.71726,15.789 1.2765,11.209 3.2635,22.28 4.7756,33.485 0.82805,6.1364 4.102,24.427 2.9283,18.346 -0.73405,-3.8026 0.12401,2.6702 0.25897,3.942 0.7361,6.9367 2.0566,13.794 2.4366,20.784 0.18699,3.4403 3.5378,7.5089 1.4145,10.204 -0.57659,0.7318 0.98577,3.9172 0.24064,3.5176"
           opacity="1"
           style="paint-order:stroke fill markers"
           id="path13" />
        <path
           d="m 297.75,173 c 7.3124,-6.4079 13.873,-13.626 21.263,-19.95 2.0242,-1.7321 6.0818,-3.2785 6.3086,-5.4998 0.15344,-1.5024 0.82659,-3.2457 3.2089,-3.7767 10.097,-2.2508 20.442,0.1375 30.521,1.3224 9.6546,1.135 19.164,3.3321 28.842,4.2791 1.7083,0.16716 6.4223,0.79469 6.0018,0.64687 -2.2939,-0.80632 3.2255,-0.0812 4.2439,0.0708 4.0126,0.59856 15.161,3.0685 11.302,4.0404 -1.5777,0.39729 -1.37,4.4911 -1.7295,6.8687 -0.90461,5.9819 0.40299,11.995 1.1074,17.929 0.55734,4.6955 1.9148,9.2184 2.8617,13.86 1.1422,5.5988 1.4604,11.267 1.6722,17.02 0.19863,5.396 -0.46961,10.734 -0.48799,16.145 -0.005,1.4009 1.2072,4.8989 0,4.2067 -0.64561,-0.37017 1.4045,0.16372 -0.73181,0.28766 -3.434,0.19921 -6.9603,0.33463 -10.135,1.6266 -6.4455,2.6232 -13.116,4.9185 -19.133,8.4122 -4.9331,2.8643 -20.017,10.731 -15.435,7.3501 1.174,-0.8662 6.265,-0.84747 1.8789,-1.1184 -1.7654,-0.10904 -5.7111,4.6965 -5.6483,1.8521 0.13425,-6.0852 -0.63156,-12.129 -1.2271,-18.184 -0.5194,-5.2811 -0.20237,-10.528 -1.0743,-15.835 -1.3564,-8.2557 -2.8171,-16.467 -4.7757,-24.629 -2.244,-9.3512 -4.6069,-18.662 -7.1569,-27.939 -1.8328,-6.6684 -2.9822,-13.479 -3.2051,-20.484 -0.0907,-2.8503 -0.83445,-5.6559 -0.51622,-8.5222 0.1683,-1.5158 -0.40623,-2.6352 -0.40741,-4.2154 -0.002,-2.385 2.3763,-7.144 0,-7.1601 -5.4874,-0.0372 -10.926,1.8632 -16.433,1.4502 -8.934,-0.6699 -18.04,-2.506 -26.877,-0.96493 -0.94662,0.16509 -6.174,-2.2436 -4.4124,-0.61973"
           opacity="1"
           style="paint-order:stroke fill markers"
           id="path14" />
      </g>
      <g
         stroke="#ffffff"
         id="g20">
        <path
           d="m 167.35,345.39 c 0.10524,-4.0292 -0.64934,-8.0131 -0.84609,-12.035 -0.25383,-5.1891 -1.4261,-10.256 -1.7311,-15.454 -0.34313,-5.8482 -0.36025,-11.709 0.21053,-17.559 0.23604,-2.4189 -0.24391,-4.904 0.51194,-7.2549 0.62367,-1.9397 -0.42529,-3.6546 -0.42035,-5.6569 0.003,-1.2269 -1.1853,-3.4083 0,-3.6854 2.1335,-0.49895 3.918,0.51577 5.9579,0.9312 2.2523,0.45868 4.4446,1.3568 6.7883,1.2471 1.562,-0.0731 3.4221,0.8142 4.0182,2.1235 1.0448,2.2948 -0.30216,4.9915 -0.32718,7.4459 -0.0463,4.5454 0.077,9.0909 -0.20661,13.635 -0.34317,5.4993 -0.35708,11.005 -0.35719,16.513 -1.8e-4,8.995 8.7745,25.159 0,27.002 -1.49,0.3131 -2.7844,-0.0756 -4.1896,-0.63046 -1.7526,-0.692 -3.7258,-1.1378 -5.4575,-0.51918 -0.8158,0.29145 -1.912,-2.8531 -1.9582,-1.1397 -0.0537,1.9937 -1.5394,3.7946 -2.7729,5.2897 -1.5895,1.9264 -4.1228,2.0512 -6.4149,2.4731 -3.1254,0.57526 -6.3223,0.26635 -9.4783,0.36813 -1.902,0.0613 -4.1794,-0.52316 -4.6175,-2.8313 -0.60112,-3.1669 -2.521,-5.9346 -2.7496,-9.2406 -0.22094,-3.1946 -0.63401,-6.3535 -0.87946,-9.5613 -0.58602,-7.659 0.51365,-15.31 1.4731,-22.889 0.72871,-5.7562 3.5939,-11.564 2.3583,-17.241 -0.46309,-2.1278 1.4169,-3.8638 3.2788,-3.8053 4.6098,0.14493 9.2266,0.14628 13.839,0.10623 3.025,-0.0263 5.9848,-0.68015 8.9966,-0.96678 7.397,-0.70397 14.796,0.37331 22.194,0.38029 2.0412,0.002 4.4614,0.19827 6.0797,1.3474 1.1989,0.85131 1.1605,1.3589 0.82132,3.0012 -0.30505,1.4769 -1.0369,5.9168 -0.4414,4.7799 0.41078,-0.78423 1.1111,-3.1507 0.63793,-0.9837 -0.99098,4.5383 -2.0817,9.0378 -3.3599,13.519 -0.41185,1.4438 -0.75255,4.7111 -0.90979,5.0358 -0.86586,1.7882 -0.63495,4.3046 -2.2101,5.5192 -1.5512,1.1962 -3.9706,0.89381 -5.9839,0.90165 -1.791,0.007 -6.6481,1.7822 -5.3422,1.3576 1.7611,-0.57254 3.5236,-1.4627 5.4244,-1.5892 3.1818,-0.21177 6.4147,-0.62401 9.5764,-0.1572 1.7047,0.25169 4.2776,0.72962 4.2718,2.943 -0.004,1.5369 -0.31489,4.0404 -0.0521,4.995 0.46494,1.6889 0.69149,4.0962 0.58353,6.0451 -0.13548,2.4458 0.0889,4.8763 -0.62564,7.3077 -0.58677,1.9967 -1.0318,4.0993 -3.4066,4.8634 -2.1017,0.67626 -3.8994,2.0927 -6.0022,2.6972 -1.9266,0.55379 -3.8262,1.137 -5.878,1.0992 -0.57842,-0.0106 -1.7266,-0.37637 -1.3683,-1.1645"
           opacity="1"
           style="paint-order:stroke fill markers"
           id="path15" />
        <path
           d="m 217.63,360.85 c 0.36332,-2.7242 -0.60825,-5.2324 -1.0414,-7.8862 -1.3193,-8.0827 -1.2114,-16.296 -2.2468,-24.416 -0.33185,-2.6027 -0.92907,-10.43 -1.0119,-7.8127 -0.0417,1.3171 0.50196,5.0487 0.40023,1.5643 -0.14734,-5.0465 -0.6949,-10.055 -0.6884,-15.118 0.002,-1.9447 -1.7477,-5.0125 0,-5.8392 1.0972,-0.51902 1.8194,-0.73637 3.5858,-1.3568 2.835,-0.99572 4.8527,-3.3788 7.7432,-4.3497 3.1218,-1.0486 6.434,-0.69007 9.6687,-1.1497 1.3011,-0.18486 0.68929,1.788 0.67813,2.7026 -0.0502,4.1097 -0.0678,8.2248 0.53667,12.301 0.65132,4.3915 0.73176,8.8257 0.58851,13.257 -0.16697,5.165 0.48361,10.268 0.57747,15.448 0.093,5.1323 0.59666,10.234 0.59666,15.38 0,2.6811 0.0671,10.723 0,8.0432 -0.0806,-3.2194 -0.54245,-6.3704 -0.52921,-9.6298 0.012,-2.9434 -0.0674,-5.8799 -0.79874,-8.7649 -0.93516,-3.6892 -0.35684,-7.4329 -0.81346,-11.215 -0.50658,-4.1955 -0.0886,-8.4719 -0.73272,-12.645 -0.4094,-2.6522 -0.88406,-5.1847 -1.1496,-7.9442 -0.18067,-1.8773 0.11622,-2.7818 1.1102,-3.877 1.9133,-2.1081 4.7435,-1.8422 7.5518,-2.4962 3.7944,-0.88373 7.6604,-3.2361 11.456,-2.373 0.70687,0.16074 3.63,-1.3069 3.4854,-0.55069 -0.0738,0.38569 2.1111,-0.51315 3.1142,0.84824 0.61862,0.8396 0.83557,-0.4493 0.19858,3.0882 -0.44658,2.4801 -0.5954,5.3915 -0.54412,8.0541 0.14854,7.7125 -0.78625,15.478 0.092,23.14 0.7723,6.737 1.4489,27.04 1.7067,20.263 0.0439,-1.1535 -0.27214,-5.914 0.0226,-2.4513 0.30241,3.5531 -0.32076,14.142 0.52671,10.674 0.43103,-1.7639 -0.32387,0.25692 0.51364,-0.97473 1.0258,-1.5085 0.58985,-3.4029 0.57483,-5.1283 -0.0614,-7.0448 -0.12935,-14.067 -0.51104,-21.122 -0.2648,-4.8943 -1.742,-9.6693 -1.7882,-14.562 -0.0272,-2.8703 -1.35,-6.0915 0,-8.6224 1.229,-2.3039 2.8123,-4.9701 5.4032,-5.8246 6.4994,-2.1436 12.693,-5.2413 19.307,-6.9898 5.5465,-1.4663 11.399,-2.1995 16.588,-4.6741 3.7244,-1.7761 1.8095,3.8706 1.2782,5.7597 -1.8278,6.4994 -3.2586,13.078 -4.1237,19.812 -0.87846,6.838 -0.0666,13.708 0.0188,20.568 0.10051,8.0761 -0.78316,16.197 0.0298,24.234 0.15173,1.4999 0.16797,6.1444 1.0994,5.194 2.2076,-2.2526 3.0399,-5.4777 4.9357,-7.9386 1.9592,-2.5434 8.4087,-9.5686 6.7692,-6.8047 -0.78287,1.3198 2.0445,-1.1119 2.0699,-1.3307"
           opacity="1"
           style="paint-order:stroke fill markers"
           id="path16" />
        <path
           d="m 323.46,325 c -1.2766,0.71422 -2.7674,1.0875 -3.7659,2.2493 -0.67335,0.78349 -1.4919,1.2989 -1.4888,2.5458 0.0128,5.1716 -0.424,10.363 0.0202,15.515 0.17095,1.9828 0.82198,3.8794 1.1295,5.8632 0.25834,1.6667 0.95038,3.1946 1.7408,4.6793 0.63451,1.1918 1.2656,2.366 2.0269,3.4938 0.48172,0.71358 0.0305,1.3675 1.2076,1.7388 2.3781,0.75008 4.9923,0.7823 7.3892,0.18903 1.4241,-0.35249 2.849,-1.0732 4.3058,-0.90476 0.75147,0.0869 2.2568,-0.26941 3.2628,-0.37089 1.9934,-0.2011 3.8942,-0.89964 5.9319,-0.82935 2.8032,0.0967 6.5622,2.1936 8.4137,0.0917 0.55224,-0.62692 2.029,-0.26618 1.9773,-1.067 -0.0926,-1.4356 1.3698,-2.7991 2.6066,-3.3328 1.4709,-0.63482 2.4749,-1.8884 3.1152,-3.319 0.80204,-1.792 2.3467,-3.5612 2.0987,-5.5133 -0.15816,-1.2453 0.17443,-2.4463 0.41603,-3.6663 0.29394,-1.4842 0.32684,-2.9636 0.32331,-4.496 -10e-4,-0.61603 0.36216,-0.68409 0.37799,-0.96218 0.0877,-1.5401 -0.1796,-3.0939 0.42884,-4.6029 0.30382,-0.75348 -0.55514,-0.39778 -0.70585,-1.583 -0.15017,-1.181 -2.2056,-0.98075 -3.1601,-1.6854 -1.0124,-0.74737 -2.0621,-1.1802 -3.3317,-1.5884 -2.439,-0.78418 -4.8941,-1.4795 -7.4364,-1.9008 -1.8692,-0.30975 -3.7482,-0.35776 -5.6484,-0.4632 -2.6378,-0.14636 -5.3349,0.0388 -7.8124,0.91471 -1.8142,0.64141 -3.7531,0.51706 -5.6647,0.79032 -0.89736,0.12828 -2.84,0.59599 -3.2296,0.59602 -0.16854,10e-6 -0.33708,-4.8e-4 -0.50562,-4.2e-4"
           opacity="1"
           style="paint-order:stroke fill markers"
           id="path17" />
        <path
           d="m 153,490.96 c -0.84191,-4.4899 -0.93868,-9.059 -1.491,-13.608 -0.61518,-5.0671 -1.6654,-10.069 -1.647,-15.214 0.027,-7.56 -1.4492,-14.973 -1.9282,-22.513 -0.37488,-5.9008 1.3515,-22.427 -2.1098,-17.628 -1.1359,1.5748 -0.87379,-3.7591 -1.0219,-5.0586 -0.86684,-7.6071 1.7038,-15.381 0.20262,-22.855 -0.84175,-4.1908 3.637,-4.7353 6.899,-5.3564 4.0084,-0.76315 7.8061,-2.2296 11.748,-3.331 3.8557,-1.0774 7.9001,-0.89477 11.731,-2.2158 3.9529,-1.3633 8.875,-5.7628 12.108,-3.1112 2.391,1.961 2.0095,6.5826 1.7716,9.7473 -0.5142,6.839 0.92689,13.576 1.9413,20.297 1.7104,11.332 0.88,22.946 2.8824,34.21 1.314,7.3913 2.042,14.883 2.1627,22.377 0.064,3.9718 1.1036,7.8617 1.0977,11.818 -0.004,2.491 0.47642,5.0428 -0.051,7.474 -0.99942,4.6073 -6.2131,3.5165 -9.7014,4.0861 -5.8373,0.95314 -11.69,1.5136 -17.598,2.1276 -2.5706,0.26716 -7.373,-2.4349 -7.7645,0.10941 -0.11645,0.75686 -2.1876,5.0474 -3.6941,6.7978 -2.1692,2.5203 -4.7813,5.7953 -8.3856,5.1097 -3.477,-0.66137 -6.3061,-3.6477 -8.4403,-6.3584 -2.4229,-3.0773 -4.7746,-6.3724 -5.4272,-10.308 -0.61089,-3.6838 -2.7401,-6.7223 -3.8865,-10.243 -2.179,-6.6926 -5.2446,-13.25 -5.8367,-20.338 -0.27086,-3.2426 0.19895,-6.3042 2.1104,-9.1871 3.023,-4.5593 8.5668,-6.1238 13.16,-8.543 4.001,-2.1072 7.4707,-4.8944 11.786,-6.6024 9.6338,-3.813 20.116,-4.0996 30.314,-4.7659 5.0618,-0.33066 10.093,-0.41644 15.174,-0.79446 3.8706,-0.28802 9.5613,5.4413 11.121,1.9711 0.3715,-0.82654 3.9084,-0.0416 5.6774,0.3284 2.5369,0.53059 6.1314,-2.6333 6.0911,-0.36706 -0.0707,3.975 -1.054,7.8791 -1.9805,11.736 -0.75726,3.1526 0.23179,6.8474 -2.0995,9.3729 -2.3275,2.5214 -6.0892,3.2024 -9.4454,3.2734 -1.1218,0.0238 -4.1742,0.19957 -1.4142,-0.74873 3.9032,-1.3411 7.9052,-2.1953 12.007,-2.7424 2.9202,-0.38943 5.9513,-2.8435 8.6548,-1.6854 2.5607,1.0969 2.9508,5.2536 3.1932,7.8754 0.43749,4.7309 -0.31872,9.45 -0.73888,14.167 -0.25673,2.8823 1.6665,6.7439 -0.47582,8.6855 -1.092,0.98971 -0.69671,5.1499 -3.1407,7.0472 -2.8404,2.205 -6.666,1.6469 -10.045,2.0535 -2.3692,0.28513 -5.1692,1.885 -7.411,0.59576"
           opacity="1"
           style="paint-order:stroke fill markers"
           id="path18" />
        <path
           d="m 240.14,433.54 c 4.9298,-3.168 10.606,-6.4736 16.52,-5.8106 3.4199,0.3834 6.5063,3.0051 7.8583,6.0444 2.2298,5.0128 5.0171,9.8044 6.0822,15.289 0.57469,2.9593 3.2279,7.3655 0.70933,8.9818 -2.6771,1.718 -6.247,2.0958 -9.4087,2.0009 -5.1329,-0.15407 -10.676,1.8667 -15.405,-0.12151 -2.8205,-1.1858 -2.5957,-5.6902 -2.1172,-8.279 1.2582,-6.8076 1.2719,-13.772 1.5674,-20.672 0.23143,-5.4036 -1.744,-10.5 -2.3115,-15.838 -0.57904,-5.4461 -1.7432,-10.804 -2.2968,-16.259 -0.29499,-2.9065 -2.3833,-6.5442 -0.48282,-8.7828 1.9959,-2.351 5.0372,-3.9434 8.3214,-4.4687 6.1542,-0.98434 12.378,-0.98359 18.602,-0.95148 4.5292,0.0234 18.112,-0.1769 13.588,0.0326 -1.517,0.0702 -5.9231,-0.11617 -2.0148,-0.30075 8.9083,-0.42072 17.853,0.38734 26.749,-0.17839 3.4863,-0.22172 5.2813,1.4652 6.7919,5.1014 1.1844,2.8511 0.66014,5.9027 0.99574,8.9054 0.41433,3.7071 1.2394,7.5363 0.3998,11.166 -1.196,5.1711 -1.6262,12.531 -6.8979,14.371 -2.1352,0.74497 -9.584,0.46274 -7.4727,0.0206 3.9369,-0.82445 7.7697,-2.4268 11.798,-2.5781 5.3874,-0.20246 11.396,-2.9053 16.247,-0.29599 2.9713,1.5981 6.6187,3.1673 7.3754,7.0262 0.72695,3.7071 1.8461,7.4161 1.8408,11.188 -0.004,3.1404 0.49762,6.1991 0.55579,9.3774 0.0804,4.3904 -0.059,9.3767 -3.5268,12.754 -2.6764,2.6067 -5.1933,5.4463 -8.8786,6.813 -6.2919,2.3334 -13.154,2.7453 -19.761,2.3873 -7.4922,-0.40593 -14.945,-1.2808 -22.424,-1.928 -6.9636,-0.6025 -13.94,-0.73883 -20.929,-1.1025 -6.0676,-0.31566 -12.901,-0.18044 -17.602,3.4942 -2.1342,1.6683 -7.1332,1.5249 -4.706,5.5336 3.6734,6.067 8.6077,11.281 13.752,16.114 3.0374,2.8534 7.4881,2.5257 11.338,2.8639 10.216,0.89733 20.46,1.5556 30.709,1.942 8.5225,0.32129 17.086,-0.4424 25.314,-2.5118 2.5622,-0.64436 6.4004,0.26239 8.1571,-0.43973 1.7707,-0.70775 4.6542,1.1154 5.5353,-0.50878 1.3175,-2.4287 2.4734,-4.8612 3.411,-7.7472 0.7404,-2.2789 1.3868,-2.2509 1.7245,-4.5986"
           opacity="1"
           style="paint-order:stroke fill markers"
           id="path19" />
        <path
           d="m 402.55,422.57 c -9.6459,-1.7735 -19.067,-4.5792 -28.685,-6.4888 -2.4663,-0.48966 -4.9964,-2.1601 -7.4277,-1.331 -0.54016,0.18421 -1.1762,0.1615 -1.8475,0.29902 -1.653,0.33865 -1.8691,2.4799 -2.8917,3.72 -1.303,1.58 -1.6892,3.5616 -2.1492,5.5418 -0.72601,3.1255 -0.86023,6.3395 -0.58639,9.5285 0.28285,3.2938 0.42163,6.5902 0.75131,9.8883 0.10591,1.0596 -0.12957,-1.1042 -0.27029,1.7027 -0.0258,0.51531 0.28625,3.2307 0.36977,4.6341 0.20862,3.5052 1.0057,6.9909 0.8752,10.497 -0.10787,2.8976 0.5166,5.7438 0.52802,8.6562 0.007,1.8394 0.78156,3.56 0.6412,5.3914 -0.13857,1.8079 1.3848,1.7239 2.5658,2.7456 1.7313,1.4978 3.9768,2.0001 6.1771,2.3485 4.4321,0.7018 8.9213,0.94281 13.365,1.5863 6.4849,0.93905 13.338,1.093 19.515,-1.1894 1.8262,-0.67477 3.749,-0.63655 5.6823,-0.64786 0.86291,-0.005 2.0942,0.70127 2.5894,0 1.1,-1.558 3.0575,-2.8473 3.3883,-4.6766 0.46217,-2.5558 0.6997,-5.1303 0.93591,-7.7276 0.5432,-5.9729 -0.88549,-11.903 -2.3626,-17.641 -0.97692,-3.7952 -1.5267,-7.6774 -1.5283,-11.625 -10e-4,-2.5086 0.86432,-5.1788 10e-4,-7.5278 -0.73292,-1.9952 -2.6798,-3.1984 -4.147,-4.6693 -0.50235,-0.5036 -1.0063,-1.0056 -1.5093,-1.5085"
           opacity="1"
           style="paint-order:stroke fill markers"
           id="path20" />
      </g>
    </g>
    <g
       fill="none"
       stroke-miterlimit="6.7"
       stroke-width="2.4736"
       id="g42">
      <g
         stroke="#102f5b"
         stroke-linecap="round"
         stroke-linejoin="round"
         id="g32">
        <path
           d="m 123.1,25.818 h 5.2124 v 9.5052 h -5.2982 v -20.612 h 10.148 v 20.695"
           style="paint-order:stroke fill markers"
           id="path21" />
        <path
           d="M 136.41,35.383 V 14.724 h 9.378 v 8.4197 z"
           style="paint-order:stroke fill markers"
           id="path22" />
        <path
           d="m 136.8,35.386 h 9.0372 V 20.374"
           style="paint-order:stroke fill markers"
           id="path23" />
        <path
           d="m 164.94,19.136 h 4.0103 v 3.6427 l -8.0885,12.744 h -4.5638 v -20.71 h 5.8131 v 7.4848 l -8.2972,13.194 h -4.8422 v -20.702 h 4.0706 l 2.9362,5.2642"
           style="paint-order:stroke fill markers"
           id="path24" />
        <path
           d="M 172.15,35.367 V 14.722 h 5.8789 v 20.653 h 5.716 V 14.812"
           style="paint-order:stroke fill markers"
           id="path25" />
        <path
           d="m 184.18,31.219 2.8312,4.1206 h 5.3676 v -12.212 l -2.8318,-3.8526 -2.9009,-0.01874"
           style="paint-order:stroke fill markers"
           id="path26" />
        <path
           d="m 165.07,13.235 v 3.0718 h 4.0122 v -3.003"
           style="paint-order:stroke fill markers"
           id="path27" />
        <path
           d="m 186.61,13.308 v 3.1304 h 5.7055 v -3.1695"
           style="paint-order:stroke fill markers"
           id="path28" />
        <path
           d="m 123.75,49.223 h 3.9804 v 5.8739 h -4.7136 v -14.024 h 10.051 v 14.068"
           style="paint-order:stroke fill markers"
           id="path29" />
        <path
           d="m 133.17,50.471 4.1924,-9.3973 h 8.633 v 17.766 h -22.972 v 6.273 c 7.618,4.544 15.193,6.5571 23,8.4774 v -11.381"
           style="paint-order:stroke fill markers"
           id="path30" />
        <path
           d="m 158.99,74.143 c -2.7366,0.65627 -5.3817,0.25036 -8.4633,-0.08343 v -28.985 h 11.816 v 28.107 l -0.0318,0.99573 c 3.2935,-0.10171 5.8529,-0.33096 8.7968,-1.2093"
           style="paint-order:stroke fill markers"
           id="path31" />
        <path
           d="m 163.03,54.254 6.8898,-9.099 h 22.428 v 19.774 c -4.8089,3.4504 -11.018,5.7844 -17.85,7.3409 v -31.208 h -24.123"
           style="paint-order:stroke fill markers"
           id="path32" />
      </g>
      <g
         stroke="#56ff8f"
         stroke-linecap="square"
         id="g41">
        <path
           d="M 132.17,101 V 76.247 l 7.221,2.264 v 22.509 z"
           style="paint-order:stroke fill markers"
           id="path33" />
        <path
           d="m 131.58,97.706 -2.9932,3.3528 h -5.5714 v -13.85 l 8.6318,2.4499 h 17.486 v 2.0699 l -2.6588,3.1052 h 2.6018 v 6.1813 h -6.5317 v -1.4585"
           style="paint-order:stroke fill markers"
           id="path34" />
        <path
           d="M 152.53,101.05 V 80.469 h 8.6397 v 20.543"
           style="paint-order:stroke fill markers"
           id="path35" />
        <path
           d="m 161.9,86.726 3.8225,-6.5039 4.3159,-0.77749 v 21.61"
           style="paint-order:stroke fill markers"
           id="path36" />
        <path
           d="m 182.24,87.347 v 13.702 h 10.077 V 83.845 Z"
           style="paint-order:stroke fill markers"
           id="path37" />
        <path
           d="m 170.72,86.805 3.8225,-8.1181 4.3159,-1.1004 v 23.547"
           style="paint-order:stroke fill markers"
           id="path38" />
        <path
           d="m 132.17,126.72 v -20.498 h 7.221 v 20.519 z"
           style="paint-order:stroke fill markers"
           id="path39" />
        <path
           d="m 131.58,123.42 -2.9932,3.3528 h -5.5714 v -11.401 h 26.118 v 2.0699 l -2.6588,3.1052 h 2.6018 v 6.1813 h -6.5317 v -1.4585"
           style="paint-order:stroke fill markers"
           id="path40" />
        <path
           d="m 182.24,113.07 v 13.702 h 10.077 v -13.798 z"
           style="paint-order:stroke fill markers"
           id="path41" />
      </g>
    </g>
    <circle
       cx="154.73"
       cy="119.59"
       r="0.37105"
       id="circle42" />
    <path
       d="m 152.8,118.11 h 8.351 v 5.1314 H 152.8 v -14.35 l 3.118,-2.6539 h 22.904 v 7.7128 l -6.2617,3.6152 h 6.1732 v 9.2006 h -26.069 v 4.6245 h 26.055 l 0.02,-2.3464"
       fill="none"
       stroke="#56ff8f"
       stroke-miterlimit="6.7"
       stroke-width="2.4736"
       style="paint-order:stroke fill markers"
       id="path42" />
  </g>
</svg>
