<?xml version="1.0" encoding="UTF-8" standalone="no"?>
<svg
   width="1000"
   height="1000"
   viewBox="0 0 1000 1000"
   fill="none"
   version="1.1"
   id="svg62"
   sodipodi:docname="Sticker-SVG.svg"
   inkscape:version="1.3.2 (091e20ef0f, 2023-11-25, custom)"
   xmlns:inkscape="http://www.inkscape.org/namespaces/inkscape"
   xmlns:sodipodi="http://sodipodi.sourceforge.net/DTD/sodipodi-0.dtd"
   xmlns="http://www.w3.org/2000/svg"
   xmlns:svg="http://www.w3.org/2000/svg">
  <sodipodi:namedview
     id="namedview62"
     pagecolor="#505050"
     bordercolor="#ffffff"
     borderopacity="1"
     inkscape:showpageshadow="0"
     inkscape:pageopacity="0"
     inkscape:pagecheckerboard="1"
     inkscape:deskcolor="#d1d1d1"
     inkscape:zoom="0.52297117"
     inkscape:cx="347.05546"
     inkscape:cy="624.31739"
     inkscape:window-width="1908"
     inkscape:window-height="1036"
     inkscape:window-x="6"
     inkscape:window-y="6"
     inkscape:window-maximized="1"
     inkscape:current-layer="svg62" />
  <mask
     id="path-1-outside-1_18_357"
     maskUnits="userSpaceOnUse"
     x="87.543"
     y="65.4629"
     width="191"
     height="155"
     fill="#000000">
    <rect
       fill="#ffffff"
       x="87.542999"
       y="65.462898"
       width="191"
       height="155"
       id="rect1" />
    <path
       d="m 202.14,75.7047 c 4.414,0.6122 8.266,2.2704 10.953,4.4688 2.499,1.4938 4.926,3.8975 6.819,6.9829 3.28,5.3489 4.007,11.2009 2.208,14.8746 2.332,0.936 4.041,3.986 4.041,7.604 0,4.321 -2.437,7.831 -5.461,7.899 -0.086,5.036 -1.402,9.231 -3.62,12.571 0.068,0.067 0.135,0.134 0.201,0.201 l 9.364,-1.36 c -0.106,-0.631 -0.822,-6.61 -0.484,-7.011 1.521,-1.8 3.98,4.522 5.689,6.256 l 0.319,-0.046 c -2.239,-3.728 -3.146,-7.104 -1.664,-8.014 2.62,-1.354 4.113,1.098 6.201,4.526 v 0.001 l 0.001,0.002 c 0.136,0.222 0.274,0.449 0.415,0.679 0.132,-0.024 0.265,-0.044 0.397,-0.06 -0.757,-3.201 -1.265,-5.539 1.319,-5.993 1.055,-0.185 2.255,1.2 3.222,3.385 0.463,0.07 0.949,0.16 1.45,0.267 -0.078,-0.591 -0.117,-1.214 -0.114,-1.856 0.019,-3.867 1.568,-7.262 3.479,-7.253 1.481,0.008 2.093,1.978 2.284,4.662 0.067,-0.042 0.134,-0.082 0.201,-0.118 0.1,-0.347 0.221,-0.7 0.364,-1.054 1.123,-2.795 3.058,-4.575 4.709,-3.911 1.65,0.663 1.702,3.218 0.579,6.013 -0.075,0.186 -0.153,0.368 -0.233,0.545 1.202,-1.724 2.397,-2.562 4.672,-1.302 1.708,0.946 -1.02,5.476 -3.707,9.329 -2.369,3.169 -4.306,4.62 -5.768,5.093 -0.233,0.102 -0.47,0.171 -0.708,0.202 l 0.004,0.014 -0.361,0.098 c -0.433,0.824 -0.978,1.653 -1.62,2.44 -0.788,0.965 -1.651,1.777 -2.52,2.406 -0.79,1.106 -1.873,1.987 -3.185,2.503 l 0.165,0.286 -28.925,8.999 0.399,4.198 -9.304,2.467 c -0.286,0.226 -0.574,0.453 -0.862,0.68 -1.616,1.273 -3.252,2.562 -4.861,3.869 0.289,0.01 0.58,0.021 0.875,0.034 5.076,0.222 11.158,0.939 25.759,5.083 l -1.277,3.724 0.135,0.057 -0.039,0.091 c 2.085,0.898 4.31,1.899 6.704,3.018 l -0.034,0.055 c 1.64,1.438 3.101,2.746 4.449,3.953 5.13,4.593 8.635,7.73 14.212,11.09 l 8.597,-5.28 c 2.903,-1.783 6.378,-2.385 9.711,-1.684 0.836,0.176 1.189,1.173 0.652,1.836 l -16.081,19.818 c -2.017,2.486 -5.795,2.53 -7.871,0.094 l -2.345,-2.754 c -8.921,-3.685 -14.302,-6.672 -20.134,-15.085 -1.163,0.24 -2.293,0.454 -3.391,0.644 l -0.382,1.113 -0.111,0.409 -0.027,-0.007 -1.659,4.838 c -14.472,-1.4 -23.397,-2.874 -30.676,-5.259 -2.426,-0.795 -4.67,-1.691 -6.875,-2.719 -7.93,8.892 -16.816,16.633 -30.653,26.257 l -0.005,0.01 -0.006,-0.003 -0.014,0.009 -0.008,-0.019 -31.794,-14.837 -8.26,8.969 c -2.308,2.505 -5.488,4.031 -8.8865,4.263 -0.8517,0.058 -1.4634,-0.805 -1.1263,-1.589 L 107.717,183.93 c 1.264,-2.941 4.887,-4.012 7.547,-2.232 l 2.841,1.9 c 7.4,0.555 13.137,1.4 19.995,4.682 l -2.064,-4.791 9.137,-18.088 c 1.398,-8.473 5.447,-17.622 12.016,-25.907 4.943,-6.235 10.688,-11.193 16.609,-14.668 -0.354,-1.697 -0.54,-3.559 -0.54,-5.596 0,-2.495 0.496,-5.039 1.386,-7.546 -0.669,0.307 -1.408,0.493 -2.191,0.527 -3.19,0.142 -5.888,-2.28 -6.028,-5.411 -0.139,-3.131 2.334,-5.784 5.524,-5.925 1.053,-0.047 2.053,0.186 2.925,0.631 v -0.001 l 4.115,1.97 c 0.765,-1.082 1.59,-2.135 2.464,-3.151 -2.766,-0.5093 -6.06,-1.7987 -11.257,-4.0526 4.588,-3.0093 7.723,-6.1059 10.224,-8.8498 -1.546,-1.3559 -3.305,-3.2027 -5.651,-5.7743 6.062,-0.7138 10.32,-2.3928 13.765,-3.751 1.995,-0.7865 3.716,-1.4654 5.358,-1.7873 2.337,-0.6646 5.059,-0.8468 8.248,-0.4043 z"
       id="path1" />
    <path
       d="m 163.388,120.797 7.283,-5.813 -8.879,-2.826 c -0.827,-0.288 -1.741,-0.37 -2.668,-0.199 -2.806,0.519 -4.669,3.172 -4.16,5.927 0.508,2.755 3.196,4.568 6.003,4.049 0.927,-0.171 1.752,-0.574 2.421,-1.138 z"
       id="path2" />
  </mask>
  <mask
     id="mask0_18_357"
     maskUnits="userSpaceOnUse"
     x="9"
     y="25"
     width="190"
     height="193">
    <path
       d="M 102.624,25.5455 C 94.8154,25.5818 87.3581,26.2478 80.7965,27.4089 61.4668,30.8238 57.9572,37.9715 57.9572,51.1532 v 17.4089 h 0.0899 l -0.051,0.1339 v 5.6691 H 40.8144 c -13.2754,0 -24.8998,7.9793 -28.5358,23.1587 -4.19398,17.3992 -4.38001,28.2562 0,46.4242 3.247,13.523 11.0013,23.158 24.2768,23.158 H 51.421 l 0.526,0.5 h 6.0103 v 22.712 c 0,12.379 10.7645,19.661 22.8393,23.212 14.4593,4.252 28.3254,5.02 45.6254,0 11.5,-3.329 22.839,-10.03 22.839,-23.212 v -17.409 h -0.111 v -5.803 h 22.951 c 13.275,0 18.222,-9.26 22.839,-23.158 4.769,-14.309 4.566,-28.069 0,-46.4241 -3.281,-13.2158 -9.547,-23.1587 -22.839,-23.1587 l -9.908,-6.3504 -4.719,-7.2177 -8.213,-9.6439 c 0,-12.3792 -10.443,-21.6783 -22.839,-23.7443 -7.847,-1.3063 -15.989,-1.8997 -23.798,-1.8634 z"
       fill="#ffffff"
       id="path12" />
  </mask>
  <mask
     id="mask1_18_357"
     maskUnits="userSpaceOnUse"
     x="9"
     y="25"
     width="190"
     height="193">
    <path
       d="M 102.624,25.6935 C 94.8154,25.7297 87.3581,26.3957 80.7965,27.5568 61.4668,30.9717 57.9572,38.1195 57.9572,51.3011 v 17.409 h 0.0899 l -0.051,0.1339 v 5.669 H 40.8144 c -13.2754,0 -24.8998,7.9793 -28.5358,23.1587 -4.19398,17.3993 -4.38001,28.2563 0,46.4243 3.247,13.523 11.0013,23.158 24.2768,23.158 H 51.421 l 0.526,0.5 h 6.0103 v 22.712 c 0,12.379 10.7645,19.661 22.8393,23.212 14.4593,4.252 28.3254,5.02 45.6254,0 11.5,-3.329 22.839,-10.03 22.839,-23.212 v -17.409 h -0.111 v -5.803 h 22.951 c 13.275,0 18.222,-9.26 22.839,-23.158 4.769,-14.309 4.566,-28.069 0,-46.4242 -3.281,-13.2158 -9.547,-23.1587 -22.839,-23.1587 l -9.908,-6.3504 -4.719,-7.2176 -8.213,-9.644 c 0,-12.3791 -10.443,-21.6783 -22.839,-23.7443 -7.847,-1.3062 -15.989,-1.8996 -23.798,-1.8633 z"
       fill="#ffffff"
       id="path15" />
  </mask>
  <mask
     id="path-12-inside-2_18_357"
     fill="#ffffff">
    <path
       fill-rule="evenodd"
       clip-rule="evenodd"
       d="m 203.005,75.815 c 4.414,0.6123 8.266,2.2709 10.953,4.4697 2.5,1.4938 4.926,3.8972 6.818,6.9822 3.281,5.3486 4.007,11.2003 2.209,14.8741 2.332,0.935 4.041,3.986 4.041,7.604 0,4.321 -2.437,7.831 -5.461,7.899 -0.086,5.036 -1.402,9.232 -3.62,12.571 0.068,0.067 0.135,0.134 0.201,0.202 l 22.214,-3.225 c -1.415,-1.016 -2.215,-2.207 -1.946,-3.246 0.41,-1.589 2.896,-1.552 5.961,-0.897 -0.078,-0.592 -0.117,-1.214 -0.114,-1.857 0.019,-3.866 1.568,-7.262 3.479,-7.252 1.481,0.007 2.093,1.977 2.284,4.662 0.067,-0.042 0.133,-0.082 0.2,-0.118 0.1,-0.347 0.222,-0.7 0.364,-1.054 1.123,-2.795 3.058,-4.575 4.709,-3.911 1.651,0.663 1.702,3.217 0.579,6.013 -0.075,0.186 -0.153,0.369 -0.234,0.547 1.203,-1.726 2.398,-2.564 4.674,-1.304 1.707,0.946 -1.021,5.476 -3.707,9.329 -2.369,3.17 -4.307,4.62 -5.769,5.093 -0.233,0.102 -0.47,0.17 -0.707,0.202 l 0.004,0.014 -29.986,8.193 c -2.615,5.158 -9.239,10.378 -16.227,15.884 -1.616,1.273 -3.251,2.562 -4.861,3.868 5.273,0.184 11.185,0.733 26.634,5.118 l -1.309,3.817 c 2.122,0.911 4.389,1.93 6.832,3.073 l -0.034,0.055 c 1.633,1.432 3.088,2.734 4.431,3.937 l 0.002,0.001 0.001,0.002 0.006,0.005 0.001,10e-4 10e-4,0.001 0.005,0.004 0.002,0.002 c 5.13,4.593 8.635,7.73 14.213,11.091 l 8.597,-5.281 c 2.902,-1.783 6.378,-2.385 9.711,-1.684 0.835,0.176 1.189,1.173 0.651,1.836 l -16.081,19.818 c -2.017,2.486 -5.795,2.531 -7.87,0.094 l -2.345,-2.753 c -8.922,-3.685 -14.303,-6.673 -20.135,-15.087 -1.164,0.24 -2.293,0.454 -3.391,0.644 l -2.178,6.354 c -19.298,-1.868 -28.732,-3.866 -37.553,-7.979 -7.93,8.891 -16.815,16.632 -30.652,26.255 l -0.004,0.012 -0.008,-0.004 -0.013,0.009 -0.008,-0.018 -31.794,-14.837 -8.26,8.968 c -2.308,2.505 -5.488,4.031 -8.8863,4.263 -0.8517,0.059 -1.4634,-0.805 -1.1262,-1.589 l 10.0795,-23.447 c 1.264,-2.94 4.887,-4.012 7.547,-2.232 l 2.842,1.901 c 7.4,0.555 13.137,1.4 19.994,4.681 l -2.064,-4.791 9.138,-18.09 c 1.398,-8.472 5.448,-17.62 12.015,-25.903 4.943,-6.235 10.688,-11.193 16.609,-14.668 -0.354,-1.697 -0.541,-3.56 -0.541,-5.597 0,-6.467 3.339,-13.261 8.196,-18.906 -2.766,-0.5088 -6.06,-1.7982 -11.257,-4.0523 4.588,-3.0091 7.722,-6.1057 10.223,-8.8495 -1.545,-1.356 -3.305,-3.2028 -5.651,-5.7744 6.062,-0.7139 10.32,-2.3928 13.765,-3.7511 1.995,-0.7865 3.717,-1.4655 5.358,-1.7873 2.338,-0.6647 5.059,-0.8468 8.249,-0.4044 z"
       id="path18" />
  </mask>
  <mask
     id="path-27-inside-3_18_357"
     fill="#ffffff">
    <path
       fill-rule="evenodd"
       clip-rule="evenodd"
       d="m 233.265,128.634 c -0.025,-0.041 -0.049,-0.081 -0.074,-0.121 -2.353,-3.829 -3.337,-7.34 -1.821,-8.272 2.62,-1.353 4.113,1.099 6.201,4.527 v 0 l 0.001,0.002 c 0.136,0.223 0.274,0.45 0.415,0.68 0.132,-0.024 0.265,-0.044 0.397,-0.06 -0.757,-3.201 -1.265,-5.539 1.319,-5.993 1.683,-0.295 3.735,3.407 4.622,7.975 0.489,0.445 0.93,0.955 1.31,1.522 1.74,-1.637 3.338,-2.451 4.48,-1.519 1.68,1.371 0.692,5.328 -1.959,8.576 -1.967,2.409 -3.96,4.718 -5.544,5.188 l 0.004,0.007 -34.597,10.764 v -13.455 l 23.625,-2.672 c -0.1,-0.11 -0.202,-0.223 -0.304,-0.339 -2.544,-3.128 -4.766,-6.472 -3.513,-7.955 1.656,-1.961 3.475,-0.744 5.345,1.295 0.03,-0.051 0.062,-0.101 0.093,-0.15 z"
       id="path32" />
  </mask>
  <g
     id="g62"
     transform="matrix(3.3531037,0,0,3.3531037,-1527.772,-1228.3422)">
    <path
       d="m 667.98482,477.73077 c 4.414,0.6122 8.266,2.2704 10.953,4.4688 2.499,1.4938 4.926,3.8975 6.819,6.9829 3.28,5.3489 4.007,11.2009 2.208,14.8746 2.332,0.936 4.041,3.986 4.041,7.604 0,4.321 -2.437,7.831 -5.461,7.899 -0.086,5.036 -1.402,9.231 -3.62,12.571 0.068,0.067 0.135,0.134 0.201,0.201 l 9.364,-1.36 c -0.106,-0.631 -0.822,-6.61 -0.484,-7.011 1.521,-1.8 3.98,4.522 5.689,6.256 l 0.319,-0.046 c -2.239,-3.728 -3.146,-7.104 -1.664,-8.014 2.62,-1.354 4.113,1.098 6.201,4.526 v 10e-4 l 10e-4,0.002 c 0.136,0.222 0.274,0.449 0.415,0.679 0.132,-0.024 0.265,-0.044 0.397,-0.06 -0.757,-3.201 -1.265,-5.539 1.319,-5.993 1.055,-0.185 2.255,1.2 3.222,3.385 0.463,0.07 0.949,0.16 1.45,0.267 -0.078,-0.591 -0.117,-1.214 -0.114,-1.856 0.019,-3.867 1.568,-7.262 3.479,-7.253 1.481,0.008 2.093,1.978 2.284,4.662 0.067,-0.042 0.134,-0.082 0.201,-0.118 0.1,-0.347 0.221,-0.7 0.364,-1.054 1.123,-2.795 3.058,-4.575 4.709,-3.911 1.65,0.663 1.702,3.218 0.579,6.013 -0.075,0.186 -0.153,0.368 -0.233,0.545 1.202,-1.724 2.397,-2.562 4.672,-1.302 1.708,0.946 -1.02,5.476 -3.707,9.329 -2.369,3.169 -4.306,4.62 -5.768,5.093 -0.233,0.102 -0.47,0.171 -0.708,0.202 l 0.004,0.014 -0.361,0.098 c -0.433,0.824 -0.978,1.653 -1.62,2.44 -0.788,0.965 -1.651,1.777 -2.52,2.406 -0.79,1.106 -1.873,1.987 -3.185,2.503 l 0.165,0.286 -28.925,8.999 0.399,4.198 -9.304,2.467 c -0.286,0.226 -0.574,0.453 -0.862,0.68 -1.616,1.273 -3.252,2.562 -4.861,3.869 0.289,0.01 0.58,0.021 0.875,0.034 5.076,0.222 11.158,0.939 25.759,5.083 l -1.277,3.724 0.135,0.057 -0.039,0.091 c 2.085,0.898 4.31,1.899 6.704,3.018 l -0.034,0.055 c 1.64,1.438 3.101,2.746 4.449,3.953 5.13,4.593 8.635,7.73 14.212,11.09 l 8.597,-5.28 c 2.903,-1.783 6.378,-2.385 9.711,-1.684 0.836,0.176 1.189,1.173 0.652,1.836 l -16.081,19.818 c -2.017,2.486 -5.795,2.53 -7.871,0.094 l -2.345,-2.754 c -8.921,-3.685 -14.302,-6.672 -20.134,-15.085 -1.163,0.24 -2.293,0.454 -3.391,0.644 l -0.382,1.113 -0.111,0.409 -0.027,-0.007 -1.659,4.838 c -14.472,-1.4 -23.397,-2.874 -30.676,-5.259 -2.426,-0.795 -4.67,-1.691 -6.875,-2.719 -7.93,8.892 -16.816,16.633 -30.653,26.257 l -0.005,0.01 -0.006,-0.003 -0.014,0.009 -0.008,-0.019 -31.794,-14.837 -8.26,8.969 c -2.308,2.505 -5.488,4.031 -8.8865,4.263 -0.8517,0.058 -1.4634,-0.805 -1.1263,-1.589 l 10.0798,-23.447 c 1.264,-2.941 4.887,-4.012 7.547,-2.232 l 2.841,1.9 c 7.4,0.555 13.137,1.4 19.995,4.682 l -2.064,-4.791 9.137,-18.088 c 1.398,-8.473 5.447,-17.622 12.016,-25.907 4.943,-6.235 10.688,-11.193 16.609,-14.668 -0.354,-1.697 -0.54,-3.559 -0.54,-5.596 0,-2.495 0.496,-5.039 1.386,-7.546 -0.669,0.307 -1.408,0.493 -2.191,0.527 -3.19,0.142 -5.888,-2.28 -6.028,-5.411 -0.139,-3.131 2.334,-5.784 5.524,-5.925 1.053,-0.047 2.053,0.186 2.925,0.631 v -10e-4 l 4.115,1.97 c 0.765,-1.082 1.59,-2.135 2.464,-3.151 -2.766,-0.5093 -6.06,-1.7987 -11.257,-4.0526 4.588,-3.0093 7.723,-6.1059 10.224,-8.8498 -1.546,-1.3559 -3.305,-3.2027 -5.651,-5.7743 6.062,-0.7138 10.32,-2.3928 13.765,-3.751 1.995,-0.7865 3.716,-1.4654 5.358,-1.7873 2.337,-0.6646 5.059,-0.8468 8.248,-0.4043 z"
       fill="#ffffff"
       id="path3" />
    <path
       d="m 629.23282,522.82307 7.283,-5.813 -8.879,-2.826 c -0.827,-0.288 -1.741,-0.37 -2.668,-0.199 -2.806,0.519 -4.669,3.172 -4.16,5.927 0.508,2.755 3.196,4.568 6.003,4.049 0.927,-0.171 1.752,-0.574 2.421,-1.138 z"
       fill="#ffffff"
       id="path4" />
    <path
       d="m 202.14,75.7047 c 4.414,0.6122 8.266,2.2704 10.953,4.4688 2.499,1.4938 4.926,3.8975 6.819,6.9829 3.28,5.3489 4.007,11.2009 2.208,14.8746 2.332,0.936 4.041,3.986 4.041,7.604 0,4.321 -2.437,7.831 -5.461,7.899 -0.086,5.036 -1.402,9.231 -3.62,12.571 0.068,0.067 0.135,0.134 0.201,0.201 l 9.364,-1.36 c -0.106,-0.631 -0.822,-6.61 -0.484,-7.011 1.521,-1.8 3.98,4.522 5.689,6.256 l 0.319,-0.046 c -2.239,-3.728 -3.146,-7.104 -1.664,-8.014 2.62,-1.354 4.113,1.098 6.201,4.526 v 0.001 l 0.001,0.002 c 0.136,0.222 0.274,0.449 0.415,0.679 0.132,-0.024 0.265,-0.044 0.397,-0.06 -0.757,-3.201 -1.265,-5.539 1.319,-5.993 1.055,-0.185 2.255,1.2 3.222,3.385 0.463,0.07 0.949,0.16 1.45,0.267 -0.078,-0.591 -0.117,-1.214 -0.114,-1.856 0.019,-3.867 1.568,-7.262 3.479,-7.253 1.481,0.008 2.093,1.978 2.284,4.662 0.067,-0.042 0.134,-0.082 0.201,-0.118 0.1,-0.347 0.221,-0.7 0.364,-1.054 1.123,-2.795 3.058,-4.575 4.709,-3.911 1.65,0.663 1.702,3.218 0.579,6.013 -0.075,0.186 -0.153,0.368 -0.233,0.545 1.202,-1.724 2.397,-2.562 4.672,-1.302 1.708,0.946 -1.02,5.476 -3.707,9.329 -2.369,3.169 -4.306,4.62 -5.768,5.093 -0.233,0.102 -0.47,0.171 -0.708,0.202 l 0.004,0.014 -0.361,0.098 c -0.433,0.824 -0.978,1.653 -1.62,2.44 -0.788,0.965 -1.651,1.777 -2.52,2.406 -0.79,1.106 -1.873,1.987 -3.185,2.503 l 0.165,0.286 -28.925,8.999 0.399,4.198 -9.304,2.467 c -0.286,0.226 -0.574,0.453 -0.862,0.68 -1.616,1.273 -3.252,2.562 -4.861,3.869 0.289,0.01 0.58,0.021 0.875,0.034 5.076,0.222 11.158,0.939 25.759,5.083 l -1.277,3.724 0.135,0.057 -0.039,0.091 c 2.085,0.898 4.31,1.899 6.704,3.018 l -0.034,0.055 c 1.64,1.438 3.101,2.746 4.449,3.953 5.13,4.593 8.635,7.73 14.212,11.09 l 8.597,-5.28 c 2.903,-1.783 6.378,-2.385 9.711,-1.684 0.836,0.176 1.189,1.173 0.652,1.836 l -16.081,19.818 c -2.017,2.486 -5.795,2.53 -7.871,0.094 l -2.345,-2.754 c -8.921,-3.685 -14.302,-6.672 -20.134,-15.085 -1.163,0.24 -2.293,0.454 -3.391,0.644 l -0.382,1.113 -0.111,0.409 -0.027,-0.007 -1.659,4.838 c -14.472,-1.4 -23.397,-2.874 -30.676,-5.259 -2.426,-0.795 -4.67,-1.691 -6.875,-2.719 -7.93,8.892 -16.816,16.633 -30.653,26.257 l -0.005,0.01 -0.006,-0.003 -0.014,0.009 -0.008,-0.019 -31.794,-14.837 -8.26,8.969 c -2.308,2.505 -5.488,4.031 -8.8865,4.263 -0.8517,0.058 -1.4634,-0.805 -1.1263,-1.589 L 107.717,183.93 c 1.264,-2.941 4.887,-4.012 7.547,-2.232 l 2.841,1.9 c 7.4,0.555 13.137,1.4 19.995,4.682 l -2.064,-4.791 9.137,-18.088 c 1.398,-8.473 5.447,-17.622 12.016,-25.907 4.943,-6.235 10.688,-11.193 16.609,-14.668 -0.354,-1.697 -0.54,-3.559 -0.54,-5.596 0,-2.495 0.496,-5.039 1.386,-7.546 -0.669,0.307 -1.408,0.493 -2.191,0.527 -3.19,0.142 -5.888,-2.28 -6.028,-5.411 -0.139,-3.131 2.334,-5.784 5.524,-5.925 1.053,-0.047 2.053,0.186 2.925,0.631 v -0.001 l 4.115,1.97 c 0.765,-1.082 1.59,-2.135 2.464,-3.151 -2.766,-0.5093 -6.06,-1.7987 -11.257,-4.0526 4.588,-3.0093 7.723,-6.1059 10.224,-8.8498 -1.546,-1.3559 -3.305,-3.2027 -5.651,-5.7743 6.062,-0.7138 10.32,-2.3928 13.765,-3.751 1.995,-0.7865 3.716,-1.4654 5.358,-1.7873 2.337,-0.6646 5.059,-0.8468 8.248,-0.4043 z"
       stroke="#ffffff"
       stroke-width="18.8363"
       stroke-linejoin="round"
       mask="url(#path-1-outside-1_18_357)"
       id="path5"
       transform="translate(465.84482,402.02607)" />
    <path
       d="m 163.388,120.797 7.283,-5.813 -8.879,-2.826 c -0.827,-0.288 -1.741,-0.37 -2.668,-0.199 -2.806,0.519 -4.669,3.172 -4.16,5.927 0.508,2.755 3.196,4.568 6.003,4.049 0.927,-0.171 1.752,-0.574 2.421,-1.138 z"
       stroke="#ffffff"
       stroke-width="18.8363"
       stroke-linejoin="round"
       mask="url(#path-1-outside-1_18_357)"
       id="path6"
       transform="translate(465.84482,402.02607)" />
    <path
       fill-rule="evenodd"
       clip-rule="evenodd"
       d="m 562.41832,427.71957 c -7.2431,0.0362 -14.1601,0.7022 -20.2464,1.8633 -17.9293,3.4149 -21.1846,10.5627 -21.1846,23.7443 v 17.409 h 42.3693 v 5.8029 h -58.2701 c -12.3137,0 -23.0959,7.9793 -26.4685,23.1587 -3.89016,17.3993 -4.06271,28.2563 0,46.4243 3.0118,13.523 10.2043,23.158 22.518,23.158 h 14.5675 v -20.869 c 0,-15.077 12.0998,-28.376 26.4684,-28.376 h 42.3199 c 11.78,0 21.185,-10.457 21.185,-23.2121 v -43.4958 c 0,-12.3791 -9.687,-21.6783 -21.185,-23.7443 -7.278,-1.3062 -14.83,-1.8996 -22.0735,-1.8633 z m 48.5425,48.8196 v 20.2839 c 0,15.726 -12.367,28.962 -26.469,28.962 h -42.3198 c -11.5921,0 -21.1846,10.696 -21.1846,23.212 v 43.495 c 0,12.379 9.9846,19.661 21.1846,23.212 13.4117,4.252 26.2728,5.02 42.3198,0 8.542,-2.666 16.989,-7.494 20.015,-16.082 0.521,-1.209 0.85,-2.522 0.947,-3.898 0.146,-1.031 0.223,-2.108 0.223,-3.232 v -17.409 h -42.3202 v -5.803 h 63.5042 c 12.314,0 16.903,-9.26 21.185,-23.158 4.423,-14.309 4.235,-28.069 0,-46.4242 -3.043,-13.2158 -8.855,-23.1587 -21.185,-23.1587 z m -26.917,110.8429 c -2.838,1.323 -4.836,4.398 -4.836,7.985 0,4.205 2.725,7.724 6.33,8.549 -2.516,-2.205 -4.105,-5.442 -4.105,-9.05 0,-2.829 0.977,-5.43 2.611,-7.484 z"
       fill="#ffffff"
       id="path7" />
    <path
       fill-rule="evenodd"
       clip-rule="evenodd"
       d="m 584.49182,429.58307 c 11.498,2.066 21.185,11.3652 21.185,23.7443 v 43.4957 c 0,12.755 -9.404,23.212 -21.185,23.212 0,0 0,0 0,0 h -42.3196 c -14.3686,0 -26.4685,13.299 -26.4685,28.376 v 20.869 h -14.5676 c -12.3137,0 -19.5061,-9.635 -22.5179,-23.158 -4.06274,-18.168 -3.89018,-29.025 0,-46.4241 3.3725,-15.1794 14.1548,-23.1587 26.4684,-23.1587 h 58.2701 v -5.803 h -42.3692 v -17.4089 c 0,-13.1817 3.2552,-20.3294 21.1846,-23.7443 6.0863,-1.1611 13.0033,-1.8271 20.2464,-1.8634 7.2433,-0.0362 14.7953,0.5572 22.0733,1.8634 z m -44.0846,-9.2513 c -9.7383,1.8551 -17.7752,5.0929 -22.9371,11.6174 -5.1405,6.4977 -5.9008,14.3799 -5.9008,21.3782 v 13.7938 h -6.4827 c -17.0465,0 -31.40003,11.3634 -35.66074,30.5268 -4.18277,18.7101 -4.37222,30.9701 1.1e-4,50.5241 1.71799,7.712 4.80464,15.208 9.98323,20.924 5.4138,5.975 12.7864,9.603 21.7269,9.603 h 10.4333 v 13.793 c 0,18.746 15.346,28.255 27.756,32.19 15.0967,4.786 29.9374,5.654 47.9734,0.013 9.283,-2.898 21.357,-8.932 25.988,-21.655 0.814,-1.975 1.342,-4.095 1.534,-6.304 0.183,-1.385 0.274,-2.8 0.274,-4.244 v -13.793 h 11.767 c 9.078,0 15.999,-3.664 20.976,-9.925 4.433,-5.576 7.064,-12.917 9.208,-19.875 5.053,-16.351 4.662,-31.882 0.178,-51.3144 -1.651,-7.1702 -4.279,-14.5987 -8.989,-20.3744 -5.058,-6.2012 -12.216,-10.089 -21.373,-10.089 h -11.767 v -13.7939 c 0,-17.8073 -13.866,-30.3059 -28.937,-33.014 l -0.002,-4e-4 c -7.886,-1.4152 -16.013,-2.0502 -23.7845,-2.0113 -7.7682,0.0389 -15.2621,0.7517 -21.9613,2.0296 m 70.5508,56.2081 v 20.2838 c 0,15.7259 -12.367,28.9619 -26.469,28.9619 h -42.3196 c 0,0 -1e-4,0 0,0 -11.4109,0 -20.8842,10.364 -21.1777,22.626 -0.005,0.195 -0.007,0.39 -0.007,0.586 v 43.495 c 0,12.38 9.9847,19.661 21.1847,23.212 13.4117,4.252 26.2726,5.02 42.3196,0 8.542,-2.666 16.989,-7.494 20.015,-16.082 0.521,-1.209 0.85,-2.521 0.947,-3.897 0.146,-1.032 0.223,-2.109 0.223,-3.233 v -17.408 h -42.32 v -5.803 h 63.505 c 12.313,0 16.902,-9.26 21.184,-23.159 4.424,-14.309 4.235,-28.069 0,-46.424 -3.043,-13.2158 -8.855,-23.1587 -21.184,-23.1587 z m -26.917,110.8437 c -2.704,1.26 -4.646,4.112 -4.822,7.483 -0.009,0.166 -0.014,0.333 -0.014,0.501 0,4.205 2.726,7.724 6.33,8.549 -2.399,-2.102 -3.955,-5.143 -4.095,-8.549 -0.007,-0.166 -0.01,-0.333 -0.01,-0.501 0,-2.829 0.977,-5.43 2.611,-7.483 z"
       fill="#ffffff"
       id="path8" />
    <path
       d="m 562.41832,427.71957 c -7.2431,0.0362 -14.1601,0.7022 -20.2464,1.8633 -17.9293,3.4149 -21.1846,10.5627 -21.1846,23.7443 v 17.409 h 42.3693 v 5.8029 h -42.3693 -15.9008 c -12.3137,0 -23.0959,7.9793 -26.4685,23.1587 -3.89016,17.3993 -4.06271,28.2563 0,46.4243 3.0118,13.523 10.2043,23.158 22.518,23.158 h 14.5675 v -20.869 c 0,-15.077 12.0998,-28.376 26.4684,-28.376 h 42.3199 c 11.78,0 21.185,-10.457 21.185,-23.2122 v -43.4957 c 0,-12.3791 -9.687,-21.6783 -21.185,-23.7443 -7.278,-1.3062 -14.83,-1.8996 -22.0735,-1.8633 z m -22.913,14.0016 c 4.3765,0 7.9504,3.9161 7.9504,8.7311 0,4.798 -3.5739,8.6779 -7.9504,8.6779 -4.3921,0 -7.9504,-3.8799 -7.9504,-8.6779 0,-4.815 3.5583,-8.7311 7.9504,-8.7311 z"
       fill="url(#paint0_linear_18_357)"
       id="path9"
       style="fill:url(#paint0_linear_18_357)" />
    <path
       d="m 610.96082,476.53877 v 20.2838 c 0,15.7255 -12.366,28.9615 -26.468,28.9615 h -42.3203 c -11.5921,0 -21.1846,10.696 -21.1846,23.212 v 43.496 c 0,12.379 9.9846,19.66 21.1846,23.212 13.4117,4.251 26.2733,5.02 42.3203,0 10.666,-3.33 21.184,-10.031 21.184,-23.212 v -17.409 h -42.3197 v -5.803 h 42.3197 21.185 c 12.314,0 16.902,-9.26 21.184,-23.159 4.424,-14.308 4.236,-28.068 0,-46.4236 -3.043,-13.2158 -8.855,-23.1587 -21.184,-23.1587 z m -23.802,110.1503 c 4.392,0 7.951,3.88 7.951,8.678 0,4.815 -3.559,8.731 -7.951,8.731 -4.376,0 -7.95,-3.916 -7.95,-8.731 0,-4.798 3.574,-8.678 7.95,-8.678 z"
       fill="url(#paint1_linear_18_357)"
       id="path10"
       style="fill:url(#paint1_linear_18_357)" />
    <path
       d="m 660.99082,416.91507 -19.07,-14.62972 -19.069,14.62972 -31.449,-5.81971 0.594,17.85161 -31.8166,5.2133 20.0306,14.2549 -20.0306,14.2549 31.8166,5.2133 -0.594,17.8516 22.569,-4.1764 -8.334,22.3245 25.788,6.918 -12.894,-6.918 12.894,-20.3648 14.043,8.0471 15.522,-11.65 31.449,5.8196 -0.594,-17.8516 31.816,-5.2133 -20.031,-14.2549 20.031,-14.2549 -31.816,-5.2133 0.594,-17.85161 z"
       fill="#ffffff"
       id="path11" />
    <g
       mask="url(#mask0_18_357)"
       id="g14"
       transform="translate(465.84482,402.02607)">
      <g
         filter="url(#filter0_dddd_18_357)"
         id="g13">
        <path
           d="M 195.145,14.889 176.076,0.259277 157.006,14.889 125.557,9.06929 l 0.594,17.85161 -31.816,5.2133 20.031,14.2549 -20.031,14.2549 31.816,5.2133 -0.594,17.8516 22.57,-4.1764 -8.335,22.3245 25.788,6.977 -12.894,-6.977 12.894,-20.3648 14.044,8.0471 15.521,-11.65 31.449,5.8196 L 226,65.8573 257.817,60.644 237.786,46.3891 257.817,32.1342 226,26.9209 226.594,9.06929 Z"
           fill="#ffffff"
           id="path13" />
      </g>
    </g>
    <path
       d="m 603.41882,443.63597 c 0,-0.903 0.179,-1.7451 0.537,-2.5263 0.359,-0.7811 0.85,-1.462 1.473,-2.0425 0.624,-0.5876 1.337,-1.0427 2.139,-1.3652 0.81,-0.3297 1.667,-0.4945 2.57,-0.4945 0.802,0 1.558,0.1362 2.268,0.4085 0.724,-0.2365 1.433,-0.3547 2.128,-0.3547 1.083,0 2.018,0.215 2.806,0.645 0.796,0.43 1.433,0.9746 1.914,1.6339 0.465,-0.6736 1.085,-1.2219 1.859,-1.6447 0.774,-0.43 1.692,-0.645 2.752,-0.645 0.946,0 1.839,0.172 2.677,0.516 0.846,0.344 1.591,0.8242 2.236,1.4405 0.652,0.6092 1.165,1.3222 1.537,2.1392 0.373,0.817 0.559,1.695 0.559,2.6338 0,0.903 -0.2,1.7558 -0.602,2.5585 -0.401,0.8026 -0.956,1.4548 -1.666,1.9565 -0.709,0.5016 -1.523,0.7525 -2.44,0.7525 -0.824,0 -1.562,-0.1971 -2.215,-0.5913 -0.652,-0.4013 -1.164,-0.9352 -1.537,-1.6017 -0.373,-0.6737 -0.559,-1.4154 -0.559,-2.2253 0,-0.8671 0.197,-1.6411 0.591,-2.322 0.395,-0.688 0.928,-1.2326 1.602,-1.634 0.681,-0.4013 1.444,-0.602 2.29,-0.602 0.064,0 0.129,0.004 0.193,0.0108 0.065,0 0.129,0.004 0.194,0.0107 -0.409,-0.2795 -0.849,-0.498 -1.322,-0.6557 -0.466,-0.1577 -0.975,-0.2365 -1.527,-0.2365 -1.19,0 -2.075,0.3547 -2.655,1.0642 -0.581,0.7095 -0.871,1.652 -0.871,2.8273 l 0.011,4.902 c -0.007,0.2938 -0.115,0.5446 -0.323,0.7525 -0.207,0.2078 -0.458,0.3117 -0.752,0.3117 -0.287,0 -0.538,-0.1039 -0.753,-0.3117 -0.207,-0.2079 -0.315,-0.4551 -0.322,-0.7418 l -0.011,-4.9127 c 0,-1.1467 -0.287,-2.0604 -0.86,-2.7413 -0.566,-0.6808 -1.405,-1.057 -2.515,-1.1287 0.207,0.2867 0.39,0.6127 0.548,0.9782 0.165,0.3655 0.247,0.7669 0.247,1.204 0,0.3082 -0.039,0.5913 -0.118,0.8493 -0.079,0.258 -0.194,0.5052 -0.344,0.7417 0.351,0.301 0.631,0.6737 0.838,1.118 0.208,0.4444 0.312,0.9102 0.312,1.3975 0,0.6809 -0.175,1.29 -0.527,1.8275 -0.344,0.5304 -0.802,0.9496 -1.376,1.2578 -0.566,0.301 -1.186,0.4515 -1.859,0.4515 -0.954,0 -1.781,-0.2473 -2.484,-0.7418 -0.702,-0.5016 -1.247,-1.1538 -1.634,-1.9565 -0.379,-0.8098 -0.569,-1.6698 -0.569,-2.58 0,-0.9531 0.161,-1.806 0.483,-2.5585 0.33,-0.7525 0.774,-1.4297 1.333,-2.0317 -0.716,0.0717 -1.386,0.301 -2.01,0.688 -0.623,0.3798 -1.129,0.8779 -1.516,1.4942 -0.387,0.6164 -0.58,1.3115 -0.58,2.0855 0,0.8529 0.233,1.591 0.699,2.2145 0.465,0.6235 1.01,1.0714 1.634,1.3438 0.186,0.0716 0.34,0.2042 0.462,0.3977 0.129,0.1935 0.193,0.3906 0.193,0.5913 0,0.2938 -0.107,0.5482 -0.322,0.7632 -0.208,0.2079 -0.459,0.3118 -0.753,0.3118 -0.157,0 -0.308,-0.0323 -0.451,-0.0968 -0.645,-0.2866 -1.243,-0.6951 -1.795,-1.2255 -0.545,-0.5303 -0.986,-1.1574 -1.323,-1.8812 -0.329,-0.731 -0.494,-1.5408 -0.494,-2.4295 z m 9.546,0.903 c -0.029,0 -0.061,0.004 -0.097,0.0107 -0.036,0 -0.072,0 -0.107,0 -0.294,0 -0.549,-0.1039 -0.764,-0.3117 -0.207,-0.215 -0.311,-0.4694 -0.311,-0.7633 0,-0.2866 0.096,-0.5303 0.29,-0.731 0.201,-0.2078 0.444,-0.3225 0.731,-0.344 0.208,-0.0143 0.387,-0.0967 0.537,-0.2472 0.151,-0.1505 0.226,-0.3297 0.226,-0.5375 0,-0.3368 -0.129,-0.6522 -0.387,-0.946 -0.258,-0.301 -0.505,-0.5303 -0.742,-0.688 -0.666,0.3655 -1.222,0.903 -1.666,1.6125 -0.444,0.7023 -0.666,1.4907 -0.666,2.365 0,0.5303 0.1,1.0356 0.301,1.5157 0.2,0.4802 0.491,0.8708 0.87,1.1718 0.38,0.301 0.835,0.4515 1.366,0.4515 0.415,0 0.788,-0.1254 1.118,-0.3763 0.329,-0.258 0.494,-0.5841 0.494,-0.9782 0,-0.3369 -0.115,-0.6199 -0.344,-0.8493 -0.229,-0.2365 -0.512,-0.3547 -0.849,-0.3547 z m 15.577,0.129 c 0,-0.645 -0.223,-1.1789 -0.667,-1.6018 -0.437,-0.43 -0.953,-0.645 -1.548,-0.645 -0.652,0 -1.2,0.233 -1.645,0.6988 -0.444,0.4587 -0.666,1.0212 -0.666,1.6877 0,0.6307 0.201,1.1718 0.602,1.6233 0.401,0.4443 0.917,0.6665 1.548,0.6665 0.394,0 0.77,-0.1075 1.129,-0.3225 0.365,-0.215 0.663,-0.5053 0.892,-0.8708 0.236,-0.3655 0.355,-0.7776 0.355,-1.2362 z m 22.069,-7.439 c 0.939,0 1.813,0.1756 2.623,0.5268 0.817,0.3511 1.534,0.8385 2.15,1.4619 0.624,0.6235 1.108,1.3438 1.452,2.1608 0.351,0.817 0.526,1.6913 0.526,2.623 0,0.6307 -0.003,1.2792 -0.01,1.9457 -0.008,0.6594 -0.011,1.3151 -0.011,1.9673 0,0.2938 -0.108,0.5482 -0.323,0.7632 -0.208,0.2079 -0.458,0.3118 -0.752,0.3118 l -22.704,0.0107 c -0.294,0 -0.548,-0.1039 -0.763,-0.3117 -0.208,-0.215 -0.312,-0.4694 -0.312,-0.7633 v -4.1495 c 0,-0.8743 0.172,-1.7056 0.516,-2.494 0.351,-0.7883 0.835,-1.4835 1.451,-2.0855 0.624,-0.6091 1.344,-1.0857 2.161,-1.4297 0.817,-0.3512 1.698,-0.5267 2.644,-0.5267 1.197,0 2.286,0.283 3.268,0.8492 0.989,0.5662 1.785,1.3115 2.387,2.236 0.566,-0.8528 1.322,-1.5802 2.268,-2.1822 0.946,-0.6092 2.089,-0.9138 3.429,-0.9138 z m -0.634,2.2037 c -0.717,0.1075 -1.365,0.3584 -1.946,0.7525 -0.58,0.3942 -1.05,0.8887 -1.408,1.4835 -0.358,0.5949 -0.566,1.2542 -0.623,1.978 0.007,0.0574 0.01,0.1183 0.01,0.1828 0,0.0645 0,0.1254 0,0.1827 0,0.4587 -0.003,0.9245 -0.01,1.3975 0,0.4659 -0.004,0.9353 -0.011,1.4083 1.017,-0.0717 1.946,-0.3548 2.784,-0.8493 0.846,-0.5016 1.523,-1.1538 2.032,-1.9565 0.509,-0.8098 0.763,-1.7092 0.763,-2.6982 0,-0.5017 -0.14,-0.9388 -0.419,-1.3115 -0.273,-0.3798 -0.663,-0.5698 -1.172,-0.5698 z m -11.352,0.0108 c -0.724,0.1075 -1.383,0.3691 -1.978,0.7847 -0.588,0.4085 -1.061,0.9245 -1.419,1.548 -0.358,0.6164 -0.555,1.2972 -0.591,2.0425 v 3.0208 c 0.48,-0.0717 1.035,-0.258 1.666,-0.559 0.631,-0.301 1.243,-0.6952 1.838,-1.1825 0.602,-0.4945 1.097,-1.0607 1.484,-1.6985 0.394,-0.6378 0.591,-1.3294 0.591,-2.0748 0,-0.5016 -0.14,-0.9388 -0.419,-1.3115 -0.273,-0.3798 -0.663,-0.5697 -1.172,-0.5697 z m 15.029,1.0965 c 0.043,0.258 0.064,0.516 0.064,0.774 0,0.8098 -0.143,1.5587 -0.43,2.2467 -0.287,0.688 -0.649,1.3079 -1.086,1.8598 -0.437,0.5446 -0.885,1.0176 -1.343,1.419 h 4.332 l 0.011,-3.053 v -0.0215 c 0,-0.5948 -0.151,-1.1861 -0.452,-1.7738 -0.301,-0.5948 -0.666,-1.0785 -1.096,-1.4512 z m -11.352,0.0107 c 0.043,0.258 0.064,0.516 0.064,0.774 0,0.8099 -0.143,1.5588 -0.43,2.2468 -0.287,0.688 -0.649,1.3079 -1.086,1.8597 -0.437,0.5447 -0.885,1.0177 -1.343,1.419 h 4.332 v -3.3002 c -0.043,-0.559 -0.212,-1.1108 -0.505,-1.6555 -0.287,-0.5518 -0.631,-0.9998 -1.032,-1.3438 z m 29.669,-2.2574 c 0,-0.2939 0.104,-0.5447 0.312,-0.7525 0.215,-0.215 0.47,-0.3225 0.763,-0.3225 0.294,0 0.545,0.1075 0.753,0.3225 0.215,0.2078 0.322,0.4586 0.322,0.7525 -0.007,2.3578 -0.007,4.712 0,7.0627 0.008,2.3435 0.011,4.6941 0.011,7.052 0,0.2866 -0.104,0.5339 -0.312,0.7417 -0.2,0.2078 -0.447,0.3153 -0.741,0.3225 l -8.396,0.172 h -0.021 c -0.294,0 -0.549,-0.1075 -0.764,-0.3225 -0.208,-0.2078 -0.311,-0.4587 -0.311,-0.7525 0,-0.1433 0.035,-0.2938 0.107,-0.4515 0.079,-0.1505 0.168,-0.2723 0.269,-0.3655 l 3.246,-2.752 -7.428,0.0215 c -0.294,0.007 -0.548,-0.0967 -0.763,-0.3117 -0.208,-0.215 -0.312,-0.4694 -0.312,-0.7633 0,-0.301 0.104,-0.5554 0.312,-0.7632 0.215,-0.2079 0.473,-0.3118 0.774,-0.3118 l 6.009,-0.0107 c 0.545,-0.0789 1.018,-0.3297 1.419,-0.7525 0.401,-0.4229 0.602,-0.9353 0.602,-1.5373 0,-0.5518 -0.186,-1.0355 -0.559,-1.4512 -0.373,-0.4157 -0.835,-0.6235 -1.387,-0.6235 -0.458,0 -0.853,0.1648 -1.182,0.4945 -0.323,0.3297 -0.484,0.7382 -0.484,1.2255 0,0.2795 0.043,0.5088 0.129,0.688 0.072,0.1576 0.108,0.3081 0.108,0.4515 0,0.2938 -0.108,0.5482 -0.323,0.7632 -0.208,0.2079 -0.459,0.3118 -0.752,0.3118 -0.33,0 -0.592,-0.1183 -0.785,-0.3548 -0.194,-0.2436 -0.333,-0.5375 -0.419,-0.8815 -0.079,-0.3511 -0.119,-0.6808 -0.119,-0.989 0,-0.7453 0.176,-1.4082 0.527,-1.9887 0.351,-0.5805 0.821,-1.0356 1.408,-1.3653 0.588,-0.3368 1.229,-0.5052 1.924,-0.5052 0.753,0 1.434,0.1971 2.043,0.5912 0.616,0.387 1.107,0.903 1.473,1.548 0.365,0.6379 0.548,1.3295 0.548,2.0748 0,0.4371 -0.054,0.8421 -0.161,1.2147 -0.108,0.3727 -0.265,0.7274 -0.473,1.0643 h 2.633 z m 0.011,10.6962 h -1.44 l -2.881,2.451 4.321,-0.086 z m 3.3,-12.986 c 0,0.4443 -0.118,0.8421 -0.354,1.1933 -0.244,0.344 -0.549,0.6163 -0.914,0.817 -0.373,0.1935 -0.756,0.2902 -1.15,0.2902 -0.402,0 -0.774,-0.1039 -1.118,-0.3117 -0.351,-0.2079 -0.631,-0.4802 -0.839,-0.817 -0.208,-0.344 -0.312,-0.7131 -0.312,-1.1073 0,-0.5877 0.158,-1.075 0.473,-1.462 0.316,-0.387 0.724,-0.6737 1.226,-0.86 0.494,-0.1935 1.014,-0.2902 1.559,-0.2902 1.498,0 2.63,0.412 3.397,1.2362 0.774,0.817 1.161,1.9708 1.161,3.4615 l -0.033,10.0727 c 0,0.3225 -0.111,0.5662 -0.333,0.731 -0.215,0.1649 -0.444,0.2473 -0.688,0.2473 -0.243,0 -0.476,-0.0824 -0.699,-0.2473 -0.215,-0.1648 -0.322,-0.4121 -0.322,-0.7417 l 0.032,-10.0512 c 0,-0.7095 -0.079,-1.2506 -0.236,-1.6233 -0.151,-0.3798 -0.437,-0.6593 -0.86,-0.8385 0.007,0.0573 0.01,0.1111 0.01,0.1613 0,0.043 0,0.0895 0,0.1397 z m -2.193,-0.6235 c -0.236,0 -0.437,0.0573 -0.602,0.172 -0.172,0.1147 -0.258,0.2831 -0.258,0.5053 0,0.129 0.083,0.2615 0.248,0.3977 0.165,0.129 0.34,0.1935 0.526,0.1935 0.208,0 0.38,-0.0573 0.516,-0.172 0.137,-0.1147 0.205,-0.258 0.205,-0.43 0,-0.4443 -0.212,-0.6665 -0.635,-0.6665 z m -60.235,22.8579 c 0,-0.1856 0.066,-0.344 0.197,-0.4752 0.136,-0.1358 0.296,-0.2037 0.482,-0.2037 0.186,0 0.344,0.0679 0.475,0.2037 0.136,0.1312 0.204,0.2896 0.204,0.4752 v 0.0136 l 0.007,6.063 c 0,0.1856 -0.068,0.3462 -0.204,0.482 -0.131,0.1358 -0.29,0.2037 -0.475,0.2037 l -6.301,-0.0339 c -0.185,0 -0.346,-0.0657 -0.482,-0.1969 -0.131,-0.1358 -0.197,-0.2965 -0.197,-0.4821 0,-0.1222 0.039,-0.2444 0.116,-0.3666 0.081,-0.1222 0.178,-0.2082 0.292,-0.258 0.203,-0.0905 0.38,-0.2354 0.529,-0.4345 0.149,-0.1992 0.224,-0.4436 0.224,-0.7333 0,-0.353 -0.124,-0.6518 -0.373,-0.8962 -0.249,-0.2444 -0.548,-0.3666 -0.896,-0.3666 -0.344,0 -0.643,0.1222 -0.897,0.3666 -0.249,0.2444 -0.373,0.5432 -0.373,0.8962 0,0.3033 0.084,0.559 0.251,0.7672 0.168,0.2082 0.362,0.3531 0.584,0.4345 0.127,0.0453 0.233,0.1313 0.319,0.258 0.091,0.1268 0.136,0.2558 0.136,0.387 0,0.1856 -0.068,0.3463 -0.204,0.4821 -0.131,0.1313 -0.289,0.1969 -0.475,0.1969 -0.086,0 -0.165,-0.0159 -0.238,-0.0475 -0.461,-0.172 -0.866,-0.473 -1.215,-0.903 -0.344,-0.43 -0.516,-0.9528 -0.516,-1.5684 0,-0.4934 0.118,-0.9369 0.353,-1.3307 0.235,-0.3983 0.552,-0.7129 0.951,-0.9438 0.398,-0.2353 0.839,-0.353 1.324,-0.353 0.488,0 0.93,0.1177 1.323,0.353 0.399,0.2309 0.716,0.5455 0.951,0.9438 0.235,0.3938 0.353,0.8373 0.353,1.3307 0,0.3893 -0.081,0.7604 -0.244,1.1135 l 4.026,0.0203 -0.007,-5.384 z m 6.885,3.0349 c 0,-0.3847 -0.068,-0.7559 -0.204,-1.1135 -0.131,-0.3621 -0.328,-0.6585 -0.591,-0.8894 -0.262,-0.2353 -0.591,-0.353 -0.984,-0.353 -0.344,0 -0.641,0.1199 -0.89,0.3598 -0.244,0.2354 -0.38,0.5137 -0.407,0.8351 -0.014,0.172 -0.088,0.3191 -0.224,0.4413 -0.131,0.1222 -0.283,0.1833 -0.455,0.1833 -0.186,0 -0.346,-0.0656 -0.482,-0.1969 -0.131,-0.1357 -0.197,-0.2964 -0.197,-0.482 0,-0.009 0,-0.0204 0,-0.0339 0.005,-0.0136 0.007,-0.0249 0.007,-0.034 0.041,-0.439 0.181,-0.8419 0.421,-1.2085 0.244,-0.3712 0.559,-0.6676 0.943,-0.8894 0.39,-0.2218 0.82,-0.3327 1.29,-0.3327 0.498,0 0.94,0.1041 1.324,0.3123 0.39,0.2082 0.718,0.4888 0.985,0.8419 0.267,0.353 0.471,0.7514 0.611,1.1949 0.14,0.4391 0.21,0.8917 0.21,1.3579 0,0.4798 -0.07,0.9505 -0.21,1.4122 -0.14,0.4617 -0.346,0.8781 -0.618,1.2493 -0.271,0.3711 -0.606,0.6676 -1.005,0.8894 -0.398,0.2173 -0.857,0.3259 -1.378,0.3259 -0.48,0 -0.914,-0.1132 -1.304,-0.3395 -0.389,-0.2263 -0.703,-0.5273 -0.943,-0.903 -0.236,-0.3757 -0.367,-0.7898 -0.394,-1.2424 v -0.0476 c 0,-0.1855 0.066,-0.344 0.197,-0.4752 0.136,-0.1358 0.296,-0.2037 0.482,-0.2037 0.181,0 0.337,0.0634 0.468,0.1901 0.136,0.1222 0.206,0.2738 0.211,0.4549 0.022,0.3259 0.156,0.6088 0.4,0.8487 0.245,0.2399 0.539,0.3598 0.883,0.3598 0.416,0 0.76,-0.1245 1.032,-0.3734 0.276,-0.249 0.482,-0.5658 0.618,-0.9505 0.136,-0.3893 0.204,-0.7853 0.204,-1.1882 z m 10.971,-3.6663 c 0.485,0 0.935,0.0973 1.351,0.292 0.417,0.1946 0.781,0.4616 1.093,0.8011 0.313,0.335 0.555,0.7197 0.727,1.1542 0.176,0.4345 0.265,0.894 0.265,1.3783 0,0.8962 -0.288,1.6951 -0.863,2.3967 l 1.983,-0.007 -0.02,-5.289 v -0.0136 c 0,-0.1856 0.065,-0.344 0.197,-0.4753 0.135,-0.1358 0.296,-0.2036 0.482,-0.2036 0.185,0 0.344,0.0678 0.475,0.2036 0.136,0.1313 0.204,0.2897 0.204,0.4753 v 0.007 l 0.02,5.9747 c 0,0.1856 -0.066,0.3463 -0.197,0.4821 -0.131,0.1312 -0.29,0.1969 -0.475,0.1969 l -5.249,0.0135 c -0.185,0 -0.346,-0.0656 -0.482,-0.1969 -0.131,-0.1358 -0.196,-0.2964 -0.196,-0.482 0,-0.1675 0.058,-0.3169 0.176,-0.4481 0.118,-0.1313 0.26,-0.206 0.428,-0.2241 0.385,-0.0452 0.74,-0.1765 1.066,-0.3938 0.326,-0.2217 0.588,-0.5069 0.787,-0.8554 0.199,-0.3531 0.299,-0.7423 0.299,-1.1678 0,-0.3938 -0.09,-0.7627 -0.272,-1.1067 -0.181,-0.344 -0.427,-0.6224 -0.74,-0.8351 -0.312,-0.2127 -0.665,-0.3191 -1.059,-0.3191 -0.48,0 -0.853,0.1245 -1.12,0.3734 -0.267,0.249 -0.457,0.5794 -0.57,0.9913 -0.109,0.4073 -0.168,0.8532 -0.177,1.3375 l -0.047,2.7905 c -0.005,0.181 -0.073,0.3372 -0.204,0.4684 -0.131,0.1268 -0.29,0.1901 -0.475,0.1901 -0.186,0 -0.347,-0.0656 -0.482,-0.1969 -0.132,-0.1357 -0.197,-0.2964 -0.197,-0.482 l 0.027,-2.7905 c 0.004,-0.4933 -0.048,-0.9414 -0.156,-1.3443 -0.104,-0.4028 -0.292,-0.7242 -0.564,-0.9641 -0.267,-0.2444 -0.643,-0.3666 -1.127,-0.3666 -0.398,0 -0.76,0.1109 -1.086,0.3327 -0.322,0.2172 -0.579,0.5047 -0.774,0.8622 -0.19,0.3531 -0.285,0.7356 -0.285,1.1474 0,0.4482 0.111,0.8578 0.332,1.2289 0.227,0.3712 0.528,0.6677 0.903,0.8895 0.376,0.2217 0.79,0.3326 1.243,0.3326 0.032,0 0.063,0 0.095,0 0.032,-0.005 0.063,-0.007 0.095,-0.007 0.186,0 0.344,0.0678 0.475,0.2036 0.136,0.1313 0.204,0.2897 0.204,0.4753 0,0.181 -0.063,0.3372 -0.19,0.4685 -0.127,0.1312 -0.281,0.2014 -0.462,0.2104 -0.036,0.005 -0.075,0.007 -0.115,0.007 -0.037,0 -0.073,0 -0.109,0 -0.53,0 -1.025,-0.0995 -1.487,-0.2987 -0.461,-0.1992 -0.869,-0.473 -1.222,-0.8215 -0.348,-0.3531 -0.622,-0.7604 -0.821,-1.2221 -0.2,-0.4617 -0.299,-0.9551 -0.299,-1.4801 0,-0.4934 0.09,-0.9619 0.271,-1.4054 0.181,-0.4436 0.433,-0.8352 0.754,-1.1746 0.326,-0.344 0.699,-0.6133 1.12,-0.808 0.426,-0.1991 0.878,-0.2987 1.358,-0.2987 0.57,0 1.073,0.1358 1.507,0.4074 0.439,0.267 0.786,0.5793 1.039,0.9369 0.254,-0.3621 0.595,-0.6767 1.025,-0.9437 0.435,-0.2716 0.942,-0.4074 1.521,-0.4074 z m 7.557,-1.3986 c 0,-0.0634 -0.009,-0.129 -0.027,-0.1969 -0.014,-0.0724 -0.021,-0.1652 -0.021,-0.2784 0,-0.1584 0.068,-0.2942 0.204,-0.4074 0.14,-0.1131 0.283,-0.1697 0.428,-0.1697 0.285,0 0.475,0.1109 0.57,0.3327 0.095,0.2218 0.143,0.4413 0.143,0.6586 0,0.4571 -0.104,0.869 -0.313,1.2357 -0.208,0.3666 -0.491,0.6563 -0.848,0.869 -0.358,0.2127 -0.763,0.3191 -1.216,0.3191 -0.457,0 -0.86,-0.1109 -1.208,-0.3327 -0.353,-0.2263 -0.627,-0.5205 -0.822,-0.8826 -0.199,-0.3621 -0.298,-0.7446 -0.298,-1.1474 0,-0.1449 0.015,-0.301 0.047,-0.4685 0.032,-0.1675 0.1,-0.31 0.204,-0.4277 0.104,-0.1222 0.26,-0.1833 0.468,-0.1833 0.145,0 0.285,0.0588 0.421,0.1765 0.136,0.1177 0.204,0.2535 0.204,0.4073 0,0.1087 -0.007,0.2015 -0.02,0.2784 -0.019,0.0724 -0.028,0.1471 -0.028,0.2241 0,0.2987 0.105,0.5476 0.313,0.7468 0.208,0.1992 0.448,0.2987 0.719,0.2987 0.308,0 0.564,-0.1063 0.768,-0.3191 0.208,-0.2127 0.312,-0.4571 0.312,-0.7332 z m 12.214,2.03 c 0,-0.1856 0.066,-0.344 0.197,-0.4752 0.136,-0.1358 0.297,-0.2037 0.482,-0.2037 0.186,0 0.344,0.0679 0.475,0.2037 0.136,0.1312 0.204,0.2896 0.204,0.4752 v 0.0136 l 0.007,6.063 c 0,0.1856 -0.068,0.3462 -0.204,0.482 -0.131,0.1358 -0.29,0.2037 -0.475,0.2037 l -6.301,-0.0339 c -0.185,0 -0.346,-0.0657 -0.482,-0.1969 -0.131,-0.1358 -0.197,-0.2965 -0.197,-0.4821 0,-0.1222 0.039,-0.2444 0.116,-0.3666 0.081,-0.1222 0.179,-0.2082 0.292,-0.258 0.203,-0.0905 0.38,-0.2354 0.529,-0.4345 0.15,-0.1992 0.224,-0.4436 0.224,-0.7333 0,-0.353 -0.124,-0.6518 -0.373,-0.8962 -0.249,-0.2444 -0.548,-0.3666 -0.896,-0.3666 -0.344,0 -0.643,0.1222 -0.896,0.3666 -0.249,0.2444 -0.374,0.5432 -0.374,0.8962 0,0.3033 0.084,0.559 0.251,0.7672 0.168,0.2082 0.362,0.3531 0.584,0.4345 0.127,0.0453 0.233,0.1313 0.319,0.258 0.091,0.1268 0.136,0.2558 0.136,0.387 0,0.1856 -0.068,0.3463 -0.204,0.4821 -0.131,0.1313 -0.289,0.1969 -0.475,0.1969 -0.086,0 -0.165,-0.0159 -0.237,-0.0475 -0.462,-0.172 -0.867,-0.473 -1.216,-0.903 -0.344,-0.43 -0.516,-0.9528 -0.516,-1.5684 0,-0.4934 0.118,-0.9369 0.353,-1.3307 0.236,-0.3983 0.552,-0.7129 0.951,-0.9438 0.398,-0.2353 0.839,-0.353 1.324,-0.353 0.489,0 0.93,0.1177 1.324,0.353 0.398,0.2309 0.715,0.5455 0.95,0.9438 0.236,0.3938 0.353,0.8373 0.353,1.3307 0,0.3893 -0.081,0.7604 -0.244,1.1135 l 4.026,0.0203 -0.007,-5.384 z m 6.885,3.0349 c 0,-0.3847 -0.068,-0.7559 -0.204,-1.1135 -0.131,-0.3621 -0.328,-0.6585 -0.591,-0.8894 -0.262,-0.2353 -0.59,-0.353 -0.984,-0.353 -0.344,0 -0.641,0.1199 -0.89,0.3598 -0.244,0.2354 -0.38,0.5137 -0.407,0.8351 -0.014,0.172 -0.088,0.3191 -0.224,0.4413 -0.131,0.1222 -0.283,0.1833 -0.455,0.1833 -0.185,0 -0.346,-0.0656 -0.482,-0.1969 -0.131,-0.1357 -0.197,-0.2964 -0.197,-0.482 0,-0.009 0,-0.0204 0,-0.0339 0.005,-0.0136 0.007,-0.0249 0.007,-0.034 0.041,-0.439 0.181,-0.8419 0.421,-1.2085 0.244,-0.3712 0.559,-0.6676 0.944,-0.8894 0.389,-0.2218 0.819,-0.3327 1.29,-0.3327 0.498,0 0.939,0.1041 1.324,0.3123 0.389,0.2082 0.717,0.4888 0.984,0.8419 0.267,0.353 0.471,0.7514 0.611,1.1949 0.14,0.4391 0.211,0.8917 0.211,1.3579 0,0.4798 -0.071,0.9505 -0.211,1.4122 -0.14,0.4617 -0.346,0.8781 -0.618,1.2493 -0.271,0.3711 -0.606,0.6676 -1.005,0.8894 -0.398,0.2173 -0.857,0.3259 -1.378,0.3259 -0.48,0 -0.914,-0.1132 -1.303,-0.3395 -0.39,-0.2263 -0.704,-0.5273 -0.944,-0.903 -0.236,-0.3757 -0.367,-0.7898 -0.394,-1.2424 v -0.0476 c 0,-0.1855 0.066,-0.344 0.197,-0.4752 0.136,-0.1358 0.296,-0.2037 0.482,-0.2037 0.181,0 0.337,0.0634 0.468,0.1901 0.136,0.1222 0.206,0.2738 0.211,0.4549 0.023,0.3259 0.156,0.6088 0.401,0.8487 0.244,0.2399 0.538,0.3598 0.882,0.3598 0.417,0 0.761,-0.1245 1.032,-0.3734 0.276,-0.249 0.482,-0.5658 0.618,-0.9505 0.136,-0.3893 0.204,-0.7853 0.204,-1.1882 z m 10.971,-3.6663 c 0.485,0 0.935,0.0973 1.352,0.292 0.416,0.1946 0.78,0.4616 1.093,0.8011 0.312,0.335 0.554,0.7197 0.726,1.1542 0.177,0.4345 0.265,0.894 0.265,1.3783 0,0.8962 -0.288,1.6951 -0.862,2.3967 l 1.982,-0.007 -0.02,-5.289 v -0.0136 c 0,-0.1856 0.065,-0.344 0.197,-0.4753 0.135,-0.1358 0.296,-0.2036 0.482,-0.2036 0.185,0 0.344,0.0678 0.475,0.2036 0.136,0.1313 0.204,0.2897 0.204,0.4753 v 0.007 l 0.02,5.9747 c 0,0.1856 -0.066,0.3463 -0.197,0.4821 -0.131,0.1312 -0.29,0.1969 -0.475,0.1969 l -5.248,0.0135 c -0.186,0 -0.347,-0.0656 -0.482,-0.1969 -0.132,-0.1358 -0.197,-0.2964 -0.197,-0.482 0,-0.1675 0.059,-0.3169 0.176,-0.4481 0.118,-0.1313 0.26,-0.206 0.428,-0.2241 0.385,-0.0452 0.74,-0.1765 1.066,-0.3938 0.326,-0.2217 0.588,-0.5069 0.787,-0.8554 0.2,-0.3531 0.299,-0.7423 0.299,-1.1678 0,-0.3938 -0.09,-0.7627 -0.271,-1.1067 -0.181,-0.344 -0.428,-0.6224 -0.74,-0.8351 -0.313,-0.2127 -0.666,-0.3191 -1.06,-0.3191 -0.479,0 -0.853,0.1245 -1.12,0.3734 -0.267,0.249 -0.457,0.5794 -0.57,0.9913 -0.109,0.4073 -0.168,0.8532 -0.177,1.3375 l -0.047,2.7905 c -0.005,0.181 -0.073,0.3372 -0.204,0.4684 -0.131,0.1268 -0.29,0.1901 -0.475,0.1901 -0.186,0 -0.346,-0.0656 -0.482,-0.1969 -0.131,-0.1357 -0.197,-0.2964 -0.197,-0.482 l 0.027,-2.7905 c 0.005,-0.4933 -0.047,-0.9414 -0.156,-1.3443 -0.104,-0.4028 -0.292,-0.7242 -0.564,-0.9641 -0.267,-0.2444 -0.642,-0.3666 -1.127,-0.3666 -0.398,0 -0.76,0.1109 -1.086,0.3327 -0.321,0.2172 -0.579,0.5047 -0.774,0.8622 -0.19,0.3531 -0.285,0.7356 -0.285,1.1474 0,0.4482 0.111,0.8578 0.333,1.2289 0.226,0.3712 0.527,0.6677 0.903,0.8895 0.375,0.2217 0.789,0.3326 1.242,0.3326 0.032,0 0.063,0 0.095,0 0.032,-0.005 0.063,-0.007 0.095,-0.007 0.186,0 0.344,0.0678 0.475,0.2036 0.136,0.1313 0.204,0.2897 0.204,0.4753 0,0.181 -0.063,0.3372 -0.19,0.4685 -0.127,0.1312 -0.281,0.2014 -0.462,0.2104 -0.036,0.005 -0.074,0.007 -0.115,0.007 -0.036,0 -0.073,0 -0.109,0 -0.529,0 -1.025,-0.0995 -1.487,-0.2987 -0.461,-0.1992 -0.869,-0.473 -1.222,-0.8215 -0.348,-0.3531 -0.622,-0.7604 -0.821,-1.2221 -0.199,-0.4617 -0.299,-0.9551 -0.299,-1.4801 0,-0.4934 0.091,-0.9619 0.272,-1.4054 0.181,-0.4436 0.432,-0.8352 0.753,-1.1746 0.326,-0.344 0.7,-0.6133 1.12,-0.808 0.426,-0.1991 0.879,-0.2987 1.358,-0.2987 0.571,0 1.073,0.1358 1.508,0.4074 0.439,0.267 0.785,0.5793 1.038,0.9369 0.254,-0.3621 0.596,-0.6767 1.026,-0.9437 0.434,-0.2716 0.941,-0.4074 1.52,-0.4074 z m 7.557,-1.3986 c 0,-0.0634 -0.009,-0.129 -0.027,-0.1969 -0.014,-0.0724 -0.02,-0.1652 -0.02,-0.2784 0,-0.1584 0.067,-0.2942 0.203,-0.4074 0.141,-0.1131 0.283,-0.1697 0.428,-0.1697 0.285,0 0.475,0.1109 0.57,0.3327 0.095,0.2218 0.143,0.4413 0.143,0.6586 0,0.4571 -0.104,0.869 -0.312,1.2357 -0.209,0.3666 -0.492,0.6563 -0.849,0.869 -0.358,0.2127 -0.763,0.3191 -1.215,0.3191 -0.458,0 -0.86,-0.1109 -1.209,-0.3327 -0.353,-0.2263 -0.627,-0.5205 -0.821,-0.8826 -0.2,-0.3621 -0.299,-0.7446 -0.299,-1.1474 0,-0.1449 0.016,-0.301 0.047,-0.4685 0.032,-0.1675 0.1,-0.31 0.204,-0.4277 0.104,-0.1222 0.26,-0.1833 0.468,-0.1833 0.145,0 0.286,0.0588 0.421,0.1765 0.136,0.1177 0.204,0.2535 0.204,0.4073 0,0.1087 -0.007,0.2015 -0.02,0.2784 -0.018,0.0724 -0.027,0.1471 -0.027,0.2241 0,0.2987 0.104,0.5476 0.312,0.7468 0.208,0.1992 0.448,0.2987 0.72,0.2987 0.307,0 0.563,-0.1063 0.767,-0.3191 0.208,-0.2127 0.312,-0.4571 0.312,-0.7332 z m 1.385,-0.4413 h 0.007 c 0.167,0 0.328,0.0588 0.482,0.1765 0.154,0.1131 0.231,0.2648 0.231,0.4549 l -0.19,5.7778 c 0,0.163 -0.041,0.3101 -0.122,0.4413 -0.082,0.1268 -0.215,0.1901 -0.401,0.1901 -0.181,0 -0.312,-0.0633 -0.394,-0.1901 -0.081,-0.1312 -0.122,-0.2783 -0.122,-0.4413 l -0.204,-5.7778 c 0,-0.1901 0.077,-0.3418 0.231,-0.4549 0.159,-0.1132 0.319,-0.172 0.482,-0.1765 z m 0.041,7.7332 c 0.226,0 0.419,0.0814 0.577,0.2444 0.163,0.1584 0.244,0.3508 0.244,0.5771 0,0.2263 -0.081,0.4209 -0.244,0.5839 -0.158,0.1584 -0.351,0.2376 -0.577,0.2376 -0.226,0 -0.421,-0.0792 -0.584,-0.2376 -0.158,-0.163 -0.238,-0.3576 -0.238,-0.5839 0,-0.2263 0.08,-0.4187 0.238,-0.5771 0.163,-0.163 0.358,-0.2444 0.584,-0.2444 z"
       fill="#000000"
       id="path14" />
    <g
       mask="url(#mask1_18_357)"
       id="g18"
       transform="translate(465.84482,402.02607)">
      <g
         filter="url(#filter1_dddd_18_357)"
         id="g17">
        <path
           d="m 203.136,75.7042 c 4.414,0.6122 8.265,2.2704 10.952,4.4689 2.5,1.4937 4.927,3.8974 6.819,6.9828 3.281,5.349 4.007,11.201 2.209,14.8741 2.331,0.936 4.04,3.986 4.04,7.605 0,4.32 -2.436,7.831 -5.46,7.899 -0.085,4.92 -1.342,9.037 -3.469,12.339 0.271,0.12 0.542,0.228 0.815,0.321 l 8.599,-1.248 c -0.107,-0.631 -0.022,-1.168 0.316,-1.568 1.521,-1.801 3.18,-0.922 4.888,0.813 l 0.32,-0.047 c -2.24,-3.727 -3.147,-7.103 -1.665,-8.014 2.62,-1.353 4.113,1.099 6.201,4.527 0.136,0.223 0.275,0.451 0.416,0.681 0.133,-0.023 0.265,-0.043 0.398,-0.059 -0.758,-3.201 -1.265,-5.539 1.318,-5.993 1.055,-0.185 2.255,1.2 3.222,3.385 0.464,0.069 0.949,0.16 1.45,0.267 -0.077,-0.592 -0.117,-1.214 -0.114,-1.857 0.02,-3.866 1.568,-7.262 3.48,-7.252 1.48,0.007 2.092,1.977 2.284,4.662 0.066,-0.042 0.133,-0.082 0.2,-0.119 0.1,-0.347 0.222,-0.699 0.364,-1.053 1.124,-2.795 3.058,-4.575 4.709,-3.911 1.651,0.663 1.702,3.217 0.579,6.013 -0.075,0.185 -0.153,0.368 -0.233,0.545 1.203,-1.724 2.397,-2.562 4.673,-1.302 1.707,0.946 -1.021,5.476 -3.708,9.329 -2.368,3.169 -4.306,4.619 -5.767,5.093 -0.234,0.102 -0.471,0.17 -0.709,0.201 l 0.004,0.014 -0.361,0.099 c -0.433,0.824 -0.977,1.652 -1.62,2.439 -1.967,2.41 -3.96,4.718 -5.543,5.189 l 0.004,0.007 -28.926,8.999 0.4,4.198 -9.304,2.467 c -0.287,0.225 -0.574,0.452 -0.862,0.679 l -0.001,0.001 c -1.616,1.273 -3.251,2.562 -4.861,3.869 0.289,0.01 0.581,0.021 0.875,0.034 5.076,0.221 11.158,0.939 25.759,5.083 l -1.277,3.724 0.135,0.056 -0.038,0.092 c 2.084,0.898 4.309,1.898 6.703,3.018 l -0.033,0.055 c 1.64,1.438 3.1,2.746 4.449,3.953 5.129,4.592 8.634,7.73 14.212,11.09 l 8.596,-5.28 c 2.903,-1.783 6.379,-2.386 9.712,-1.684 0.835,0.176 1.189,1.173 0.651,1.836 l -16.081,19.818 c -2.017,2.485 -5.795,2.53 -7.87,0.093 l -2.346,-2.753 c -8.921,-3.685 -14.302,-6.672 -20.133,-15.085 -1.164,0.239 -2.293,0.454 -3.392,0.644 l -0.382,1.115 c -0.037,0.134 -0.074,0.27 -0.11,0.407 l -0.027,-0.008 -1.659,4.839 c -14.473,-1.4 -23.398,-2.875 -30.677,-5.259 -2.426,-0.795 -4.67,-1.691 -6.875,-2.719 -7.93,8.891 -16.816,16.632 -30.653,26.256 l -0.004,0.011 -0.007,-0.003 -0.014,0.009 -0.008,-0.019 -31.794,-14.837 -8.26,8.968 c -2.308,2.506 -5.488,4.032 -8.8864,4.264 -0.8517,0.058 -1.4634,-0.805 -1.1262,-1.59 L 108.712,183.93 c 1.264,-2.941 4.887,-4.012 7.547,-2.233 l 2.841,1.901 c 7.4,0.555 13.138,1.4 19.995,4.681 l -2.064,-4.79 9.138,-18.089 c 0.032,-0.198 0.066,-0.396 0.102,-0.595 1.486,-8.304 5.498,-17.22 11.913,-25.312 0.309,-0.389 0.621,-0.774 0.936,-1.154 4.726,-5.695 10.123,-10.256 15.674,-13.514 -0.355,-1.697 -0.541,-3.559 -0.541,-5.596 0,-2.495 0.497,-5.038 1.386,-7.546 -0.668,0.307 -1.408,0.493 -2.191,0.528 -3.189,0.142 -5.888,-2.281 -6.027,-5.411 -0.14,-3.131 2.333,-5.784 5.523,-5.926 1.054,-0.047 2.054,0.186 2.926,0.632 v -0.001 l 4.114,1.969 c 0.765,-1.082 1.59,-2.135 2.465,-3.151 -2.766,-0.5088 -6.061,-1.7982 -11.257,-4.0521 4.588,-3.0092 7.722,-6.1059 10.224,-8.8498 -1.546,-1.3559 -3.306,-3.2026 -5.651,-5.7742 6.062,-0.7139 10.32,-2.3928 13.764,-3.7511 1.995,-0.7864 3.716,-1.4653 5.358,-1.7871 2.337,-0.6648 5.059,-0.847 8.249,-0.4045 z"
           fill="#ffffff"
           id="path16" />
        <path
           d="m 164.384,120.797 7.282,-5.813 -8.878,-2.827 v 0.001 c -0.827,-0.287 -1.741,-0.37 -2.668,-0.199 -2.807,0.519 -4.67,3.172 -4.161,5.927 0.509,2.755 3.197,4.567 6.003,4.049 0.928,-0.171 1.752,-0.576 2.421,-1.139 z"
           fill="#ffffff"
           id="path17" />
      </g>
    </g>
    <path
       fill-rule="evenodd"
       clip-rule="evenodd"
       d="m 668.84982,477.84107 c 4.414,0.6123 8.266,2.2709 10.953,4.4697 2.5,1.4938 4.926,3.8972 6.818,6.9822 3.281,5.3486 4.007,11.2003 2.209,14.8741 2.332,0.935 4.041,3.986 4.041,7.604 0,4.321 -2.437,7.831 -5.461,7.899 -0.086,5.036 -1.402,9.232 -3.62,12.571 0.068,0.067 0.135,0.134 0.201,0.202 l 22.214,-3.225 c -1.415,-1.016 -2.215,-2.207 -1.946,-3.246 0.41,-1.589 2.896,-1.552 5.961,-0.897 -0.078,-0.592 -0.117,-1.214 -0.114,-1.857 0.019,-3.866 1.568,-7.262 3.479,-7.252 1.481,0.007 2.093,1.977 2.284,4.662 0.067,-0.042 0.133,-0.082 0.2,-0.118 0.1,-0.347 0.222,-0.7 0.364,-1.054 1.123,-2.795 3.058,-4.575 4.709,-3.911 1.651,0.663 1.702,3.217 0.579,6.013 -0.075,0.186 -0.153,0.369 -0.234,0.547 1.203,-1.726 2.398,-2.564 4.674,-1.304 1.707,0.946 -1.021,5.476 -3.707,9.329 -2.369,3.17 -4.307,4.62 -5.769,5.093 -0.233,0.102 -0.47,0.17 -0.707,0.202 l 0.004,0.014 -29.986,8.193 c -2.615,5.158 -9.239,10.378 -16.227,15.884 -1.616,1.273 -3.251,2.562 -4.861,3.868 5.273,0.184 11.185,0.733 26.634,5.118 l -1.309,3.817 c 2.122,0.911 4.389,1.93 6.832,3.073 l -0.034,0.055 c 1.633,1.432 3.088,2.734 4.431,3.937 l 0.002,0.001 10e-4,0.002 0.006,0.005 10e-4,10e-4 10e-4,0.001 0.005,0.004 0.002,0.002 c 5.13,4.593 8.635,7.73 14.213,11.091 l 8.597,-5.281 c 2.902,-1.783 6.378,-2.385 9.711,-1.684 0.835,0.176 1.189,1.173 0.651,1.836 l -16.081,19.818 c -2.017,2.486 -5.795,2.531 -7.87,0.094 l -2.345,-2.753 c -8.922,-3.685 -14.303,-6.673 -20.135,-15.087 -1.164,0.24 -2.293,0.454 -3.391,0.644 l -2.178,6.354 c -19.298,-1.868 -28.732,-3.866 -37.553,-7.979 -7.93,8.891 -16.815,16.632 -30.652,26.255 l -0.004,0.012 -0.008,-0.004 -0.013,0.009 -0.008,-0.018 -31.794,-14.837 -8.26,8.968 c -2.308,2.505 -5.488,4.031 -8.8863,4.263 -0.8517,0.059 -1.4634,-0.805 -1.1262,-1.589 l 10.0795,-23.447 c 1.264,-2.94 4.887,-4.012 7.547,-2.232 l 2.842,1.901 c 7.4,0.555 13.137,1.4 19.994,4.681 l -2.064,-4.791 9.138,-18.09 c 1.398,-8.472 5.448,-17.62 12.015,-25.903 4.943,-6.235 10.688,-11.193 16.609,-14.668 -0.354,-1.697 -0.541,-3.56 -0.541,-5.597 0,-6.467 3.339,-13.261 8.196,-18.906 -2.766,-0.5088 -6.06,-1.7982 -11.257,-4.0523 4.588,-3.0091 7.722,-6.1057 10.223,-8.8495 -1.545,-1.356 -3.305,-3.2028 -5.651,-5.7744 6.062,-0.7139 10.32,-2.3928 13.765,-3.7511 1.995,-0.7865 3.717,-1.4655 5.358,-1.7873 2.338,-0.6647 5.059,-0.8468 8.249,-0.4044 z"
       fill="#f4ffc7"
       id="path19" />
    <path
       d="m 213.958,80.2847 -1.215,1.4852 c 0.073,0.0597 0.15,0.1139 0.231,0.1622 z m -10.953,-4.4697 0.264,-1.901 v 0 z m 17.771,11.4519 1.636,-1.0035 v 0 z m 2.209,14.8741 -1.724,-0.844 c -0.234,0.479 -0.259,1.034 -0.067,1.532 0.191,0.498 0.581,0.894 1.076,1.093 z m -1.42,15.503 -0.043,-1.918 c -1.03,0.023 -1.858,0.855 -1.876,1.885 z m -3.62,12.571 -1.599,-1.062 c -0.508,0.766 -0.403,1.785 0.252,2.43 z m 0.201,0.202 -1.369,1.345 c 0.429,0.436 1.04,0.642 1.645,0.554 z m 22.214,-3.225 0.275,1.899 c 0.775,-0.112 1.404,-0.684 1.589,-1.444 0.186,-0.761 -0.109,-1.557 -0.745,-2.014 z m -1.946,-3.246 1.858,0.48 v 0 z m 5.961,-0.897 -0.401,1.877 c 0.609,0.13 1.244,-0.044 1.702,-0.467 0.458,-0.422 0.682,-1.041 0.602,-1.659 z m -0.114,-1.857 -1.919,-0.009 v 0 z m 3.479,-7.252 0.01,-1.919 z m 2.284,4.662 -1.914,0.137 c 0.048,0.674 0.448,1.274 1.052,1.578 0.604,0.303 1.324,0.267 1.894,-0.097 z m 0.2,-0.118 0.924,1.682 c 0.447,-0.246 0.778,-0.66 0.92,-1.15 z m 0.364,-1.054 -1.781,-0.716 v 0 z m 4.709,-3.911 0.716,-1.781 v 0 z m 0.579,6.013 -1.781,-0.716 z m -0.234,0.547 -1.748,-0.792 c -0.41,0.903 -0.063,1.97 0.799,2.46 0.862,0.491 1.956,0.244 2.523,-0.57 z m 4.674,-1.304 -0.93,1.679 z m -3.707,9.329 1.537,1.149 c 0.012,-0.017 0.025,-0.034 0.037,-0.051 z m -5.769,5.093 -0.59,-1.826 c -0.061,0.02 -0.121,0.042 -0.179,0.068 z m -0.707,0.202 -0.25,-1.903 c -0.557,0.073 -1.054,0.386 -1.36,0.857 -0.306,0.471 -0.39,1.052 -0.231,1.591 z m 0.004,0.014 0.506,1.851 c 0.497,-0.136 0.919,-0.467 1.17,-0.918 0.251,-0.451 0.31,-0.984 0.164,-1.479 z m -29.986,8.193 -0.506,-1.851 c -0.523,0.143 -0.961,0.5 -1.206,0.983 z m -16.227,15.884 -1.188,-1.507 z m -4.861,3.868 -1.209,-1.49 c -0.622,0.505 -0.865,1.342 -0.61,2.1 0.254,0.759 0.952,1.28 1.752,1.308 z m 26.634,5.118 1.815,0.622 c 0.171,-0.498 0.13,-1.045 -0.114,-1.512 -0.245,-0.467 -0.67,-0.812 -1.177,-0.956 z m -1.309,3.817 -1.815,-0.623 c -0.326,0.95 0.135,1.989 1.058,2.386 z m 6.832,3.073 1.643,0.991 c 0.281,-0.465 0.351,-1.029 0.193,-1.55 -0.158,-0.52 -0.53,-0.949 -1.023,-1.18 z m -0.034,0.055 -1.643,-0.992 c -0.48,0.796 -0.321,1.822 0.378,2.435 z m 4.431,3.937 -1.28,1.43 0.004,0.003 z m 0.003,0.003 1.282,-1.429 -0.005,-0.004 z m 0.006,0.005 1.286,-1.424 -0.004,-0.004 z m 0.001,10e-4 -1.286,1.424 0.003,0.003 z m 10e-4,0.001 -1.284,1.427 0.007,0.006 z m 0.005,0.004 1.288,-1.423 -0.011,-0.009 z m 0.002,0.002 -1.287,1.423 0.007,0.007 z m 14.213,11.091 -0.99,1.643 c 0.614,0.371 1.383,0.367 1.994,-0.008 z m 8.597,-5.281 -1.005,-1.635 z m 9.711,-1.684 -0.395,1.878 v 0 z m 0.651,1.836 1.49,1.21 v 0 z m -16.081,19.818 -1.49,-1.209 v 0 z m -7.87,0.094 1.461,-1.245 z m -2.345,-2.753 1.461,-1.245 c -0.197,-0.232 -0.447,-0.413 -0.728,-0.529 z m -20.135,-15.087 1.577,-1.093 c -0.438,-0.632 -1.211,-0.942 -1.964,-0.786 z m -3.391,0.644 -0.327,-1.891 c -0.691,0.12 -1.261,0.606 -1.488,1.269 z m -2.178,6.354 -0.185,1.91 c 0.884,0.086 1.712,-0.447 2,-1.288 z m -37.553,-7.979 0.811,-1.739 c -0.768,-0.358 -1.679,-0.171 -2.243,0.462 z m -30.652,26.255 -1.096,-1.576 c -0.314,0.219 -0.557,0.528 -0.694,0.886 z m -0.004,0.012 -0.812,1.739 c 0.482,0.225 1.035,0.24 1.529,0.041 0.493,-0.199 0.882,-0.593 1.073,-1.09 z m -0.008,-0.004 0.812,-1.739 c -0.62,-0.289 -1.346,-0.227 -1.908,0.164 z m -0.013,0.009 -1.762,0.76 c 0.228,0.529 0.681,0.927 1.235,1.086 0.554,0.158 1.15,0.059 1.623,-0.27 z m -0.008,-0.018 1.763,-0.76 c -0.186,-0.432 -0.525,-0.781 -0.951,-0.979 z m -31.794,-14.837 0.812,-1.74 c -0.758,-0.353 -1.657,-0.176 -2.224,0.439 z m -8.26,8.968 -1.411,-1.3 h -0.001 z m -8.8863,4.263 -0.1308,-1.914 v 0 z m -1.1262,-1.589 -1.7632,-0.758 v 0 z m 10.0795,-23.447 1.763,0.758 z m 7.547,-2.232 1.068,-1.595 z m 2.842,1.901 -1.068,1.595 c 0.276,0.184 0.594,0.294 0.924,0.319 z m 19.994,4.681 -0.828,1.732 c 0.721,0.345 1.582,0.206 2.158,-0.348 0.577,-0.554 0.749,-1.408 0.433,-2.143 z m -2.064,-4.791 -1.713,-0.866 c -0.257,0.508 -0.275,1.103 -0.05,1.625 z m 9.138,-18.09 1.713,0.865 c 0.088,-0.174 0.149,-0.36 0.181,-0.553 z m 12.015,-25.903 -1.504,-1.193 z m 16.609,-14.668 0.972,1.655 c 0.71,-0.417 1.075,-1.241 0.907,-2.048 z m 7.655,-24.503 1.455,1.252 c 0.448,-0.521 0.584,-1.242 0.355,-1.8905 -0.229,-0.6483 -0.787,-1.1247 -1.463,-1.2491 z m -11.257,-4.0523 -1.053,-1.6048 c -0.59,0.3869 -0.92,1.0662 -0.859,1.769 0.06,0.7028 0.501,1.3159 1.148,1.5965 z m 10.223,-8.8495 1.419,1.2929 c 0.347,-0.3808 0.526,-0.8853 0.498,-1.3999 -0.029,-0.5146 -0.264,-0.996 -0.651,-1.3358 z m -5.651,-5.7744 -0.224,-1.9061 c -0.715,0.0842 -1.322,0.561 -1.574,1.2352 -0.251,0.6742 -0.105,1.4325 0.38,1.9642 z m 13.765,-3.7511 0.704,1.7854 v 0 z m 5.358,-1.7873 0.37,1.8833 c 0.052,-0.0102 0.104,-0.0227 0.155,-0.0373 z m 20.417,2.58 c -2.998,-2.4537 -7.193,-4.2319 -11.904,-4.8854 l -0.528,3.802 c 4.118,0.5712 7.626,2.11 10.002,4.0539 z m 7.239,7.464 c -2.035,-3.3182 -4.675,-5.9558 -7.469,-7.6261 l -1.969,3.2948 c 2.204,1.3174 4.417,3.4866 6.166,6.3382 z m 2.297,16.7206 c 2.196,-4.4866 1.173,-11.0631 -2.297,-16.7206 l -3.272,2.0069 c 3.091,5.0399 3.521,10.1667 2.121,13.0267 z m 4.236,6.761 c 0,-4.072 -1.921,-8.052 -5.245,-9.386 l -1.43,3.563 c 1.34,0.537 2.837,2.658 2.837,5.823 z m -7.337,9.818 c 2.294,-0.051 4.17,-1.405 5.4,-3.181 1.234,-1.783 1.937,-4.132 1.937,-6.637 h -3.838 c 0,1.816 -0.515,3.383 -1.255,4.452 -0.745,1.076 -1.6,1.512 -2.33,1.529 z m -2.065,11.714 c 2.444,-3.678 3.849,-8.24 3.941,-13.6 l -3.838,-0.066 c -0.08,4.712 -1.306,8.541 -3.3,11.542 z m -0.028,-2.206 c -0.074,-0.075 -0.148,-0.149 -0.224,-0.223 l -2.693,2.735 c 0.061,0.06 0.121,0.119 0.179,0.179 z m 20.569,-3.778 -22.214,3.224 0.552,3.799 22.213,-3.225 z m 1.395,0.34 c -0.576,-0.414 -0.922,-0.792 -1.092,-1.065 -0.166,-0.269 -0.078,-0.286 -0.115,-0.142 l -3.716,-0.96 c -0.306,1.183 0.048,2.282 0.568,3.122 0.517,0.835 1.278,1.561 2.116,2.163 z m -1.207,-1.207 c -0.103,0.398 -0.469,0.22 0.322,0.14 0.747,-0.076 1.895,0.043 3.38,0.36 l 0.801,-3.754 c -1.578,-0.337 -3.206,-0.564 -4.57,-0.425 -1.322,0.135 -3.136,0.733 -3.649,2.719 z m 6.006,-1.626 c -0.066,-0.504 -0.101,-1.04 -0.098,-1.598 l -3.838,-0.019 c -0.004,0.727 0.041,1.436 0.13,2.114 z m -0.098,-1.598 c 0.009,-1.707 0.359,-3.237 0.846,-4.27 0.57,-1.205 0.954,-1.072 0.705,-1.073 l 0.019,-3.838 c -2.161,-0.011 -3.507,1.815 -4.194,3.272 -0.77,1.629 -1.203,3.73 -1.214,5.89 z m 1.551,-5.343 c -0.098,-10e-4 -0.214,-0.048 -0.277,-0.101 -0.028,-0.024 0.044,0.027 0.153,0.277 0.228,0.523 0.412,1.422 0.503,2.704 l 3.829,-0.274 c -0.1,-1.402 -0.319,-2.831 -0.814,-3.966 -0.505,-1.156 -1.541,-2.469 -3.375,-2.478 z m 3.325,4.361 c 0.032,-0.02 0.063,-0.038 0.092,-0.054 l -1.848,-3.364 c -0.105,0.057 -0.207,0.118 -0.307,0.182 z m 1.012,-1.204 c 0.082,-0.283 0.182,-0.574 0.301,-0.87 l -3.562,-1.432 c -0.166,0.413 -0.308,0.826 -0.427,1.237 z m 0.301,-0.87 c 0.484,-1.205 1.095,-2.057 1.624,-2.511 0.259,-0.222 0.444,-0.302 0.533,-0.326 0.021,-0.006 0.036,-0.008 0.044,-0.009 0.005,-10e-4 0.008,-10e-4 0.01,-10e-4 10e-4,0 0.002,0 0.002,0 0.001,0 0,0 -0.001,0 -10e-4,0 -10e-4,0 -0.002,-0.001 -0.002,0 -0.002,0 0.002,0.001 l 1.432,-3.561 c -1.749,-0.703 -3.395,0.021 -4.517,0.982 -1.131,0.969 -2.05,2.404 -2.689,3.994 z m 2.212,-2.847 c 0.007,0.003 0,10e-4 -0.009,-0.008 -0.009,-0.007 -0.003,-0.005 0.012,0.02 0.034,0.059 0.104,0.225 0.129,0.556 0.05,0.68 -0.121,1.714 -0.618,2.949 l 3.562,1.431 c 0.627,-1.56 0.991,-3.201 0.884,-4.662 -0.108,-1.466 -0.759,-3.136 -2.528,-3.847 z m -0.486,3.517 c -0.065,0.161 -0.132,0.318 -0.201,0.471 l 3.496,1.585 c 0.092,-0.205 0.181,-0.413 0.267,-0.625 z m 3.121,2.361 c 0.564,-0.808 0.876,-1.015 1.019,-1.067 0.019,-0.007 0.286,-0.135 1.151,0.344 l 1.86,-3.358 c -1.411,-0.781 -2.879,-1.12 -4.328,-0.592 -1.324,0.484 -2.211,1.56 -2.85,2.478 z m 2.17,-0.723 c -0.543,-0.301 -0.436,-0.82 -0.462,-0.542 -0.027,0.287 -0.18,0.823 -0.555,1.629 -0.729,1.57 -1.999,3.55 -3.335,5.465 l 3.149,2.196 c 1.351,-1.938 2.788,-4.15 3.668,-6.044 0.43,-0.926 0.806,-1.941 0.895,-2.89 0.089,-0.958 -0.103,-2.398 -1.5,-3.172 z m -4.315,6.501 c -2.282,3.053 -3.922,4.125 -4.821,4.416 l 1.181,3.652 c 2.024,-0.655 4.259,-2.484 6.715,-5.77 z m -5,4.484 c -0.084,0.037 -0.147,0.051 -0.188,0.057 l 0.499,3.805 c 0.434,-0.056 0.845,-0.178 1.228,-0.346 z m 1.906,1.428 -0.004,-0.014 -3.681,1.091 0.004,0.014 z m -31.32,10.591 29.986,-8.194 -1.012,-3.703 -29.986,8.194 z m -15.545,15.539 c 3.479,-2.741 6.945,-5.471 9.867,-8.17 2.906,-2.683 5.419,-5.464 6.884,-8.353 l -3.424,-1.736 c -1.15,2.27 -3.257,4.677 -6.064,7.269 -2.79,2.577 -6.13,5.211 -9.639,7.976 z m -4.839,3.851 c 1.597,-1.296 3.221,-2.576 4.839,-3.851 l -2.376,-3.014 c -1.614,1.271 -3.26,2.568 -4.882,3.885 z m 25.948,1.782 c -15.553,-4.415 -21.623,-4.999 -27.091,-5.19 l -0.134,3.836 c 5.079,0.178 10.833,0.691 26.177,5.046 z m -0.017,6.285 1.308,-3.817 -3.63,-1.245 -1.309,3.817 z m 5.829,0.712 c -2.459,-1.15 -4.745,-2.177 -6.887,-3.098 l -1.515,3.527 c 2.1,0.903 4.349,1.913 6.776,3.048 z m 0.796,2.786 0.034,-0.056 -3.286,-1.983 -0.034,0.055 z m 4.068,1.515 c -1.343,-1.202 -2.804,-2.51 -4.445,-3.95 l -2.531,2.886 c 1.624,1.425 3.072,2.721 4.416,3.924 z m -0.002,-0.002 -0.001,-10e-4 -2.553,2.866 0.001,0.002 z m 0.002,0.002 -0.002,-0.002 -2.553,2.867 0.002,0.001 z m 0.011,0.01 -0.006,-0.005 -2.564,2.856 0.006,0.005 z m 0.006,0.005 -0.002,-0.001 -2.572,2.848 0.001,0.001 z m -0.002,-0.001 -0.001,-0.001 -2.567,2.853 v 10e-4 z m -0.002,-0.002 -0.005,-0.005 -2.554,2.866 0.005,0.004 z m 0.013,0.011 -0.002,-0.002 -2.575,2.847 0.002,0.001 z m 13.915,10.87 c -5.405,-3.256 -8.789,-6.28 -13.923,-10.877 l -2.56,2.86 c 5.125,4.589 8.751,7.84 14.503,11.304 z m 6.602,-5.272 -8.597,5.28 2.009,3.271 8.597,-5.281 z m 11.111,-1.927 c -3.813,-0.803 -7.79,-0.113 -11.111,1.927 l 2.009,3.27 c 2.484,-1.525 5.459,-2.041 8.312,-1.441 z m 1.746,4.924 c 1.443,-1.778 0.495,-4.452 -1.746,-4.924 l -0.79,3.756 c -0.57,-0.119 -0.811,-0.799 -0.444,-1.251 z m -16.081,19.817 16.081,-19.817 -2.98,-2.419 -16.081,19.818 z m -10.821,0.129 c 2.854,3.351 8.048,3.289 10.821,-0.129 l -2.98,-2.418 c -1.261,1.553 -3.622,1.581 -4.919,0.058 z m -2.345,-2.753 2.345,2.753 2.922,-2.489 -2.345,-2.753 z m -20.251,-15.237 c 3.022,4.359 5.976,7.38 9.376,9.789 3.374,2.39 7.116,4.124 11.603,5.977 l 1.466,-3.547 c -4.435,-1.832 -7.845,-3.434 -10.85,-5.562 -2.979,-2.11 -5.63,-4.79 -8.441,-8.844 z m -1.487,1.441 c 1.119,-0.193 2.269,-0.411 3.451,-0.655 l -0.774,-3.759 c -1.145,0.235 -2.254,0.446 -3.331,0.632 z m -0.69,5.085 2.179,-6.353 -3.631,-1.245 -2.179,6.353 z m -40.179,-6.862 c 9.131,4.258 18.836,6.278 38.179,8.15 l 0.37,-3.82 c -19.253,-1.864 -28.415,-3.84 -36.927,-7.808 z m -28.745,26.091 c 13.927,-9.685 22.935,-17.523 30.988,-26.552 l -2.864,-2.555 c -7.806,8.751 -16.569,16.396 -30.316,25.956 z m 0.69,-0.873 0.005,-0.012 -3.581,-1.38 -0.005,0.012 z m -2.61,1.045 0.008,0.004 1.624,-3.478 -0.008,-0.004 z m 1.895,-0.154 0.013,-0.009 -2.192,-3.151 -0.013,0.009 z m -2.866,-0.835 0.008,0.019 3.525,-1.519 -0.008,-0.019 z m -30.844,-13.857 31.795,14.837 1.623,-3.478 -31.794,-14.838 z m -6.036,8.529 8.26,-8.968 -2.824,-2.601 -8.259,8.969 z m -10.1676,4.878 c 3.8886,-0.265 7.5276,-2.011 10.1676,-4.878 l -2.824,-2.6 c -1.975,2.144 -4.696,3.45 -7.6051,3.649 z m -3.0201,-4.262 c -0.9041,2.103 0.7363,4.418 3.0202,4.262 l -0.2616,-3.829 c 0.5801,-0.04 0.9971,0.548 0.7681,1.083 z m 10.0797,-23.447 -10.0797,23.447 3.5267,1.516 10.079,-23.447 z m 10.378,-3.069 c -3.658,-2.447 -8.64,-0.974 -10.378,3.069 l 3.526,1.516 c 0.79,-1.838 3.055,-2.507 4.717,-1.395 z m 2.841,1.901 -2.841,-1.901 -2.135,3.19 2.841,1.901 z m 19.756,4.545 c -7.173,-3.432 -13.186,-4.302 -20.68,-4.864 l -0.287,3.828 c 7.306,0.548 12.768,1.368 19.31,4.499 z m -4.656,-2.301 2.065,4.792 3.525,-1.519 -2.065,-4.792 z m 9.188,-19.714 -9.138,18.089 3.426,1.731 9.138,-18.09 z m 12.224,-26.231 c -6.748,8.512 -10.948,17.958 -12.404,26.783 l 3.787,0.625 c 1.339,-8.117 5.238,-16.968 11.625,-25.023 z m 17.142,-15.13 c -6.136,3.601 -12.059,8.719 -17.142,15.13 l 3.008,2.385 c 4.804,-6.059 10.371,-10.856 16.077,-14.205 z m -1.489,-3.942 c 0,2.154 0.197,4.149 0.582,5.989 l 3.757,-0.785 c -0.325,-1.553 -0.5,-3.283 -0.5,-5.204 z m 8.66,-20.1578 c -5.028,5.8438 -8.66,13.0658 -8.66,20.1578 h 3.839 c 0,-5.842 3.044,-12.207 7.731,-17.654 z m -10.566,-1.0398 c 5.165,2.2406 8.658,3.6246 11.674,4.1786 l 0.694,-3.7746 c -2.515,-0.4627 -5.612,-1.6575 -10.84,-3.9254 z m 9.569,-11.9032 c -2.438,2.6742 -5.451,5.6471 -9.858,8.5377 l 2.105,3.2096 c 4.769,-3.1276 8.025,-6.3479 10.59,-9.1614 z m -5.651,-3.1881 c 2.344,2.5699 4.169,4.4895 5.804,5.9238 l 2.531,-2.8855 c -1.456,-1.2775 -3.151,-3.0515 -5.499,-5.625 z m 14.479,-6.8298 c -3.421,1.3491 -7.485,2.9474 -13.285,3.6304 l 0.449,3.8121 c 6.324,-0.7447 10.776,-2.5042 14.244,-3.8717 z m 5.693,-1.8853 c -1.848,0.3623 -3.744,1.1169 -5.693,1.8853 l 1.408,3.5708 c 2.041,-0.8047 3.589,-1.4081 5.024,-1.6894 z m 8.882,-0.422 c -3.41,-0.4729 -6.404,-0.2893 -9.037,0.4594 l 1.049,3.692 c 2.043,-0.5807 4.491,-0.7613 7.46,-0.3494 z"
       fill="#000000"
       mask="url(#path-12-inside-2_18_357)"
       id="path20"
       transform="translate(465.84482,402.02607)" />
    <path
       d="m 653.78482,568.08707 c 1.2,-0.299 4.003,-1.079 5.622,-1.798"
       stroke="#000000"
       stroke-width="1.91919"
       stroke-linecap="round"
       stroke-linejoin="round"
       id="path21" />
    <path
       d="m 641.68882,527.22607 c 1.957,7.162 10.622,18.709 29.625,7.607"
       stroke="#000000"
       stroke-width="1.91919"
       stroke-linecap="round"
       stroke-linejoin="round"
       id="path22" />
    <path
       d="m 651.17482,530.18407 c 0.033,0.288 -0.029,1.653 0.246,1.7 -0.524,0.721 1.236,-0.72 1.963,-0.916 2.176,-0.588 4.197,-1.575 6.435,-1.858 2.54,-0.321 5.111,-1.077 7.663,-1.133 0.093,-0.002 1.122,0.122 1.122,-0.121 0,-0.675 -0.194,-1.641 -0.298,-2.316 -0.515,-3.329 -1.07,-6.221 -2.683,-8.9 -1.516,-2.518 -2.724,-4.113 -5.208,-4.462 -4.229,-0.595 -8.066,4.863 -9.17,10.082 -0.528,2.497 -0.357,5.387 -0.07,7.924 z"
       fill="#000000"
       id="path23" />
    <ellipse
       cx="653.33685"
       cy="506.59207"
       rx="1.2238801"
       ry="3.6384699"
       fill="#000000"
       id="ellipse23" />
    <ellipse
       cx="660.97784"
       cy="504.90106"
       rx="1.2238801"
       ry="3.6384699"
       fill="#000000"
       id="ellipse24" />
    <path
       d="m 641.14682,504.49707 c 0.021,0.011 0.042,0.021 0.063,0.029 l 7.742,3.707 -7.383,4.379 c -0.02,0.011 -0.04,0.022 -0.059,0.035 -0.691,0.434 -1.506,0.703 -2.39,0.742 -2.677,0.119 -4.911,-1.911 -5.026,-4.495 -0.115,-2.584 1.93,-4.805 4.607,-4.924 0.884,-0.04 1.719,0.156 2.446,0.527 z"
       fill="#a0e2ff"
       stroke="#000000"
       stroke-width="1.91919"
       stroke-linejoin="round"
       id="path24" />
    <path
       d="m 628.18682,515.20107 c 0.021,0.008 0.042,0.014 0.064,0.02 l 7.128,2.27 -5.847,4.666 c -0.018,0.013 -0.035,0.027 -0.052,0.041 -0.546,0.459 -1.217,0.79 -1.977,0.93 -2.303,0.425 -4.477,-1.063 -4.886,-3.28 -0.41,-2.217 1.089,-4.383 3.391,-4.809 0.76,-0.14 1.506,-0.072 2.179,0.162 z"
       fill="#a0e2ff"
       stroke="#000000"
       stroke-width="1.91919"
       stroke-linejoin="round"
       id="path25" />
    <path
       d="m 645.43782,584.66707 c 0.736,-0.974 2.621,-3.832 4.273,-7.478"
       stroke="#000000"
       stroke-width="1.91919"
       stroke-linecap="round"
       stroke-linejoin="round"
       id="path26" />
    <path
       d="m 614.21182,564.71507 c 6.371,2.998 22.529,8.094 36.2,4.497"
       stroke="#000000"
       stroke-width="1.91919"
       stroke-linecap="round"
       stroke-linejoin="round"
       id="path27" />
    <path
       d="m 605.63882,590.29607 8.445,20.555"
       stroke="#000000"
       stroke-width="1.91919"
       id="path28" />
    <path
       d="m 689.51382,571.91207 c -3.171,7.596 -4.468,11.377 -6.103,17.438"
       stroke="#000000"
       stroke-width="1.91919"
       id="path29" />
    <g
       style="mix-blend-mode:multiply"
       id="g30"
       transform="translate(465.84482,402.02607)">
      <path
         fill-rule="evenodd"
         clip-rule="evenodd"
         d="m 150.23,163.125 h -2.986 l -10.343,20.474 11.676,27.101 c 13.852,-9.631 22.743,-17.376 30.678,-26.273 8.821,4.113 18.255,6.111 37.552,7.979 l 8.89,-25.93 c -14.601,-4.145 -20.683,-4.862 -25.759,-5.084 -4.916,3.592 -14.858,6.047 -26.323,6.047 -9.509,0 -17.97,-1.689 -23.385,-4.314 z"
         fill="#2171d0"
         id="path30" />
    </g>
    <g
       style="mix-blend-mode:multiply"
       id="g31"
       transform="translate(465.84482,402.02607)">
      <path
         fill-rule="evenodd"
         clip-rule="evenodd"
         d="m 197.373,138.724 c 7.962,0 15.04,-3.181 19.36,-9.445 1.498,0.867 2.939,1.437 4.542,1.437 -0.145,0.53 -0.31,1.028 -0.468,1.503 -0.767,2.312 -1.351,4.072 1.512,6.395 -2.131,5.936 -9.902,12.095 -18.007,18.519 -2.531,2.006 -5.094,4.037 -7.528,6.096 -5.423,2.566 -13.786,4.211 -23.169,4.211 -9.508,0 -17.969,-1.689 -23.385,-4.315 h -2.986 l -1.205,2.386 c 1.397,-8.473 5.447,-17.622 12.015,-25.907 5.139,-6.482 11.145,-11.583 17.314,-15.074 2.945,10.246 11.49,14.194 22.005,14.194 z"
         fill="#cd6969"
         id="path31" />
    </g>
    <path
       fill-rule="evenodd"
       clip-rule="evenodd"
       d="m 699.10982,530.66007 c -0.025,-0.041 -0.049,-0.081 -0.074,-0.121 -2.353,-3.829 -3.337,-7.34 -1.821,-8.272 2.62,-1.353 4.113,1.099 6.201,4.527 v 0 l 10e-4,0.002 c 0.136,0.223 0.274,0.45 0.415,0.68 0.132,-0.024 0.265,-0.044 0.397,-0.06 -0.757,-3.201 -1.265,-5.539 1.319,-5.993 1.683,-0.295 3.735,3.407 4.622,7.975 0.489,0.445 0.93,0.955 1.31,1.522 1.74,-1.637 3.338,-2.451 4.48,-1.519 1.68,1.371 0.692,5.328 -1.959,8.576 -1.967,2.409 -3.96,4.718 -5.544,5.188 l 0.004,0.007 -34.597,10.764 v -13.455 l 23.625,-2.672 c -0.1,-0.11 -0.202,-0.223 -0.304,-0.339 -2.544,-3.128 -4.766,-6.472 -3.513,-7.955 1.656,-1.961 3.475,-0.744 5.345,1.295 0.03,-0.051 0.062,-0.101 0.093,-0.15 z"
       fill="#f4ffc7"
       id="path33" />
    <path
       d="m 233.191,128.513 1.635,-1.005 v 0 z m 0.074,0.121 1.615,1.038 c 0.4,-0.623 0.407,-1.421 0.016,-2.051 z m -1.895,-8.393 -0.881,-1.705 c -0.042,0.022 -0.083,0.045 -0.124,0.07 z m 6.201,4.527 1.64,-0.997 -0.001,-0.002 z m 0,0 -1.639,0.998 v 10e-4 z m 0.001,0.002 1.64,-0.998 v 0 z m 0.415,0.68 -1.636,1.003 c 0.413,0.674 1.198,1.025 1.976,0.886 z m 0.397,-0.06 0.231,1.905 c 0.542,-0.065 1.031,-0.359 1.344,-0.807 0.312,-0.448 0.419,-1.008 0.293,-1.54 z m 1.319,-5.993 0.332,1.891 z m 4.622,7.975 -1.884,0.366 c 0.079,0.406 0.287,0.775 0.592,1.054 z m 1.31,1.522 -1.593,1.069 c 0.314,0.468 0.818,0.775 1.378,0.838 0.56,0.063 1.12,-0.123 1.531,-0.509 z m 4.48,-1.519 -1.214,1.487 v 0 z m -1.959,8.576 1.486,1.213 v 0 z m -5.544,5.188 -0.546,-1.84 c -0.564,0.168 -1.019,0.584 -1.237,1.13 -0.217,0.545 -0.173,1.161 0.121,1.67 z m 0.004,0.007 0.57,1.832 c 0.557,-0.173 1.005,-0.59 1.218,-1.133 0.212,-0.543 0.166,-1.153 -0.126,-1.659 z m -34.597,10.764 h -1.92 c 0,0.61 0.29,1.184 0.782,1.545 0.491,0.362 1.125,0.468 1.708,0.287 z m 0,-13.455 -0.216,-1.907 c -0.97,0.11 -1.704,0.93 -1.704,1.907 z m 23.625,-2.672 0.216,1.907 c 0.716,-0.081 1.327,-0.558 1.581,-1.233 0.253,-0.675 0.107,-1.436 -0.38,-1.968 z m -0.304,-0.339 -1.488,1.211 c 0.015,0.019 0.031,0.038 0.047,0.056 z m -3.513,-7.955 -1.466,-1.238 z m 5.345,1.295 -1.415,1.297 c 0.408,0.444 1,0.671 1.6,0.613 0.6,-0.059 1.138,-0.396 1.452,-0.91 z m -1.616,0.733 c 0.026,0.043 0.052,0.086 0.079,0.129 l 3.261,-2.025 c -0.023,-0.037 -0.047,-0.075 -0.07,-0.113 z m -1.191,-10.911 c -0.983,0.605 -1.429,1.574 -1.575,2.476 -0.141,0.865 -0.033,1.787 0.173,2.653 0.415,1.745 1.359,3.775 2.593,5.782 l 3.27,-2.009 c -1.119,-1.821 -1.844,-3.461 -2.129,-4.662 -0.145,-0.607 -0.146,-0.977 -0.118,-1.151 0.022,-0.138 0.022,0.043 -0.204,0.181 z m 8.845,5.163 c -0.984,-1.615 -2.035,-3.377 -3.251,-4.479 -0.651,-0.591 -1.47,-1.112 -2.483,-1.286 -1.037,-0.178 -2.045,0.045 -2.987,0.532 l 1.762,3.41 c 0.368,-0.19 0.529,-0.167 0.574,-0.159 0.069,0.012 0.245,0.064 0.556,0.346 0.708,0.642 1.447,1.821 2.551,3.633 z m 0.001,0.002 v 0 l -3.28,1.994 10e-4,0.001 z m 10e-4,0.001 -0.002,-0.002 -3.278,1.997 0.001,0.002 z m 0.411,0.674 c -0.139,-0.227 -0.276,-0.451 -0.411,-0.674 l -3.279,1.997 c 0.136,0.222 0.275,0.451 0.418,0.684 z m -1.469,-0.961 c -0.169,0.02 -0.338,0.045 -0.506,0.076 l 0.679,3.778 c 0.096,-0.018 0.192,-0.032 0.288,-0.044 z m 1.217,-5.978 c -0.93,0.164 -1.819,0.541 -2.488,1.274 -0.668,0.732 -0.926,1.608 -1.002,2.396 -0.14,1.431 0.285,3.172 0.636,4.655 l 3.735,-0.884 c -0.407,-1.719 -0.615,-2.747 -0.551,-3.399 0.025,-0.252 0.077,-0.246 0.017,-0.18 -0.062,0.067 -0.045,-0.018 0.317,-0.081 z m 6.838,9.499 c -0.473,-2.436 -1.268,-4.713 -2.23,-6.397 -0.477,-0.834 -1.049,-1.619 -1.725,-2.194 -0.66,-0.562 -1.668,-1.121 -2.883,-0.908 l 0.664,3.781 c -0.373,0.065 -0.494,-0.142 -0.268,0.05 0.21,0.179 0.522,0.549 0.879,1.175 0.706,1.235 1.381,3.093 1.795,5.225 z m 1.02,0.819 c -0.466,-0.696 -1.009,-1.323 -1.612,-1.872 l -2.584,2.839 c 0.374,0.34 0.714,0.732 1.009,1.171 z m 4.099,-1.936 c -1.26,-1.029 -2.728,-0.965 -3.916,-0.509 -1.109,0.425 -2.16,1.24 -3.092,2.116 l 2.631,2.796 c 0.807,-0.761 1.425,-1.171 1.836,-1.329 0.187,-0.072 0.252,-0.059 0.226,-0.062 -0.016,-0.001 -0.042,-0.006 -0.071,-0.018 -0.03,-0.012 -0.044,-0.023 -0.041,-0.021 z m -1.686,11.275 c 1.476,-1.808 2.539,-3.867 2.985,-5.765 0.41,-1.743 0.439,-4.092 -1.299,-5.51 l -2.427,2.973 c -0.058,-0.047 0.317,0.268 -0.01,1.658 -0.29,1.235 -1.047,2.778 -2.222,4.217 z m -6.483,5.815 c 1.288,-0.383 2.474,-1.39 3.435,-2.346 1.02,-1.015 2.066,-2.265 3.048,-3.469 l -2.973,-2.427 c -0.984,1.205 -1.918,2.315 -2.782,3.174 -0.923,0.918 -1.526,1.301 -1.821,1.388 z m -2.209,-0.88 0.004,0.006 3.324,-1.919 -0.004,-0.006 z m 1.096,-2.786 -34.598,10.764 1.141,3.665 34.597,-10.764 z m -32.108,12.597 v -13.455 h -3.839 v 13.455 z m -1.704,-11.548 23.626,-2.672 -0.432,-3.814 -23.625,2.672 z m 21.665,-3.651 c 0.11,0.125 0.219,0.247 0.328,0.366 l 2.834,-2.588 c -0.092,-0.101 -0.185,-0.205 -0.279,-0.313 z m -3.538,-10.46 c -0.769,0.91 -0.89,1.999 -0.776,2.907 0.111,0.883 0.458,1.763 0.863,2.561 0.815,1.604 2.116,3.353 3.404,4.936 l 2.977,-2.422 c -1.256,-1.545 -2.339,-3.031 -2.958,-4.252 -0.312,-0.615 -0.445,-1.044 -0.477,-1.303 -0.03,-0.234 0.041,-0.119 -0.101,0.049 z m 8.225,1.235 c -0.947,-1.031 -2.147,-2.175 -3.532,-2.66 -0.754,-0.265 -1.616,-0.354 -2.508,-0.087 -0.877,0.264 -1.598,0.817 -2.185,1.512 l 2.932,2.476 c 0.121,-0.142 0.214,-0.222 0.273,-0.264 0.029,-0.021 0.051,-0.032 0.063,-0.039 0.013,-0.006 0.019,-0.008 0.02,-0.008 0.001,0 0,0 -0.002,0 -0.001,0 0,0 0.007,0 0.012,0.001 0.053,0.005 0.13,0.032 0.406,0.142 1.05,0.626 1.973,1.633 z m -2.935,0.109 c -0.04,0.062 -0.079,0.125 -0.117,0.188 l 3.275,2.001 c 0.023,-0.038 0.047,-0.075 0.071,-0.112 z"
       fill="#000000"
       mask="url(#path-27-inside-3_18_357)"
       id="path34"
       transform="translate(465.84482,402.02607)" />
    <path
       d="m 676.93882,538.17407 -19.902,3.254 3.899,18.985 17.541,-5.517 z"
       fill="#c46952"
       id="path35" />
    <path
       d="m 657.94682,540.34807 19.298,-2.112 1.659,17.414 -17.968,4.763"
       stroke="#000000"
       stroke-width="1.91919"
       id="path36" />
    <path
       d="m 607.85782,528.59707 c 2.441,0 4.026,0.439 5.829,2.092"
       stroke="#000000"
       stroke-width="1.92"
       stroke-linecap="round"
       id="path37" />
    <g
       clip-path="url(#clip0_18_357)"
       id="g43"
       transform="translate(465.84482,402.02607)">
      <rect
         x="123.3"
         y="145.85699"
         width="21.2195"
         height="28.9058"
         rx="5.0543599"
         transform="rotate(-34.5115,123.3,145.857)"
         fill="#525252"
         id="rect37" />
      <rect
         x="124.933"
         y="144.73399"
         width="19.238199"
         height="28.9058"
         rx="4.7495098"
         transform="rotate(-34.5115,124.933,144.734)"
         fill="#363636"
         id="rect38" />
      <rect
         x="123.3"
         y="145.85699"
         width="19.238199"
         height="28.9058"
         rx="4.7495098"
         transform="rotate(-34.5115,123.3,145.857)"
         fill="#525252"
         id="rect39" />
      <rect
         x="126.324"
         y="146.758"
         width="5.98559"
         height="9.7056904"
         rx="2.9928"
         transform="rotate(-34.5115,126.324,146.758)"
         fill="#2e2e2e"
         id="rect40" />
      <circle
         cx="130.539"
         cy="147.606"
         r="2.4221101"
         transform="rotate(-34.5115,130.539,147.606)"
         fill="#d9d9d9"
         id="circle40" />
      <circle
         opacity="0.2"
         cx="130.539"
         cy="147.606"
         r="1.2614"
         transform="rotate(-34.5115,130.539,147.606)"
         fill="#747474"
         id="circle41" />
      <circle
         cx="133.028"
         cy="151.22701"
         r="1.3731"
         transform="rotate(-34.5115,133.028,151.227)"
         fill="#d9d9d9"
         id="circle42" />
      <circle
         opacity="0.2"
         cx="133.028"
         cy="151.22701"
         r="0.71508998"
         transform="rotate(-34.5115,133.028,151.227)"
         fill="#747474"
         id="circle43" />
    </g>
    <rect
       x="174.08757"
       y="784.29535"
       width="23.1395"
       height="30.8258"
       rx="6.01436"
       transform="rotate(-34.5115)"
       stroke="#000000"
       stroke-width="1.92"
       id="rect43" />
    <path
       d="m 601.81482,532.85007 c 2.601,-2.028 10.169,-1.464 13.731,4.681"
       stroke="#000000"
       stroke-width="1.92"
       stroke-linecap="round"
       id="path43" />
  </g>
  <defs
     id="defs62">
    <filter
       id="filter0_dddd_18_357"
       x="5.0202398"
       y="-36.896"
       width="289.05701"
       height="234.149"
       filterUnits="userSpaceOnUse"
       color-interpolation-filters="sRGB">
      <feFlood
         flood-opacity="0"
         result="BackgroundImageFix"
         id="feFlood43" />
      <feColorMatrix
         in="SourceAlpha"
         type="matrix"
         values="0 0 0 0 0 0 0 0 0 0 0 0 0 0 0 0 0 0 127 0"
         result="hardAlpha"
         id="feColorMatrix43" />
      <feOffset
         dx="-1.16056"
         dy="1.12142"
         id="feOffset43" />
      <feGaussianBlur
         stdDeviation="1.81495"
         id="feGaussianBlur43" />
      <feColorMatrix
         type="matrix"
         values="0 0 0 0 0 0 0 0 0 0 0 0 0 0 0 0 0 0 0.04875 0"
         id="feColorMatrix44" />
      <feBlend
         mode="normal"
         in2="BackgroundImageFix"
         result="effect1_dropShadow_18_357"
         id="feBlend44" />
      <feColorMatrix
         in="SourceAlpha"
         type="matrix"
         values="0 0 0 0 0 0 0 0 0 0 0 0 0 0 0 0 0 0 127 0"
         result="hardAlpha"
         id="feColorMatrix45" />
      <feOffset
         dx="-5.30542"
         dy="5.12647"
         id="feOffset45" />
      <feGaussianBlur
         stdDeviation="5.1015"
         id="feGaussianBlur45" />
      <feColorMatrix
         type="matrix"
         values="0 0 0 0 0 0 0 0 0 0 0 0 0 0 0 0 0 0 0.075 0"
         id="feColorMatrix46" />
      <feBlend
         mode="normal"
         in2="effect1_dropShadow_18_357"
         result="effect2_dropShadow_18_357"
         id="feBlend46" />
      <feColorMatrix
         in="SourceAlpha"
         type="matrix"
         values="0 0 0 0 0 0 0 0 0 0 0 0 0 0 0 0 0 0 127 0"
         result="hardAlpha"
         id="feColorMatrix47" />
      <feOffset
         dx="-13.4293"
         dy="12.9764"
         id="feOffset47" />
      <feGaussianBlur
         stdDeviation="13.6857"
         id="feGaussianBlur47" />
      <feColorMatrix
         type="matrix"
         values="0 0 0 0 0 0 0 0 0 0 0 0 0 0 0 0 0 0 0.10125 0"
         id="feColorMatrix48" />
      <feBlend
         mode="normal"
         in2="effect2_dropShadow_18_357"
         result="effect3_dropShadow_18_357"
         id="feBlend48" />
      <feColorMatrix
         in="SourceAlpha"
         type="matrix"
         values="0 0 0 0 0 0 0 0 0 0 0 0 0 0 0 0 0 0 127 0"
         result="hardAlpha"
         id="feColorMatrix49" />
      <feOffset
         dx="-26.5271"
         dy="25.6324"
         id="feOffset49" />
      <feGaussianBlur
         stdDeviation="31.3938"
         id="feGaussianBlur49" />
      <feColorMatrix
         type="matrix"
         values="0 0 0 0 0 0 0 0 0 0 0 0 0 0 0 0 0 0 0.15 0"
         id="feColorMatrix50" />
      <feBlend
         mode="normal"
         in2="effect3_dropShadow_18_357"
         result="effect4_dropShadow_18_357"
         id="feBlend50" />
      <feBlend
         mode="normal"
         in="SourceGraphic"
         in2="effect4_dropShadow_18_357"
         result="shape"
         id="feBlend51" />
    </filter>
    <filter
       id="filter1_dddd_18_357"
       x="5.42978"
       y="36.729"
       width="301.564"
       height="266.03601"
       filterUnits="userSpaceOnUse"
       color-interpolation-filters="sRGB">
      <feFlood
         flood-opacity="0"
         result="BackgroundImageFix"
         id="feFlood51" />
      <feColorMatrix
         in="SourceAlpha"
         type="matrix"
         values="0 0 0 0 0 0 0 0 0 0 0 0 0 0 0 0 0 0 127 0"
         result="hardAlpha"
         id="feColorMatrix51" />
      <feOffset
         dx="-1.20985"
         dy="1.16905"
         id="feOffset51" />
      <feGaussianBlur
         stdDeviation="1.89204"
         id="feGaussianBlur51" />
      <feColorMatrix
         type="matrix"
         values="0 0 0 0 0 0 0 0 0 0 0 0 0 0 0 0 0 0 0.04875 0"
         id="feColorMatrix52" />
      <feBlend
         mode="normal"
         in2="BackgroundImageFix"
         result="effect1_dropShadow_18_357"
         id="feBlend52" />
      <feColorMatrix
         in="SourceAlpha"
         type="matrix"
         values="0 0 0 0 0 0 0 0 0 0 0 0 0 0 0 0 0 0 127 0"
         result="hardAlpha"
         id="feColorMatrix53" />
      <feOffset
         dx="-5.53076"
         dy="5.34422"
         id="feOffset53" />
      <feGaussianBlur
         stdDeviation="5.31818"
         id="feGaussianBlur53" />
      <feColorMatrix
         type="matrix"
         values="0 0 0 0 0 0 0 0 0 0 0 0 0 0 0 0 0 0 0.075 0"
         id="feColorMatrix54" />
      <feBlend
         mode="normal"
         in2="effect1_dropShadow_18_357"
         result="effect2_dropShadow_18_357"
         id="feBlend54" />
      <feColorMatrix
         in="SourceAlpha"
         type="matrix"
         values="0 0 0 0 0 0 0 0 0 0 0 0 0 0 0 0 0 0 127 0"
         result="hardAlpha"
         id="feColorMatrix55" />
      <feOffset
         dx="-13.9997"
         dy="13.5275"
         id="feOffset55" />
      <feGaussianBlur
         stdDeviation="14.267"
         id="feGaussianBlur55" />
      <feColorMatrix
         type="matrix"
         values="0 0 0 0 0 0 0 0 0 0 0 0 0 0 0 0 0 0 0.10125 0"
         id="feColorMatrix56" />
      <feBlend
         mode="normal"
         in2="effect2_dropShadow_18_357"
         result="effect3_dropShadow_18_357"
         id="feBlend56" />
      <feColorMatrix
         in="SourceAlpha"
         type="matrix"
         values="0 0 0 0 0 0 0 0 0 0 0 0 0 0 0 0 0 0 127 0"
         result="hardAlpha"
         id="feColorMatrix57" />
      <feOffset
         dx="-27.6538"
         dy="26.7211"
         id="feOffset57" />
      <feGaussianBlur
         stdDeviation="32.7272"
         id="feGaussianBlur57" />
      <feColorMatrix
         type="matrix"
         values="0 0 0 0 0 0 0 0 0 0 0 0 0 0 0 0 0 0 0.15 0"
         id="feColorMatrix58" />
      <feBlend
         mode="normal"
         in2="effect3_dropShadow_18_357"
         result="effect4_dropShadow_18_357"
         id="feBlend58" />
      <feBlend
         mode="normal"
         in="SourceGraphic"
         in2="effect4_dropShadow_18_357"
         result="shape"
         id="feBlend59" />
    </filter>
    <linearGradient
       id="paint0_linear_18_357"
       x1="9.7905302"
       y1="25.6919"
       x2="113.587"
       y2="107.733"
       gradientUnits="userSpaceOnUse"
       gradientTransform="translate(465.84482,402.02607)">
      <stop
         stop-color="#5A9FD4"
         id="stop59" />
      <stop
         offset="1"
         stop-color="#306998"
         id="stop60" />
    </linearGradient>
    <linearGradient
       id="paint1_linear_18_357"
       x1="120.296"
       y1="191.877"
       x2="81.6716"
       y2="141.674"
       gradientUnits="userSpaceOnUse"
       gradientTransform="translate(465.84482,402.02607)">
      <stop
         stop-color="#FFD43B"
         id="stop61" />
      <stop
         offset="1"
         stop-color="#FFE873"
         id="stop62" />
    </linearGradient>
    <clipPath
       id="clip0_18_357">
      <rect
         x="123.3"
         y="145.85699"
         width="21.2195"
         height="28.9058"
         rx="5.0543599"
         transform="rotate(-34.5115,123.3,145.857)"
         fill="#ffffff"
         id="rect62" />
    </clipPath>
  </defs>
</svg>
